<?xml version="1.0" standalone="no"?>
 <!DOCTYPE svg PUBLIC "-//W3C//DTD SVG 1.1//EN" 
 "http://www.w3.org/Graphics/SVG/1.1/DTD/svg11.dtd"> 
<svg
  xmlns:svg="http://www.w3.org/2000/svg"
  xmlns="http://www.w3.org/2000/svg"
  xmlns:xlink="http://www.w3.org/1999/xlink"
  version="1.1"
  width="297.0022mm" height="210.0072mm" viewBox="0.0000 0.0000 297.0022 210.0072">
<title>SVG Image created as amulet_controller-F_Courtyard.svg date 2025/01/18 17:12:59 </title>
  <desc>Image generated by PCBNEW </desc>
<g style="fill:#000000; fill-opacity:1.0000;stroke:#000000; stroke-opacity:1.0000;
stroke-linecap:round; stroke-linejoin:round;"
 transform="translate(0 0) scale(1 1)">
</g>
<g style="fill:none; 
stroke:#000000; stroke-width:0.1500; stroke-opacity:1; 
stroke-linecap:round; stroke-linejoin:round;">
<path d="M10.0000 10.0000
L287.0022 10.0000
L287.0022 200.0072
L10.0000 200.0072
L10.0000 10.0000
" />
</g>
<g style="fill:none; 
stroke:#000000; stroke-width:0.1500; stroke-opacity:1; 
stroke-linecap:round; stroke-linejoin:round;">
<path d="M12.0000 12.0000
L285.0022 12.0000
L285.0022 198.0072
L12.0000 198.0072
L12.0000 12.0000
" />
</g>
<g style="fill:none; 
stroke:#000000; stroke-width:0.1500; stroke-opacity:1; 
stroke-linecap:round; stroke-linejoin:round;">
<path d="M60.0000 12.0000
L60.0000 10.0000
" />
</g>
<g style="fill:none; 
stroke:#000000; stroke-width:0.1500; stroke-opacity:1; 
stroke-linecap:round; stroke-linejoin:round;">
<path d="M110.0000 12.0000
L110.0000 10.0000
" />
</g>
<g style="fill:none; 
stroke:#000000; stroke-width:0.1500; stroke-opacity:1; 
stroke-linecap:round; stroke-linejoin:round;">
<path d="M160.0000 12.0000
L160.0000 10.0000
" />
</g>
<g style="fill:none; 
stroke:#000000; stroke-width:0.1500; stroke-opacity:1; 
stroke-linecap:round; stroke-linejoin:round;">
<path d="M210.0000 12.0000
L210.0000 10.0000
" />
</g>
<g style="fill:none; 
stroke:#000000; stroke-width:0.1500; stroke-opacity:1; 
stroke-linecap:round; stroke-linejoin:round;">
<path d="M260.0000 12.0000
L260.0000 10.0000
" />
</g>
<g style="fill:none; 
stroke:#000000; stroke-width:0.1500; stroke-opacity:1; 
stroke-linecap:round; stroke-linejoin:round;">
<text x="35.0000" y="11.6500"
textLength="1.4281" font-size="1.7333" lengthAdjust="spacingAndGlyphs"
text-anchor="start" opacity="0" stroke-opacity="0">1</text>
<g class="stroked-text"><desc>1</desc>
<path d="M36.0892 11.5936
L35.3463 11.5936
" />
<path d="M35.7177 11.5936
L35.7177 10.2936
" />
<path d="M35.7177 10.2936
L35.5939 10.4793
" />
<path d="M35.5939 10.4793
L35.4701 10.6031
" />
<path d="M35.4701 10.6031
L35.3463 10.6650
" />
</g></g>
<g style="fill:none; 
stroke:#000000; stroke-width:0.1500; stroke-opacity:1; 
stroke-linecap:round; stroke-linejoin:round;">
<text x="85.0000" y="11.6500"
textLength="1.4281" font-size="1.7333" lengthAdjust="spacingAndGlyphs"
text-anchor="start" opacity="0" stroke-opacity="0">2</text>
<g class="stroked-text"><desc>2</desc>
<path d="M85.3463 10.4174
L85.4082 10.3555
" />
<path d="M85.4082 10.3555
L85.5320 10.2936
" />
<path d="M85.5320 10.2936
L85.8415 10.2936
" />
<path d="M85.8415 10.2936
L85.9654 10.3555
" />
<path d="M85.9654 10.3555
L86.0273 10.4174
" />
<path d="M86.0273 10.4174
L86.0892 10.5412
" />
<path d="M86.0892 10.5412
L86.0892 10.6650
" />
<path d="M86.0892 10.6650
L86.0273 10.8507
" />
<path d="M86.0273 10.8507
L85.2844 11.5936
" />
<path d="M85.2844 11.5936
L86.0892 11.5936
" />
</g></g>
<g style="fill:none; 
stroke:#000000; stroke-width:0.1500; stroke-opacity:1; 
stroke-linecap:round; stroke-linejoin:round;">
<text x="135.0000" y="11.6500"
textLength="1.4281" font-size="1.7333" lengthAdjust="spacingAndGlyphs"
text-anchor="start" opacity="0" stroke-opacity="0">3</text>
<g class="stroked-text"><desc>3</desc>
<path d="M135.2844 10.2936
L136.0892 10.2936
" />
<path d="M136.0892 10.2936
L135.6558 10.7888
" />
<path d="M135.6558 10.7888
L135.8415 10.7888
" />
<path d="M135.8415 10.7888
L135.9654 10.8507
" />
<path d="M135.9654 10.8507
L136.0273 10.9127
" />
<path d="M136.0273 10.9127
L136.0892 11.0365
" />
<path d="M136.0892 11.0365
L136.0892 11.3460
" />
<path d="M136.0892 11.3460
L136.0273 11.4698
" />
<path d="M136.0273 11.4698
L135.9654 11.5317
" />
<path d="M135.9654 11.5317
L135.8415 11.5936
" />
<path d="M135.8415 11.5936
L135.4701 11.5936
" />
<path d="M135.4701 11.5936
L135.3463 11.5317
" />
<path d="M135.3463 11.5317
L135.2844 11.4698
" />
</g></g>
<g style="fill:none; 
stroke:#000000; stroke-width:0.1500; stroke-opacity:1; 
stroke-linecap:round; stroke-linejoin:round;">
<text x="185.0000" y="11.6500"
textLength="1.4281" font-size="1.7333" lengthAdjust="spacingAndGlyphs"
text-anchor="start" opacity="0" stroke-opacity="0">4</text>
<g class="stroked-text"><desc>4</desc>
<path d="M185.9654 10.7269
L185.9654 11.5936
" />
<path d="M185.6558 10.2317
L185.3463 11.1603
" />
<path d="M185.3463 11.1603
L186.1511 11.1603
" />
</g></g>
<g style="fill:none; 
stroke:#000000; stroke-width:0.1500; stroke-opacity:1; 
stroke-linecap:round; stroke-linejoin:round;">
<text x="235.0000" y="11.6500"
textLength="1.4281" font-size="1.7333" lengthAdjust="spacingAndGlyphs"
text-anchor="start" opacity="0" stroke-opacity="0">5</text>
<g class="stroked-text"><desc>5</desc>
<path d="M236.0273 10.2936
L235.4082 10.2936
" />
<path d="M235.4082 10.2936
L235.3463 10.9127
" />
<path d="M235.3463 10.9127
L235.4082 10.8507
" />
<path d="M235.4082 10.8507
L235.5320 10.7888
" />
<path d="M235.5320 10.7888
L235.8415 10.7888
" />
<path d="M235.8415 10.7888
L235.9654 10.8507
" />
<path d="M235.9654 10.8507
L236.0273 10.9127
" />
<path d="M236.0273 10.9127
L236.0892 11.0365
" />
<path d="M236.0892 11.0365
L236.0892 11.3460
" />
<path d="M236.0892 11.3460
L236.0273 11.4698
" />
<path d="M236.0273 11.4698
L235.9654 11.5317
" />
<path d="M235.9654 11.5317
L235.8415 11.5936
" />
<path d="M235.8415 11.5936
L235.5320 11.5936
" />
<path d="M235.5320 11.5936
L235.4082 11.5317
" />
<path d="M235.4082 11.5317
L235.3463 11.4698
" />
</g></g>
<g style="fill:none; 
stroke:#000000; stroke-width:0.1500; stroke-opacity:1; 
stroke-linecap:round; stroke-linejoin:round;">
<text x="285.0000" y="11.6500"
textLength="1.4281" font-size="1.7333" lengthAdjust="spacingAndGlyphs"
text-anchor="start" opacity="0" stroke-opacity="0">6</text>
<g class="stroked-text"><desc>6</desc>
<path d="M285.9654 10.2936
L285.7177 10.2936
" />
<path d="M285.7177 10.2936
L285.5939 10.3555
" />
<path d="M285.5939 10.3555
L285.5320 10.4174
" />
<path d="M285.5320 10.4174
L285.4082 10.6031
" />
<path d="M285.4082 10.6031
L285.3463 10.8507
" />
<path d="M285.3463 10.8507
L285.3463 11.3460
" />
<path d="M285.3463 11.3460
L285.4082 11.4698
" />
<path d="M285.4082 11.4698
L285.4701 11.5317
" />
<path d="M285.4701 11.5317
L285.5939 11.5936
" />
<path d="M285.5939 11.5936
L285.8415 11.5936
" />
<path d="M285.8415 11.5936
L285.9654 11.5317
" />
<path d="M285.9654 11.5317
L286.0273 11.4698
" />
<path d="M286.0273 11.4698
L286.0892 11.3460
" />
<path d="M286.0892 11.3460
L286.0892 11.0365
" />
<path d="M286.0892 11.0365
L286.0273 10.9127
" />
<path d="M286.0273 10.9127
L285.9654 10.8507
" />
<path d="M285.9654 10.8507
L285.8415 10.7888
" />
<path d="M285.8415 10.7888
L285.5939 10.7888
" />
<path d="M285.5939 10.7888
L285.4701 10.8507
" />
<path d="M285.4701 10.8507
L285.4082 10.9127
" />
<path d="M285.4082 10.9127
L285.3463 11.0365
" />
</g></g>
<g style="fill:none; 
stroke:#000000; stroke-width:0.1500; stroke-opacity:1; 
stroke-linecap:round; stroke-linejoin:round;">
<path d="M60.0000 198.0072
L60.0000 200.0072
" />
</g>
<g style="fill:none; 
stroke:#000000; stroke-width:0.1500; stroke-opacity:1; 
stroke-linecap:round; stroke-linejoin:round;">
<path d="M110.0000 198.0072
L110.0000 200.0072
" />
</g>
<g style="fill:none; 
stroke:#000000; stroke-width:0.1500; stroke-opacity:1; 
stroke-linecap:round; stroke-linejoin:round;">
<path d="M160.0000 198.0072
L160.0000 200.0072
" />
</g>
<g style="fill:none; 
stroke:#000000; stroke-width:0.1500; stroke-opacity:1; 
stroke-linecap:round; stroke-linejoin:round;">
<path d="M210.0000 198.0072
L210.0000 200.0072
" />
</g>
<g style="fill:none; 
stroke:#000000; stroke-width:0.1500; stroke-opacity:1; 
stroke-linecap:round; stroke-linejoin:round;">
<path d="M260.0000 198.0072
L260.0000 200.0072
" />
</g>
<g style="fill:none; 
stroke:#000000; stroke-width:0.1500; stroke-opacity:1; 
stroke-linecap:round; stroke-linejoin:round;">
<text x="35.0000" y="199.6572"
textLength="1.4281" font-size="1.7333" lengthAdjust="spacingAndGlyphs"
text-anchor="start" opacity="0" stroke-opacity="0">1</text>
<g class="stroked-text"><desc>1</desc>
<path d="M36.0892 199.6008
L35.3463 199.6008
" />
<path d="M35.7177 199.6008
L35.7177 198.3008
" />
<path d="M35.7177 198.3008
L35.5939 198.4865
" />
<path d="M35.5939 198.4865
L35.4701 198.6103
" />
<path d="M35.4701 198.6103
L35.3463 198.6722
" />
</g></g>
<g style="fill:none; 
stroke:#000000; stroke-width:0.1500; stroke-opacity:1; 
stroke-linecap:round; stroke-linejoin:round;">
<text x="85.0000" y="199.6572"
textLength="1.4281" font-size="1.7333" lengthAdjust="spacingAndGlyphs"
text-anchor="start" opacity="0" stroke-opacity="0">2</text>
<g class="stroked-text"><desc>2</desc>
<path d="M85.3463 198.4246
L85.4082 198.3627
" />
<path d="M85.4082 198.3627
L85.5320 198.3008
" />
<path d="M85.5320 198.3008
L85.8415 198.3008
" />
<path d="M85.8415 198.3008
L85.9654 198.3627
" />
<path d="M85.9654 198.3627
L86.0273 198.4246
" />
<path d="M86.0273 198.4246
L86.0892 198.5484
" />
<path d="M86.0892 198.5484
L86.0892 198.6722
" />
<path d="M86.0892 198.6722
L86.0273 198.8579
" />
<path d="M86.0273 198.8579
L85.2844 199.6008
" />
<path d="M85.2844 199.6008
L86.0892 199.6008
" />
</g></g>
<g style="fill:none; 
stroke:#000000; stroke-width:0.1500; stroke-opacity:1; 
stroke-linecap:round; stroke-linejoin:round;">
<text x="135.0000" y="199.6572"
textLength="1.4281" font-size="1.7333" lengthAdjust="spacingAndGlyphs"
text-anchor="start" opacity="0" stroke-opacity="0">3</text>
<g class="stroked-text"><desc>3</desc>
<path d="M135.2844 198.3008
L136.0892 198.3008
" />
<path d="M136.0892 198.3008
L135.6558 198.7960
" />
<path d="M135.6558 198.7960
L135.8415 198.7960
" />
<path d="M135.8415 198.7960
L135.9654 198.8579
" />
<path d="M135.9654 198.8579
L136.0273 198.9199
" />
<path d="M136.0273 198.9199
L136.0892 199.0437
" />
<path d="M136.0892 199.0437
L136.0892 199.3532
" />
<path d="M136.0892 199.3532
L136.0273 199.4770
" />
<path d="M136.0273 199.4770
L135.9654 199.5389
" />
<path d="M135.9654 199.5389
L135.8415 199.6008
" />
<path d="M135.8415 199.6008
L135.4701 199.6008
" />
<path d="M135.4701 199.6008
L135.3463 199.5389
" />
<path d="M135.3463 199.5389
L135.2844 199.4770
" />
</g></g>
<g style="fill:none; 
stroke:#000000; stroke-width:0.1500; stroke-opacity:1; 
stroke-linecap:round; stroke-linejoin:round;">
<text x="185.0000" y="199.6572"
textLength="1.4281" font-size="1.7333" lengthAdjust="spacingAndGlyphs"
text-anchor="start" opacity="0" stroke-opacity="0">4</text>
<g class="stroked-text"><desc>4</desc>
<path d="M185.9654 198.7341
L185.9654 199.6008
" />
<path d="M185.6558 198.2389
L185.3463 199.1675
" />
<path d="M185.3463 199.1675
L186.1511 199.1675
" />
</g></g>
<g style="fill:none; 
stroke:#000000; stroke-width:0.1500; stroke-opacity:1; 
stroke-linecap:round; stroke-linejoin:round;">
<text x="235.0000" y="199.6572"
textLength="1.4281" font-size="1.7333" lengthAdjust="spacingAndGlyphs"
text-anchor="start" opacity="0" stroke-opacity="0">5</text>
<g class="stroked-text"><desc>5</desc>
<path d="M236.0273 198.3008
L235.4082 198.3008
" />
<path d="M235.4082 198.3008
L235.3463 198.9199
" />
<path d="M235.3463 198.9199
L235.4082 198.8579
" />
<path d="M235.4082 198.8579
L235.5320 198.7960
" />
<path d="M235.5320 198.7960
L235.8415 198.7960
" />
<path d="M235.8415 198.7960
L235.9654 198.8579
" />
<path d="M235.9654 198.8579
L236.0273 198.9199
" />
<path d="M236.0273 198.9199
L236.0892 199.0437
" />
<path d="M236.0892 199.0437
L236.0892 199.3532
" />
<path d="M236.0892 199.3532
L236.0273 199.4770
" />
<path d="M236.0273 199.4770
L235.9654 199.5389
" />
<path d="M235.9654 199.5389
L235.8415 199.6008
" />
<path d="M235.8415 199.6008
L235.5320 199.6008
" />
<path d="M235.5320 199.6008
L235.4082 199.5389
" />
<path d="M235.4082 199.5389
L235.3463 199.4770
" />
</g></g>
<g style="fill:none; 
stroke:#000000; stroke-width:0.1500; stroke-opacity:1; 
stroke-linecap:round; stroke-linejoin:round;">
<text x="285.0000" y="199.6572"
textLength="1.4281" font-size="1.7333" lengthAdjust="spacingAndGlyphs"
text-anchor="start" opacity="0" stroke-opacity="0">6</text>
<g class="stroked-text"><desc>6</desc>
<path d="M285.9654 198.3008
L285.7177 198.3008
" />
<path d="M285.7177 198.3008
L285.5939 198.3627
" />
<path d="M285.5939 198.3627
L285.5320 198.4246
" />
<path d="M285.5320 198.4246
L285.4082 198.6103
" />
<path d="M285.4082 198.6103
L285.3463 198.8579
" />
<path d="M285.3463 198.8579
L285.3463 199.3532
" />
<path d="M285.3463 199.3532
L285.4082 199.4770
" />
<path d="M285.4082 199.4770
L285.4701 199.5389
" />
<path d="M285.4701 199.5389
L285.5939 199.6008
" />
<path d="M285.5939 199.6008
L285.8415 199.6008
" />
<path d="M285.8415 199.6008
L285.9654 199.5389
" />
<path d="M285.9654 199.5389
L286.0273 199.4770
" />
<path d="M286.0273 199.4770
L286.0892 199.3532
" />
<path d="M286.0892 199.3532
L286.0892 199.0437
" />
<path d="M286.0892 199.0437
L286.0273 198.9199
" />
<path d="M286.0273 198.9199
L285.9654 198.8579
" />
<path d="M285.9654 198.8579
L285.8415 198.7960
" />
<path d="M285.8415 198.7960
L285.5939 198.7960
" />
<path d="M285.5939 198.7960
L285.4701 198.8579
" />
<path d="M285.4701 198.8579
L285.4082 198.9199
" />
<path d="M285.4082 198.9199
L285.3463 199.0437
" />
</g></g>
<g style="fill:none; 
stroke:#000000; stroke-width:0.1500; stroke-opacity:1; 
stroke-linecap:round; stroke-linejoin:round;">
<path d="M10.0000 60.0000
L12.0000 60.0000
" />
</g>
<g style="fill:none; 
stroke:#000000; stroke-width:0.1500; stroke-opacity:1; 
stroke-linecap:round; stroke-linejoin:round;">
<path d="M10.0000 110.0000
L12.0000 110.0000
" />
</g>
<g style="fill:none; 
stroke:#000000; stroke-width:0.1500; stroke-opacity:1; 
stroke-linecap:round; stroke-linejoin:round;">
<path d="M10.0000 160.0000
L12.0000 160.0000
" />
</g>
<g style="fill:none; 
stroke:#000000; stroke-width:0.1500; stroke-opacity:1; 
stroke-linecap:round; stroke-linejoin:round;">
<text x="11.0000" y="35.6500"
textLength="1.3043" font-size="1.7333" lengthAdjust="spacingAndGlyphs"
text-anchor="middle" opacity="0" stroke-opacity="0">A</text>
<g class="stroked-text"><desc>A</desc>
<path d="M10.6905 35.2222
L11.3095 35.2222
" />
<path d="M10.5667 35.5936
L11.0000 34.2936
" />
<path d="M11.0000 34.2936
L11.4333 35.5936
" />
</g></g>
<g style="fill:none; 
stroke:#000000; stroke-width:0.1500; stroke-opacity:1; 
stroke-linecap:round; stroke-linejoin:round;">
<text x="11.0000" y="85.6500"
textLength="1.4900" font-size="1.7333" lengthAdjust="spacingAndGlyphs"
text-anchor="middle" opacity="0" stroke-opacity="0">B</text>
<g class="stroked-text"><desc>B</desc>
<path d="M11.0929 84.9127
L11.2786 84.9746
" />
<path d="M11.2786 84.9746
L11.3405 85.0365
" />
<path d="M11.3405 85.0365
L11.4024 85.1603
" />
<path d="M11.4024 85.1603
L11.4024 85.3460
" />
<path d="M11.4024 85.3460
L11.3405 85.4698
" />
<path d="M11.3405 85.4698
L11.2786 85.5317
" />
<path d="M11.2786 85.5317
L11.1548 85.5936
" />
<path d="M11.1548 85.5936
L10.6595 85.5936
" />
<path d="M10.6595 85.5936
L10.6595 84.2936
" />
<path d="M10.6595 84.2936
L11.0929 84.2936
" />
<path d="M11.0929 84.2936
L11.2167 84.3555
" />
<path d="M11.2167 84.3555
L11.2786 84.4174
" />
<path d="M11.2786 84.4174
L11.3405 84.5412
" />
<path d="M11.3405 84.5412
L11.3405 84.6650
" />
<path d="M11.3405 84.6650
L11.2786 84.7888
" />
<path d="M11.2786 84.7888
L11.2167 84.8507
" />
<path d="M11.2167 84.8507
L11.0929 84.9127
" />
<path d="M11.0929 84.9127
L10.6595 84.9127
" />
</g></g>
<g style="fill:none; 
stroke:#000000; stroke-width:0.1500; stroke-opacity:1; 
stroke-linecap:round; stroke-linejoin:round;">
<text x="11.0000" y="135.6500"
textLength="1.4900" font-size="1.7333" lengthAdjust="spacingAndGlyphs"
text-anchor="middle" opacity="0" stroke-opacity="0">C</text>
<g class="stroked-text"><desc>C</desc>
<path d="M11.4024 135.4698
L11.3405 135.5317
" />
<path d="M11.3405 135.5317
L11.1548 135.5936
" />
<path d="M11.1548 135.5936
L11.0310 135.5936
" />
<path d="M11.0310 135.5936
L10.8452 135.5317
" />
<path d="M10.8452 135.5317
L10.7214 135.4079
" />
<path d="M10.7214 135.4079
L10.6595 135.2841
" />
<path d="M10.6595 135.2841
L10.5976 135.0365
" />
<path d="M10.5976 135.0365
L10.5976 134.8507
" />
<path d="M10.5976 134.8507
L10.6595 134.6031
" />
<path d="M10.6595 134.6031
L10.7214 134.4793
" />
<path d="M10.7214 134.4793
L10.8452 134.3555
" />
<path d="M10.8452 134.3555
L11.0310 134.2936
" />
<path d="M11.0310 134.2936
L11.1548 134.2936
" />
<path d="M11.1548 134.2936
L11.3405 134.3555
" />
<path d="M11.3405 134.3555
L11.4024 134.4174
" />
</g></g>
<g style="fill:none; 
stroke:#000000; stroke-width:0.1500; stroke-opacity:1; 
stroke-linecap:round; stroke-linejoin:round;">
<text x="11.0000" y="185.6500"
textLength="1.4900" font-size="1.7333" lengthAdjust="spacingAndGlyphs"
text-anchor="middle" opacity="0" stroke-opacity="0">D</text>
<g class="stroked-text"><desc>D</desc>
<path d="M10.6595 185.5936
L10.6595 184.2936
" />
<path d="M10.6595 184.2936
L10.9690 184.2936
" />
<path d="M10.9690 184.2936
L11.1548 184.3555
" />
<path d="M11.1548 184.3555
L11.2786 184.4793
" />
<path d="M11.2786 184.4793
L11.3405 184.6031
" />
<path d="M11.3405 184.6031
L11.4024 184.8507
" />
<path d="M11.4024 184.8507
L11.4024 185.0365
" />
<path d="M11.4024 185.0365
L11.3405 185.2841
" />
<path d="M11.3405 185.2841
L11.2786 185.4079
" />
<path d="M11.2786 185.4079
L11.1548 185.5317
" />
<path d="M11.1548 185.5317
L10.9690 185.5936
" />
<path d="M10.9690 185.5936
L10.6595 185.5936
" />
</g></g>
<g style="fill:none; 
stroke:#000000; stroke-width:0.1500; stroke-opacity:1; 
stroke-linecap:round; stroke-linejoin:round;">
<path d="M287.0022 60.0000
L285.0022 60.0000
" />
</g>
<g style="fill:none; 
stroke:#000000; stroke-width:0.1500; stroke-opacity:1; 
stroke-linecap:round; stroke-linejoin:round;">
<path d="M287.0022 110.0000
L285.0022 110.0000
" />
</g>
<g style="fill:none; 
stroke:#000000; stroke-width:0.1500; stroke-opacity:1; 
stroke-linecap:round; stroke-linejoin:round;">
<path d="M287.0022 160.0000
L285.0022 160.0000
" />
</g>
<g style="fill:none; 
stroke:#000000; stroke-width:0.1500; stroke-opacity:1; 
stroke-linecap:round; stroke-linejoin:round;">
<text x="286.0022" y="35.6500"
textLength="1.3043" font-size="1.7333" lengthAdjust="spacingAndGlyphs"
text-anchor="middle" opacity="0" stroke-opacity="0">A</text>
<g class="stroked-text"><desc>A</desc>
<path d="M285.6927 35.2222
L286.3117 35.2222
" />
<path d="M285.5689 35.5936
L286.0022 34.2936
" />
<path d="M286.0022 34.2936
L286.4355 35.5936
" />
</g></g>
<g style="fill:none; 
stroke:#000000; stroke-width:0.1500; stroke-opacity:1; 
stroke-linecap:round; stroke-linejoin:round;">
<text x="286.0022" y="85.6500"
textLength="1.4900" font-size="1.7333" lengthAdjust="spacingAndGlyphs"
text-anchor="middle" opacity="0" stroke-opacity="0">B</text>
<g class="stroked-text"><desc>B</desc>
<path d="M286.0951 84.9127
L286.2808 84.9746
" />
<path d="M286.2808 84.9746
L286.3427 85.0365
" />
<path d="M286.3427 85.0365
L286.4046 85.1603
" />
<path d="M286.4046 85.1603
L286.4046 85.3460
" />
<path d="M286.4046 85.3460
L286.3427 85.4698
" />
<path d="M286.3427 85.4698
L286.2808 85.5317
" />
<path d="M286.2808 85.5317
L286.1570 85.5936
" />
<path d="M286.1570 85.5936
L285.6617 85.5936
" />
<path d="M285.6617 85.5936
L285.6617 84.2936
" />
<path d="M285.6617 84.2936
L286.0951 84.2936
" />
<path d="M286.0951 84.2936
L286.2189 84.3555
" />
<path d="M286.2189 84.3555
L286.2808 84.4174
" />
<path d="M286.2808 84.4174
L286.3427 84.5412
" />
<path d="M286.3427 84.5412
L286.3427 84.6650
" />
<path d="M286.3427 84.6650
L286.2808 84.7888
" />
<path d="M286.2808 84.7888
L286.2189 84.8507
" />
<path d="M286.2189 84.8507
L286.0951 84.9127
" />
<path d="M286.0951 84.9127
L285.6617 84.9127
" />
</g></g>
<g style="fill:none; 
stroke:#000000; stroke-width:0.1500; stroke-opacity:1; 
stroke-linecap:round; stroke-linejoin:round;">
<text x="286.0022" y="135.6500"
textLength="1.4900" font-size="1.7333" lengthAdjust="spacingAndGlyphs"
text-anchor="middle" opacity="0" stroke-opacity="0">C</text>
<g class="stroked-text"><desc>C</desc>
<path d="M286.4046 135.4698
L286.3427 135.5317
" />
<path d="M286.3427 135.5317
L286.1570 135.5936
" />
<path d="M286.1570 135.5936
L286.0332 135.5936
" />
<path d="M286.0332 135.5936
L285.8474 135.5317
" />
<path d="M285.8474 135.5317
L285.7236 135.4079
" />
<path d="M285.7236 135.4079
L285.6617 135.2841
" />
<path d="M285.6617 135.2841
L285.5998 135.0365
" />
<path d="M285.5998 135.0365
L285.5998 134.8507
" />
<path d="M285.5998 134.8507
L285.6617 134.6031
" />
<path d="M285.6617 134.6031
L285.7236 134.4793
" />
<path d="M285.7236 134.4793
L285.8474 134.3555
" />
<path d="M285.8474 134.3555
L286.0332 134.2936
" />
<path d="M286.0332 134.2936
L286.1570 134.2936
" />
<path d="M286.1570 134.2936
L286.3427 134.3555
" />
<path d="M286.3427 134.3555
L286.4046 134.4174
" />
</g></g>
<g style="fill:none; 
stroke:#000000; stroke-width:0.1500; stroke-opacity:1; 
stroke-linecap:round; stroke-linejoin:round;">
<text x="286.0022" y="185.6500"
textLength="1.4900" font-size="1.7333" lengthAdjust="spacingAndGlyphs"
text-anchor="middle" opacity="0" stroke-opacity="0">D</text>
<g class="stroked-text"><desc>D</desc>
<path d="M285.6617 185.5936
L285.6617 184.2936
" />
<path d="M285.6617 184.2936
L285.9712 184.2936
" />
<path d="M285.9712 184.2936
L286.1570 184.3555
" />
<path d="M286.1570 184.3555
L286.2808 184.4793
" />
<path d="M286.2808 184.4793
L286.3427 184.6031
" />
<path d="M286.3427 184.6031
L286.4046 184.8507
" />
<path d="M286.4046 184.8507
L286.4046 185.0365
" />
<path d="M286.4046 185.0365
L286.3427 185.2841
" />
<path d="M286.3427 185.2841
L286.2808 185.4079
" />
<path d="M286.2808 185.4079
L286.1570 185.5317
" />
<path d="M286.1570 185.5317
L285.9712 185.5936
" />
<path d="M285.9712 185.5936
L285.6617 185.5936
" />
</g></g>
<g style="fill:none; 
stroke:#000000; stroke-width:0.5000; stroke-opacity:1; 
stroke-linecap:round; stroke-linejoin:round;">
<text x="261.4022" y="195.2570"
textLength="1.7488" font-size="3.3333" lengthAdjust="spacingAndGlyphs"
text-anchor="start" opacity="0" stroke-opacity="0">1</text>
<g class="stroked-text"><desc>1</desc>
<path style="fill:#000000; fill-opacity:1.0000; stroke:none;fill-rule:evenodd;"
d="M 262.5477,192.6607
262.5477,194.5756
262.5499,194.6991
262.5622,194.8210
262.5666,194.8375
262.6454,194.9303
262.7692,194.9635
262.8377,194.9663
262.8909,194.9663
262.8909,195.0445
261.6648,195.0445
261.6648,194.9663
261.7264,194.9663
261.8545,194.9581
261.9395,194.9334
262.0256,194.8430
262.0445,194.7210
262.0482,194.5885
262.0482,194.5756
262.0482,193.3641
262.0443,193.2382
262.0323,193.1705
261.9749,193.1034
261.8779,193.0747
261.7539,193.0961
261.6654,193.1296
261.6342,193.0515
262.4909,192.6607
Z" /> 
</g></g>
<g style="fill:none; 
stroke:#000000; stroke-width:0.2000; stroke-opacity:1; 
stroke-linecap:round; stroke-linejoin:round;">
<path d="M131.9726 59.1483 A35.0000 35.0000 0.0 0 0 113.6725 86.5335" />
<path d="M162.9122 121.8952 A0.9999 0.9999 0.0 0 0 163.5004 120.9840" />
<path d="M132.5365 58.8462 A0.5000 0.5000 0.0 0 0 132.8004 58.4055" />
<path d="M133.5004 116.5519 A1.0001 1.0001 0.0 0 0 133.0165 115.6954" />
<path d="M164.2004 58.4055 A0.5000 0.5000 0.0 0 0 164.4643 58.8462" />
<path d="M133.5004 120.9840 A1.0000 1.0000 0.0 0 0 134.0886 121.8953" />
<path d="M163.9843 115.6954 A30.0000 30.0000 0.0 0 0 178.4951 90.5619" />
<path d="M182.8332 87.4985 A1.0000 1.0000 0.0 0 0 183.3283 86.5335" />
<path d="M132.5004 57.7442
L132.5365 57.7635
" />
<path d="M178.9950 89.7146 A1.0000 1.0000 0.0 0 0 178.4951 90.5619" />
<path d="M132.5365 58.8462
L131.9726 59.1483
" />
<path d="M164.5004 48.3001
L132.5004 48.3001
" />
<path d="M164.3504 57.8472 A0.4999 0.4999 0.0 0 0 164.2004 58.2042" />
<path d="M163.5004 120.9840
L163.5004 116.5519
" />
<path d="M133.5004 116.5519
L133.5004 120.9840
" />
<path d="M163.9843 115.6954 A0.9999 0.9999 0.0 0 0 163.5004 116.5519" />
<path d="M114.1676 87.4986
L118.0058 89.7146
" />
<path d="M118.5057 90.5619 A30.0000 30.0000 0.0 0 0 133.0165 115.6954" />
<path d="M134.0886 121.8953 A35.0000 35.0000 0.0 0 0 162.9122 121.8953" />
<path d="M132.8004 58.2042 A0.5001 0.5001 0.0 0 0 132.5365 57.7635" />
<path d="M132.8004 58.2042
L132.8004 58.4055
" />
<path d="M164.2004 58.4055
L164.2004 58.2042
" />
<path d="M165.0282 59.1483
L164.4643 58.8462
" />
<path d="M178.9950 89.7146
L182.8332 87.4985
" />
<path d="M183.3283 86.5335 A35.0000 35.0000 0.0 0 0 165.0282 59.1483" />
<path d="M164.5004 57.4901
L164.5004 48.3001
" />
<path d="M118.5056 90.5619 A1.0000 1.0000 0.0 0 0 118.0058 89.7146" />
<path d="M113.6725 86.5335 A1.0000 1.0000 0.0 0 0 114.1676 87.4986" />
<path d="M164.3504 57.8471 A0.4999 0.4999 0.0 0 0 164.5004 57.4901" />
<path d="M132.5004 48.3001
L132.5004 57.7442
" />
</g>
<g style="fill:none; 
stroke:#000000; stroke-width:0.0500; stroke-opacity:1; 
stroke-linecap:round; stroke-linejoin:round;">
<path d="M158.3462 103.8439
L161.1393 101.0508
" />
<path d="M160.3261 105.8238
L158.3462 103.8439
" />
<path d="M161.1393 101.0508
L163.1192 103.0307
" />
<path d="M163.1192 103.0307
L160.3261 105.8238
" />
<circle cx="143.7754" cy="99.7001" r="0.2550" /> 
<path d="M140.5250 72.9250
L142.0750 72.9250
" />
<path d="M140.5250 73.6750
L140.5250 72.9250
" />
<path d="M142.0750 72.9250
L142.0750 73.6750
" />
<path d="M142.0750 73.6750
L140.5250 73.6750
" />
<circle cx="159.0254" cy="109.9751" r="0.2550" /> 
<path d="M142.2304 74.8001
L147.8704 74.8001
" />
<path d="M142.2304 82.3001
L142.2304 74.8001
" />
<path d="M147.8704 74.8001
L147.8704 82.3001
" />
<path d="M147.8704 82.3001
L142.2304 82.3001
" />
<path d="M130.0624 96.4207
L131.5596 96.0195
" />
<path d="M130.2565 97.1452
L130.0624 96.4207
" />
<path d="M131.5596 96.0195
L131.7537 96.7440
" />
<path d="M131.7537 96.7440
L130.2565 97.1452
" />
<path d="M164.9564 98.5064
L165.1505 97.7820
" />
<path d="M165.1505 97.7820
L166.6477 98.1831
" />
<path d="M166.4535 98.9076
L164.9564 98.5064
" />
<path d="M166.6477 98.1831
L166.4535 98.9076
" />
<path d="M155.2276 112.5744
L156.9247 110.8773
" />
<path d="M156.0761 113.4229
L155.2276 112.5744
" />
<path d="M156.9247 110.8773
L157.7732 111.7258
" />
<path d="M157.7732 111.7258
L156.0761 113.4229
" />
<path d="M139.2004 117.8001
L139.2004 121.2001
" />
<path d="M139.2004 121.2001
L142.6004 121.2001
" />
<path d="M142.6004 117.8001
L139.2004 117.8001
" />
<path d="M142.6004 121.2001
L142.6004 117.8001
" />
<path d="M163.7772 103.1773
L164.3076 102.6469
" />
<path d="M164.3076 102.6469
L165.4036 103.7429
" />
<path d="M164.8732 104.2733
L163.7772 103.1773
" />
<path d="M165.4036 103.7429
L164.8732 104.2733
" />
<path d="M157.1478 92.7420
L159.0923 90.7975
" />
<path d="M158.2085 93.8027
L157.1478 92.7420
" />
<path d="M159.0923 90.7975
L160.1530 91.8582
" />
<path d="M160.1530 91.8582
L158.2085 93.8027
" />
<path d="M129.2342 93.3298
L130.7314 92.9286
" />
<path d="M129.4283 94.0542
L129.2342 93.3298
" />
<path d="M130.7314 92.9286
L130.9255 93.6530
" />
<path d="M130.9255 93.6530
L129.4283 94.0542
" />
<path d="M126.4837 91.5969
L127.9809 91.1957
" />
<path d="M126.6778 92.3214
L126.4837 91.5969
" />
<path d="M127.9809 91.1957
L128.1750 91.9202
" />
<path d="M128.1750 91.9202
L126.6778 92.3214
" />
<path d="M168.7304 86.1501
L168.7304 89.6501
" />
<path d="M168.7304 89.6501
L172.9704 89.6501
" />
<path d="M172.9704 86.1501
L168.7304 86.1501
" />
<path d="M172.9704 89.6501
L172.9704 86.1501
" />
<path d="M145.2372 115.8173
L145.7676 115.2869
" />
<path d="M145.7676 115.2869
L146.8636 116.3829
" />
<path d="M146.3332 116.9133
L145.2372 115.8173
" />
<path d="M146.8636 116.3829
L146.3332 116.9133
" />
<path d="M154.9000 79.9500
L156.0000 79.9500
" />
<path d="M154.9000 82.1000
L154.9000 79.9500
" />
<path d="M156.0000 79.9500
L156.0000 82.1000
" />
<path d="M156.0000 82.1000
L154.9000 82.1000
" />
<path d="M145.1104 85.8251
L147.7404 85.8251
" />
<path d="M145.1104 87.0251
L145.1104 85.8251
" />
<path d="M147.7404 85.8251
L147.7404 87.0251
" />
<path d="M147.7404 87.0251
L145.1104 87.0251
" />
<path d="M161.5615 105.0411
L163.5414 103.0612
" />
<path d="M162.8343 106.3139
L161.5615 105.0411
" />
<path d="M163.5414 103.0612
L164.8142 104.3340
" />
<path d="M164.8142 104.3340
L162.8343 106.3139
" />
<path d="M123.2004 82.7981
L125.9504 82.7981
" />
<path d="M123.2004 84.2981
L123.2004 82.7981
" />
<path d="M125.9504 82.7981
L125.9504 84.2981
" />
<path d="M125.9504 84.2981
L123.2004 84.2981
" />
</g>
<g style="fill:none; 
stroke:#000000; stroke-width:0.1000; stroke-opacity:1; 
stroke-linecap:round; stroke-linejoin:round;">
<path d="M150.7504 47.9001
L162.7504 47.9001
" />
<path d="M150.7504 60.4001
L150.7504 47.9001
" />
<path d="M162.7504 47.9001
L162.7504 60.4001
" />
<path d="M162.7504 60.4001
L150.7504 60.4001
" />
</g>
<g style="fill:none; 
stroke:#000000; stroke-width:0.0500; stroke-opacity:1; 
stroke-linecap:round; stroke-linejoin:round;">
<path d="M162.7746 86.0500
L164.2746 86.0500
" />
<path d="M162.7746 88.8000
L162.7746 86.0500
" />
<path d="M164.2746 86.0500
L164.2746 88.8000
" />
<path d="M164.2746 88.8000
L162.7746 88.8000
" />
<path d="M155.1122 111.4829
L156.2082 110.3869
" />
<path d="M155.6426 112.0133
L155.1122 111.4829
" />
<path d="M156.2082 110.3869
L156.7386 110.9173
" />
<path d="M156.7386 110.9173
L155.6426 112.0133
" />
<path d="M126.8254 88.4501
L127.5754 88.4501
" />
<path d="M126.8254 90.0001
L126.8254 88.4501
" />
<path d="M127.5754 88.4501
L127.5754 90.0001
" />
<path d="M127.5754 90.0001
L126.8254 90.0001
" />
<path d="M150.1463 116.3945
L150.9948 115.5460
" />
<path d="M150.9948 115.5460
L152.8545 117.4057
" />
<path d="M152.0060 118.2542
L150.1463 116.3945
" />
<path d="M152.8545 117.4057
L152.0060 118.2542
" />
<path d="M138.6872 100.4829
L139.7832 99.3869
" />
<path d="M139.2176 101.0133
L138.6872 100.4829
" />
<path d="M139.7832 99.3869
L140.3136 99.9173
" />
<path d="M140.3136 99.9173
L139.2176 101.0133
" />
<path d="M157.8804 112.4701
L160.1204 112.4701
" />
<path d="M157.8804 117.0301
L157.8804 112.4701
" />
<path d="M160.1204 112.4701
L160.1204 117.0301
" />
<path d="M160.1204 117.0301
L157.8804 117.0301
" />
<path d="M165.9855 94.6462
L166.1796 93.9218
" />
<path d="M166.1796 93.9218
L167.6768 94.3230
" />
<path d="M167.4827 95.0474
L165.9855 94.6462
" />
<path d="M167.6768 94.3230
L167.4827 95.0474
" />
<path d="M160.3900 82.4000
L164.3900 82.4000
" />
<path d="M160.3900 84.4000
L160.3900 82.4000
" />
<path d="M164.3900 82.4000
L164.3900 84.4000
" />
<path d="M164.3900 84.4000
L160.3900 84.4000
" />
<circle cx="131.1754" cy="89.7251" r="0.2550" /> 
<path d="M161.8994 94.7752
L162.4297 94.2449
" />
<path d="M162.4297 94.2449
L163.5258 95.3409
" />
<path d="M162.9954 95.8712
L161.8994 94.7752
" />
<path d="M163.5258 95.3409
L162.9954 95.8712
" />
<circle cx="134.3004" cy="100.7001" r="0.2550" /> 
<circle cx="143.7139" cy="93.3471" r="0.2550" /> 
<path d="M151.7622 96.7329
L152.8582 95.6369
" />
<path d="M152.2926 97.2633
L151.7622 96.7329
" />
<path d="M152.8582 95.6369
L153.3886 96.1673
" />
<path d="M153.3886 96.1673
L152.2926 97.2633
" />
<path d="M148.5500 116.2750
L149.6500 116.2750
" />
<path d="M148.5500 118.4250
L148.5500 116.2750
" />
<path d="M149.6500 116.2750
L149.6500 118.4250
" />
<path d="M149.6500 118.4250
L148.5500 118.4250
" />
<path d="M149.1304 74.7001
L154.7704 74.7001
" />
<path d="M149.1304 82.2001
L149.1304 74.7001
" />
<path d="M154.7704 74.7001
L154.7704 82.2001
" />
<path d="M154.7704 82.2001
L149.1304 82.2001
" />
<circle cx="151.9004" cy="100.6501" r="0.2550" /> 
<path d="M160.4000 86.0500
L161.9000 86.0500
" />
<path d="M160.4000 88.8000
L160.4000 86.0500
" />
<path d="M161.9000 86.0500
L161.9000 88.8000
" />
<path d="M161.9000 88.8000
L160.4000 88.8000
" />
<circle cx="168.0004" cy="89.7956" r="0.2550" /> 
<circle cx="154.8617" cy="103.0194" r="0.2550" /> 
<path d="M154.0791 92.6180
L155.4933 91.2038
" />
<path d="M155.4933 91.2038
L158.3217 94.0322
" />
<path d="M156.9075 95.4464
L154.0791 92.6180
" />
<path d="M158.3217 94.0322
L156.9075 95.4464
" />
<circle cx="143.9189" cy="89.6201" r="0.2062" /> 
<circle cx="135.7004" cy="114.0001" r="1.0500" /> 
<circle cx="147.9011" cy="90.0737" r="0.2550" /> 
<path d="M168.7700 77.4500
L169.8700 77.4500
" />
<path d="M168.7700 79.6000
L168.7700 77.4500
" />
<path d="M169.8700 77.4500
L169.8700 79.6000
" />
<path d="M169.8700 79.6000
L168.7700 79.6000
" />
<circle cx="170.4504" cy="85.7751" r="0.2550" /> 
<path d="M142.9372 102.2923
L143.4676 101.7619
" />
<path d="M143.4676 101.7619
L144.5636 102.8579
" />
<path d="M144.0332 103.3883
L142.9372 102.2923
" />
<path d="M144.5636 102.8579
L144.0332 103.3883
" />
<path d="M132.7300 86.0500
L134.2300 86.0500
" />
<path d="M132.7300 88.8000
L132.7300 86.0500
" />
<path d="M134.2300 86.0500
L134.2300 88.8000
" />
<path d="M134.2300 88.8000
L132.7300 88.8000
" />
<path d="M165.7749 95.4128
L165.9690 94.6884
" />
<path d="M165.9690 94.6884
L167.4662 95.0896
" />
<path d="M167.2721 95.8140
L165.7749 95.4128
" />
<path d="M167.4662 95.0896
L167.2721 95.8140
" />
<path d="M144.2622 96.8173
L144.7926 96.2869
" />
<path d="M144.7926 96.2869
L145.8886 97.3829
" />
<path d="M145.3582 97.9133
L144.2622 96.8173
" />
<path d="M145.8886 97.3829
L145.3582 97.9133
" />
<path d="M155.7772 106.1673
L156.3076 105.6369
" />
<path d="M156.3076 105.6369
L157.4036 106.7329
" />
<path d="M156.8732 107.2633
L155.7772 106.1673
" />
<path d="M157.4036 106.7329
L156.8732 107.2633
" />
<path d="M137.2254 111.5751
L138.7754 111.5751
" />
<path d="M137.2254 112.3251
L137.2254 111.5751
" />
<path d="M138.7754 111.5751
L138.7754 112.3251
" />
<path d="M138.7754 112.3251
L137.2254 112.3251
" />
<path d="M162.9747 98.0486
L164.0707 96.9526
" />
<path d="M163.5050 98.5790
L162.9747 98.0486
" />
<path d="M164.0707 96.9526
L164.6011 97.4829
" />
<path d="M164.6011 97.4829
L163.5050 98.5790
" />
<path d="M142.7122 115.2579
L143.8082 114.1619
" />
<path d="M143.2426 115.7883
L142.7122 115.2579
" />
<path d="M143.8082 114.1619
L144.3386 114.6923
" />
<path d="M144.3386 114.6923
L143.2426 115.7883
" />
</g>
<g style="fill:none; 
stroke:#000000; stroke-width:0.1000; stroke-opacity:1; 
stroke-linecap:round; stroke-linejoin:round;">
<path d="M134.2504 47.9001
L146.2504 47.9001
" />
<path d="M134.2504 60.4001
L134.2504 47.9001
" />
<path d="M146.2504 47.9001
L146.2504 60.4001
" />
<path d="M146.2504 60.4001
L134.2504 60.4001
" />
</g>
<g style="fill:none; 
stroke:#000000; stroke-width:0.0500; stroke-opacity:1; 
stroke-linecap:round; stroke-linejoin:round;">
<path d="M156.6254 82.3400
L158.5254 82.3400
" />
<path d="M156.6254 86.5900
L156.6254 82.3400
" />
<path d="M158.5254 82.3400
L158.5254 86.5900
" />
<path d="M158.5254 86.5900
L156.6254 86.5900
" />
<path d="M166.9797 98.5568
L167.1738 97.8324
" />
<path d="M167.1738 97.8324
L168.6710 98.2335
" />
<path d="M168.4769 98.9580
L166.9797 98.5568
" />
<path d="M168.6710 98.2335
L168.4769 98.9580
" />
<circle cx="149.2704" cy="99.6201" r="0.2550" /> 
<path d="M141.7794 104.5908
L142.8754 103.4948
" />
<path d="M142.3097 105.1211
L141.7794 104.5908
" />
<path d="M142.8754 103.4948
L143.4057 104.0251
" />
<path d="M143.4057 104.0251
L142.3097 105.1211
" />
<path d="M121.0654 85.5651
L121.8154 85.5651
" />
<path d="M121.0654 87.1151
L121.0654 85.5651
" />
<path d="M121.8154 85.5651
L121.8154 87.1151
" />
<path d="M121.8154 87.1151
L121.0654 87.1151
" />
<circle cx="142.3754" cy="101.1001" r="0.2550" /> 
<circle cx="140.0504" cy="116.8501" r="0.2550" /> 
<path d="M165.1538 97.7311
L165.3479 97.0066
" />
<path d="M165.3479 97.0066
L166.8451 97.4078
" />
<path d="M166.6509 98.1322
L165.1538 97.7311
" />
<path d="M166.8451 97.4078
L166.6509 98.1322
" />
<circle cx="165.0477" cy="96.8891" r="0.2550" /> 
<circle cx="141.2004" cy="115.7001" r="0.2550" /> 
<circle cx="164.5189" cy="93.9811" r="0.2550" /> 
<path d="M130.2676 97.1935
L131.7648 96.7923
" />
<path d="M130.4617 97.9179
L130.2676 97.1935
" />
<path d="M131.7648 96.7923
L131.9589 97.5167
" />
<path d="M131.9589 97.5167
L130.4617 97.9179
" />
<path d="M170.8654 85.3251
L172.4154 85.3251
" />
<path d="M170.8654 86.0751
L170.8654 85.3251
" />
<path d="M172.4154 85.3251
L172.4154 86.0751
" />
<path d="M172.4154 86.0751
L170.8654 86.0751
" />
<path d="M128.3154 74.7001
L133.9554 74.7001
" />
<path d="M128.3154 82.2001
L128.3154 74.7001
" />
<path d="M133.9554 74.7001
L133.9554 82.2001
" />
<path d="M133.9554 82.2001
L128.3154 82.2001
" />
<path d="M121.4504 82.6881
L123.1504 82.6881
" />
<path d="M121.4504 85.4881
L121.4504 82.6881
" />
<path d="M123.1504 82.6881
L123.1504 85.4881
" />
<path d="M123.1504 85.4881
L121.4504 85.4881
" />
<path d="M127.2650 76.6050
L128.0150 76.6050
" />
<path d="M127.2650 78.1550
L127.2650 76.6050
" />
<path d="M128.0150 76.6050
L128.0150 78.1550
" />
<path d="M128.0150 78.1550
L127.2650 78.1550
" />
<path d="M139.2978 101.0582
L140.3585 99.9975
" />
<path d="M140.3585 99.9975
L142.3030 101.9420
" />
<path d="M141.2423 103.0027
L139.2978 101.0582
" />
<path d="M142.3030 101.9420
L141.2423 103.0027
" />
<circle cx="141.2004" cy="116.8501" r="0.2550" /> 
<path d="M126.8147 92.8285
L128.3119 92.4273
" />
<path d="M127.0089 93.5529
L126.8147 92.8285
" />
<path d="M128.3119 92.4273
L128.5060 93.1517
" />
<path d="M128.5060 93.1517
L127.0089 93.5529
" />
<path d="M164.1000 64.8000
L168.1000 64.8000
" />
<path d="M164.1000 66.8000
L164.1000 64.8000
" />
<path d="M168.1000 64.8000
L168.1000 66.8000
" />
<path d="M168.1000 66.8000
L164.1000 66.8000
" />
<path d="M149.9372 100.3423
L150.4676 99.8119
" />
<path d="M150.4676 99.8119
L151.5636 100.9079
" />
<path d="M151.0332 101.4383
L149.9372 100.3423
" />
<path d="M151.5636 100.9079
L151.0332 101.4383
" />
<circle cx="145.5704" cy="89.4201" r="0.2062" /> 
<path d="M153.5754 117.9251
L154.3254 117.9251
" />
<path d="M153.5754 119.4751
L153.5754 117.9251
" />
<path d="M154.3254 117.9251
L154.3254 119.4751
" />
<path d="M154.3254 119.4751
L153.5754 119.4751
" />
<circle cx="161.5504" cy="93.2501" r="0.2550" /> 
<path d="M147.3000 116.1500
L148.5000 116.1500
" />
<path d="M147.3000 118.5500
L147.3000 116.1500
" />
<path d="M148.5000 116.1500
L148.5000 118.5500
" />
<path d="M148.5000 118.5500
L147.3000 118.5500
" />
<circle cx="139.2704" cy="89.7251" r="0.2062" /> 
<path d="M166.6547 99.7617
L166.8489 99.0373
" />
<path d="M166.8489 99.0373
L168.3460 99.4385
" />
<path d="M168.1519 100.1629
L166.6547 99.7617
" />
<path d="M168.3460 99.4385
L168.1519 100.1629
" />
<path d="M166.3983 93.1056
L166.5924 92.3811
" />
<path d="M166.5924 92.3811
L168.0896 92.7823
" />
<path d="M167.8955 93.5067
L166.3983 93.1056
" />
<path d="M168.0896 92.7823
L167.8955 93.5067
" />
<path d="M128.8100 82.3400
L130.7100 82.3400
" />
<path d="M128.8100 86.5900
L128.8100 82.3400
" />
<path d="M130.7100 82.3400
L130.7100 86.5900
" />
<path d="M130.7100 86.5900
L128.8100 86.5900
" />
<path d="M142.6754 119.5251
L143.4254 119.5251
" />
<path d="M142.6754 121.0751
L142.6754 119.5251
" />
<path d="M143.4254 119.5251
L143.4254 121.0751
" />
<path d="M143.4254 121.0751
L142.6754 121.0751
" />
<path d="M130.8723 102.8095
L133.2765 105.2136
" />
<path d="M133.2765 105.2136
L135.9918 102.4983
" />
<path d="M133.5876 100.0942
L130.8723 102.8095
" />
<path d="M135.9918 102.4983
L133.5876 100.0942
" />
<path d="M158.6004 60.0001
L158.6004 62.5001
" />
<path d="M158.6004 62.5001
L161.8004 62.5001
" />
<path d="M161.8004 60.0001
L158.6004 60.0001
" />
<path d="M161.8004 62.5001
L161.8004 60.0001
" />
<circle cx="134.3004" cy="99.8001" r="0.2550" /> 
<circle cx="157.5004" cy="89.8501" r="0.2062" /> 
</g>
<g style="fill:none; 
stroke:#000000; stroke-width:0.1000; stroke-opacity:1; 
stroke-linecap:round; stroke-linejoin:round;">
<path d="M159.4069 97.7274
L161.9524 95.1818
" />
<path d="M161.2453 99.5659
L159.4069 97.7274
" />
<path d="M161.9524 95.1818
L163.7909 97.0203
" />
<path d="M163.7909 97.0203
L161.2453 99.5659
" />
</g>
<g style="fill:none; 
stroke:#000000; stroke-width:0.0500; stroke-opacity:1; 
stroke-linecap:round; stroke-linejoin:round;">
<path d="M129.0207 92.5329
L130.5179 92.1317
" />
<path d="M129.2148 93.2573
L129.0207 92.5329
" />
<path d="M130.5179 92.1317
L130.7120 92.8561
" />
<path d="M130.7120 92.8561
L129.2148 93.2573
" />
<path d="M163.1192 95.9950
L163.6495 95.4647
" />
<path d="M163.6495 95.4647
L164.7455 96.5607
" />
<path d="M164.2152 97.0910
L163.1192 95.9950
" />
<path d="M164.7455 96.5607
L164.2152 97.0910
" />
<path d="M158.3598 96.8866
L160.0569 95.1895
" />
<path d="M159.2083 97.7351
L158.3598 96.8866
" />
<path d="M160.0569 95.1895
L160.9054 96.0380
" />
<path d="M160.9054 96.0380
L159.2083 97.7351
" />
<circle cx="157.4504" cy="91.5001" r="0.2550" /> 
<circle cx="143.7139" cy="94.0971" r="0.2550" /> 
<path d="M170.8754 89.7251
L172.4254 89.7251
" />
<path d="M170.8754 90.4751
L170.8754 89.7251
" />
<path d="M172.4254 89.7251
L172.4254 90.4751
" />
<path d="M172.4254 90.4751
L170.8754 90.4751
" />
<path d="M151.0776 92.2044
L152.7747 90.5073
" />
<path d="M151.9261 93.0529
L151.0776 92.2044
" />
<path d="M152.7747 90.5073
L153.6232 91.3558
" />
<path d="M153.6232 91.3558
L151.9261 93.0529
" />
<path d="M163.0304 74.8001
L168.6704 74.8001
" />
<path d="M163.0304 82.3001
L163.0304 74.8001
" />
<path d="M168.6704 74.8001
L168.6704 82.3001
" />
<path d="M168.6704 82.3001
L163.0304 82.3001
" />
<path d="M161.1372 106.9329
L162.2332 105.8369
" />
<path d="M161.6676 107.4633
L161.1372 106.9329
" />
<path d="M162.2332 105.8369
L162.7636 106.3673
" />
<path d="M162.7636 106.3673
L161.6676 107.4633
" />
<path d="M128.9500 64.8000
L132.9500 64.8000
" />
<path d="M128.9500 66.8000
L128.9500 64.8000
" />
<path d="M132.9500 64.8000
L132.9500 66.8000
" />
<path d="M132.9500 66.8000
L128.9500 66.8000
" />
<circle cx="151.3754" cy="98.5001" r="0.2550" /> 
<path d="M124.3315 105.7370
L132.7885 114.1940
" />
<path d="M128.8570 101.2115
L124.3315 105.7370
" />
<path d="M132.7885 114.1940
L137.3140 109.6685
" />
<path d="M137.3140 109.6685
L128.8570 101.2115
" />
<path d="M161.6478 92.7420
L163.5923 90.7975
" />
<path d="M162.7085 93.8027
L161.6478 92.7420
" />
<path d="M163.5923 90.7975
L164.6530 91.8582
" />
<path d="M164.6530 91.8582
L162.7085 93.8027
" />
</g>
<g style="fill:none; 
stroke:#000000; stroke-width:0.1000; stroke-opacity:1; 
stroke-linecap:round; stroke-linejoin:round;">
<path d="M121.9004 85.5381
L124.5004 85.5381
" />
<path d="M121.9004 88.1381
L121.9004 85.5381
" />
<path d="M124.5004 85.5381
L124.5004 88.1381
" />
<path d="M124.5004 88.1381
L121.9004 88.1381
" />
</g>
<g style="fill:none; 
stroke:#000000; stroke-width:0.0500; stroke-opacity:1; 
stroke-linecap:round; stroke-linejoin:round;">
<path d="M116.0748 75.2629
L119.0626 76.9879
" />
<path d="M117.7998 72.2751
L116.0748 75.2629
" />
<path d="M117.7998 72.2751
L119.5248 69.2873
" />
<path d="M119.5248 69.2873
L122.5126 71.0123
" />
<path d="M119.0626 76.9879 A3.4500 3.4500 0.0 0 0 122.5126 71.0123" />
<path d="M121.4504 81.8751
L123.0004 81.8751
" />
<path d="M121.4504 82.6251
L121.4504 81.8751
" />
<path d="M123.0004 81.8751
L123.0004 82.6251
" />
<path d="M123.0004 82.6251
L121.4504 82.6251
" />
<path d="M122.9754 88.1881
L124.5254 88.1881
" />
<path d="M122.9754 88.9381
L122.9754 88.1881
" />
<path d="M124.5254 88.1881
L124.5254 88.9381
" />
<path d="M124.5254 88.9381
L122.9754 88.9381
" />
<path d="M135.1100 86.0500
L136.6100 86.0500
" />
<path d="M135.1100 88.8000
L135.1100 86.0500
" />
<path d="M136.6100 86.0500
L136.6100 88.8000
" />
<path d="M136.6100 88.8000
L135.1100 88.8000
" />
<path d="M140.8283 106.6970
L141.8536 107.7223
" />
<path d="M140.8283 110.3032
L143.7628 113.2377
" />
<path d="M141.0758 108.5001
L141.8536 109.2779
" />
<path d="M141.8536 107.7223
L141.0758 108.5001
" />
<path d="M141.8536 109.2779
L140.8283 110.3032
" />
<path d="M143.7628 103.7625
L140.8283 106.6970
" />
<path d="M143.7628 103.7625
L146.6973 100.8280
" />
<path d="M146.6973 100.8280
L147.7226 101.8533
" />
<path d="M146.6973 116.1722
L143.7628 113.2377
" />
<path d="M147.7226 101.8533
L148.5004 101.0755
" />
<path d="M147.7226 115.1469
L146.6973 116.1722
" />
<path d="M148.5004 101.0755
L149.2782 101.8533
" />
<path d="M148.5004 115.9247
L147.7226 115.1469
" />
<path d="M149.2782 101.8533
L150.3035 100.8280
" />
<path d="M149.2782 115.1469
L148.5004 115.9247
" />
<path d="M150.3035 100.8280
L153.2380 103.7625
" />
<path d="M150.3035 116.1722
L149.2782 115.1469
" />
<path d="M153.2380 113.2377
L150.3035 116.1722
" />
<path d="M153.2380 113.2377
L156.1725 110.3032
" />
<path d="M155.1472 107.7223
L156.1725 106.6970
" />
<path d="M155.1472 109.2779
L155.9250 108.5001
" />
<path d="M155.9250 108.5001
L155.1472 107.7223
" />
<path d="M156.1725 106.6970
L153.2380 103.7625
" />
<path d="M156.1725 110.3032
L155.1472 109.2779
" />
<path d="M147.1254 58.7501
L147.1254 66.5901
" />
<path d="M147.1254 66.5901
L149.8754 66.5901
" />
<path d="M149.8754 58.7501
L147.1254 58.7501
" />
<path d="M149.8754 66.5901
L149.8754 58.7501
" />
<path d="M164.4100 86.0850
L165.6100 86.0850
" />
<path d="M164.4100 88.7150
L164.4100 86.0850
" />
<path d="M165.6100 86.0850
L165.6100 88.7150
" />
<path d="M165.6100 88.7150
L164.4100 88.7150
" />
<circle cx="139.7704" cy="90.5001" r="0.2062" /> 
<path d="M145.0504 125.4501
L145.0504 122.0001
" />
<path d="M148.5004 125.4501
L145.0504 125.4501
" />
<path d="M148.5004 125.4501
L151.9504 125.4501
" />
<path d="M151.9504 125.4501
L151.9504 122.0001
" />
<path d="M151.9504 122.0001 A3.4500 3.4500 0.0 0 0 145.0504 122.0001" />
<path d="M142.3622 102.8673
L142.8926 102.3369
" />
<path d="M142.8926 102.3369
L143.9886 103.4329
" />
<path d="M143.4582 103.9633
L142.3622 102.8673
" />
<path d="M143.9886 103.4329
L143.4582 103.9633
" />
<path d="M151.1622 115.5923
L151.6926 115.0619
" />
<path d="M151.6926 115.0619
L152.7886 116.1579
" />
<path d="M152.2582 116.6883
L151.1622 115.5923
" />
<path d="M152.7886 116.1579
L152.2582 116.6883
" />
<path d="M142.1622 114.7079
L143.2582 113.6119
" />
<path d="M142.6926 115.2383
L142.1622 114.7079
" />
<path d="M143.2582 113.6119
L143.7886 114.1423
" />
<path d="M143.7886 114.1423
L142.6926 115.2383
" />
<path d="M168.9450 75.8500
L169.6950 75.8500
" />
<path d="M168.9450 77.4000
L168.9450 75.8500
" />
<path d="M169.6950 75.8500
L169.6950 77.4000
" />
<path d="M169.6950 77.4000
L168.9450 77.4000
" />
<path d="M129.4413 94.1025
L130.9384 93.7013
" />
<path d="M129.6354 94.8269
L129.4413 94.1025
" />
<path d="M130.9384 93.7013
L131.1326 94.4258
" />
<path d="M131.1326 94.4258
L129.6354 94.8269
" />
<path d="M167.6808 102.5959
L173.8627 104.2523
" />
<path d="M171.4181 88.6479
L167.6808 102.5959
" />
<path d="M173.8627 104.2523
L177.6000 90.3043
" />
<path d="M177.6000 90.3043
L171.4181 88.6479
" />
<circle cx="126.8400" cy="77.7200" r="0.2550" /> 
<path d="M161.2376 99.7644
L162.9347 98.0673
" />
<path d="M162.0861 100.6129
L161.2376 99.7644
" />
<path d="M162.9347 98.0673
L163.7832 98.9158
" />
<path d="M163.7832 98.9158
L162.0861 100.6129
" />
<path d="M173.8254 84.0251
L174.5754 84.0251
" />
<path d="M173.8254 85.5751
L173.8254 84.0251
" />
<path d="M174.5754 84.0251
L174.5754 85.5751
" />
<path d="M174.5754 85.5751
L173.8254 85.5751
" />
<path d="M127.6754 88.4501
L128.4254 88.4501
" />
<path d="M127.6754 90.0001
L127.6754 88.4501
" />
<path d="M128.4254 88.4501
L128.4254 90.0001
" />
<path d="M128.4254 90.0001
L127.6754 90.0001
" />
<path d="M166.6054 92.3328
L166.7995 91.6084
" />
<path d="M166.7995 91.6084
L168.2967 92.0096
" />
<path d="M168.1026 92.7340
L166.6054 92.3328
" />
<path d="M168.2967 92.0096
L168.1026 92.7340
" />
<path d="M155.6945 100.1669
L155.6945 101.1569
" />
<path d="M157.8159 103.2782
L155.6945 101.1569
" />
<path d="M158.1694 97.6920
L155.6945 100.1669
" />
<path d="M158.1694 97.6920
L159.1594 97.6920
" />
<path d="M158.8058 103.2782
L157.8159 103.2782
" />
<path d="M161.2807 99.8134
L159.1594 97.6920
" />
<path d="M161.2807 100.8033
L158.8058 103.2782
" />
<path d="M161.2807 100.8033
L161.2807 99.8134
" />
<circle cx="159.0254" cy="111.1001" r="0.2550" /> 
<path d="M139.5200 86.0850
L140.7200 86.0850
" />
<path d="M139.5200 88.7150
L139.5200 86.0850
" />
<path d="M140.7200 86.0850
L140.7200 88.7150
" />
<path d="M140.7200 88.7150
L139.5200 88.7150
" />
<circle cx="154.0766" cy="102.3139" r="0.2550" /> 
<path d="M167.8754 87.1251
L168.6254 87.1251
" />
<path d="M167.8754 88.6751
L167.8754 87.1251
" />
<path d="M168.6254 87.1251
L168.6254 88.6751
" />
<path d="M168.6254 88.6751
L167.8754 88.6751
" />
<path d="M152.8026 95.5758
L153.6511 94.7273
" />
<path d="M153.6511 94.7273
L155.3482 96.4244
" />
<path d="M154.4997 97.2729
L152.8026 95.5758
" />
<path d="M155.3482 96.4244
L154.4997 97.2729
" />
<circle cx="166.3566" cy="91.9839" r="0.2550" /> 
<path d="M136.7400 86.0900
L137.9400 86.0900
" />
<path d="M136.7400 88.7200
L136.7400 86.0900
" />
<path d="M137.9400 86.0900
L137.9400 88.7200
" />
<path d="M137.9400 88.7200
L136.7400 88.7200
" />
<path d="M160.1296 109.1954
L164.6551 113.7209
" />
<path d="M164.6551 113.7209
L172.2212 106.1548
" />
<path d="M167.6957 101.6293
L160.1296 109.1954
" />
<path d="M172.2212 106.1548
L167.6957 101.6293
" />
<circle cx="152.5504" cy="101.6251" r="0.2550" /> 
<circle cx="144.6750" cy="98.7500" r="0.2550" /> 
<circle cx="140.3004" cy="95.2751" r="0.2550" /> 
<path d="M151.9276 93.0544
L153.6247 91.3573
" />
<path d="M152.7761 93.9029
L151.9276 93.0544
" />
<path d="M153.6247 91.3573
L154.4732 92.2058
" />
<path d="M154.4732 92.2058
L152.7761 93.9029
" />
<circle cx="161.3004" cy="114.0001" r="1.0500" /> 
<path d="M156.2991 96.1072
L159.1275 93.2788
" />
<path d="M157.7133 97.5214
L156.2991 96.1072
" />
<path d="M159.1275 93.2788
L160.5417 94.6930
" />
<path d="M160.5417 94.6930
L157.7133 97.5214
" />
<path d="M129.6483 94.8752
L131.1455 94.4741
" />
<path d="M129.8424 95.5997
L129.6483 94.8752
" />
<path d="M131.1455 94.4741
L131.3396 95.1985
" />
<path d="M131.3396 95.1985
L129.8424 95.5997
" />
<circle cx="119.2504" cy="80.9501" r="0.2550" /> 
<path d="M153.5754 119.5251
L154.3254 119.5251
" />
<path d="M153.5754 121.0751
L153.5754 119.5251
" />
<path d="M154.3254 119.5251
L154.3254 121.0751
" />
<path d="M154.3254 121.0751
L153.5754 121.0751
" />
<path d="M142.0504 60.0001
L142.0504 62.5001
" />
<path d="M142.0504 62.5001
L145.2504 62.5001
" />
<path d="M145.2504 60.0001
L142.0504 60.0001
" />
<path d="M145.2504 62.5001
L145.2504 60.0001
" />
<circle cx="135.2004" cy="99.8001" r="0.2550" /> 
<path d="M130.1872 102.3329
L131.2832 101.2369
" />
<path d="M130.7176 102.8633
L130.1872 102.3329
" />
<path d="M131.2832 101.2369
L131.8136 101.7673
" />
<path d="M131.8136 101.7673
L130.7176 102.8633
" />
<path d="M151.1500 82.3400
L153.0500 82.3400
" />
<path d="M151.1500 86.5900
L151.1500 82.3400
" />
<path d="M153.0500 82.3400
L153.0500 86.5900
" />
<path d="M153.0500 86.5900
L151.1500 86.5900
" />
<path d="M129.8554 95.6480
L131.3526 95.2468
" />
<path d="M130.0495 96.3724
L129.8554 95.6480
" />
<path d="M131.3526 95.2468
L131.5467 95.9712
" />
<path d="M131.5467 95.9712
L130.0495 96.3724
" />
<path d="M143.5122 101.7173
L144.0426 101.1869
" />
<path d="M144.0426 101.1869
L145.1386 102.2829
" />
<path d="M144.6082 102.8133
L143.5122 101.7173
" />
<path d="M145.1386 102.2829
L144.6082 102.8133
" />
<path d="M136.9004 82.4001
L140.9004 82.4001
" />
<path d="M136.9004 84.4001
L136.9004 82.4001
" />
<path d="M140.9004 82.4001
L140.9004 84.4001
" />
<path d="M140.9004 84.4001
L136.9004 84.4001
" />
<circle cx="122.2754" cy="79.1501" r="0.2550" /> 
<circle cx="149.7167" cy="90.2604" r="0.2550" /> 
<path d="M141.2044 104.0158
L142.3004 102.9198
" />
<path d="M141.7347 104.5461
L141.2044 104.0158
" />
<path d="M142.3004 102.9198
L142.8307 103.4501
" />
<path d="M142.8307 103.4501
L141.7347 104.5461
" />
<circle cx="164.6232" cy="101.7529" r="0.2550" /> 
<path d="M153.1490 98.6466
L155.9420 95.8536
" />
<path d="M155.1289 100.6265
L153.1490 98.6466
" />
<path d="M155.9420 95.8536
L157.9219 97.8335
" />
<path d="M157.9219 97.8335
L155.1289 100.6265
" />
<circle cx="155.2004" cy="116.2001" r="0.2550" /> 
<path d="M127.2650 78.3750
L128.0150 78.3750
" />
<path d="M127.2650 79.9250
L127.2650 78.3750
" />
<path d="M128.0150 78.3750
L128.0150 79.9250
" />
<path d="M128.0150 79.9250
L127.2650 79.9250
" />
<path d="M171.6254 84.1301
L173.7754 84.1301
" />
<path d="M171.6254 85.2301
L171.6254 84.1301
" />
<path d="M173.7754 84.1301
L173.7754 85.2301
" />
<path d="M173.7754 85.2301
L171.6254 85.2301
" />
<path d="M159.0700 86.0850
L160.2700 86.0850
" />
<path d="M159.0700 88.7150
L159.0700 86.0850
" />
<path d="M160.2700 86.0850
L160.2700 88.7150
" />
<path d="M160.2700 88.7150
L159.0700 88.7150
" />
<path d="M125.6650 76.6050
L127.2150 76.6050
" />
<path d="M125.6650 77.3550
L125.6650 76.6050
" />
<path d="M127.2150 76.6050
L127.2150 77.3550
" />
<path d="M127.2150 77.3550
L125.6650 77.3550
" />
<circle cx="153.1504" cy="100.6501" r="0.2550" /> 
<path d="M154.4004 117.8001
L154.4004 121.2001
" />
<path d="M154.4004 121.2001
L157.8004 121.2001
" />
<path d="M157.8004 117.8001
L154.4004 117.8001
" />
<path d="M157.8004 121.2001
L157.8004 117.8001
" />
<circle cx="148.5004" cy="50.0001" r="1.0500" /> 
<path d="M148.1250 74.5250
L148.8750 74.5250
" />
<path d="M148.1250 76.0750
L148.1250 74.5250
" />
<path d="M148.8750 74.5250
L148.8750 76.0750
" />
<path d="M148.8750 76.0750
L148.1250 76.0750
" />
<path d="M140.9900 73.7550
L142.0900 73.7550
" />
<path d="M140.9900 75.9050
L140.9900 73.7550
" />
<path d="M142.0900 73.7550
L142.0900 75.9050
" />
<path d="M142.0900 75.9050
L140.9900 75.9050
" />
<path d="M153.3100 83.2000
L155.9400 83.2000
" />
<path d="M153.3100 84.4000
L153.3100 83.2000
" />
<path d="M155.9400 83.2000
L155.9400 84.4000
" />
<path d="M155.9400 84.4000
L153.3100 84.4000
" />
<circle cx="144.0675" cy="88.9201" r="0.2062" /> 
<path d="M167.8745 94.3945
L168.5992 91.6899
" />
<path d="M168.5992 91.6899
L170.3378 92.1557
" />
<path d="M169.6132 94.8603
L167.8745 94.3945
" />
<path d="M170.3378 92.1557
L169.6132 94.8603
" />
<path d="M131.3900 86.0900
L132.5900 86.0900
" />
<path d="M131.3900 88.7200
L131.3900 86.0900
" />
<path d="M132.5900 86.0900
L132.5900 88.7200
" />
<path d="M132.5900 88.7200
L131.3900 88.7200
" />
<path d="M136.8804 112.4701
L139.1204 112.4701
" />
<path d="M136.8804 117.0301
L136.8804 112.4701
" />
<path d="M139.1204 112.4701
L139.1204 117.0301
" />
<path d="M139.1204 117.0301
L136.8804 117.0301
" />
<path d="M174.6254 84.1301
L176.7754 84.1301
" />
<path d="M174.6254 85.2301
L174.6254 84.1301
" />
<path d="M176.7754 84.1301
L176.7754 85.2301
" />
<path d="M176.7754 85.2301
L174.6254 85.2301
" />
<path d="M142.6463 116.5057
L144.5060 114.6460
" />
<path d="M143.4948 117.3542
L142.6463 116.5057
" />
<path d="M144.5060 114.6460
L145.3545 115.4945
" />
<path d="M145.3545 115.4945
L143.4948 117.3542
" />
<path d="M144.0622 101.1673
L144.5926 100.6369
" />
<path d="M144.5926 100.6369
L145.6886 101.7329
" />
<path d="M145.1582 102.2633
L144.0622 101.1673
" />
<path d="M145.6886 101.7329
L145.1582 102.2633
" />
<circle cx="158.1004" cy="109.4001" r="0.2550" /> 
<path d="M159.3978 92.7420
L161.3423 90.7975
" />
<path d="M160.4585 93.8027
L159.3978 92.7420
" />
<path d="M161.3423 90.7975
L162.4030 91.8582
" />
<path d="M162.4030 91.8582
L160.4585 93.8027
" />
<circle cx="147.1511" cy="90.0737" r="0.2550" /> 
<circle cx="148.9667" cy="90.2604" r="0.2550" /> 
<circle cx="147.6704" cy="100.2501" r="0.2550" /> 
<path d="M155.0750 78.3750
L155.8250 78.3750
" />
<path d="M155.0750 79.9250
L155.0750 78.3750
" />
<path d="M155.8250 78.3750
L155.8250 79.9250
" />
<path d="M155.8250 79.9250
L155.0750 79.9250
" />
<path d="M147.9500 76.0750
L149.0500 76.0750
" />
<path d="M147.9500 78.2250
L147.9500 76.0750
" />
<path d="M149.0500 76.0750
L149.0500 78.2250
" />
<path d="M149.0500 78.2250
L147.9500 78.2250
" />
<path d="M123.1904 84.3101
L125.5904 84.3101
" />
<path d="M123.1904 85.5101
L123.1904 84.3101
" />
<path d="M125.5904 84.3101
L125.5904 85.5101
" />
<path d="M125.5904 85.5101
L123.1904 85.5101
" />
<path d="M125.6650 75.7950
L127.2150 75.7950
" />
<path d="M125.6650 76.5450
L125.6650 75.7950
" />
<path d="M127.2150 75.7950
L127.2150 76.5450
" />
<path d="M127.2150 76.5450
L125.6650 76.5450
" />
<path d="M139.5372 111.9329
L140.6332 110.8369
" />
<path d="M140.0676 112.4633
L139.5372 111.9329
" />
<path d="M140.6332 110.8369
L141.1636 111.3673
" />
<path d="M141.1636 111.3673
L140.0676 112.4633
" />
<path d="M166.1913 93.8783
L166.3854 93.1539
" />
<path d="M166.3854 93.1539
L167.8826 93.5550
" />
<path d="M167.6885 94.2795
L166.1913 93.8783
" />
<path d="M167.8826 93.5550
L167.6885 94.2795
" />
<circle cx="124.9004" cy="85.8501" r="0.2550" /> 
<path d="M159.5250 84.6000
L162.1550 84.6000
" />
<path d="M159.5250 85.8000
L159.5250 84.6000
" />
<path d="M162.1550 84.6000
L162.1550 85.8000
" />
<path d="M162.1550 85.8000
L159.5250 85.8000
" />
<circle cx="159.5104" cy="108.4701" r="0.2550" /> 
<circle cx="165.9750" cy="93.5750" r="0.2550" /> 
<path d="M160.4115 95.4854
L161.5075 94.3893
" />
<path d="M160.9418 96.0157
L160.4115 95.4854
" />
<path d="M161.5075 94.3893
L162.0378 94.9197
" />
<path d="M162.0378 94.9197
L160.9418 96.0157
" />
<path d="M153.0622 113.6923
L153.5926 113.1619
" />
<path d="M153.5926 113.1619
L154.6886 114.2579
" />
<path d="M154.1582 114.7883
L153.0622 113.6923
" />
<path d="M154.6886 114.2579
L154.1582 114.7883
" />
<path d="M161.4491 101.2572
L164.2775 98.4288
" />
<path d="M162.8633 102.6714
L161.4491 101.2572
" />
<path d="M164.2775 98.4288
L165.6917 99.8430
" />
<path d="M165.6917 99.8430
L162.8633 102.6714
" />
<path d="M144.6122 100.6173
L145.1426 100.0869
" />
<path d="M145.1426 100.0869
L146.2386 101.1829
" />
<path d="M145.7082 101.7133
L144.6122 100.6173
" />
<path d="M146.2386 101.1829
L145.7082 101.7133
" />
<path d="M140.8504 86.0501
L142.3504 86.0501
" />
<path d="M140.8504 88.8001
L140.8504 86.0501
" />
<path d="M142.3504 86.0501
L142.3504 88.8001
" />
<path d="M142.3504 88.8001
L140.8504 88.8001
" />
<circle cx="135.2004" cy="98.9001" r="0.2550" /> 
<circle cx="158.1004" cy="110.5501" r="0.2550" /> 
<circle cx="157.0804" cy="90.4501" r="0.2062" /> 
<path d="M142.2250 82.4000
L146.2250 82.4000
" />
<path d="M142.2250 84.4000
L142.2250 82.4000
" />
<path d="M146.2250 82.4000
L146.2250 84.4000
" />
<path d="M146.2250 84.4000
L142.2250 84.4000
" />
<circle cx="164.6875" cy="95.1125" r="0.2550" /> 
<circle cx="146.2804" cy="99.5401" r="0.2550" /> 
<path d="M165.5679 96.1856
L165.7620 95.4611
" />
<path d="M165.7620 95.4611
L167.2592 95.8623
" />
<path d="M167.0651 96.5868
L165.5679 96.1856
" />
<path d="M167.2592 95.8623
L167.0651 96.5868
" />
<path d="M139.5122 105.7173
L140.0426 105.1869
" />
<path d="M140.0426 105.1869
L141.1386 106.2829
" />
<path d="M140.6082 106.8133
L139.5122 105.7173
" />
<path d="M141.1386 106.2829
L140.6082 106.8133
" />
<path d="M127.0900 79.9500
L128.1900 79.9500
" />
<path d="M127.0900 82.1000
L127.0900 79.9500
" />
<path d="M128.1900 79.9500
L128.1900 82.1000
" />
<path d="M128.1900 82.1000
L127.0900 82.1000
" />
<path d="M146.5000 82.4000
L150.5000 82.4000
" />
<path d="M146.5000 84.4000
L146.5000 82.4000
" />
<path d="M150.5000 82.4000
L150.5000 84.4000
" />
<path d="M150.5000 84.4000
L146.5000 84.4000
" />
<path d="M140.0794 105.1408
L141.1754 104.0448
" />
<path d="M140.6097 105.6711
L140.0794 105.1408
" />
<path d="M141.1754 104.0448
L141.7057 104.5751
" />
<path d="M141.7057 104.5751
L140.6097 105.6711
" />
<path d="M140.6544 105.7158
L141.7504 104.6198
" />
<path d="M141.1847 106.2461
L140.6544 105.7158
" />
<path d="M141.7504 104.6198
L142.2807 105.1501
" />
<path d="M142.2807 105.1501
L141.1847 106.2461
" />
<path d="M166.8124 91.5601
L167.0066 90.8357
" />
<path d="M167.0066 90.8357
L168.5037 91.2368
" />
<path d="M168.3096 91.9613
L166.8124 91.5601
" />
<path d="M168.5037 91.2368
L168.3096 91.9613
" />
<path d="M145.0454 87.2251
L147.7954 87.2251
" />
<path d="M145.0454 88.7251
L145.0454 87.2251
" />
<path d="M147.7954 87.2251
L147.7954 88.7251
" />
<path d="M147.7954 88.7251
L145.0454 88.7251
" />
<path d="M127.2408 94.8733
L128.9794 94.4074
" />
<path d="M127.9655 97.5779
L127.2408 94.8733
" />
<path d="M128.9794 94.4074
L129.7041 97.1120
" />
<path d="M129.7041 97.1120
L127.9655 97.5779
" />
<path d="M152.8376 93.8508
L153.6861 93.0023
" />
<path d="M153.6861 93.0023
L155.3832 94.6994
" />
<path d="M154.5347 95.5479
L152.8376 93.8508
" />
<path d="M155.3832 94.6994
L154.5347 95.5479
" />
<path d="M123.1954 77.4501
L125.9454 77.4501
" />
<path d="M123.1954 78.9501
L123.1954 77.4501
" />
<path d="M125.9454 77.4501
L125.9454 78.9501
" />
<path d="M125.9454 78.9501
L123.1954 78.9501
" />
<path d="M158.2254 111.5751
L159.7754 111.5751
" />
<path d="M158.2254 112.3251
L158.2254 111.5751
" />
<path d="M159.7754 111.5751
L159.7754 112.3251
" />
<path d="M159.7754 112.3251
L158.2254 112.3251
" />
<path d="M140.4963 114.4057
L142.3560 112.5460
" />
<path d="M141.3448 115.2542
L140.4963 114.4057
" />
<path d="M142.3560 112.5460
L143.2045 113.3945
" />
<path d="M143.2045 113.3945
L141.3448 115.2542
" />
<path d="M133.3119 105.2490
L135.7160 107.6532
" />
<path d="M135.7160 107.6532
L138.4313 104.9379
" />
<path d="M136.0272 102.5337
L133.3119 105.2490
" />
<path d="M138.4313 104.9379
L136.0272 102.5337
" />
<path d="M164.6754 82.4001
L168.6754 82.4001
" />
<path d="M164.6754 84.4001
L164.6754 82.4001
" />
<path d="M168.6754 82.4001
L168.6754 84.4001
" />
<path d="M168.6754 84.4001
L164.6754 84.4001
" />
<path d="M117.0004 81.7301
L117.7004 81.0301
" />
<path d="M117.0004 85.2301
L117.0004 81.7301
" />
<path d="M117.0004 85.2301
L117.7004 85.9301
" />
<path d="M117.7004 81.0301
L120.7004 81.0301
" />
<path d="M117.7004 85.9301
L120.7004 85.9301
" />
<path d="M121.4004 81.7301
L120.7004 81.0301
" />
<path d="M121.4004 85.2301
L120.7004 85.9301
" />
<path d="M121.4004 85.2301
L121.4004 81.7301
" />
<circle cx="143.0754" cy="100.4001" r="0.2550" /> 
<path d="M148.1250 78.3750
L148.8750 78.3750
" />
<path d="M148.1250 79.9250
L148.1250 78.3750
" />
<path d="M148.8750 78.3750
L148.8750 79.9250
" />
<path d="M148.8750 79.9250
L148.1250 79.9250
" />
<path d="M147.9500 79.9500
L149.0500 79.9500
" />
<path d="M147.9500 82.1000
L147.9500 79.9500
" />
<path d="M149.0500 79.9500
L149.0500 82.1000
" />
<path d="M149.0500 82.1000
L147.9500 82.1000
" />
<circle cx="157.1004" cy="111.0001" r="0.2550" /> 
<path d="M142.6754 117.9251
L143.4254 117.9251
" />
<path d="M142.6754 119.4751
L142.6754 117.9251
" />
<path d="M143.4254 117.9251
L143.4254 119.4751
" />
<path d="M143.4254 119.4751
L142.6754 119.4751
" />
<circle cx="131.0204" cy="100.7201" r="0.2550" /> 
<path d="M145.1622 100.0673
L145.6926 99.5369
" />
<path d="M145.6926 99.5369
L146.7886 100.6329
" />
<path d="M146.2582 101.1633
L145.1622 100.0673
" />
<path d="M146.7886 100.6329
L146.2582 101.1633
" />
<path d="M165.3608 96.9583
L165.5549 96.2339
" />
<path d="M165.5549 96.2339
L167.0521 96.6351
" />
<path d="M166.8580 97.3595
L165.3608 96.9583
" />
<path d="M167.0521 96.6351
L166.8580 97.3595
" />
<path d="M143.3809 94.7501
L148.5004 99.8696
" />
<path d="M148.5004 89.6306
L143.3809 94.7501
" />
<path d="M148.5004 99.8696
L153.6199 94.7501
" />
<path d="M153.6199 94.7501
L148.5004 89.6306
" />
<path d="M156.1304 74.7001
L161.7704 74.7001
" />
<path d="M156.1304 82.2001
L156.1304 74.7001
" />
<path d="M161.7704 74.7001
L161.7704 82.2001
" />
<path d="M161.7704 82.2001
L156.1304 82.2001
" />
<path d="M121.0654 87.2381
L121.8154 87.2381
" />
<path d="M121.0654 88.7881
L121.0654 87.2381
" />
<path d="M121.8154 87.2381
L121.8154 88.7881
" />
<path d="M121.8154 88.7881
L121.0654 88.7881
" />
<circle cx="139.7704" cy="89.1165" r="0.2062" /> 
<path d="M123.2004 81.2601
L125.9504 81.2601
" />
<path d="M123.2004 82.7601
L123.2004 81.2601
" />
<path d="M125.9504 81.2601
L125.9504 82.7601
" />
<path d="M125.9504 82.7601
L123.2004 82.7601
" />
<circle cx="156.9504" cy="113.2001" r="0.2550" /> 
<path d="M131.6050 84.6000
L134.2350 84.6000
" />
<path d="M131.6050 85.8000
L131.6050 84.6000
" />
<path d="M134.2350 84.6000
L134.2350 85.8000
" />
<path d="M134.2350 85.8000
L131.6050 85.8000
" />
<circle cx="128.0004" cy="87.2001" r="0.2550" /> 
<path d="M119.5412 90.9232
L122.9576 103.6734
" />
<path d="M122.9576 103.6734
L129.1396 102.0170
" />
<path d="M125.7232 89.2668
L119.5412 90.9232
" />
<path d="M129.1396 102.0170
L125.7232 89.2668
" />
<path d="M152.4572 115.4173
L152.9876 114.8869
" />
<path d="M152.9876 114.8869
L154.0836 115.9829
" />
<path d="M153.5532 116.5133
L152.4572 115.4173
" />
<path d="M154.0836 115.9829
L153.5532 116.5133
" />
<path d="M124.6254 86.7751
L125.3754 86.7751
" />
<path d="M124.6254 88.3251
L124.6254 86.7751
" />
<path d="M125.3754 86.7751
L125.3754 88.3251
" />
<path d="M125.3754 88.3251
L124.6254 88.3251
" />
<circle cx="126.1749" cy="89.2251" r="0.2550" /> 
<circle cx="167.0904" cy="90.3601" r="0.2550" /> 
<path d="M135.2304 74.8001
L140.8704 74.8001
" />
<path d="M135.2304 82.3001
L135.2304 74.8001
" />
<path d="M140.8704 74.8001
L140.8704 82.3001
" />
<path d="M140.8704 82.3001
L135.2304 82.3001
" />
<path d="M177.4760 69.2873
L174.4882 71.0123
" />
<path d="M179.2010 72.2751
L177.4760 69.2873
" />
<path d="M179.2010 72.2751
L180.9260 75.2629
" />
<path d="M180.9260 75.2629
L177.9382 76.9879
" />
<path d="M174.4882 71.0123 A3.4500 3.4500 0.0 0 0 177.9382 76.9879" />
<path d="M153.6213 112.9195
L154.4698 112.0710
" />
<path d="M154.4698 112.0710
L156.3295 113.9307
" />
<path d="M155.4810 114.7792
L153.6213 112.9195
" />
<path d="M156.3295 113.9307
L155.4810 114.7792
" />
<path d="M123.1954 79.3501
L125.9454 79.3501
" />
<path d="M123.1954 80.8501
L123.1954 79.3501
" />
<path d="M125.9454 79.3501
L125.9454 80.8501
" />
<path d="M125.9454 80.8501
L123.1954 80.8501
" />
</g>
<g style="fill:none; 
stroke:#000000; stroke-width:0.1524; stroke-opacity:1; 
stroke-linecap:round; stroke-linejoin:round;">
<path d="M171.5504 78.9729
L172.1430 78.9729
" />
<path d="M171.5504 83.3873
L171.5504 78.9729
" />
<path d="M171.5504 83.3873
L172.1430 83.3873
" />
<path d="M172.1430 78.3734
L176.2578 78.3734
" />
<path d="M172.1430 78.9729
L172.1430 78.3734
" />
<path d="M172.1430 83.9868
L172.1430 83.3873
" />
<path d="M176.2578 78.3734
L176.2578 78.9729
" />
<path d="M176.2578 83.3873
L176.2578 83.9868
" />
<path d="M176.2578 83.9868
L172.1430 83.9868
" />
<path d="M176.8504 78.9729
L176.2578 78.9729
" />
<path d="M176.8504 78.9729
L176.8504 83.3873
" />
<path d="M176.8504 83.3873
L176.2578 83.3873
" />
</g>
<g style="fill:none; 
stroke:#000000; stroke-width:0.0500; stroke-opacity:1; 
stroke-linecap:round; stroke-linejoin:round;">
<path d="M126.8254 87.5001
L128.3754 87.5001
" />
<path d="M126.8254 88.2501
L126.8254 87.5001
" />
<path d="M128.3754 87.5001
L128.3754 88.2501
" />
<path d="M128.3754 88.2501
L126.8254 88.2501
" />
<path d="M130.4746 97.9662
L131.9718 97.5650
" />
<path d="M130.6688 98.6906
L130.4746 97.9662
" />
<path d="M131.9718 97.5650
L132.1659 98.2895
" />
<path d="M132.1659 98.2895
L130.6688 98.6906
" />
<path d="M167.0437 97.4876
L167.7684 94.7830
" />
<path d="M167.7684 94.7830
L169.5071 95.2489
" />
<path d="M168.7824 97.9535
L167.0437 97.4876
" />
<path d="M169.5071 95.2489
L168.7824 97.9535
" />
<path d="M132.6000 82.4000
L136.6000 82.4000
" />
<path d="M132.6000 84.4000
L132.6000 82.4000
" />
<path d="M136.6000 82.4000
L136.6000 84.4000
" />
<path d="M136.6000 84.4000
L132.6000 84.4000
" />
<circle cx="157.0804" cy="89.2501" r="0.2062" /> 
</g> 
</svg>
