<?xml version="1.0" standalone="no"?>
 <!DOCTYPE svg PUBLIC "-//W3C//DTD SVG 1.1//EN" 
 "http://www.w3.org/Graphics/SVG/1.1/DTD/svg11.dtd"> 
<svg
  xmlns:svg="http://www.w3.org/2000/svg"
  xmlns="http://www.w3.org/2000/svg"
  xmlns:xlink="http://www.w3.org/1999/xlink"
  version="1.1"
  width="297.0022mm" height="210.0072mm" viewBox="0.0000 0.0000 297.0022 210.0072">
<title>SVG Image created as amulet_controller-B_Silkscreen.svg date 2025/01/18 17:12:59 </title>
  <desc>Image generated by PCBNEW </desc>
<g style="fill:#000000; fill-opacity:1.0000;stroke:#000000; stroke-opacity:1.0000;
stroke-linecap:round; stroke-linejoin:round;"
 transform="translate(0 0) scale(1 1)">
</g>
<g style="fill:none; 
stroke:#000000; stroke-width:0.1500; stroke-opacity:1; 
stroke-linecap:round; stroke-linejoin:round;">
<path d="M10.0000 10.0000
L287.0022 10.0000
L287.0022 200.0072
L10.0000 200.0072
L10.0000 10.0000
" />
</g>
<g style="fill:none; 
stroke:#000000; stroke-width:0.1500; stroke-opacity:1; 
stroke-linecap:round; stroke-linejoin:round;">
<path d="M12.0000 12.0000
L285.0022 12.0000
L285.0022 198.0072
L12.0000 198.0072
L12.0000 12.0000
" />
</g>
<g style="fill:none; 
stroke:#000000; stroke-width:0.1500; stroke-opacity:1; 
stroke-linecap:round; stroke-linejoin:round;">
<path d="M60.0000 12.0000
L60.0000 10.0000
" />
</g>
<g style="fill:none; 
stroke:#000000; stroke-width:0.1500; stroke-opacity:1; 
stroke-linecap:round; stroke-linejoin:round;">
<path d="M110.0000 12.0000
L110.0000 10.0000
" />
</g>
<g style="fill:none; 
stroke:#000000; stroke-width:0.1500; stroke-opacity:1; 
stroke-linecap:round; stroke-linejoin:round;">
<path d="M160.0000 12.0000
L160.0000 10.0000
" />
</g>
<g style="fill:none; 
stroke:#000000; stroke-width:0.1500; stroke-opacity:1; 
stroke-linecap:round; stroke-linejoin:round;">
<path d="M210.0000 12.0000
L210.0000 10.0000
" />
</g>
<g style="fill:none; 
stroke:#000000; stroke-width:0.1500; stroke-opacity:1; 
stroke-linecap:round; stroke-linejoin:round;">
<path d="M260.0000 12.0000
L260.0000 10.0000
" />
</g>
<g style="fill:none; 
stroke:#000000; stroke-width:0.1500; stroke-opacity:1; 
stroke-linecap:round; stroke-linejoin:round;">
<text x="35.0000" y="11.6500"
textLength="1.4281" font-size="1.7333" lengthAdjust="spacingAndGlyphs"
text-anchor="start" opacity="0" stroke-opacity="0">1</text>
<g class="stroked-text"><desc>1</desc>
<path d="M36.0892 11.5936
L35.3463 11.5936
" />
<path d="M35.7177 11.5936
L35.7177 10.2936
" />
<path d="M35.7177 10.2936
L35.5939 10.4793
" />
<path d="M35.5939 10.4793
L35.4701 10.6031
" />
<path d="M35.4701 10.6031
L35.3463 10.6650
" />
</g></g>
<g style="fill:none; 
stroke:#000000; stroke-width:0.1500; stroke-opacity:1; 
stroke-linecap:round; stroke-linejoin:round;">
<text x="85.0000" y="11.6500"
textLength="1.4281" font-size="1.7333" lengthAdjust="spacingAndGlyphs"
text-anchor="start" opacity="0" stroke-opacity="0">2</text>
<g class="stroked-text"><desc>2</desc>
<path d="M85.3463 10.4174
L85.4082 10.3555
" />
<path d="M85.4082 10.3555
L85.5320 10.2936
" />
<path d="M85.5320 10.2936
L85.8415 10.2936
" />
<path d="M85.8415 10.2936
L85.9654 10.3555
" />
<path d="M85.9654 10.3555
L86.0273 10.4174
" />
<path d="M86.0273 10.4174
L86.0892 10.5412
" />
<path d="M86.0892 10.5412
L86.0892 10.6650
" />
<path d="M86.0892 10.6650
L86.0273 10.8507
" />
<path d="M86.0273 10.8507
L85.2844 11.5936
" />
<path d="M85.2844 11.5936
L86.0892 11.5936
" />
</g></g>
<g style="fill:none; 
stroke:#000000; stroke-width:0.1500; stroke-opacity:1; 
stroke-linecap:round; stroke-linejoin:round;">
<text x="135.0000" y="11.6500"
textLength="1.4281" font-size="1.7333" lengthAdjust="spacingAndGlyphs"
text-anchor="start" opacity="0" stroke-opacity="0">3</text>
<g class="stroked-text"><desc>3</desc>
<path d="M135.2844 10.2936
L136.0892 10.2936
" />
<path d="M136.0892 10.2936
L135.6558 10.7888
" />
<path d="M135.6558 10.7888
L135.8415 10.7888
" />
<path d="M135.8415 10.7888
L135.9654 10.8507
" />
<path d="M135.9654 10.8507
L136.0273 10.9127
" />
<path d="M136.0273 10.9127
L136.0892 11.0365
" />
<path d="M136.0892 11.0365
L136.0892 11.3460
" />
<path d="M136.0892 11.3460
L136.0273 11.4698
" />
<path d="M136.0273 11.4698
L135.9654 11.5317
" />
<path d="M135.9654 11.5317
L135.8415 11.5936
" />
<path d="M135.8415 11.5936
L135.4701 11.5936
" />
<path d="M135.4701 11.5936
L135.3463 11.5317
" />
<path d="M135.3463 11.5317
L135.2844 11.4698
" />
</g></g>
<g style="fill:none; 
stroke:#000000; stroke-width:0.1500; stroke-opacity:1; 
stroke-linecap:round; stroke-linejoin:round;">
<text x="185.0000" y="11.6500"
textLength="1.4281" font-size="1.7333" lengthAdjust="spacingAndGlyphs"
text-anchor="start" opacity="0" stroke-opacity="0">4</text>
<g class="stroked-text"><desc>4</desc>
<path d="M185.9654 10.7269
L185.9654 11.5936
" />
<path d="M185.6558 10.2317
L185.3463 11.1603
" />
<path d="M185.3463 11.1603
L186.1511 11.1603
" />
</g></g>
<g style="fill:none; 
stroke:#000000; stroke-width:0.1500; stroke-opacity:1; 
stroke-linecap:round; stroke-linejoin:round;">
<text x="235.0000" y="11.6500"
textLength="1.4281" font-size="1.7333" lengthAdjust="spacingAndGlyphs"
text-anchor="start" opacity="0" stroke-opacity="0">5</text>
<g class="stroked-text"><desc>5</desc>
<path d="M236.0273 10.2936
L235.4082 10.2936
" />
<path d="M235.4082 10.2936
L235.3463 10.9127
" />
<path d="M235.3463 10.9127
L235.4082 10.8507
" />
<path d="M235.4082 10.8507
L235.5320 10.7888
" />
<path d="M235.5320 10.7888
L235.8415 10.7888
" />
<path d="M235.8415 10.7888
L235.9654 10.8507
" />
<path d="M235.9654 10.8507
L236.0273 10.9127
" />
<path d="M236.0273 10.9127
L236.0892 11.0365
" />
<path d="M236.0892 11.0365
L236.0892 11.3460
" />
<path d="M236.0892 11.3460
L236.0273 11.4698
" />
<path d="M236.0273 11.4698
L235.9654 11.5317
" />
<path d="M235.9654 11.5317
L235.8415 11.5936
" />
<path d="M235.8415 11.5936
L235.5320 11.5936
" />
<path d="M235.5320 11.5936
L235.4082 11.5317
" />
<path d="M235.4082 11.5317
L235.3463 11.4698
" />
</g></g>
<g style="fill:none; 
stroke:#000000; stroke-width:0.1500; stroke-opacity:1; 
stroke-linecap:round; stroke-linejoin:round;">
<text x="285.0000" y="11.6500"
textLength="1.4281" font-size="1.7333" lengthAdjust="spacingAndGlyphs"
text-anchor="start" opacity="0" stroke-opacity="0">6</text>
<g class="stroked-text"><desc>6</desc>
<path d="M285.9654 10.2936
L285.7177 10.2936
" />
<path d="M285.7177 10.2936
L285.5939 10.3555
" />
<path d="M285.5939 10.3555
L285.5320 10.4174
" />
<path d="M285.5320 10.4174
L285.4082 10.6031
" />
<path d="M285.4082 10.6031
L285.3463 10.8507
" />
<path d="M285.3463 10.8507
L285.3463 11.3460
" />
<path d="M285.3463 11.3460
L285.4082 11.4698
" />
<path d="M285.4082 11.4698
L285.4701 11.5317
" />
<path d="M285.4701 11.5317
L285.5939 11.5936
" />
<path d="M285.5939 11.5936
L285.8415 11.5936
" />
<path d="M285.8415 11.5936
L285.9654 11.5317
" />
<path d="M285.9654 11.5317
L286.0273 11.4698
" />
<path d="M286.0273 11.4698
L286.0892 11.3460
" />
<path d="M286.0892 11.3460
L286.0892 11.0365
" />
<path d="M286.0892 11.0365
L286.0273 10.9127
" />
<path d="M286.0273 10.9127
L285.9654 10.8507
" />
<path d="M285.9654 10.8507
L285.8415 10.7888
" />
<path d="M285.8415 10.7888
L285.5939 10.7888
" />
<path d="M285.5939 10.7888
L285.4701 10.8507
" />
<path d="M285.4701 10.8507
L285.4082 10.9127
" />
<path d="M285.4082 10.9127
L285.3463 11.0365
" />
</g></g>
<g style="fill:none; 
stroke:#000000; stroke-width:0.1500; stroke-opacity:1; 
stroke-linecap:round; stroke-linejoin:round;">
<path d="M60.0000 198.0072
L60.0000 200.0072
" />
</g>
<g style="fill:none; 
stroke:#000000; stroke-width:0.1500; stroke-opacity:1; 
stroke-linecap:round; stroke-linejoin:round;">
<path d="M110.0000 198.0072
L110.0000 200.0072
" />
</g>
<g style="fill:none; 
stroke:#000000; stroke-width:0.1500; stroke-opacity:1; 
stroke-linecap:round; stroke-linejoin:round;">
<path d="M160.0000 198.0072
L160.0000 200.0072
" />
</g>
<g style="fill:none; 
stroke:#000000; stroke-width:0.1500; stroke-opacity:1; 
stroke-linecap:round; stroke-linejoin:round;">
<path d="M210.0000 198.0072
L210.0000 200.0072
" />
</g>
<g style="fill:none; 
stroke:#000000; stroke-width:0.1500; stroke-opacity:1; 
stroke-linecap:round; stroke-linejoin:round;">
<path d="M260.0000 198.0072
L260.0000 200.0072
" />
</g>
<g style="fill:none; 
stroke:#000000; stroke-width:0.1500; stroke-opacity:1; 
stroke-linecap:round; stroke-linejoin:round;">
<text x="35.0000" y="199.6572"
textLength="1.4281" font-size="1.7333" lengthAdjust="spacingAndGlyphs"
text-anchor="start" opacity="0" stroke-opacity="0">1</text>
<g class="stroked-text"><desc>1</desc>
<path d="M36.0892 199.6008
L35.3463 199.6008
" />
<path d="M35.7177 199.6008
L35.7177 198.3008
" />
<path d="M35.7177 198.3008
L35.5939 198.4865
" />
<path d="M35.5939 198.4865
L35.4701 198.6103
" />
<path d="M35.4701 198.6103
L35.3463 198.6722
" />
</g></g>
<g style="fill:none; 
stroke:#000000; stroke-width:0.1500; stroke-opacity:1; 
stroke-linecap:round; stroke-linejoin:round;">
<text x="85.0000" y="199.6572"
textLength="1.4281" font-size="1.7333" lengthAdjust="spacingAndGlyphs"
text-anchor="start" opacity="0" stroke-opacity="0">2</text>
<g class="stroked-text"><desc>2</desc>
<path d="M85.3463 198.4246
L85.4082 198.3627
" />
<path d="M85.4082 198.3627
L85.5320 198.3008
" />
<path d="M85.5320 198.3008
L85.8415 198.3008
" />
<path d="M85.8415 198.3008
L85.9654 198.3627
" />
<path d="M85.9654 198.3627
L86.0273 198.4246
" />
<path d="M86.0273 198.4246
L86.0892 198.5484
" />
<path d="M86.0892 198.5484
L86.0892 198.6722
" />
<path d="M86.0892 198.6722
L86.0273 198.8579
" />
<path d="M86.0273 198.8579
L85.2844 199.6008
" />
<path d="M85.2844 199.6008
L86.0892 199.6008
" />
</g></g>
<g style="fill:none; 
stroke:#000000; stroke-width:0.1500; stroke-opacity:1; 
stroke-linecap:round; stroke-linejoin:round;">
<text x="135.0000" y="199.6572"
textLength="1.4281" font-size="1.7333" lengthAdjust="spacingAndGlyphs"
text-anchor="start" opacity="0" stroke-opacity="0">3</text>
<g class="stroked-text"><desc>3</desc>
<path d="M135.2844 198.3008
L136.0892 198.3008
" />
<path d="M136.0892 198.3008
L135.6558 198.7960
" />
<path d="M135.6558 198.7960
L135.8415 198.7960
" />
<path d="M135.8415 198.7960
L135.9654 198.8579
" />
<path d="M135.9654 198.8579
L136.0273 198.9199
" />
<path d="M136.0273 198.9199
L136.0892 199.0437
" />
<path d="M136.0892 199.0437
L136.0892 199.3532
" />
<path d="M136.0892 199.3532
L136.0273 199.4770
" />
<path d="M136.0273 199.4770
L135.9654 199.5389
" />
<path d="M135.9654 199.5389
L135.8415 199.6008
" />
<path d="M135.8415 199.6008
L135.4701 199.6008
" />
<path d="M135.4701 199.6008
L135.3463 199.5389
" />
<path d="M135.3463 199.5389
L135.2844 199.4770
" />
</g></g>
<g style="fill:none; 
stroke:#000000; stroke-width:0.1500; stroke-opacity:1; 
stroke-linecap:round; stroke-linejoin:round;">
<text x="185.0000" y="199.6572"
textLength="1.4281" font-size="1.7333" lengthAdjust="spacingAndGlyphs"
text-anchor="start" opacity="0" stroke-opacity="0">4</text>
<g class="stroked-text"><desc>4</desc>
<path d="M185.9654 198.7341
L185.9654 199.6008
" />
<path d="M185.6558 198.2389
L185.3463 199.1675
" />
<path d="M185.3463 199.1675
L186.1511 199.1675
" />
</g></g>
<g style="fill:none; 
stroke:#000000; stroke-width:0.1500; stroke-opacity:1; 
stroke-linecap:round; stroke-linejoin:round;">
<text x="235.0000" y="199.6572"
textLength="1.4281" font-size="1.7333" lengthAdjust="spacingAndGlyphs"
text-anchor="start" opacity="0" stroke-opacity="0">5</text>
<g class="stroked-text"><desc>5</desc>
<path d="M236.0273 198.3008
L235.4082 198.3008
" />
<path d="M235.4082 198.3008
L235.3463 198.9199
" />
<path d="M235.3463 198.9199
L235.4082 198.8579
" />
<path d="M235.4082 198.8579
L235.5320 198.7960
" />
<path d="M235.5320 198.7960
L235.8415 198.7960
" />
<path d="M235.8415 198.7960
L235.9654 198.8579
" />
<path d="M235.9654 198.8579
L236.0273 198.9199
" />
<path d="M236.0273 198.9199
L236.0892 199.0437
" />
<path d="M236.0892 199.0437
L236.0892 199.3532
" />
<path d="M236.0892 199.3532
L236.0273 199.4770
" />
<path d="M236.0273 199.4770
L235.9654 199.5389
" />
<path d="M235.9654 199.5389
L235.8415 199.6008
" />
<path d="M235.8415 199.6008
L235.5320 199.6008
" />
<path d="M235.5320 199.6008
L235.4082 199.5389
" />
<path d="M235.4082 199.5389
L235.3463 199.4770
" />
</g></g>
<g style="fill:none; 
stroke:#000000; stroke-width:0.1500; stroke-opacity:1; 
stroke-linecap:round; stroke-linejoin:round;">
<text x="285.0000" y="199.6572"
textLength="1.4281" font-size="1.7333" lengthAdjust="spacingAndGlyphs"
text-anchor="start" opacity="0" stroke-opacity="0">6</text>
<g class="stroked-text"><desc>6</desc>
<path d="M285.9654 198.3008
L285.7177 198.3008
" />
<path d="M285.7177 198.3008
L285.5939 198.3627
" />
<path d="M285.5939 198.3627
L285.5320 198.4246
" />
<path d="M285.5320 198.4246
L285.4082 198.6103
" />
<path d="M285.4082 198.6103
L285.3463 198.8579
" />
<path d="M285.3463 198.8579
L285.3463 199.3532
" />
<path d="M285.3463 199.3532
L285.4082 199.4770
" />
<path d="M285.4082 199.4770
L285.4701 199.5389
" />
<path d="M285.4701 199.5389
L285.5939 199.6008
" />
<path d="M285.5939 199.6008
L285.8415 199.6008
" />
<path d="M285.8415 199.6008
L285.9654 199.5389
" />
<path d="M285.9654 199.5389
L286.0273 199.4770
" />
<path d="M286.0273 199.4770
L286.0892 199.3532
" />
<path d="M286.0892 199.3532
L286.0892 199.0437
" />
<path d="M286.0892 199.0437
L286.0273 198.9199
" />
<path d="M286.0273 198.9199
L285.9654 198.8579
" />
<path d="M285.9654 198.8579
L285.8415 198.7960
" />
<path d="M285.8415 198.7960
L285.5939 198.7960
" />
<path d="M285.5939 198.7960
L285.4701 198.8579
" />
<path d="M285.4701 198.8579
L285.4082 198.9199
" />
<path d="M285.4082 198.9199
L285.3463 199.0437
" />
</g></g>
<g style="fill:none; 
stroke:#000000; stroke-width:0.1500; stroke-opacity:1; 
stroke-linecap:round; stroke-linejoin:round;">
<path d="M10.0000 60.0000
L12.0000 60.0000
" />
</g>
<g style="fill:none; 
stroke:#000000; stroke-width:0.1500; stroke-opacity:1; 
stroke-linecap:round; stroke-linejoin:round;">
<path d="M10.0000 110.0000
L12.0000 110.0000
" />
</g>
<g style="fill:none; 
stroke:#000000; stroke-width:0.1500; stroke-opacity:1; 
stroke-linecap:round; stroke-linejoin:round;">
<path d="M10.0000 160.0000
L12.0000 160.0000
" />
</g>
<g style="fill:none; 
stroke:#000000; stroke-width:0.1500; stroke-opacity:1; 
stroke-linecap:round; stroke-linejoin:round;">
<text x="11.0000" y="35.6500"
textLength="1.3043" font-size="1.7333" lengthAdjust="spacingAndGlyphs"
text-anchor="middle" opacity="0" stroke-opacity="0">A</text>
<g class="stroked-text"><desc>A</desc>
<path d="M10.6905 35.2222
L11.3095 35.2222
" />
<path d="M10.5667 35.5936
L11.0000 34.2936
" />
<path d="M11.0000 34.2936
L11.4333 35.5936
" />
</g></g>
<g style="fill:none; 
stroke:#000000; stroke-width:0.1500; stroke-opacity:1; 
stroke-linecap:round; stroke-linejoin:round;">
<text x="11.0000" y="85.6500"
textLength="1.4900" font-size="1.7333" lengthAdjust="spacingAndGlyphs"
text-anchor="middle" opacity="0" stroke-opacity="0">B</text>
<g class="stroked-text"><desc>B</desc>
<path d="M11.0929 84.9127
L11.2786 84.9746
" />
<path d="M11.2786 84.9746
L11.3405 85.0365
" />
<path d="M11.3405 85.0365
L11.4024 85.1603
" />
<path d="M11.4024 85.1603
L11.4024 85.3460
" />
<path d="M11.4024 85.3460
L11.3405 85.4698
" />
<path d="M11.3405 85.4698
L11.2786 85.5317
" />
<path d="M11.2786 85.5317
L11.1548 85.5936
" />
<path d="M11.1548 85.5936
L10.6595 85.5936
" />
<path d="M10.6595 85.5936
L10.6595 84.2936
" />
<path d="M10.6595 84.2936
L11.0929 84.2936
" />
<path d="M11.0929 84.2936
L11.2167 84.3555
" />
<path d="M11.2167 84.3555
L11.2786 84.4174
" />
<path d="M11.2786 84.4174
L11.3405 84.5412
" />
<path d="M11.3405 84.5412
L11.3405 84.6650
" />
<path d="M11.3405 84.6650
L11.2786 84.7888
" />
<path d="M11.2786 84.7888
L11.2167 84.8507
" />
<path d="M11.2167 84.8507
L11.0929 84.9127
" />
<path d="M11.0929 84.9127
L10.6595 84.9127
" />
</g></g>
<g style="fill:none; 
stroke:#000000; stroke-width:0.1500; stroke-opacity:1; 
stroke-linecap:round; stroke-linejoin:round;">
<text x="11.0000" y="135.6500"
textLength="1.4900" font-size="1.7333" lengthAdjust="spacingAndGlyphs"
text-anchor="middle" opacity="0" stroke-opacity="0">C</text>
<g class="stroked-text"><desc>C</desc>
<path d="M11.4024 135.4698
L11.3405 135.5317
" />
<path d="M11.3405 135.5317
L11.1548 135.5936
" />
<path d="M11.1548 135.5936
L11.0310 135.5936
" />
<path d="M11.0310 135.5936
L10.8452 135.5317
" />
<path d="M10.8452 135.5317
L10.7214 135.4079
" />
<path d="M10.7214 135.4079
L10.6595 135.2841
" />
<path d="M10.6595 135.2841
L10.5976 135.0365
" />
<path d="M10.5976 135.0365
L10.5976 134.8507
" />
<path d="M10.5976 134.8507
L10.6595 134.6031
" />
<path d="M10.6595 134.6031
L10.7214 134.4793
" />
<path d="M10.7214 134.4793
L10.8452 134.3555
" />
<path d="M10.8452 134.3555
L11.0310 134.2936
" />
<path d="M11.0310 134.2936
L11.1548 134.2936
" />
<path d="M11.1548 134.2936
L11.3405 134.3555
" />
<path d="M11.3405 134.3555
L11.4024 134.4174
" />
</g></g>
<g style="fill:none; 
stroke:#000000; stroke-width:0.1500; stroke-opacity:1; 
stroke-linecap:round; stroke-linejoin:round;">
<text x="11.0000" y="185.6500"
textLength="1.4900" font-size="1.7333" lengthAdjust="spacingAndGlyphs"
text-anchor="middle" opacity="0" stroke-opacity="0">D</text>
<g class="stroked-text"><desc>D</desc>
<path d="M10.6595 185.5936
L10.6595 184.2936
" />
<path d="M10.6595 184.2936
L10.9690 184.2936
" />
<path d="M10.9690 184.2936
L11.1548 184.3555
" />
<path d="M11.1548 184.3555
L11.2786 184.4793
" />
<path d="M11.2786 184.4793
L11.3405 184.6031
" />
<path d="M11.3405 184.6031
L11.4024 184.8507
" />
<path d="M11.4024 184.8507
L11.4024 185.0365
" />
<path d="M11.4024 185.0365
L11.3405 185.2841
" />
<path d="M11.3405 185.2841
L11.2786 185.4079
" />
<path d="M11.2786 185.4079
L11.1548 185.5317
" />
<path d="M11.1548 185.5317
L10.9690 185.5936
" />
<path d="M10.9690 185.5936
L10.6595 185.5936
" />
</g></g>
<g style="fill:none; 
stroke:#000000; stroke-width:0.1500; stroke-opacity:1; 
stroke-linecap:round; stroke-linejoin:round;">
<path d="M287.0022 60.0000
L285.0022 60.0000
" />
</g>
<g style="fill:none; 
stroke:#000000; stroke-width:0.1500; stroke-opacity:1; 
stroke-linecap:round; stroke-linejoin:round;">
<path d="M287.0022 110.0000
L285.0022 110.0000
" />
</g>
<g style="fill:none; 
stroke:#000000; stroke-width:0.1500; stroke-opacity:1; 
stroke-linecap:round; stroke-linejoin:round;">
<path d="M287.0022 160.0000
L285.0022 160.0000
" />
</g>
<g style="fill:none; 
stroke:#000000; stroke-width:0.1500; stroke-opacity:1; 
stroke-linecap:round; stroke-linejoin:round;">
<text x="286.0022" y="35.6500"
textLength="1.3043" font-size="1.7333" lengthAdjust="spacingAndGlyphs"
text-anchor="middle" opacity="0" stroke-opacity="0">A</text>
<g class="stroked-text"><desc>A</desc>
<path d="M285.6927 35.2222
L286.3117 35.2222
" />
<path d="M285.5689 35.5936
L286.0022 34.2936
" />
<path d="M286.0022 34.2936
L286.4355 35.5936
" />
</g></g>
<g style="fill:none; 
stroke:#000000; stroke-width:0.1500; stroke-opacity:1; 
stroke-linecap:round; stroke-linejoin:round;">
<text x="286.0022" y="85.6500"
textLength="1.4900" font-size="1.7333" lengthAdjust="spacingAndGlyphs"
text-anchor="middle" opacity="0" stroke-opacity="0">B</text>
<g class="stroked-text"><desc>B</desc>
<path d="M286.0951 84.9127
L286.2808 84.9746
" />
<path d="M286.2808 84.9746
L286.3427 85.0365
" />
<path d="M286.3427 85.0365
L286.4046 85.1603
" />
<path d="M286.4046 85.1603
L286.4046 85.3460
" />
<path d="M286.4046 85.3460
L286.3427 85.4698
" />
<path d="M286.3427 85.4698
L286.2808 85.5317
" />
<path d="M286.2808 85.5317
L286.1570 85.5936
" />
<path d="M286.1570 85.5936
L285.6617 85.5936
" />
<path d="M285.6617 85.5936
L285.6617 84.2936
" />
<path d="M285.6617 84.2936
L286.0951 84.2936
" />
<path d="M286.0951 84.2936
L286.2189 84.3555
" />
<path d="M286.2189 84.3555
L286.2808 84.4174
" />
<path d="M286.2808 84.4174
L286.3427 84.5412
" />
<path d="M286.3427 84.5412
L286.3427 84.6650
" />
<path d="M286.3427 84.6650
L286.2808 84.7888
" />
<path d="M286.2808 84.7888
L286.2189 84.8507
" />
<path d="M286.2189 84.8507
L286.0951 84.9127
" />
<path d="M286.0951 84.9127
L285.6617 84.9127
" />
</g></g>
<g style="fill:none; 
stroke:#000000; stroke-width:0.1500; stroke-opacity:1; 
stroke-linecap:round; stroke-linejoin:round;">
<text x="286.0022" y="135.6500"
textLength="1.4900" font-size="1.7333" lengthAdjust="spacingAndGlyphs"
text-anchor="middle" opacity="0" stroke-opacity="0">C</text>
<g class="stroked-text"><desc>C</desc>
<path d="M286.4046 135.4698
L286.3427 135.5317
" />
<path d="M286.3427 135.5317
L286.1570 135.5936
" />
<path d="M286.1570 135.5936
L286.0332 135.5936
" />
<path d="M286.0332 135.5936
L285.8474 135.5317
" />
<path d="M285.8474 135.5317
L285.7236 135.4079
" />
<path d="M285.7236 135.4079
L285.6617 135.2841
" />
<path d="M285.6617 135.2841
L285.5998 135.0365
" />
<path d="M285.5998 135.0365
L285.5998 134.8507
" />
<path d="M285.5998 134.8507
L285.6617 134.6031
" />
<path d="M285.6617 134.6031
L285.7236 134.4793
" />
<path d="M285.7236 134.4793
L285.8474 134.3555
" />
<path d="M285.8474 134.3555
L286.0332 134.2936
" />
<path d="M286.0332 134.2936
L286.1570 134.2936
" />
<path d="M286.1570 134.2936
L286.3427 134.3555
" />
<path d="M286.3427 134.3555
L286.4046 134.4174
" />
</g></g>
<g style="fill:none; 
stroke:#000000; stroke-width:0.1500; stroke-opacity:1; 
stroke-linecap:round; stroke-linejoin:round;">
<text x="286.0022" y="185.6500"
textLength="1.4900" font-size="1.7333" lengthAdjust="spacingAndGlyphs"
text-anchor="middle" opacity="0" stroke-opacity="0">D</text>
<g class="stroked-text"><desc>D</desc>
<path d="M285.6617 185.5936
L285.6617 184.2936
" />
<path d="M285.6617 184.2936
L285.9712 184.2936
" />
<path d="M285.9712 184.2936
L286.1570 184.3555
" />
<path d="M286.1570 184.3555
L286.2808 184.4793
" />
<path d="M286.2808 184.4793
L286.3427 184.6031
" />
<path d="M286.3427 184.6031
L286.4046 184.8507
" />
<path d="M286.4046 184.8507
L286.4046 185.0365
" />
<path d="M286.4046 185.0365
L286.3427 185.2841
" />
<path d="M286.3427 185.2841
L286.2808 185.4079
" />
<path d="M286.2808 185.4079
L286.1570 185.5317
" />
<path d="M286.1570 185.5317
L285.9712 185.5936
" />
<path d="M285.9712 185.5936
L285.6617 185.5936
" />
</g></g>
<g style="fill:none; 
stroke:#000000; stroke-width:0.5000; stroke-opacity:1; 
stroke-linecap:round; stroke-linejoin:round;">
<text x="261.4022" y="195.2570"
textLength="1.7488" font-size="3.3333" lengthAdjust="spacingAndGlyphs"
text-anchor="start" opacity="0" stroke-opacity="0">1</text>
<g class="stroked-text"><desc>1</desc>
<path style="fill:#000000; fill-opacity:1.0000; stroke:none;fill-rule:evenodd;"
d="M 262.5477,192.6607
262.5477,194.5756
262.5499,194.6991
262.5622,194.8210
262.5666,194.8375
262.6454,194.9303
262.7692,194.9635
262.8377,194.9663
262.8909,194.9663
262.8909,195.0445
261.6648,195.0445
261.6648,194.9663
261.7264,194.9663
261.8545,194.9581
261.9395,194.9334
262.0256,194.8430
262.0445,194.7210
262.0482,194.5885
262.0482,194.5756
262.0482,193.3641
262.0443,193.2382
262.0323,193.1705
261.9749,193.1034
261.8779,193.0747
261.7539,193.0961
261.6654,193.1296
261.6342,193.0515
262.4909,192.6607
Z" /> 
</g></g>
<g style="fill:none; 
stroke:#000000; stroke-width:0.2000; stroke-opacity:1; 
stroke-linecap:round; stroke-linejoin:round;">
<path d="M131.9726 59.1483 A35.0000 35.0000 0.0 0 0 113.6725 86.5335" />
<path d="M162.9122 121.8952 A0.9999 0.9999 0.0 0 0 163.5004 120.9840" />
<path d="M132.5365 58.8462 A0.5000 0.5000 0.0 0 0 132.8004 58.4055" />
<path d="M133.5004 116.5519 A1.0001 1.0001 0.0 0 0 133.0165 115.6954" />
<path d="M164.2004 58.4055 A0.5000 0.5000 0.0 0 0 164.4643 58.8462" />
<path d="M133.5004 120.9840 A1.0000 1.0000 0.0 0 0 134.0886 121.8953" />
<path d="M163.9843 115.6954 A30.0000 30.0000 0.0 0 0 178.4951 90.5619" />
<path d="M182.8332 87.4985 A1.0000 1.0000 0.0 0 0 183.3283 86.5335" />
<path d="M132.5004 57.7442
L132.5365 57.7635
" />
<path d="M178.9950 89.7146 A1.0000 1.0000 0.0 0 0 178.4951 90.5619" />
<path d="M132.5365 58.8462
L131.9726 59.1483
" />
<path d="M164.5004 48.3001
L132.5004 48.3001
" />
<path d="M164.3504 57.8472 A0.4999 0.4999 0.0 0 0 164.2004 58.2042" />
<path d="M163.5004 120.9840
L163.5004 116.5519
" />
<path d="M133.5004 116.5519
L133.5004 120.9840
" />
<path d="M163.9843 115.6954 A0.9999 0.9999 0.0 0 0 163.5004 116.5519" />
<path d="M114.1676 87.4986
L118.0058 89.7146
" />
<path d="M118.5057 90.5619 A30.0000 30.0000 0.0 0 0 133.0165 115.6954" />
<path d="M134.0886 121.8953 A35.0000 35.0000 0.0 0 0 162.9122 121.8953" />
<path d="M132.8004 58.2042 A0.5001 0.5001 0.0 0 0 132.5365 57.7635" />
<path d="M132.8004 58.2042
L132.8004 58.4055
" />
<path d="M164.2004 58.4055
L164.2004 58.2042
" />
<path d="M165.0282 59.1483
L164.4643 58.8462
" />
<path d="M178.9950 89.7146
L182.8332 87.4985
" />
<path d="M183.3283 86.5335 A35.0000 35.0000 0.0 0 0 165.0282 59.1483" />
<path d="M164.5004 57.4901
L164.5004 48.3001
" />
<path d="M118.5056 90.5619 A1.0000 1.0000 0.0 0 0 118.0058 89.7146" />
<path d="M113.6725 86.5335 A1.0000 1.0000 0.0 0 0 114.1676 87.4986" />
<path d="M164.3504 57.8471 A0.4999 0.4999 0.0 0 0 164.5004 57.4901" />
<path d="M132.5004 48.3001
L132.5004 57.7442
" />
</g>
<g style="fill:none; 
stroke:#000000; stroke-width:0.1000; stroke-opacity:1; 
stroke-linecap:round; stroke-linejoin:round;">
<path d="M148.8754 66.5701
L148.5004 66.5701
" />
<path d="M148.4629 67.0951
L148.5379 67.0951
" />
<path d="M148.5004 66.5701
L148.1254 66.5701
" />
<path d="M148.6879 66.8326
L148.3129 66.8326
" />
<path d="M148.5004 66.5701
L148.5004 66.3451
" />
</g>
<g style="fill:none; 
stroke:#000000; stroke-width:0.1500; stroke-opacity:1; 
stroke-linecap:round; stroke-linejoin:round;">
<text x="148.5004" y="61.7251"
transform="scale(-1 1) translate(-297.000800 0)"
textLength="0.5434" font-size="0.8000" lengthAdjust="spacingAndGlyphs"
text-anchor="middle" opacity="0" stroke-opacity="0">L</text>
<g class="stroked-text"><desc>L</desc>
<path style="fill:#000000; fill-opacity:1.0000; stroke:none;fill-rule:evenodd;"
d="M 148.2454,61.6741
148.2454,61.5330
148.5781,61.5330
148.5781,61.1301
148.7259,61.1301
148.7259,61.6741
Z" /> 
</g></g>
<g style="fill:none; 
stroke:#000000; stroke-width:0.1600; stroke-opacity:1; 
stroke-linecap:round; stroke-linejoin:round;">
<text x="128.0004" y="107.9001"
transform="scale(-1 1) translate(-256.000800 0)"
textLength="9.4649" font-size="1.0667" lengthAdjust="spacingAndGlyphs"
text-anchor="end" opacity="0" stroke-opacity="0">Vincent Nguyen</text>
<g class="stroked-text"><desc>Vincent Nguyen</desc>
<path style="fill:#000000; fill-opacity:1.0000; stroke:none;fill-rule:evenodd;"
d="M 136.8719,107.1474
136.8719,107.3172
137.0602,107.7911
137.0842,107.8242
137.1112,107.8321
137.1488,107.8158
137.1632,107.7905
137.3504,107.3172
137.3504,107.1474
137.3361,107.1109
137.3352,107.1099
137.2980,107.0943
137.2611,107.1099
137.2457,107.1461
137.2457,107.1474
137.2457,107.2957
137.1112,107.6346
136.9768,107.2969
136.9768,107.1474
136.9625,107.1109
136.9616,107.1099
136.9244,107.0943
136.8873,107.1099
136.8719,107.1461
Z" /> 
<path style="fill:#000000; fill-opacity:1.0000; stroke:none;fill-rule:evenodd;"
d="M 136.4846,107.0443
136.4362,107.0443
136.4000,107.0591
136.3990,107.0601
136.3838,107.0968
136.3838,107.0982
136.3838,107.1392
136.3972,107.1760
136.3990,107.1781
136.4348,107.1943
136.4362,107.1943
136.4858,107.1943
136.5225,107.1787
136.5235,107.1777
136.5382,107.1415
136.5382,107.1402
136.5370,107.0982
136.5227,107.0611
136.5217,107.0601
136.4860,107.0443
Z" /> 
<path style="fill:#000000; fill-opacity:1.0000; stroke:none;fill-rule:evenodd;"
d="M 136.2966,107.8321
136.5780,107.8321
136.6151,107.8176
136.6304,107.7821
136.6151,107.7469
136.5780,107.7321
136.4897,107.7321
136.4897,107.3944
136.5770,107.3944
136.6142,107.3798
136.6294,107.3450
136.6142,107.3092
136.5770,107.2944
136.4362,107.2944
136.4000,107.3092
136.3990,107.3102
136.3838,107.3466
136.3838,107.3479
136.3838,107.7321
136.2978,107.7321
136.2603,107.7467
136.2443,107.7821
136.2599,107.8176
Z" /> 
<path style="fill:#000000; fill-opacity:1.0000; stroke:none;fill-rule:evenodd;"
d="M 135.7722,107.4061
135.8945,107.4671
135.8945,107.7768
135.9083,107.8136
135.9102,107.8157
135.9457,107.8321
135.9471,107.8321
135.9838,107.8167
135.9994,107.7803
135.9994,107.3473
135.9842,107.3102
135.9484,107.2944
135.9471,107.2944
135.9102,107.3098
135.8945,107.3462
135.8945,107.3647
135.8199,107.3213
135.7825,107.3039
135.7414,107.2953
135.7212,107.2944
135.6782,107.2944
135.6373,107.3001
135.6008,107.3171
135.5790,107.3348
135.5530,107.3676
135.5383,107.4057
135.5346,107.4341
135.5219,107.7801
135.5371,107.8167
135.5731,107.8321
135.5745,107.8321
135.6106,107.8182
135.6268,107.7816
135.6268,107.7801
135.6405,107.4366
135.6585,107.4004
135.6849,107.3944
135.7298,107.3944
135.7679,107.4040
Z" /> 
<path style="fill:#000000; fill-opacity:1.0000; stroke:none;fill-rule:evenodd;"
d="M 134.8972,107.8321
135.0946,107.8321
135.1362,107.8267
135.1726,107.8106
135.1876,107.7995
135.2773,107.7223
135.3047,107.6907
135.3194,107.6518
135.3222,107.6217
135.3222,107.5027
135.3173,107.4625
135.2993,107.4262
135.2716,107.3966
135.1907,107.3274
135.1566,107.3060
135.1178,107.2952
135.1034,107.2944
134.8961,107.2944
134.8591,107.3090
134.8437,107.3444
134.8591,107.3802
134.8961,107.3944
135.0946,107.3944
135.1260,107.4079
135.2003,107.4720
135.2163,107.5089
135.2163,107.6230
135.2042,107.6496
135.1229,107.7197
135.0864,107.7321
134.8972,107.7321
134.8605,107.7467
134.8449,107.7821
134.8603,107.8176
Z" /> 
<path style="fill:#000000; fill-opacity:1.0000; stroke:none;fill-rule:evenodd;"
d="M 134.4850,107.2952
134.5244,107.3056
134.5580,107.3262
134.5965,107.3561
134.6124,107.3716
134.6338,107.4059
134.6388,107.4174
134.6483,107.4567
134.6483,107.6664
134.6470,107.6820
134.6348,107.7192
134.6267,107.7341
134.6008,107.7637
134.5598,107.7995
134.5543,107.8038
134.5188,107.8217
134.5050,107.8263
134.4656,107.8321
134.2221,107.8321
134.1856,107.8174
134.1698,107.7821
134.1854,107.7467
134.2221,107.7321
134.4595,107.7321
134.4607,107.7320
134.4973,107.7156
134.5242,107.6918
134.5264,107.6898
134.5424,107.6541
134.5424,107.6320
134.2221,107.6320
134.1854,107.6168
134.1698,107.5804
134.1698,107.4714
134.2735,107.4714
134.2735,107.5320
134.5414,107.5320
134.5414,107.4640
134.5256,107.4319
134.4984,107.4083
134.4637,107.3944
134.3476,107.3944
134.3142,107.4106
134.2874,107.4351
134.2735,107.4714
134.1698,107.4714
134.1698,107.4710
134.1717,107.4429
134.1836,107.4020
134.2091,107.3682
134.2436,107.3360
134.2638,107.3198
134.2997,107.3012
134.3404,107.2944
134.4701,107.2944
Z" /> 
<path style="fill:#000000; fill-opacity:1.0000; stroke:none;fill-rule:evenodd;"
d="M 133.7440,107.4061
133.8663,107.4671
133.8663,107.7768
133.8801,107.8136
133.8820,107.8157
133.9176,107.8321
133.9189,107.8321
133.9556,107.8167
133.9713,107.7803
133.9713,107.3473
133.9560,107.3102
133.9203,107.2944
133.9189,107.2944
133.8820,107.3098
133.8663,107.3462
133.8663,107.3647
133.7917,107.3213
133.7543,107.3039
133.7132,107.2953
133.6930,107.2944
133.6500,107.2944
133.6091,107.3001
133.5727,107.3171
133.5508,107.3348
133.5248,107.3676
133.5101,107.4057
133.5064,107.4341
133.4937,107.7801
133.5090,107.8167
133.5449,107.8321
133.5463,107.8321
133.5824,107.8182
133.5986,107.7816
133.5986,107.7801
133.6123,107.4366
133.6303,107.4004
133.6567,107.3944
133.7016,107.3944
133.7397,107.4040
Z" /> 
<path style="fill:#000000; fill-opacity:1.0000; stroke:none;fill-rule:evenodd;"
d="M 132.9646,107.8321
133.0570,107.8321
133.0960,107.8271
133.1342,107.8102
133.1598,107.7897
133.1843,107.7584
133.1994,107.7197
133.2028,107.6875
133.2028,107.3944
133.2438,107.3944
133.2809,107.3802
133.2962,107.3444
133.2809,107.3090
133.2438,107.2944
133.2018,107.2944
133.2018,107.1851
133.1875,107.1484
133.1866,107.1474
133.1494,107.1318
133.1129,107.1476
133.0969,107.1838
133.0969,107.1851
133.0969,107.2944
132.9173,107.2944
132.8806,107.3092
132.8649,107.3444
132.8806,107.3800
132.9173,107.3944
133.0980,107.3944
133.0980,107.6916
133.0859,107.7201
133.0570,107.7321
132.9667,107.7321
132.9308,107.7127
132.9224,107.6945
132.8985,107.6632
132.8712,107.6570
132.8346,107.6708
132.8337,107.6717
132.8188,107.7080
132.8279,107.7472
132.8504,107.7808
132.8601,107.7911
132.8940,107.8161
132.9342,107.8295
Z" /> 
<path style="fill:#000000; fill-opacity:1.0000; stroke:none;fill-rule:evenodd;"
d="M 131.4655,107.1474
131.4655,107.8321
131.6001,107.8321
131.8381,107.2928
131.8381,107.7801
131.8536,107.8169
131.8907,107.8321
131.9278,107.8169
131.9431,107.7799
131.9431,107.0943
131.8102,107.0943
131.5716,107.6338
131.5716,107.1474
131.5568,107.1111
131.5558,107.1101
131.5194,107.0943
131.5181,107.0943
131.4810,107.1099
131.4655,107.1461
Z" /> 
<path style="fill:#000000; fill-opacity:1.0000; stroke:none;fill-rule:evenodd;"
d="M 131.1142,107.2967
131.1522,107.3086
131.1861,107.3309
131.2240,107.3633
131.2348,107.3741
131.2551,107.4085
131.2634,107.4337
131.2680,107.4726
131.2680,107.6246
131.2667,107.6420
131.2551,107.6811
131.2491,107.6929
131.2240,107.7246
131.1894,107.7553
131.1658,107.7725
131.1278,107.7891
131.0865,107.7946
131.0157,107.7946
131.0038,107.7941
130.9650,107.7857
130.9277,107.7666
130.8956,107.7405
130.8956,107.8661
130.9092,107.8929
130.9407,107.9200
130.9706,107.9321
131.1707,107.9321
131.2078,107.9464
131.2230,107.9820
131.2078,108.0177
131.1707,108.0322
130.9706,108.0322
130.9585,108.0316
130.9198,108.0224
130.9115,108.0193
130.8774,107.9994
130.8401,107.9671
130.8140,107.9381
130.7965,107.9023
130.7906,107.8622
130.7906,107.5126
130.8956,107.5126
130.8956,107.5800
130.9106,107.6119
130.9835,107.6785
131.0157,107.6945
131.0909,107.6945
131.1171,107.6838
131.1470,107.6560
131.1632,107.6248
131.1632,107.4671
131.1490,107.4335
131.1203,107.4093
131.0855,107.3944
131.0233,107.3944
130.9882,107.4083
130.9126,107.4761
130.8956,107.5126
130.7906,107.5126
130.7906,107.3465
130.8065,107.3096
130.8075,107.3087
130.8442,107.2944
130.8809,107.3096
130.8965,107.3458
130.8963,107.3493
130.9170,107.3325
130.9409,107.3158
130.9790,107.2997
131.0200,107.2944
131.0865,107.2944
Z" /> 
<path style="fill:#000000; fill-opacity:1.0000; stroke:none;fill-rule:evenodd;"
d="M 130.3670,107.7321
130.2162,107.6471
130.2162,107.3495
130.2019,107.3118
130.2009,107.3108
130.1652,107.2944
130.1638,107.2944
130.1274,107.3092
130.1265,107.3102
130.1112,107.3473
130.1112,107.7803
130.1269,107.8167
130.1638,107.8321
130.1998,107.8167
130.2007,107.8157
130.2161,107.7796
130.2162,107.7768
130.2162,107.7502
130.2867,107.7989
130.3234,107.8191
130.3638,107.8305
130.3858,107.8321
130.4286,107.8321
130.4706,107.8264
130.5079,107.8091
130.5302,107.7913
130.5564,107.7579
130.5716,107.7195
130.5755,107.6910
130.5888,107.3465
130.5741,107.3102
130.5378,107.2944
130.5364,107.2944
130.4999,107.3100
130.4839,107.3467
130.4717,107.6885
130.4533,107.7249
130.4213,107.7321
Z" /> 
<path style="fill:#000000; fill-opacity:1.0000; stroke:none;fill-rule:evenodd;"
d="M 129.4364,107.4386
129.6859,107.9980
129.7119,108.0274
129.7355,108.0322
129.8635,108.0322
129.9006,108.0177
129.9158,107.9820
129.9006,107.9464
129.8635,107.9321
129.7687,107.9321
129.7107,107.7946
129.7240,107.7946
129.7617,107.7790
129.7746,107.7584
129.9137,107.4386
129.9137,107.3473
129.8998,107.3108
129.8988,107.3098
129.8625,107.2944
129.8258,107.3090
129.8248,107.3100
129.8090,107.3461
129.8090,107.3475
129.8090,107.4161
129.6896,107.6945
129.6654,107.6945
129.5423,107.4177
129.5423,107.3473
129.5264,107.3104
129.4901,107.2944
129.4887,107.2944
129.4520,107.3100
129.4364,107.3469
Z" /> 
<path style="fill:#000000; fill-opacity:1.0000; stroke:none;fill-rule:evenodd;"
d="M 129.0765,107.2952
129.1159,107.3056
129.1495,107.3262
129.1880,107.3561
129.2039,107.3716
129.2253,107.4059
129.2302,107.4174
129.2398,107.4567
129.2398,107.6664
129.2385,107.6820
129.2263,107.7192
129.2182,107.7341
129.1923,107.7637
129.1513,107.7995
129.1458,107.8038
129.1102,107.8217
129.0965,107.8263
129.0571,107.8321
128.8136,107.8321
128.7771,107.8174
128.7613,107.7821
128.7769,107.7467
128.8136,107.7321
129.0510,107.7321
129.0521,107.7320
129.0887,107.7156
129.1157,107.6918
129.1179,107.6898
129.1339,107.6541
129.1339,107.6320
128.8136,107.6320
128.7769,107.6168
128.7613,107.5804
128.7613,107.4714
128.8650,107.4714
128.8650,107.5320
129.1329,107.5320
129.1329,107.4640
129.1171,107.4319
129.0899,107.4083
129.0551,107.3944
128.9391,107.3944
128.9057,107.4106
128.8789,107.4351
128.8650,107.4714
128.7613,107.4714
128.7613,107.4710
128.7631,107.4429
128.7751,107.4020
128.8005,107.3682
128.8351,107.3360
128.8553,107.3198
128.8912,107.3012
128.9318,107.2944
129.0616,107.2944
Z" /> 
<path style="fill:#000000; fill-opacity:1.0000; stroke:none;fill-rule:evenodd;"
d="M 128.3355,107.4061
128.4578,107.4671
128.4578,107.7768
128.4716,107.8136
128.4734,107.8157
128.5090,107.8321
128.5104,107.8321
128.5471,107.8167
128.5627,107.7803
128.5627,107.3473
128.5475,107.3102
128.5117,107.2944
128.5104,107.2944
128.4734,107.3098
128.4578,107.3462
128.4578,107.3647
128.3832,107.3213
128.3458,107.3039
128.3047,107.2953
128.2845,107.2944
128.2415,107.2944
128.2006,107.3001
128.1641,107.3171
128.1423,107.3348
128.1163,107.3676
128.1016,107.4057
128.0979,107.4341
128.0852,107.7801
128.1004,107.8167
128.1364,107.8321
128.1378,107.8321
128.1739,107.8182
128.1901,107.7816
128.1901,107.7801
128.2038,107.4366
128.2218,107.4004
128.2482,107.3944
128.2931,107.3944
128.3312,107.4040
Z" /> 
</g></g>
<g style="fill:none; 
stroke:#000000; stroke-width:0.1500; stroke-opacity:1; 
stroke-linecap:round; stroke-linejoin:round;">
<text x="148.5004" y="64.2651"
transform="scale(-1 1) translate(-297.000800 0)"
textLength="0.6483" font-size="0.8000" lengthAdjust="spacingAndGlyphs"
text-anchor="middle" opacity="0" stroke-opacity="0">H</text>
<g class="stroked-text"><desc>H</desc>
<path style="fill:#000000; fill-opacity:1.0000; stroke:none;fill-rule:evenodd;"
d="M 148.2223,64.2141
148.2223,63.6701
148.3694,63.6701
148.3694,63.8671
148.5828,63.8671
148.5828,64.0007
148.3694,64.0007
148.3694,64.2141
Z" /> 
<path style="fill:#000000; fill-opacity:1.0000; stroke:none;fill-rule:evenodd;"
d="M 148.6314,64.2141
148.6314,63.6701
148.7784,63.6701
148.7784,64.2141
Z" /> 
</g></g>
<g style="fill:#000000; fill-opacity:1.0000; stroke:none;">
<circle cx="146.8504" cy="114.5501" r="0.2000" /> 
<circle cx="154.3004" cy="115.1001" r="0.2000" /> 
<path style="fill:#000000; fill-opacity:1.0000; stroke:none;fill-rule:evenodd;"
d="M 170.3494,76.1145
170.1509,76.1145
166.9178,76.1145
165.0499,76.1145
164.8514,76.1145
164.7919,75.9160
166.9178,75.9160
167.2194,75.9160
167.3051,75.7573
167.7893,75.7573
167.6718,75.5366
167.4226,75.5366
167.5988,75.2048
167.9766,75.9160
168.2830,75.9160
167.7560,74.9604
167.7036,74.9032
167.6321,74.8842
167.5686,74.8842
167.4972,74.9032
167.4448,74.9604
166.9178,75.9160
164.7919,75.9160
164.4228,74.6857
164.8514,74.6857
165.0499,74.6857
170.1509,74.6857
170.3494,74.6857
170.7780,74.6857
Z" /> 
<circle cx="170.3500" cy="67.1500" r="0.2000" /> 
</g>
<g style="fill:none; 
stroke:#000000; stroke-width:0.1200; stroke-opacity:1; 
stroke-linecap:round; stroke-linejoin:round;">
<path d="M131.2904 92.2001
L131.2904 93.4001
" />
<path d="M134.8104 92.2001
L134.8104 93.4001
" />
<path style="fill:#000000; fill-opacity:1.0000; stroke:none;fill-rule:evenodd;"
d="M 148.7639,75.6573
148.3162,75.6573
148.2543,75.6386
148.2337,75.5827
148.2539,75.5219
148.3147,75.5017
148.6719,75.5017
148.6719,75.2890
148.3305,75.2890
148.2734,75.2703
148.2543,75.2144
148.2734,75.1596
148.3305,75.1413
148.7639,75.1413
Z" /> 
<path style="fill:#000000; fill-opacity:1.0000; stroke:none;fill-rule:evenodd;"
d="M 151.2494,76.1145
151.0509,76.1145
148.3020,76.1145
145.9499,76.1145
145.7514,76.1145
145.6009,75.6128
147.9591,75.6128
147.9815,75.7390
148.0488,75.8351
148.1168,75.8801
148.2012,75.9070
148.3020,75.9160
149.0417,75.9160
149.0417,74.8842
148.2956,74.8842
148.1990,74.8924
148.1206,74.9170
148.0607,74.9580
148.0035,75.0443
147.9845,75.1556
147.9922,75.2296
148.0154,75.2929
148.1003,75.3715
148.0430,75.4017
147.9980,75.4541
147.9688,75.5255
147.9591,75.6128
145.6009,75.6128
145.3228,74.6857
145.7514,74.6857
145.9499,74.6857
151.0509,74.6857
151.2494,74.6857
151.6780,74.6857
Z" /> 
</g>
<g style="fill:none; 
stroke:#000000; stroke-width:0.1200; stroke-opacity:1; 
stroke-linecap:round; stroke-linejoin:round;">
<path d="M139.0579 90.4901
L138.2579 90.4901
" />
<path d="M139.0579 90.4901
L139.8579 90.4901
" />
<path d="M139.0579 93.4901
L138.2579 93.4901
" />
<path d="M139.0579 93.4901
L139.8579 93.4901
" />
</g>
<g style="fill:#000000; fill-opacity:1.0000; stroke:none;">
<circle cx="137.7079" cy="93.6401" r="0.2000" /> 
</g>
<g style="fill:none; 
stroke:#000000; stroke-width:0.1200; stroke-opacity:1; 
stroke-linecap:round; stroke-linejoin:round;">
<path d="M133.3858 98.9273
L136.2143 96.0988
" />
<path d="M133.5096 99.0510
L133.3858 98.9273
" />
<path d="M136.3380 96.2226
L136.2143 96.0988
" />
<path d="M139.4493 104.9907
L139.5730 105.1145
" />
<path d="M142.2777 102.1623
L142.4014 102.2860
" />
<path d="M142.4014 102.2860
L139.5730 105.1145
" />
</g>
<g style="fill:#000000; fill-opacity:1.0000; stroke:none;">
<circle cx="136.7769" cy="95.4301" r="0.1793" /> 
<path style="fill:#000000; fill-opacity:1.0000; stroke:none;fill-rule:evenodd;"
d="M 152.7504,114.6985
153.0600,114.6985
153.0600,114.9001
152.7504,114.9001
152.7504,115.2144
152.5488,115.2144
152.5488,114.9001
152.2408,114.9001
152.2408,114.6985
152.5488,114.6985
152.5488,114.3858
152.7504,114.3858
Z" /> 
<path style="fill:#000000; fill-opacity:1.0000; stroke:none;fill-rule:evenodd;"
d="M 142.9030,112.9274
142.4966,112.9274
142.3378,112.9274
141.8119,112.9274
140.2193,112.9274
139.9133,112.9274
139.2566,112.9274
139.0978,112.9274
139.0978,112.1485
139.2567,112.1485
139.2669,112.2343
139.2976,112.3088
139.3488,112.3720
139.4160,112.4200
139.4950,112.4488
139.5856,112.4584
139.8498,112.4584
139.8498,112.2615
139.5818,112.2615
139.5069,112.2323
139.4777,112.1561
139.5069,112.0786
139.5818,112.0494
139.9133,112.0494
139.9133,112.6628
140.1343,112.6628
140.2193,112.6628
140.4403,112.6628
140.5623,112.1320
140.7058,112.5841
140.7432,112.6432
140.8099,112.6628
140.8772,112.6628
140.9439,112.6432
140.9813,112.5841
141.1249,112.1231
141.2468,112.6628
141.4665,112.6628
141.3259,112.0494
141.5084,112.0494
141.8119,112.0494
141.8119,112.6628
142.0342,112.6628
142.0342,112.0494
142.3377,112.0494
142.3377,111.8374
141.5084,111.8374
141.5084,112.0494
141.3259,112.0494
141.2988,111.9313
141.2623,111.8608
141.1909,111.8374
141.0982,111.8374
141.0312,111.8574
140.9928,111.9174
140.8429,112.4114
140.6943,111.9174
140.6562,111.8574
140.5902,111.8374
140.4975,111.8374
140.4257,111.8608
140.3883,111.9313
140.2193,112.6628
140.1343,112.6628
140.1343,111.8374
139.5856,111.8374
139.4950,111.8469
139.4160,111.8757
139.3488,111.9237
139.2976,111.9871
139.2669,112.0620
139.2567,112.1485
139.0978,112.1485
139.0978,111.5728
139.2566,111.5728
142.3378,111.5728
142.4966,111.5728
Z" /> 
<path style="fill:#000000; fill-opacity:1.0000; stroke:none;fill-rule:evenodd;"
d="M 165.0836,97.0736
164.8550,97.4695
164.7657,97.6242
164.0982,98.7803
163.6431,99.5685
163.3188,100.1303
163.0950,100.5180
163.0057,100.6727
162.7771,101.0686
161.6858,99.9107
161.7423,99.8128
162.0860,99.8128
162.2927,99.9321
162.4634,99.6364
163.0610,99.9814
163.1860,99.7649
162.5884,99.4199
162.7591,99.1241
162.5525,99.0048
162.0860,99.8128
161.7423,99.8128
161.7751,99.7560
162.5203,98.4654
162.8640,98.4654
163.4604,98.8097
163.1775,99.2997
163.3854,99.4197
163.7940,98.7119
162.9897,98.2476
162.8640,98.4654
162.5203,98.4654
162.9482,97.7241
163.3117,97.7241
163.3327,97.7906
163.8404,98.6315
163.9761,98.3964
163.8910,98.2582
164.1089,97.8808
163.8840,97.8730
163.7719,98.0673
163.5926,97.7806
164.3169,97.8062
164.4548,97.5674
163.4727,97.5481
163.4046,97.5632
163.3576,97.6104
163.3290,97.6598
163.3117,97.7241
162.9482,97.7241
163.4458,96.8622
163.5351,96.7075
Z" /> 
</g>
<g style="fill:none; 
stroke:#000000; stroke-width:0.1200; stroke-opacity:1; 
stroke-linecap:round; stroke-linejoin:round;">
<path d="M146.2504 87.4501
L150.7504 87.4501
" />
<path d="M146.2504 87.6251
L146.2504 87.4501
" />
<path d="M146.2504 92.3751
L146.2504 92.5501
" />
<path d="M150.7504 87.6251
L150.7504 87.4501
" />
<path d="M150.7504 92.3751
L150.7504 92.5501
" />
<path d="M150.7504 92.5501
L146.2504 92.5501
" />
</g>
<g style="fill:#000000; fill-opacity:1.0000; stroke:none;">
<circle cx="152.3004" cy="88.0501" r="0.1793" /> 
<circle cx="138.0404" cy="109.9326" r="0.1500" /> 
<path style="fill:#000000; fill-opacity:1.0000; stroke:none;fill-rule:evenodd;"
d="M 132.1494,76.1145
131.9509,76.1145
128.8749,76.1145
126.8499,76.1145
126.6514,76.1145
126.3619,75.1493
128.8749,75.1493
129.3988,75.1493
129.4986,75.1667
129.5790,75.2191
129.6320,75.2993
129.6496,75.4001
129.6320,75.4997
129.5790,75.5795
129.4986,75.6319
129.3988,75.6493
128.8749,75.6493
128.8749,75.9160
129.3798,75.9160
129.4936,75.9071
129.5969,75.8801
129.6896,75.8352
129.7719,75.7724
129.8392,75.6952
129.8874,75.6075
129.9162,75.5091
129.9259,75.4001
129.9162,75.2911
129.8874,75.1927
129.8392,75.1050
129.7719,75.0278
129.6896,74.9650
129.5969,74.9201
129.4936,74.8931
129.3798,74.8842
128.8749,74.8842
128.8749,75.1493
126.3619,75.1493
126.2228,74.6857
126.6514,74.6857
126.8499,74.6857
131.9509,74.6857
132.1494,74.6857
132.5780,74.6857
Z" /> 
<path style="fill:#000000; fill-opacity:1.0000; stroke:none;fill-rule:evenodd;"
d="M 136.7317,61.6893
138.9907,61.6893
139.1495,61.6893
139.3960,62.5109
139.1495,62.5109
138.9907,62.5109
134.3101,62.5109
134.1513,62.5109
133.9048,62.5109
134.0521,62.0201
136.3227,62.0201
136.3227,62.1814
136.5704,62.1814
136.5704,62.4316
136.7317,62.4316
136.7317,62.1814
136.9781,62.1814
136.9781,62.0201
136.7317,62.0201
136.7317,61.7686
136.5704,61.7686
136.5704,62.0201
136.3227,62.0201
134.0521,62.0201
134.1513,61.6893
134.3101,61.6893
Z" /> 
<circle cx="136.5704" cy="109.9301" r="0.1500" /> 
<path style="fill:#000000; fill-opacity:1.0000; stroke:none;fill-rule:evenodd;"
d="M 153.5393,61.7016
155.2526,61.7016
155.6495,61.7016
155.8885,62.4986
155.6495,62.4986
155.2526,62.4986
151.0482,62.4986
150.6513,62.4986
150.4123,62.4986
150.5918,61.9001
152.7615,61.9001
152.7615,62.3001
153.5393,62.3001
153.5393,61.9001
152.7615,61.9001
150.5918,61.9001
150.6513,61.7016
151.0482,61.7016
Z" /> 
<path style="fill:#000000; fill-opacity:1.0000; stroke:none;fill-rule:evenodd;"
d="M 160.4317,61.6893
162.6907,61.6893
162.8495,61.6893
163.0960,62.5109
162.8495,62.5109
162.6907,62.5109
158.0101,62.5109
157.8513,62.5109
157.6048,62.5109
157.7521,62.0201
160.0227,62.0201
160.0227,62.1814
160.2704,62.1814
160.2704,62.4316
160.4317,62.4316
160.4317,62.1814
160.6781,62.1814
160.6781,62.0201
160.4317,62.0201
160.4317,61.7686
160.2704,61.7686
160.2704,62.0201
160.0227,62.0201
157.7521,62.0201
157.8513,61.6893
158.0101,61.6893
Z" /> 
</g>
<g style="fill:none; 
stroke:#000000; stroke-width:0.1200; stroke-opacity:1; 
stroke-linecap:round; stroke-linejoin:round;">
<path d="M162.9202 100.9236
L165.1702 97.0264
" />
<path d="M163.0717 101.0111
L162.9202 100.9236
" />
<path d="M165.3217 97.1139
L165.1702 97.0264
" />
<path d="M167.1853 103.3861
L167.3369 103.4736
" />
<path d="M169.4353 99.4889
L169.5869 99.5764
" />
<path d="M169.5869 99.5764
L167.3369 103.4736
" />
</g>
<g style="fill:#000000; fill-opacity:1.0000; stroke:none;">
<circle cx="167.0802" cy="104.0182" r="0.1793" /> 
</g>
<g style="fill:none; 
stroke:#000000; stroke-width:0.1200; stroke-opacity:1; 
stroke-linecap:round; stroke-linejoin:round;">
<path d="M130.2754 90.5251
L128.2754 90.5251
" />
<path d="M130.2754 92.7251
L128.2754 92.7251
" />
</g>
<g style="fill:#000000; fill-opacity:1.0000; stroke:none;">
<circle cx="127.8254" cy="92.6751" r="0.1500" /> 
<circle cx="126.6500" cy="67.2500" r="0.2000" /> 
<path style="fill:#000000; fill-opacity:1.0000; stroke:none;fill-rule:evenodd;"
d="M 150.3497,94.0598
150.1810,94.0598
149.1292,94.0598
148.1280,94.0598
147.0282,94.0598
146.8198,94.0598
146.6511,94.0598
146.3712,93.1269
147.0282,93.1269
147.4735,93.1269
147.5584,93.1417
147.6267,93.1863
147.6717,93.2544
147.6867,93.3401
147.6717,93.4248
147.6267,93.4926
147.5584,93.5371
147.4735,93.5520
147.0282,93.5520
147.0282,93.7786
147.4573,93.7786
147.5541,93.7710
147.6419,93.7481
147.7207,93.7100
147.7491,93.6882
148.0403,93.6882
148.0622,93.7560
148.1280,93.7786
148.1752,93.7786
148.2460,93.7631
148.3101,93.7044
148.7622,93.2160
148.7622,93.7786
148.9916,93.7786
148.9916,93.5520
149.1292,93.5520
149.1292,93.7786
149.9726,93.7786
149.9726,92.9016
149.1306,92.9016
149.1306,93.1269
149.7364,93.1269
149.7364,93.5520
149.1400,93.5520
149.1292,93.5520
148.9916,93.5520
148.9916,93.4319
149.1400,93.4319
149.6582,93.4319
149.6582,93.2443
149.1400,93.2443
149.1400,93.4319
148.9916,93.4319
148.9916,93.0014
148.9642,92.9265
148.8823,92.9016
148.8256,92.9016
148.7446,92.9157
148.6826,92.9663
148.2683,93.4130
148.2683,92.9016
148.0403,92.9016
148.0403,93.6882
147.7491,93.6882
147.7906,93.6565
147.8479,93.5910
147.8888,93.5164
147.9133,93.4327
147.9215,93.3401
147.9133,93.2475
147.8888,93.1638
147.8479,93.0892
147.7906,93.0237
147.7207,92.9702
147.6419,92.9321
147.5541,92.9092
147.4573,92.9016
147.0282,92.9016
147.0282,93.1269
146.3712,93.1269
146.2193,92.6204
146.6511,92.6204
146.8198,92.6204
150.1810,92.6204
150.3497,92.6204
150.7815,92.6204
Z" /> 
<path style="fill:#000000; fill-opacity:1.0000; stroke:none;fill-rule:evenodd;"
d="M 144.2393,61.7016
145.9526,61.7016
146.3495,61.7016
146.5885,62.4986
146.3495,62.4986
145.9526,62.4986
141.7482,62.4986
141.3513,62.4986
141.1122,62.4986
141.2918,61.9001
143.4615,61.9001
143.4615,62.3001
144.2393,62.3001
144.2393,61.9001
143.4615,61.9001
141.2918,61.9001
141.3513,61.7016
141.7482,61.7016
Z" /> 
<path style="fill:#000000; fill-opacity:1.0000; stroke:none;fill-rule:evenodd;"
d="M 152.8449,119.3001
152.4559,119.3001
152.4559,119.1001
152.8449,119.1001
Z" /> 
</g>
<g style="fill:none; 
stroke:#000000; stroke-width:0.1200; stroke-opacity:1; 
stroke-linecap:round; stroke-linejoin:round;">
<path d="M147.0004 110.3001
L147.0004 109.5001
" />
<path d="M147.0004 110.3001
L147.0004 111.1001
" />
<path d="M150.0004 110.3001
L150.0004 109.5001
" />
<path d="M150.0004 110.3001
L150.0004 111.1001
" />
</g>
<g style="fill:#000000; fill-opacity:1.0000; stroke:none;">
<circle cx="146.8504" cy="108.9501" r="0.2000" /> 
<circle cx="142.7004" cy="118.9001" r="0.2000" /> 
<path style="fill:#000000; fill-opacity:1.0000; stroke:none;fill-rule:evenodd;"
d="M 157.9030,112.9274
157.7442,112.9274
157.4336,112.9274
156.8938,112.9274
155.7293,112.9274
154.8339,112.9274
154.6630,112.9274
154.5042,112.9274
154.0978,112.9274
154.2027,112.5778
154.7514,112.5778
154.7720,112.6416
154.8339,112.6628
154.8784,112.6628
154.9450,112.6482
155.0054,112.5930
155.4308,112.1333
155.4308,112.6628
155.6467,112.6628
155.7293,112.6628
155.9706,112.6628
156.0391,112.5358
156.4265,112.5358
156.3325,112.3593
156.1331,112.3593
156.2741,112.0939
156.5763,112.6628
156.8215,112.6628
156.6478,112.3479
156.8938,112.3479
157.3599,112.3479
157.3599,112.1612
156.8938,112.1612
156.8938,112.3479
156.6478,112.3479
156.4832,112.0494
156.8862,112.0494
157.4336,112.0494
157.4336,112.6628
157.6558,112.6628
157.6558,111.8374
156.8862,111.8374
156.8862,112.0494
156.4832,112.0494
156.3998,111.8983
156.3579,111.8526
156.3008,111.8374
156.2500,111.8374
156.1928,111.8526
156.1509,111.8983
155.7293,112.6628
155.6467,112.6628
155.6467,111.9313
155.6210,111.8608
155.5438,111.8374
155.4905,111.8374
155.4143,111.8507
155.3559,111.8983
154.9660,112.3187
154.9660,111.8374
154.7514,111.8374
154.7514,112.5778
154.2027,112.5778
154.5042,111.5728
154.6630,111.5728
157.7442,111.5728
157.9030,111.5728
Z" /> 
</g> 
</svg>
