<?xml version="1.0" standalone="no"?>
 <!DOCTYPE svg PUBLIC "-//W3C//DTD SVG 1.1//EN" 
 "http://www.w3.org/Graphics/SVG/1.1/DTD/svg11.dtd"> 
<svg
  xmlns:svg="http://www.w3.org/2000/svg"
  xmlns="http://www.w3.org/2000/svg"
  xmlns:xlink="http://www.w3.org/1999/xlink"
  version="1.1"
  width="297.0022mm" height="210.0072mm" viewBox="0.0000 0.0000 297.0022 210.0072">
<title>SVG Image created as amulet_controller-User_Comments.svg date 2025/01/18 17:12:59 </title>
  <desc>Image generated by PCBNEW </desc>
<g style="fill:#000000; fill-opacity:1.0000;stroke:#000000; stroke-opacity:1.0000;
stroke-linecap:round; stroke-linejoin:round;"
 transform="translate(0 0) scale(1 1)">
</g>
<g style="fill:none; 
stroke:#000000; stroke-width:0.1500; stroke-opacity:1; 
stroke-linecap:round; stroke-linejoin:round;">
<path d="M10.0000 10.0000
L287.0022 10.0000
L287.0022 200.0072
L10.0000 200.0072
L10.0000 10.0000
" />
</g>
<g style="fill:none; 
stroke:#000000; stroke-width:0.1500; stroke-opacity:1; 
stroke-linecap:round; stroke-linejoin:round;">
<path d="M12.0000 12.0000
L285.0022 12.0000
L285.0022 198.0072
L12.0000 198.0072
L12.0000 12.0000
" />
</g>
<g style="fill:none; 
stroke:#000000; stroke-width:0.1500; stroke-opacity:1; 
stroke-linecap:round; stroke-linejoin:round;">
<path d="M60.0000 12.0000
L60.0000 10.0000
" />
</g>
<g style="fill:none; 
stroke:#000000; stroke-width:0.1500; stroke-opacity:1; 
stroke-linecap:round; stroke-linejoin:round;">
<path d="M110.0000 12.0000
L110.0000 10.0000
" />
</g>
<g style="fill:none; 
stroke:#000000; stroke-width:0.1500; stroke-opacity:1; 
stroke-linecap:round; stroke-linejoin:round;">
<path d="M160.0000 12.0000
L160.0000 10.0000
" />
</g>
<g style="fill:none; 
stroke:#000000; stroke-width:0.1500; stroke-opacity:1; 
stroke-linecap:round; stroke-linejoin:round;">
<path d="M210.0000 12.0000
L210.0000 10.0000
" />
</g>
<g style="fill:none; 
stroke:#000000; stroke-width:0.1500; stroke-opacity:1; 
stroke-linecap:round; stroke-linejoin:round;">
<path d="M260.0000 12.0000
L260.0000 10.0000
" />
</g>
<g style="fill:none; 
stroke:#000000; stroke-width:0.1500; stroke-opacity:1; 
stroke-linecap:round; stroke-linejoin:round;">
<text x="35.0000" y="11.6500"
textLength="1.4281" font-size="1.7333" lengthAdjust="spacingAndGlyphs"
text-anchor="start" opacity="0" stroke-opacity="0">1</text>
<g class="stroked-text"><desc>1</desc>
<path d="M36.0892 11.5936
L35.3463 11.5936
" />
<path d="M35.7177 11.5936
L35.7177 10.2936
" />
<path d="M35.7177 10.2936
L35.5939 10.4793
" />
<path d="M35.5939 10.4793
L35.4701 10.6031
" />
<path d="M35.4701 10.6031
L35.3463 10.6650
" />
</g></g>
<g style="fill:none; 
stroke:#000000; stroke-width:0.1500; stroke-opacity:1; 
stroke-linecap:round; stroke-linejoin:round;">
<text x="85.0000" y="11.6500"
textLength="1.4281" font-size="1.7333" lengthAdjust="spacingAndGlyphs"
text-anchor="start" opacity="0" stroke-opacity="0">2</text>
<g class="stroked-text"><desc>2</desc>
<path d="M85.3463 10.4174
L85.4082 10.3555
" />
<path d="M85.4082 10.3555
L85.5320 10.2936
" />
<path d="M85.5320 10.2936
L85.8415 10.2936
" />
<path d="M85.8415 10.2936
L85.9654 10.3555
" />
<path d="M85.9654 10.3555
L86.0273 10.4174
" />
<path d="M86.0273 10.4174
L86.0892 10.5412
" />
<path d="M86.0892 10.5412
L86.0892 10.6650
" />
<path d="M86.0892 10.6650
L86.0273 10.8507
" />
<path d="M86.0273 10.8507
L85.2844 11.5936
" />
<path d="M85.2844 11.5936
L86.0892 11.5936
" />
</g></g>
<g style="fill:none; 
stroke:#000000; stroke-width:0.1500; stroke-opacity:1; 
stroke-linecap:round; stroke-linejoin:round;">
<text x="135.0000" y="11.6500"
textLength="1.4281" font-size="1.7333" lengthAdjust="spacingAndGlyphs"
text-anchor="start" opacity="0" stroke-opacity="0">3</text>
<g class="stroked-text"><desc>3</desc>
<path d="M135.2844 10.2936
L136.0892 10.2936
" />
<path d="M136.0892 10.2936
L135.6558 10.7888
" />
<path d="M135.6558 10.7888
L135.8415 10.7888
" />
<path d="M135.8415 10.7888
L135.9654 10.8507
" />
<path d="M135.9654 10.8507
L136.0273 10.9127
" />
<path d="M136.0273 10.9127
L136.0892 11.0365
" />
<path d="M136.0892 11.0365
L136.0892 11.3460
" />
<path d="M136.0892 11.3460
L136.0273 11.4698
" />
<path d="M136.0273 11.4698
L135.9654 11.5317
" />
<path d="M135.9654 11.5317
L135.8415 11.5936
" />
<path d="M135.8415 11.5936
L135.4701 11.5936
" />
<path d="M135.4701 11.5936
L135.3463 11.5317
" />
<path d="M135.3463 11.5317
L135.2844 11.4698
" />
</g></g>
<g style="fill:none; 
stroke:#000000; stroke-width:0.1500; stroke-opacity:1; 
stroke-linecap:round; stroke-linejoin:round;">
<text x="185.0000" y="11.6500"
textLength="1.4281" font-size="1.7333" lengthAdjust="spacingAndGlyphs"
text-anchor="start" opacity="0" stroke-opacity="0">4</text>
<g class="stroked-text"><desc>4</desc>
<path d="M185.9654 10.7269
L185.9654 11.5936
" />
<path d="M185.6558 10.2317
L185.3463 11.1603
" />
<path d="M185.3463 11.1603
L186.1511 11.1603
" />
</g></g>
<g style="fill:none; 
stroke:#000000; stroke-width:0.1500; stroke-opacity:1; 
stroke-linecap:round; stroke-linejoin:round;">
<text x="235.0000" y="11.6500"
textLength="1.4281" font-size="1.7333" lengthAdjust="spacingAndGlyphs"
text-anchor="start" opacity="0" stroke-opacity="0">5</text>
<g class="stroked-text"><desc>5</desc>
<path d="M236.0273 10.2936
L235.4082 10.2936
" />
<path d="M235.4082 10.2936
L235.3463 10.9127
" />
<path d="M235.3463 10.9127
L235.4082 10.8507
" />
<path d="M235.4082 10.8507
L235.5320 10.7888
" />
<path d="M235.5320 10.7888
L235.8415 10.7888
" />
<path d="M235.8415 10.7888
L235.9654 10.8507
" />
<path d="M235.9654 10.8507
L236.0273 10.9127
" />
<path d="M236.0273 10.9127
L236.0892 11.0365
" />
<path d="M236.0892 11.0365
L236.0892 11.3460
" />
<path d="M236.0892 11.3460
L236.0273 11.4698
" />
<path d="M236.0273 11.4698
L235.9654 11.5317
" />
<path d="M235.9654 11.5317
L235.8415 11.5936
" />
<path d="M235.8415 11.5936
L235.5320 11.5936
" />
<path d="M235.5320 11.5936
L235.4082 11.5317
" />
<path d="M235.4082 11.5317
L235.3463 11.4698
" />
</g></g>
<g style="fill:none; 
stroke:#000000; stroke-width:0.1500; stroke-opacity:1; 
stroke-linecap:round; stroke-linejoin:round;">
<text x="285.0000" y="11.6500"
textLength="1.4281" font-size="1.7333" lengthAdjust="spacingAndGlyphs"
text-anchor="start" opacity="0" stroke-opacity="0">6</text>
<g class="stroked-text"><desc>6</desc>
<path d="M285.9654 10.2936
L285.7177 10.2936
" />
<path d="M285.7177 10.2936
L285.5939 10.3555
" />
<path d="M285.5939 10.3555
L285.5320 10.4174
" />
<path d="M285.5320 10.4174
L285.4082 10.6031
" />
<path d="M285.4082 10.6031
L285.3463 10.8507
" />
<path d="M285.3463 10.8507
L285.3463 11.3460
" />
<path d="M285.3463 11.3460
L285.4082 11.4698
" />
<path d="M285.4082 11.4698
L285.4701 11.5317
" />
<path d="M285.4701 11.5317
L285.5939 11.5936
" />
<path d="M285.5939 11.5936
L285.8415 11.5936
" />
<path d="M285.8415 11.5936
L285.9654 11.5317
" />
<path d="M285.9654 11.5317
L286.0273 11.4698
" />
<path d="M286.0273 11.4698
L286.0892 11.3460
" />
<path d="M286.0892 11.3460
L286.0892 11.0365
" />
<path d="M286.0892 11.0365
L286.0273 10.9127
" />
<path d="M286.0273 10.9127
L285.9654 10.8507
" />
<path d="M285.9654 10.8507
L285.8415 10.7888
" />
<path d="M285.8415 10.7888
L285.5939 10.7888
" />
<path d="M285.5939 10.7888
L285.4701 10.8507
" />
<path d="M285.4701 10.8507
L285.4082 10.9127
" />
<path d="M285.4082 10.9127
L285.3463 11.0365
" />
</g></g>
<g style="fill:none; 
stroke:#000000; stroke-width:0.1500; stroke-opacity:1; 
stroke-linecap:round; stroke-linejoin:round;">
<path d="M60.0000 198.0072
L60.0000 200.0072
" />
</g>
<g style="fill:none; 
stroke:#000000; stroke-width:0.1500; stroke-opacity:1; 
stroke-linecap:round; stroke-linejoin:round;">
<path d="M110.0000 198.0072
L110.0000 200.0072
" />
</g>
<g style="fill:none; 
stroke:#000000; stroke-width:0.1500; stroke-opacity:1; 
stroke-linecap:round; stroke-linejoin:round;">
<path d="M160.0000 198.0072
L160.0000 200.0072
" />
</g>
<g style="fill:none; 
stroke:#000000; stroke-width:0.1500; stroke-opacity:1; 
stroke-linecap:round; stroke-linejoin:round;">
<path d="M210.0000 198.0072
L210.0000 200.0072
" />
</g>
<g style="fill:none; 
stroke:#000000; stroke-width:0.1500; stroke-opacity:1; 
stroke-linecap:round; stroke-linejoin:round;">
<path d="M260.0000 198.0072
L260.0000 200.0072
" />
</g>
<g style="fill:none; 
stroke:#000000; stroke-width:0.1500; stroke-opacity:1; 
stroke-linecap:round; stroke-linejoin:round;">
<text x="35.0000" y="199.6572"
textLength="1.4281" font-size="1.7333" lengthAdjust="spacingAndGlyphs"
text-anchor="start" opacity="0" stroke-opacity="0">1</text>
<g class="stroked-text"><desc>1</desc>
<path d="M36.0892 199.6008
L35.3463 199.6008
" />
<path d="M35.7177 199.6008
L35.7177 198.3008
" />
<path d="M35.7177 198.3008
L35.5939 198.4865
" />
<path d="M35.5939 198.4865
L35.4701 198.6103
" />
<path d="M35.4701 198.6103
L35.3463 198.6722
" />
</g></g>
<g style="fill:none; 
stroke:#000000; stroke-width:0.1500; stroke-opacity:1; 
stroke-linecap:round; stroke-linejoin:round;">
<text x="85.0000" y="199.6572"
textLength="1.4281" font-size="1.7333" lengthAdjust="spacingAndGlyphs"
text-anchor="start" opacity="0" stroke-opacity="0">2</text>
<g class="stroked-text"><desc>2</desc>
<path d="M85.3463 198.4246
L85.4082 198.3627
" />
<path d="M85.4082 198.3627
L85.5320 198.3008
" />
<path d="M85.5320 198.3008
L85.8415 198.3008
" />
<path d="M85.8415 198.3008
L85.9654 198.3627
" />
<path d="M85.9654 198.3627
L86.0273 198.4246
" />
<path d="M86.0273 198.4246
L86.0892 198.5484
" />
<path d="M86.0892 198.5484
L86.0892 198.6722
" />
<path d="M86.0892 198.6722
L86.0273 198.8579
" />
<path d="M86.0273 198.8579
L85.2844 199.6008
" />
<path d="M85.2844 199.6008
L86.0892 199.6008
" />
</g></g>
<g style="fill:none; 
stroke:#000000; stroke-width:0.1500; stroke-opacity:1; 
stroke-linecap:round; stroke-linejoin:round;">
<text x="135.0000" y="199.6572"
textLength="1.4281" font-size="1.7333" lengthAdjust="spacingAndGlyphs"
text-anchor="start" opacity="0" stroke-opacity="0">3</text>
<g class="stroked-text"><desc>3</desc>
<path d="M135.2844 198.3008
L136.0892 198.3008
" />
<path d="M136.0892 198.3008
L135.6558 198.7960
" />
<path d="M135.6558 198.7960
L135.8415 198.7960
" />
<path d="M135.8415 198.7960
L135.9654 198.8579
" />
<path d="M135.9654 198.8579
L136.0273 198.9199
" />
<path d="M136.0273 198.9199
L136.0892 199.0437
" />
<path d="M136.0892 199.0437
L136.0892 199.3532
" />
<path d="M136.0892 199.3532
L136.0273 199.4770
" />
<path d="M136.0273 199.4770
L135.9654 199.5389
" />
<path d="M135.9654 199.5389
L135.8415 199.6008
" />
<path d="M135.8415 199.6008
L135.4701 199.6008
" />
<path d="M135.4701 199.6008
L135.3463 199.5389
" />
<path d="M135.3463 199.5389
L135.2844 199.4770
" />
</g></g>
<g style="fill:none; 
stroke:#000000; stroke-width:0.1500; stroke-opacity:1; 
stroke-linecap:round; stroke-linejoin:round;">
<text x="185.0000" y="199.6572"
textLength="1.4281" font-size="1.7333" lengthAdjust="spacingAndGlyphs"
text-anchor="start" opacity="0" stroke-opacity="0">4</text>
<g class="stroked-text"><desc>4</desc>
<path d="M185.9654 198.7341
L185.9654 199.6008
" />
<path d="M185.6558 198.2389
L185.3463 199.1675
" />
<path d="M185.3463 199.1675
L186.1511 199.1675
" />
</g></g>
<g style="fill:none; 
stroke:#000000; stroke-width:0.1500; stroke-opacity:1; 
stroke-linecap:round; stroke-linejoin:round;">
<text x="235.0000" y="199.6572"
textLength="1.4281" font-size="1.7333" lengthAdjust="spacingAndGlyphs"
text-anchor="start" opacity="0" stroke-opacity="0">5</text>
<g class="stroked-text"><desc>5</desc>
<path d="M236.0273 198.3008
L235.4082 198.3008
" />
<path d="M235.4082 198.3008
L235.3463 198.9199
" />
<path d="M235.3463 198.9199
L235.4082 198.8579
" />
<path d="M235.4082 198.8579
L235.5320 198.7960
" />
<path d="M235.5320 198.7960
L235.8415 198.7960
" />
<path d="M235.8415 198.7960
L235.9654 198.8579
" />
<path d="M235.9654 198.8579
L236.0273 198.9199
" />
<path d="M236.0273 198.9199
L236.0892 199.0437
" />
<path d="M236.0892 199.0437
L236.0892 199.3532
" />
<path d="M236.0892 199.3532
L236.0273 199.4770
" />
<path d="M236.0273 199.4770
L235.9654 199.5389
" />
<path d="M235.9654 199.5389
L235.8415 199.6008
" />
<path d="M235.8415 199.6008
L235.5320 199.6008
" />
<path d="M235.5320 199.6008
L235.4082 199.5389
" />
<path d="M235.4082 199.5389
L235.3463 199.4770
" />
</g></g>
<g style="fill:none; 
stroke:#000000; stroke-width:0.1500; stroke-opacity:1; 
stroke-linecap:round; stroke-linejoin:round;">
<text x="285.0000" y="199.6572"
textLength="1.4281" font-size="1.7333" lengthAdjust="spacingAndGlyphs"
text-anchor="start" opacity="0" stroke-opacity="0">6</text>
<g class="stroked-text"><desc>6</desc>
<path d="M285.9654 198.3008
L285.7177 198.3008
" />
<path d="M285.7177 198.3008
L285.5939 198.3627
" />
<path d="M285.5939 198.3627
L285.5320 198.4246
" />
<path d="M285.5320 198.4246
L285.4082 198.6103
" />
<path d="M285.4082 198.6103
L285.3463 198.8579
" />
<path d="M285.3463 198.8579
L285.3463 199.3532
" />
<path d="M285.3463 199.3532
L285.4082 199.4770
" />
<path d="M285.4082 199.4770
L285.4701 199.5389
" />
<path d="M285.4701 199.5389
L285.5939 199.6008
" />
<path d="M285.5939 199.6008
L285.8415 199.6008
" />
<path d="M285.8415 199.6008
L285.9654 199.5389
" />
<path d="M285.9654 199.5389
L286.0273 199.4770
" />
<path d="M286.0273 199.4770
L286.0892 199.3532
" />
<path d="M286.0892 199.3532
L286.0892 199.0437
" />
<path d="M286.0892 199.0437
L286.0273 198.9199
" />
<path d="M286.0273 198.9199
L285.9654 198.8579
" />
<path d="M285.9654 198.8579
L285.8415 198.7960
" />
<path d="M285.8415 198.7960
L285.5939 198.7960
" />
<path d="M285.5939 198.7960
L285.4701 198.8579
" />
<path d="M285.4701 198.8579
L285.4082 198.9199
" />
<path d="M285.4082 198.9199
L285.3463 199.0437
" />
</g></g>
<g style="fill:none; 
stroke:#000000; stroke-width:0.1500; stroke-opacity:1; 
stroke-linecap:round; stroke-linejoin:round;">
<path d="M10.0000 60.0000
L12.0000 60.0000
" />
</g>
<g style="fill:none; 
stroke:#000000; stroke-width:0.1500; stroke-opacity:1; 
stroke-linecap:round; stroke-linejoin:round;">
<path d="M10.0000 110.0000
L12.0000 110.0000
" />
</g>
<g style="fill:none; 
stroke:#000000; stroke-width:0.1500; stroke-opacity:1; 
stroke-linecap:round; stroke-linejoin:round;">
<path d="M10.0000 160.0000
L12.0000 160.0000
" />
</g>
<g style="fill:none; 
stroke:#000000; stroke-width:0.1500; stroke-opacity:1; 
stroke-linecap:round; stroke-linejoin:round;">
<text x="11.0000" y="35.6500"
textLength="1.3043" font-size="1.7333" lengthAdjust="spacingAndGlyphs"
text-anchor="middle" opacity="0" stroke-opacity="0">A</text>
<g class="stroked-text"><desc>A</desc>
<path d="M10.6905 35.2222
L11.3095 35.2222
" />
<path d="M10.5667 35.5936
L11.0000 34.2936
" />
<path d="M11.0000 34.2936
L11.4333 35.5936
" />
</g></g>
<g style="fill:none; 
stroke:#000000; stroke-width:0.1500; stroke-opacity:1; 
stroke-linecap:round; stroke-linejoin:round;">
<text x="11.0000" y="85.6500"
textLength="1.4900" font-size="1.7333" lengthAdjust="spacingAndGlyphs"
text-anchor="middle" opacity="0" stroke-opacity="0">B</text>
<g class="stroked-text"><desc>B</desc>
<path d="M11.0929 84.9127
L11.2786 84.9746
" />
<path d="M11.2786 84.9746
L11.3405 85.0365
" />
<path d="M11.3405 85.0365
L11.4024 85.1603
" />
<path d="M11.4024 85.1603
L11.4024 85.3460
" />
<path d="M11.4024 85.3460
L11.3405 85.4698
" />
<path d="M11.3405 85.4698
L11.2786 85.5317
" />
<path d="M11.2786 85.5317
L11.1548 85.5936
" />
<path d="M11.1548 85.5936
L10.6595 85.5936
" />
<path d="M10.6595 85.5936
L10.6595 84.2936
" />
<path d="M10.6595 84.2936
L11.0929 84.2936
" />
<path d="M11.0929 84.2936
L11.2167 84.3555
" />
<path d="M11.2167 84.3555
L11.2786 84.4174
" />
<path d="M11.2786 84.4174
L11.3405 84.5412
" />
<path d="M11.3405 84.5412
L11.3405 84.6650
" />
<path d="M11.3405 84.6650
L11.2786 84.7888
" />
<path d="M11.2786 84.7888
L11.2167 84.8507
" />
<path d="M11.2167 84.8507
L11.0929 84.9127
" />
<path d="M11.0929 84.9127
L10.6595 84.9127
" />
</g></g>
<g style="fill:none; 
stroke:#000000; stroke-width:0.1500; stroke-opacity:1; 
stroke-linecap:round; stroke-linejoin:round;">
<text x="11.0000" y="135.6500"
textLength="1.4900" font-size="1.7333" lengthAdjust="spacingAndGlyphs"
text-anchor="middle" opacity="0" stroke-opacity="0">C</text>
<g class="stroked-text"><desc>C</desc>
<path d="M11.4024 135.4698
L11.3405 135.5317
" />
<path d="M11.3405 135.5317
L11.1548 135.5936
" />
<path d="M11.1548 135.5936
L11.0310 135.5936
" />
<path d="M11.0310 135.5936
L10.8452 135.5317
" />
<path d="M10.8452 135.5317
L10.7214 135.4079
" />
<path d="M10.7214 135.4079
L10.6595 135.2841
" />
<path d="M10.6595 135.2841
L10.5976 135.0365
" />
<path d="M10.5976 135.0365
L10.5976 134.8507
" />
<path d="M10.5976 134.8507
L10.6595 134.6031
" />
<path d="M10.6595 134.6031
L10.7214 134.4793
" />
<path d="M10.7214 134.4793
L10.8452 134.3555
" />
<path d="M10.8452 134.3555
L11.0310 134.2936
" />
<path d="M11.0310 134.2936
L11.1548 134.2936
" />
<path d="M11.1548 134.2936
L11.3405 134.3555
" />
<path d="M11.3405 134.3555
L11.4024 134.4174
" />
</g></g>
<g style="fill:none; 
stroke:#000000; stroke-width:0.1500; stroke-opacity:1; 
stroke-linecap:round; stroke-linejoin:round;">
<text x="11.0000" y="185.6500"
textLength="1.4900" font-size="1.7333" lengthAdjust="spacingAndGlyphs"
text-anchor="middle" opacity="0" stroke-opacity="0">D</text>
<g class="stroked-text"><desc>D</desc>
<path d="M10.6595 185.5936
L10.6595 184.2936
" />
<path d="M10.6595 184.2936
L10.9690 184.2936
" />
<path d="M10.9690 184.2936
L11.1548 184.3555
" />
<path d="M11.1548 184.3555
L11.2786 184.4793
" />
<path d="M11.2786 184.4793
L11.3405 184.6031
" />
<path d="M11.3405 184.6031
L11.4024 184.8507
" />
<path d="M11.4024 184.8507
L11.4024 185.0365
" />
<path d="M11.4024 185.0365
L11.3405 185.2841
" />
<path d="M11.3405 185.2841
L11.2786 185.4079
" />
<path d="M11.2786 185.4079
L11.1548 185.5317
" />
<path d="M11.1548 185.5317
L10.9690 185.5936
" />
<path d="M10.9690 185.5936
L10.6595 185.5936
" />
</g></g>
<g style="fill:none; 
stroke:#000000; stroke-width:0.1500; stroke-opacity:1; 
stroke-linecap:round; stroke-linejoin:round;">
<path d="M287.0022 60.0000
L285.0022 60.0000
" />
</g>
<g style="fill:none; 
stroke:#000000; stroke-width:0.1500; stroke-opacity:1; 
stroke-linecap:round; stroke-linejoin:round;">
<path d="M287.0022 110.0000
L285.0022 110.0000
" />
</g>
<g style="fill:none; 
stroke:#000000; stroke-width:0.1500; stroke-opacity:1; 
stroke-linecap:round; stroke-linejoin:round;">
<path d="M287.0022 160.0000
L285.0022 160.0000
" />
</g>
<g style="fill:none; 
stroke:#000000; stroke-width:0.1500; stroke-opacity:1; 
stroke-linecap:round; stroke-linejoin:round;">
<text x="286.0022" y="35.6500"
textLength="1.3043" font-size="1.7333" lengthAdjust="spacingAndGlyphs"
text-anchor="middle" opacity="0" stroke-opacity="0">A</text>
<g class="stroked-text"><desc>A</desc>
<path d="M285.6927 35.2222
L286.3117 35.2222
" />
<path d="M285.5689 35.5936
L286.0022 34.2936
" />
<path d="M286.0022 34.2936
L286.4355 35.5936
" />
</g></g>
<g style="fill:none; 
stroke:#000000; stroke-width:0.1500; stroke-opacity:1; 
stroke-linecap:round; stroke-linejoin:round;">
<text x="286.0022" y="85.6500"
textLength="1.4900" font-size="1.7333" lengthAdjust="spacingAndGlyphs"
text-anchor="middle" opacity="0" stroke-opacity="0">B</text>
<g class="stroked-text"><desc>B</desc>
<path d="M286.0951 84.9127
L286.2808 84.9746
" />
<path d="M286.2808 84.9746
L286.3427 85.0365
" />
<path d="M286.3427 85.0365
L286.4046 85.1603
" />
<path d="M286.4046 85.1603
L286.4046 85.3460
" />
<path d="M286.4046 85.3460
L286.3427 85.4698
" />
<path d="M286.3427 85.4698
L286.2808 85.5317
" />
<path d="M286.2808 85.5317
L286.1570 85.5936
" />
<path d="M286.1570 85.5936
L285.6617 85.5936
" />
<path d="M285.6617 85.5936
L285.6617 84.2936
" />
<path d="M285.6617 84.2936
L286.0951 84.2936
" />
<path d="M286.0951 84.2936
L286.2189 84.3555
" />
<path d="M286.2189 84.3555
L286.2808 84.4174
" />
<path d="M286.2808 84.4174
L286.3427 84.5412
" />
<path d="M286.3427 84.5412
L286.3427 84.6650
" />
<path d="M286.3427 84.6650
L286.2808 84.7888
" />
<path d="M286.2808 84.7888
L286.2189 84.8507
" />
<path d="M286.2189 84.8507
L286.0951 84.9127
" />
<path d="M286.0951 84.9127
L285.6617 84.9127
" />
</g></g>
<g style="fill:none; 
stroke:#000000; stroke-width:0.1500; stroke-opacity:1; 
stroke-linecap:round; stroke-linejoin:round;">
<text x="286.0022" y="135.6500"
textLength="1.4900" font-size="1.7333" lengthAdjust="spacingAndGlyphs"
text-anchor="middle" opacity="0" stroke-opacity="0">C</text>
<g class="stroked-text"><desc>C</desc>
<path d="M286.4046 135.4698
L286.3427 135.5317
" />
<path d="M286.3427 135.5317
L286.1570 135.5936
" />
<path d="M286.1570 135.5936
L286.0332 135.5936
" />
<path d="M286.0332 135.5936
L285.8474 135.5317
" />
<path d="M285.8474 135.5317
L285.7236 135.4079
" />
<path d="M285.7236 135.4079
L285.6617 135.2841
" />
<path d="M285.6617 135.2841
L285.5998 135.0365
" />
<path d="M285.5998 135.0365
L285.5998 134.8507
" />
<path d="M285.5998 134.8507
L285.6617 134.6031
" />
<path d="M285.6617 134.6031
L285.7236 134.4793
" />
<path d="M285.7236 134.4793
L285.8474 134.3555
" />
<path d="M285.8474 134.3555
L286.0332 134.2936
" />
<path d="M286.0332 134.2936
L286.1570 134.2936
" />
<path d="M286.1570 134.2936
L286.3427 134.3555
" />
<path d="M286.3427 134.3555
L286.4046 134.4174
" />
</g></g>
<g style="fill:none; 
stroke:#000000; stroke-width:0.1500; stroke-opacity:1; 
stroke-linecap:round; stroke-linejoin:round;">
<text x="286.0022" y="185.6500"
textLength="1.4900" font-size="1.7333" lengthAdjust="spacingAndGlyphs"
text-anchor="middle" opacity="0" stroke-opacity="0">D</text>
<g class="stroked-text"><desc>D</desc>
<path d="M285.6617 185.5936
L285.6617 184.2936
" />
<path d="M285.6617 184.2936
L285.9712 184.2936
" />
<path d="M285.9712 184.2936
L286.1570 184.3555
" />
<path d="M286.1570 184.3555
L286.2808 184.4793
" />
<path d="M286.2808 184.4793
L286.3427 184.6031
" />
<path d="M286.3427 184.6031
L286.4046 184.8507
" />
<path d="M286.4046 184.8507
L286.4046 185.0365
" />
<path d="M286.4046 185.0365
L286.3427 185.2841
" />
<path d="M286.3427 185.2841
L286.2808 185.4079
" />
<path d="M286.2808 185.4079
L286.1570 185.5317
" />
<path d="M286.1570 185.5317
L285.9712 185.5936
" />
<path d="M285.9712 185.5936
L285.6617 185.5936
" />
</g></g>
<g style="fill:none; 
stroke:#000000; stroke-width:0.5000; stroke-opacity:1; 
stroke-linecap:round; stroke-linejoin:round;">
<text x="261.4022" y="195.2570"
textLength="1.7488" font-size="3.3333" lengthAdjust="spacingAndGlyphs"
text-anchor="start" opacity="0" stroke-opacity="0">1</text>
<g class="stroked-text"><desc>1</desc>
<path style="fill:#000000; fill-opacity:1.0000; stroke:none;fill-rule:evenodd;"
d="M 262.5477,192.6607
262.5477,194.5756
262.5499,194.6991
262.5622,194.8210
262.5666,194.8375
262.6454,194.9303
262.7692,194.9635
262.8377,194.9663
262.8909,194.9663
262.8909,195.0445
261.6648,195.0445
261.6648,194.9663
261.7264,194.9663
261.8545,194.9581
261.9395,194.9334
262.0256,194.8430
262.0445,194.7210
262.0482,194.5885
262.0482,194.5756
262.0482,193.3641
262.0443,193.2382
262.0323,193.1705
261.9749,193.1034
261.8779,193.0747
261.7539,193.0961
261.6654,193.1296
261.6342,193.0515
262.4909,192.6607
Z" /> 
</g></g>
<g style="fill:none; 
stroke:#000000; stroke-width:0.2000; stroke-opacity:1; 
stroke-linecap:round; stroke-linejoin:round;">
<path d="M131.9726 59.1483 A35.0000 35.0000 0.0 0 0 113.6725 86.5335" />
<path d="M162.9122 121.8952 A0.9999 0.9999 0.0 0 0 163.5004 120.9840" />
<path d="M132.5365 58.8462 A0.5000 0.5000 0.0 0 0 132.8004 58.4055" />
<path d="M133.5004 116.5519 A1.0001 1.0001 0.0 0 0 133.0165 115.6954" />
<path d="M164.2004 58.4055 A0.5000 0.5000 0.0 0 0 164.4643 58.8462" />
<path d="M133.5004 120.9840 A1.0000 1.0000 0.0 0 0 134.0886 121.8953" />
<path d="M163.9843 115.6954 A30.0000 30.0000 0.0 0 0 178.4951 90.5619" />
<path d="M182.8332 87.4985 A1.0000 1.0000 0.0 0 0 183.3283 86.5335" />
<path d="M132.5004 57.7442
L132.5365 57.7635
" />
<path d="M178.9950 89.7146 A1.0000 1.0000 0.0 0 0 178.4951 90.5619" />
<path d="M132.5365 58.8462
L131.9726 59.1483
" />
<path d="M164.5004 48.3001
L132.5004 48.3001
" />
<path d="M164.3504 57.8472 A0.4999 0.4999 0.0 0 0 164.2004 58.2042" />
<path d="M163.5004 120.9840
L163.5004 116.5519
" />
<path d="M133.5004 116.5519
L133.5004 120.9840
" />
<path d="M163.9843 115.6954 A0.9999 0.9999 0.0 0 0 163.5004 116.5519" />
<path d="M114.1676 87.4986
L118.0058 89.7146
" />
<path d="M118.5057 90.5619 A30.0000 30.0000 0.0 0 0 133.0165 115.6954" />
<path d="M134.0886 121.8953 A35.0000 35.0000 0.0 0 0 162.9122 121.8953" />
<path d="M132.8004 58.2042 A0.5001 0.5001 0.0 0 0 132.5365 57.7635" />
<path d="M132.8004 58.2042
L132.8004 58.4055
" />
<path d="M164.2004 58.4055
L164.2004 58.2042
" />
<path d="M165.0282 59.1483
L164.4643 58.8462
" />
<path d="M178.9950 89.7146
L182.8332 87.4985
" />
<path d="M183.3283 86.5335 A35.0000 35.0000 0.0 0 0 165.0282 59.1483" />
<path d="M164.5004 57.4901
L164.5004 48.3001
" />
<path d="M118.5056 90.5619 A1.0000 1.0000 0.0 0 0 118.0058 89.7146" />
<path d="M113.6725 86.5335 A1.0000 1.0000 0.0 0 0 114.1676 87.4986" />
<path d="M164.3504 57.8471 A0.4999 0.4999 0.0 0 0 164.5004 57.4901" />
<path d="M132.5004 48.3001
L132.5004 57.7442
" />
<path style="fill:none; 
stroke:#000000; stroke-width:0.1500; stroke-opacity:1; 
stroke-linecap:round; stroke-linejoin:round;fill:none"
d="M 113.5000,46.5000
183.5000,46.5000
183.5000,126.5000
113.5000,126.5000
Z" /> 
</g>
<g style="fill:none; 
stroke:#000000; stroke-width:0.1500; stroke-opacity:1; 
stroke-linecap:round; stroke-linejoin:round;">
<text x="113.5000" y="46.5000"
textLength="13.3452" font-size="1.3333" lengthAdjust="spacingAndGlyphs"
text-anchor="end" opacity="0" stroke-opacity="0">PCB3D_TL_Amulet</text>
<g class="stroked-text"><desc>PCB3D_TL_Amulet</desc>
<path d="M100.5442 46.3698
L100.5442 45.3698
" />
<path d="M100.5442 45.3698
L100.9251 45.3698
" />
<path d="M100.9251 45.3698
L101.0204 45.4174
" />
<path d="M101.0204 45.4174
L101.0680 45.4651
" />
<path d="M101.0680 45.4651
L101.1156 45.5603
" />
<path d="M101.1156 45.5603
L101.1156 45.7032
" />
<path d="M101.1156 45.7032
L101.0680 45.7984
" />
<path d="M101.0680 45.7984
L101.0204 45.8460
" />
<path d="M101.0204 45.8460
L100.9251 45.8936
" />
<path d="M100.9251 45.8936
L100.5442 45.8936
" />
<path d="M102.1156 46.2746
L102.0680 46.3222
" />
<path d="M102.0680 46.3222
L101.9251 46.3698
" />
<path d="M101.9251 46.3698
L101.8299 46.3698
" />
<path d="M101.8299 46.3698
L101.6870 46.3222
" />
<path d="M101.6870 46.3222
L101.5918 46.2270
" />
<path d="M101.5918 46.2270
L101.5442 46.1317
" />
<path d="M101.5442 46.1317
L101.4966 45.9412
" />
<path d="M101.4966 45.9412
L101.4966 45.7984
" />
<path d="M101.4966 45.7984
L101.5442 45.6079
" />
<path d="M101.5442 45.6079
L101.5918 45.5127
" />
<path d="M101.5918 45.5127
L101.6870 45.4174
" />
<path d="M101.6870 45.4174
L101.8299 45.3698
" />
<path d="M101.8299 45.3698
L101.9251 45.3698
" />
<path d="M101.9251 45.3698
L102.0680 45.4174
" />
<path d="M102.0680 45.4174
L102.1156 45.4651
" />
<path d="M102.8775 45.8460
L103.0204 45.8936
" />
<path d="M103.0204 45.8936
L103.0680 45.9412
" />
<path d="M103.0680 45.9412
L103.1156 46.0365
" />
<path d="M103.1156 46.0365
L103.1156 46.1793
" />
<path d="M103.1156 46.1793
L103.0680 46.2746
" />
<path d="M103.0680 46.2746
L103.0204 46.3222
" />
<path d="M103.0204 46.3222
L102.9251 46.3698
" />
<path d="M102.9251 46.3698
L102.5442 46.3698
" />
<path d="M102.5442 46.3698
L102.5442 45.3698
" />
<path d="M102.5442 45.3698
L102.8775 45.3698
" />
<path d="M102.8775 45.3698
L102.9727 45.4174
" />
<path d="M102.9727 45.4174
L103.0204 45.4651
" />
<path d="M103.0204 45.4651
L103.0680 45.5603
" />
<path d="M103.0680 45.5603
L103.0680 45.6555
" />
<path d="M103.0680 45.6555
L103.0204 45.7508
" />
<path d="M103.0204 45.7508
L102.9727 45.7984
" />
<path d="M102.9727 45.7984
L102.8775 45.8460
" />
<path d="M102.8775 45.8460
L102.5442 45.8460
" />
<path d="M103.4489 45.3698
L104.0680 45.3698
" />
<path d="M104.0680 45.3698
L103.7346 45.7508
" />
<path d="M103.7346 45.7508
L103.8775 45.7508
" />
<path d="M103.8775 45.7508
L103.9727 45.7984
" />
<path d="M103.9727 45.7984
L104.0204 45.8460
" />
<path d="M104.0204 45.8460
L104.0680 45.9412
" />
<path d="M104.0680 45.9412
L104.0680 46.1793
" />
<path d="M104.0680 46.1793
L104.0204 46.2746
" />
<path d="M104.0204 46.2746
L103.9727 46.3222
" />
<path d="M103.9727 46.3222
L103.8775 46.3698
" />
<path d="M103.8775 46.3698
L103.5918 46.3698
" />
<path d="M103.5918 46.3698
L103.4966 46.3222
" />
<path d="M103.4966 46.3222
L103.4489 46.2746
" />
<path d="M104.4966 46.3698
L104.4966 45.3698
" />
<path d="M104.4966 45.3698
L104.7346 45.3698
" />
<path d="M104.7346 45.3698
L104.8775 45.4174
" />
<path d="M104.8775 45.4174
L104.9727 45.5127
" />
<path d="M104.9727 45.5127
L105.0204 45.6079
" />
<path d="M105.0204 45.6079
L105.0680 45.7984
" />
<path d="M105.0680 45.7984
L105.0680 45.9412
" />
<path d="M105.0680 45.9412
L105.0204 46.1317
" />
<path d="M105.0204 46.1317
L104.9727 46.2270
" />
<path d="M104.9727 46.2270
L104.8775 46.3222
" />
<path d="M104.8775 46.3222
L104.7346 46.3698
" />
<path d="M104.7346 46.3698
L104.4966 46.3698
" />
<path d="M105.2585 46.4651
L106.0204 46.4651
" />
<path d="M106.1156 45.3698
L106.6870 45.3698
" />
<path d="M106.4013 46.3698
L106.4013 45.3698
" />
<path d="M107.4966 46.3698
L107.0204 46.3698
" />
<path d="M107.0204 46.3698
L107.0204 45.3698
" />
<path d="M107.5918 46.4651
L108.3537 46.4651
" />
<path d="M108.5442 46.0841
L109.0204 46.0841
" />
<path d="M108.4489 46.3698
L108.7823 45.3698
" />
<path d="M108.7823 45.3698
L109.1156 46.3698
" />
<path d="M109.4489 46.3698
L109.4489 45.7032
" />
<path d="M109.4489 45.7984
L109.4966 45.7508
" />
<path d="M109.4966 45.7508
L109.5918 45.7032
" />
<path d="M109.5918 45.7032
L109.7346 45.7032
" />
<path d="M109.7346 45.7032
L109.8299 45.7508
" />
<path d="M109.8299 45.7508
L109.8775 45.8460
" />
<path d="M109.8775 45.8460
L109.8775 46.3698
" />
<path d="M109.8775 45.8460
L109.9251 45.7508
" />
<path d="M109.9251 45.7508
L110.0204 45.7032
" />
<path d="M110.0204 45.7032
L110.1632 45.7032
" />
<path d="M110.1632 45.7032
L110.2585 45.7508
" />
<path d="M110.2585 45.7508
L110.3061 45.8460
" />
<path d="M110.3061 45.8460
L110.3061 46.3698
" />
<path d="M111.2108 45.7032
L111.2108 46.3698
" />
<path d="M110.7823 45.7032
L110.7823 46.2270
" />
<path d="M110.7823 46.2270
L110.8299 46.3222
" />
<path d="M110.8299 46.3222
L110.9251 46.3698
" />
<path d="M110.9251 46.3698
L111.0680 46.3698
" />
<path d="M111.0680 46.3698
L111.1632 46.3222
" />
<path d="M111.1632 46.3222
L111.2108 46.2746
" />
<path d="M111.8299 46.3698
L111.7346 46.3222
" />
<path d="M111.7346 46.3222
L111.6870 46.2270
" />
<path d="M111.6870 46.2270
L111.6870 45.3698
" />
<path d="M112.5918 46.3222
L112.4966 46.3698
" />
<path d="M112.4966 46.3698
L112.3061 46.3698
" />
<path d="M112.3061 46.3698
L112.2108 46.3222
" />
<path d="M112.2108 46.3222
L112.1632 46.2270
" />
<path d="M112.1632 46.2270
L112.1632 45.8460
" />
<path d="M112.1632 45.8460
L112.2108 45.7508
" />
<path d="M112.2108 45.7508
L112.3061 45.7032
" />
<path d="M112.3061 45.7032
L112.4966 45.7032
" />
<path d="M112.4966 45.7032
L112.5918 45.7508
" />
<path d="M112.5918 45.7508
L112.6394 45.8460
" />
<path d="M112.6394 45.8460
L112.6394 45.9412
" />
<path d="M112.6394 45.9412
L112.1632 46.0365
" />
<path d="M112.9251 45.7032
L113.3061 45.7032
" />
<path d="M113.0680 45.3698
L113.0680 46.2270
" />
<path d="M113.0680 46.2270
L113.1156 46.3222
" />
<path d="M113.1156 46.3222
L113.2108 46.3698
" />
<path d="M113.2108 46.3698
L113.3061 46.3698
" />
</g><text x="183.5000" y="126.5000"
textLength="13.7738" font-size="1.3333" lengthAdjust="spacingAndGlyphs"
text-anchor="start" opacity="0" stroke-opacity="0">PCB3D_BR_Amulet</text>
<g class="stroked-text"><desc>PCB3D_BR_Amulet</desc>
<path d="M183.8368 126.3698
L183.8368 125.3698
" />
<path d="M183.8368 125.3698
L184.2177 125.3698
" />
<path d="M184.2177 125.3698
L184.3130 125.4174
" />
<path d="M184.3130 125.4174
L184.3606 125.4651
" />
<path d="M184.3606 125.4651
L184.4082 125.5603
" />
<path d="M184.4082 125.5603
L184.4082 125.7032
" />
<path d="M184.4082 125.7032
L184.3606 125.7984
" />
<path d="M184.3606 125.7984
L184.3130 125.8460
" />
<path d="M184.3130 125.8460
L184.2177 125.8936
" />
<path d="M184.2177 125.8936
L183.8368 125.8936
" />
<path d="M185.4082 126.2746
L185.3606 126.3222
" />
<path d="M185.3606 126.3222
L185.2177 126.3698
" />
<path d="M185.2177 126.3698
L185.1225 126.3698
" />
<path d="M185.1225 126.3698
L184.9796 126.3222
" />
<path d="M184.9796 126.3222
L184.8844 126.2270
" />
<path d="M184.8844 126.2270
L184.8368 126.1317
" />
<path d="M184.8368 126.1317
L184.7892 125.9412
" />
<path d="M184.7892 125.9412
L184.7892 125.7984
" />
<path d="M184.7892 125.7984
L184.8368 125.6079
" />
<path d="M184.8368 125.6079
L184.8844 125.5127
" />
<path d="M184.8844 125.5127
L184.9796 125.4174
" />
<path d="M184.9796 125.4174
L185.1225 125.3698
" />
<path d="M185.1225 125.3698
L185.2177 125.3698
" />
<path d="M185.2177 125.3698
L185.3606 125.4174
" />
<path d="M185.3606 125.4174
L185.4082 125.4651
" />
<path d="M186.1701 125.8460
L186.3130 125.8936
" />
<path d="M186.3130 125.8936
L186.3606 125.9412
" />
<path d="M186.3606 125.9412
L186.4082 126.0365
" />
<path d="M186.4082 126.0365
L186.4082 126.1793
" />
<path d="M186.4082 126.1793
L186.3606 126.2746
" />
<path d="M186.3606 126.2746
L186.3130 126.3222
" />
<path d="M186.3130 126.3222
L186.2177 126.3698
" />
<path d="M186.2177 126.3698
L185.8368 126.3698
" />
<path d="M185.8368 126.3698
L185.8368 125.3698
" />
<path d="M185.8368 125.3698
L186.1701 125.3698
" />
<path d="M186.1701 125.3698
L186.2653 125.4174
" />
<path d="M186.2653 125.4174
L186.3130 125.4651
" />
<path d="M186.3130 125.4651
L186.3606 125.5603
" />
<path d="M186.3606 125.5603
L186.3606 125.6555
" />
<path d="M186.3606 125.6555
L186.3130 125.7508
" />
<path d="M186.3130 125.7508
L186.2653 125.7984
" />
<path d="M186.2653 125.7984
L186.1701 125.8460
" />
<path d="M186.1701 125.8460
L185.8368 125.8460
" />
<path d="M186.7415 125.3698
L187.3606 125.3698
" />
<path d="M187.3606 125.3698
L187.0273 125.7508
" />
<path d="M187.0273 125.7508
L187.1701 125.7508
" />
<path d="M187.1701 125.7508
L187.2653 125.7984
" />
<path d="M187.2653 125.7984
L187.3130 125.8460
" />
<path d="M187.3130 125.8460
L187.3606 125.9412
" />
<path d="M187.3606 125.9412
L187.3606 126.1793
" />
<path d="M187.3606 126.1793
L187.3130 126.2746
" />
<path d="M187.3130 126.2746
L187.2653 126.3222
" />
<path d="M187.2653 126.3222
L187.1701 126.3698
" />
<path d="M187.1701 126.3698
L186.8844 126.3698
" />
<path d="M186.8844 126.3698
L186.7892 126.3222
" />
<path d="M186.7892 126.3222
L186.7415 126.2746
" />
<path d="M187.7892 126.3698
L187.7892 125.3698
" />
<path d="M187.7892 125.3698
L188.0273 125.3698
" />
<path d="M188.0273 125.3698
L188.1701 125.4174
" />
<path d="M188.1701 125.4174
L188.2653 125.5127
" />
<path d="M188.2653 125.5127
L188.3130 125.6079
" />
<path d="M188.3130 125.6079
L188.3606 125.7984
" />
<path d="M188.3606 125.7984
L188.3606 125.9412
" />
<path d="M188.3606 125.9412
L188.3130 126.1317
" />
<path d="M188.3130 126.1317
L188.2653 126.2270
" />
<path d="M188.2653 126.2270
L188.1701 126.3222
" />
<path d="M188.1701 126.3222
L188.0273 126.3698
" />
<path d="M188.0273 126.3698
L187.7892 126.3698
" />
<path d="M188.5511 126.4651
L189.3130 126.4651
" />
<path d="M189.8844 125.8460
L190.0273 125.8936
" />
<path d="M190.0273 125.8936
L190.0749 125.9412
" />
<path d="M190.0749 125.9412
L190.1225 126.0365
" />
<path d="M190.1225 126.0365
L190.1225 126.1793
" />
<path d="M190.1225 126.1793
L190.0749 126.2746
" />
<path d="M190.0749 126.2746
L190.0273 126.3222
" />
<path d="M190.0273 126.3222
L189.9320 126.3698
" />
<path d="M189.9320 126.3698
L189.5511 126.3698
" />
<path d="M189.5511 126.3698
L189.5511 125.3698
" />
<path d="M189.5511 125.3698
L189.8844 125.3698
" />
<path d="M189.8844 125.3698
L189.9796 125.4174
" />
<path d="M189.9796 125.4174
L190.0273 125.4651
" />
<path d="M190.0273 125.4651
L190.0749 125.5603
" />
<path d="M190.0749 125.5603
L190.0749 125.6555
" />
<path d="M190.0749 125.6555
L190.0273 125.7508
" />
<path d="M190.0273 125.7508
L189.9796 125.7984
" />
<path d="M189.9796 125.7984
L189.8844 125.8460
" />
<path d="M189.8844 125.8460
L189.5511 125.8460
" />
<path d="M191.1225 126.3698
L190.7892 125.8936
" />
<path d="M190.5511 126.3698
L190.5511 125.3698
" />
<path d="M190.5511 125.3698
L190.9320 125.3698
" />
<path d="M190.9320 125.3698
L191.0273 125.4174
" />
<path d="M191.0273 125.4174
L191.0749 125.4651
" />
<path d="M191.0749 125.4651
L191.1225 125.5603
" />
<path d="M191.1225 125.5603
L191.1225 125.7032
" />
<path d="M191.1225 125.7032
L191.0749 125.7984
" />
<path d="M191.0749 125.7984
L191.0273 125.8460
" />
<path d="M191.0273 125.8460
L190.9320 125.8936
" />
<path d="M190.9320 125.8936
L190.5511 125.8936
" />
<path d="M191.3130 126.4651
L192.0749 126.4651
" />
<path d="M192.2654 126.0841
L192.7415 126.0841
" />
<path d="M192.1701 126.3698
L192.5034 125.3698
" />
<path d="M192.5034 125.3698
L192.8368 126.3698
" />
<path d="M193.1701 126.3698
L193.1701 125.7032
" />
<path d="M193.1701 125.7984
L193.2177 125.7508
" />
<path d="M193.2177 125.7508
L193.3130 125.7032
" />
<path d="M193.3130 125.7032
L193.4558 125.7032
" />
<path d="M193.4558 125.7032
L193.5511 125.7508
" />
<path d="M193.5511 125.7508
L193.5987 125.8460
" />
<path d="M193.5987 125.8460
L193.5987 126.3698
" />
<path d="M193.5987 125.8460
L193.6463 125.7508
" />
<path d="M193.6463 125.7508
L193.7415 125.7032
" />
<path d="M193.7415 125.7032
L193.8844 125.7032
" />
<path d="M193.8844 125.7032
L193.9796 125.7508
" />
<path d="M193.9796 125.7508
L194.0273 125.8460
" />
<path d="M194.0273 125.8460
L194.0273 126.3698
" />
<path d="M194.9320 125.7032
L194.9320 126.3698
" />
<path d="M194.5034 125.7032
L194.5034 126.2270
" />
<path d="M194.5034 126.2270
L194.5511 126.3222
" />
<path d="M194.5511 126.3222
L194.6463 126.3698
" />
<path d="M194.6463 126.3698
L194.7892 126.3698
" />
<path d="M194.7892 126.3698
L194.8844 126.3222
" />
<path d="M194.8844 126.3222
L194.9320 126.2746
" />
<path d="M195.5511 126.3698
L195.4558 126.3222
" />
<path d="M195.4558 126.3222
L195.4082 126.2270
" />
<path d="M195.4082 126.2270
L195.4082 125.3698
" />
<path d="M196.3130 126.3222
L196.2177 126.3698
" />
<path d="M196.2177 126.3698
L196.0273 126.3698
" />
<path d="M196.0273 126.3698
L195.9320 126.3222
" />
<path d="M195.9320 126.3222
L195.8844 126.2270
" />
<path d="M195.8844 126.2270
L195.8844 125.8460
" />
<path d="M195.8844 125.8460
L195.9320 125.7508
" />
<path d="M195.9320 125.7508
L196.0273 125.7032
" />
<path d="M196.0273 125.7032
L196.2177 125.7032
" />
<path d="M196.2177 125.7032
L196.3130 125.7508
" />
<path d="M196.3130 125.7508
L196.3606 125.8460
" />
<path d="M196.3606 125.8460
L196.3606 125.9412
" />
<path d="M196.3606 125.9412
L195.8844 126.0365
" />
<path d="M196.6463 125.7032
L197.0273 125.7032
" />
<path d="M196.7892 125.3698
L196.7892 126.2270
" />
<path d="M196.7892 126.2270
L196.8368 126.3222
" />
<path d="M196.8368 126.3222
L196.9320 126.3698
" />
<path d="M196.9320 126.3698
L197.0273 126.3698
" />
</g></g>
<g style="fill:none; 
stroke:#000000; stroke-width:0.2000; stroke-opacity:1; 
stroke-linecap:round; stroke-linejoin:round;">
<path d="M119.1876 76.7714
L116.4163 75.1714
" />
<path d="M119.6163 69.6288
L116.4163 75.1714
" />
<path d="M122.3876 71.2288
L119.6163 69.6288
" />
<path d="M119.1876 76.7714 A3.2000 3.2000 0.0 1 0 122.3876 71.2288" />
<path d="M145.3004 122.0001
L145.3004 125.2001
" />
<path d="M145.3004 125.2001
L151.7004 125.2001
" />
<path d="M151.7004 122.0001
L151.7004 125.2001
" />
<path d="M151.7004 122.0001 A3.2000 3.2000 0.0 0 0 145.3004 122.0001" />
<path d="M174.6132 71.2288
L177.3845 69.6288
" />
<path d="M177.8132 76.7714
L180.5845 75.1714
" />
<path d="M180.5845 75.1714
L177.3845 69.6288
" />
<path d="M174.6132 71.2288 A3.2000 3.2000 0.0 0 0 177.8132 76.7714" />
</g> 
</svg>
