<?xml version="1.0" standalone="no"?>
 <!DOCTYPE svg PUBLIC "-//W3C//DTD SVG 1.1//EN" 
 "http://www.w3.org/Graphics/SVG/1.1/DTD/svg11.dtd"> 
<svg
  xmlns:svg="http://www.w3.org/2000/svg"
  xmlns="http://www.w3.org/2000/svg"
  xmlns:xlink="http://www.w3.org/1999/xlink"
  version="1.1"
  width="297.0022mm" height="210.0072mm" viewBox="0.0000 0.0000 297.0022 210.0072">
<title>SVG Image created as amulet_controller-B_Courtyard.svg date 2025/01/18 17:12:59 </title>
  <desc>Image generated by PCBNEW </desc>
<g style="fill:#000000; fill-opacity:1.0000;stroke:#000000; stroke-opacity:1.0000;
stroke-linecap:round; stroke-linejoin:round;"
 transform="translate(0 0) scale(1 1)">
</g>
<g style="fill:none; 
stroke:#000000; stroke-width:0.1500; stroke-opacity:1; 
stroke-linecap:round; stroke-linejoin:round;">
<path d="M10.0000 10.0000
L287.0022 10.0000
L287.0022 200.0072
L10.0000 200.0072
L10.0000 10.0000
" />
</g>
<g style="fill:none; 
stroke:#000000; stroke-width:0.1500; stroke-opacity:1; 
stroke-linecap:round; stroke-linejoin:round;">
<path d="M12.0000 12.0000
L285.0022 12.0000
L285.0022 198.0072
L12.0000 198.0072
L12.0000 12.0000
" />
</g>
<g style="fill:none; 
stroke:#000000; stroke-width:0.1500; stroke-opacity:1; 
stroke-linecap:round; stroke-linejoin:round;">
<path d="M60.0000 12.0000
L60.0000 10.0000
" />
</g>
<g style="fill:none; 
stroke:#000000; stroke-width:0.1500; stroke-opacity:1; 
stroke-linecap:round; stroke-linejoin:round;">
<path d="M110.0000 12.0000
L110.0000 10.0000
" />
</g>
<g style="fill:none; 
stroke:#000000; stroke-width:0.1500; stroke-opacity:1; 
stroke-linecap:round; stroke-linejoin:round;">
<path d="M160.0000 12.0000
L160.0000 10.0000
" />
</g>
<g style="fill:none; 
stroke:#000000; stroke-width:0.1500; stroke-opacity:1; 
stroke-linecap:round; stroke-linejoin:round;">
<path d="M210.0000 12.0000
L210.0000 10.0000
" />
</g>
<g style="fill:none; 
stroke:#000000; stroke-width:0.1500; stroke-opacity:1; 
stroke-linecap:round; stroke-linejoin:round;">
<path d="M260.0000 12.0000
L260.0000 10.0000
" />
</g>
<g style="fill:none; 
stroke:#000000; stroke-width:0.1500; stroke-opacity:1; 
stroke-linecap:round; stroke-linejoin:round;">
<text x="35.0000" y="11.6500"
textLength="1.4281" font-size="1.7333" lengthAdjust="spacingAndGlyphs"
text-anchor="start" opacity="0" stroke-opacity="0">1</text>
<g class="stroked-text"><desc>1</desc>
<path d="M36.0892 11.5936
L35.3463 11.5936
" />
<path d="M35.7177 11.5936
L35.7177 10.2936
" />
<path d="M35.7177 10.2936
L35.5939 10.4793
" />
<path d="M35.5939 10.4793
L35.4701 10.6031
" />
<path d="M35.4701 10.6031
L35.3463 10.6650
" />
</g></g>
<g style="fill:none; 
stroke:#000000; stroke-width:0.1500; stroke-opacity:1; 
stroke-linecap:round; stroke-linejoin:round;">
<text x="85.0000" y="11.6500"
textLength="1.4281" font-size="1.7333" lengthAdjust="spacingAndGlyphs"
text-anchor="start" opacity="0" stroke-opacity="0">2</text>
<g class="stroked-text"><desc>2</desc>
<path d="M85.3463 10.4174
L85.4082 10.3555
" />
<path d="M85.4082 10.3555
L85.5320 10.2936
" />
<path d="M85.5320 10.2936
L85.8415 10.2936
" />
<path d="M85.8415 10.2936
L85.9654 10.3555
" />
<path d="M85.9654 10.3555
L86.0273 10.4174
" />
<path d="M86.0273 10.4174
L86.0892 10.5412
" />
<path d="M86.0892 10.5412
L86.0892 10.6650
" />
<path d="M86.0892 10.6650
L86.0273 10.8507
" />
<path d="M86.0273 10.8507
L85.2844 11.5936
" />
<path d="M85.2844 11.5936
L86.0892 11.5936
" />
</g></g>
<g style="fill:none; 
stroke:#000000; stroke-width:0.1500; stroke-opacity:1; 
stroke-linecap:round; stroke-linejoin:round;">
<text x="135.0000" y="11.6500"
textLength="1.4281" font-size="1.7333" lengthAdjust="spacingAndGlyphs"
text-anchor="start" opacity="0" stroke-opacity="0">3</text>
<g class="stroked-text"><desc>3</desc>
<path d="M135.2844 10.2936
L136.0892 10.2936
" />
<path d="M136.0892 10.2936
L135.6558 10.7888
" />
<path d="M135.6558 10.7888
L135.8415 10.7888
" />
<path d="M135.8415 10.7888
L135.9654 10.8507
" />
<path d="M135.9654 10.8507
L136.0273 10.9127
" />
<path d="M136.0273 10.9127
L136.0892 11.0365
" />
<path d="M136.0892 11.0365
L136.0892 11.3460
" />
<path d="M136.0892 11.3460
L136.0273 11.4698
" />
<path d="M136.0273 11.4698
L135.9654 11.5317
" />
<path d="M135.9654 11.5317
L135.8415 11.5936
" />
<path d="M135.8415 11.5936
L135.4701 11.5936
" />
<path d="M135.4701 11.5936
L135.3463 11.5317
" />
<path d="M135.3463 11.5317
L135.2844 11.4698
" />
</g></g>
<g style="fill:none; 
stroke:#000000; stroke-width:0.1500; stroke-opacity:1; 
stroke-linecap:round; stroke-linejoin:round;">
<text x="185.0000" y="11.6500"
textLength="1.4281" font-size="1.7333" lengthAdjust="spacingAndGlyphs"
text-anchor="start" opacity="0" stroke-opacity="0">4</text>
<g class="stroked-text"><desc>4</desc>
<path d="M185.9654 10.7269
L185.9654 11.5936
" />
<path d="M185.6558 10.2317
L185.3463 11.1603
" />
<path d="M185.3463 11.1603
L186.1511 11.1603
" />
</g></g>
<g style="fill:none; 
stroke:#000000; stroke-width:0.1500; stroke-opacity:1; 
stroke-linecap:round; stroke-linejoin:round;">
<text x="235.0000" y="11.6500"
textLength="1.4281" font-size="1.7333" lengthAdjust="spacingAndGlyphs"
text-anchor="start" opacity="0" stroke-opacity="0">5</text>
<g class="stroked-text"><desc>5</desc>
<path d="M236.0273 10.2936
L235.4082 10.2936
" />
<path d="M235.4082 10.2936
L235.3463 10.9127
" />
<path d="M235.3463 10.9127
L235.4082 10.8507
" />
<path d="M235.4082 10.8507
L235.5320 10.7888
" />
<path d="M235.5320 10.7888
L235.8415 10.7888
" />
<path d="M235.8415 10.7888
L235.9654 10.8507
" />
<path d="M235.9654 10.8507
L236.0273 10.9127
" />
<path d="M236.0273 10.9127
L236.0892 11.0365
" />
<path d="M236.0892 11.0365
L236.0892 11.3460
" />
<path d="M236.0892 11.3460
L236.0273 11.4698
" />
<path d="M236.0273 11.4698
L235.9654 11.5317
" />
<path d="M235.9654 11.5317
L235.8415 11.5936
" />
<path d="M235.8415 11.5936
L235.5320 11.5936
" />
<path d="M235.5320 11.5936
L235.4082 11.5317
" />
<path d="M235.4082 11.5317
L235.3463 11.4698
" />
</g></g>
<g style="fill:none; 
stroke:#000000; stroke-width:0.1500; stroke-opacity:1; 
stroke-linecap:round; stroke-linejoin:round;">
<text x="285.0000" y="11.6500"
textLength="1.4281" font-size="1.7333" lengthAdjust="spacingAndGlyphs"
text-anchor="start" opacity="0" stroke-opacity="0">6</text>
<g class="stroked-text"><desc>6</desc>
<path d="M285.9654 10.2936
L285.7177 10.2936
" />
<path d="M285.7177 10.2936
L285.5939 10.3555
" />
<path d="M285.5939 10.3555
L285.5320 10.4174
" />
<path d="M285.5320 10.4174
L285.4082 10.6031
" />
<path d="M285.4082 10.6031
L285.3463 10.8507
" />
<path d="M285.3463 10.8507
L285.3463 11.3460
" />
<path d="M285.3463 11.3460
L285.4082 11.4698
" />
<path d="M285.4082 11.4698
L285.4701 11.5317
" />
<path d="M285.4701 11.5317
L285.5939 11.5936
" />
<path d="M285.5939 11.5936
L285.8415 11.5936
" />
<path d="M285.8415 11.5936
L285.9654 11.5317
" />
<path d="M285.9654 11.5317
L286.0273 11.4698
" />
<path d="M286.0273 11.4698
L286.0892 11.3460
" />
<path d="M286.0892 11.3460
L286.0892 11.0365
" />
<path d="M286.0892 11.0365
L286.0273 10.9127
" />
<path d="M286.0273 10.9127
L285.9654 10.8507
" />
<path d="M285.9654 10.8507
L285.8415 10.7888
" />
<path d="M285.8415 10.7888
L285.5939 10.7888
" />
<path d="M285.5939 10.7888
L285.4701 10.8507
" />
<path d="M285.4701 10.8507
L285.4082 10.9127
" />
<path d="M285.4082 10.9127
L285.3463 11.0365
" />
</g></g>
<g style="fill:none; 
stroke:#000000; stroke-width:0.1500; stroke-opacity:1; 
stroke-linecap:round; stroke-linejoin:round;">
<path d="M60.0000 198.0072
L60.0000 200.0072
" />
</g>
<g style="fill:none; 
stroke:#000000; stroke-width:0.1500; stroke-opacity:1; 
stroke-linecap:round; stroke-linejoin:round;">
<path d="M110.0000 198.0072
L110.0000 200.0072
" />
</g>
<g style="fill:none; 
stroke:#000000; stroke-width:0.1500; stroke-opacity:1; 
stroke-linecap:round; stroke-linejoin:round;">
<path d="M160.0000 198.0072
L160.0000 200.0072
" />
</g>
<g style="fill:none; 
stroke:#000000; stroke-width:0.1500; stroke-opacity:1; 
stroke-linecap:round; stroke-linejoin:round;">
<path d="M210.0000 198.0072
L210.0000 200.0072
" />
</g>
<g style="fill:none; 
stroke:#000000; stroke-width:0.1500; stroke-opacity:1; 
stroke-linecap:round; stroke-linejoin:round;">
<path d="M260.0000 198.0072
L260.0000 200.0072
" />
</g>
<g style="fill:none; 
stroke:#000000; stroke-width:0.1500; stroke-opacity:1; 
stroke-linecap:round; stroke-linejoin:round;">
<text x="35.0000" y="199.6572"
textLength="1.4281" font-size="1.7333" lengthAdjust="spacingAndGlyphs"
text-anchor="start" opacity="0" stroke-opacity="0">1</text>
<g class="stroked-text"><desc>1</desc>
<path d="M36.0892 199.6008
L35.3463 199.6008
" />
<path d="M35.7177 199.6008
L35.7177 198.3008
" />
<path d="M35.7177 198.3008
L35.5939 198.4865
" />
<path d="M35.5939 198.4865
L35.4701 198.6103
" />
<path d="M35.4701 198.6103
L35.3463 198.6722
" />
</g></g>
<g style="fill:none; 
stroke:#000000; stroke-width:0.1500; stroke-opacity:1; 
stroke-linecap:round; stroke-linejoin:round;">
<text x="85.0000" y="199.6572"
textLength="1.4281" font-size="1.7333" lengthAdjust="spacingAndGlyphs"
text-anchor="start" opacity="0" stroke-opacity="0">2</text>
<g class="stroked-text"><desc>2</desc>
<path d="M85.3463 198.4246
L85.4082 198.3627
" />
<path d="M85.4082 198.3627
L85.5320 198.3008
" />
<path d="M85.5320 198.3008
L85.8415 198.3008
" />
<path d="M85.8415 198.3008
L85.9654 198.3627
" />
<path d="M85.9654 198.3627
L86.0273 198.4246
" />
<path d="M86.0273 198.4246
L86.0892 198.5484
" />
<path d="M86.0892 198.5484
L86.0892 198.6722
" />
<path d="M86.0892 198.6722
L86.0273 198.8579
" />
<path d="M86.0273 198.8579
L85.2844 199.6008
" />
<path d="M85.2844 199.6008
L86.0892 199.6008
" />
</g></g>
<g style="fill:none; 
stroke:#000000; stroke-width:0.1500; stroke-opacity:1; 
stroke-linecap:round; stroke-linejoin:round;">
<text x="135.0000" y="199.6572"
textLength="1.4281" font-size="1.7333" lengthAdjust="spacingAndGlyphs"
text-anchor="start" opacity="0" stroke-opacity="0">3</text>
<g class="stroked-text"><desc>3</desc>
<path d="M135.2844 198.3008
L136.0892 198.3008
" />
<path d="M136.0892 198.3008
L135.6558 198.7960
" />
<path d="M135.6558 198.7960
L135.8415 198.7960
" />
<path d="M135.8415 198.7960
L135.9654 198.8579
" />
<path d="M135.9654 198.8579
L136.0273 198.9199
" />
<path d="M136.0273 198.9199
L136.0892 199.0437
" />
<path d="M136.0892 199.0437
L136.0892 199.3532
" />
<path d="M136.0892 199.3532
L136.0273 199.4770
" />
<path d="M136.0273 199.4770
L135.9654 199.5389
" />
<path d="M135.9654 199.5389
L135.8415 199.6008
" />
<path d="M135.8415 199.6008
L135.4701 199.6008
" />
<path d="M135.4701 199.6008
L135.3463 199.5389
" />
<path d="M135.3463 199.5389
L135.2844 199.4770
" />
</g></g>
<g style="fill:none; 
stroke:#000000; stroke-width:0.1500; stroke-opacity:1; 
stroke-linecap:round; stroke-linejoin:round;">
<text x="185.0000" y="199.6572"
textLength="1.4281" font-size="1.7333" lengthAdjust="spacingAndGlyphs"
text-anchor="start" opacity="0" stroke-opacity="0">4</text>
<g class="stroked-text"><desc>4</desc>
<path d="M185.9654 198.7341
L185.9654 199.6008
" />
<path d="M185.6558 198.2389
L185.3463 199.1675
" />
<path d="M185.3463 199.1675
L186.1511 199.1675
" />
</g></g>
<g style="fill:none; 
stroke:#000000; stroke-width:0.1500; stroke-opacity:1; 
stroke-linecap:round; stroke-linejoin:round;">
<text x="235.0000" y="199.6572"
textLength="1.4281" font-size="1.7333" lengthAdjust="spacingAndGlyphs"
text-anchor="start" opacity="0" stroke-opacity="0">5</text>
<g class="stroked-text"><desc>5</desc>
<path d="M236.0273 198.3008
L235.4082 198.3008
" />
<path d="M235.4082 198.3008
L235.3463 198.9199
" />
<path d="M235.3463 198.9199
L235.4082 198.8579
" />
<path d="M235.4082 198.8579
L235.5320 198.7960
" />
<path d="M235.5320 198.7960
L235.8415 198.7960
" />
<path d="M235.8415 198.7960
L235.9654 198.8579
" />
<path d="M235.9654 198.8579
L236.0273 198.9199
" />
<path d="M236.0273 198.9199
L236.0892 199.0437
" />
<path d="M236.0892 199.0437
L236.0892 199.3532
" />
<path d="M236.0892 199.3532
L236.0273 199.4770
" />
<path d="M236.0273 199.4770
L235.9654 199.5389
" />
<path d="M235.9654 199.5389
L235.8415 199.6008
" />
<path d="M235.8415 199.6008
L235.5320 199.6008
" />
<path d="M235.5320 199.6008
L235.4082 199.5389
" />
<path d="M235.4082 199.5389
L235.3463 199.4770
" />
</g></g>
<g style="fill:none; 
stroke:#000000; stroke-width:0.1500; stroke-opacity:1; 
stroke-linecap:round; stroke-linejoin:round;">
<text x="285.0000" y="199.6572"
textLength="1.4281" font-size="1.7333" lengthAdjust="spacingAndGlyphs"
text-anchor="start" opacity="0" stroke-opacity="0">6</text>
<g class="stroked-text"><desc>6</desc>
<path d="M285.9654 198.3008
L285.7177 198.3008
" />
<path d="M285.7177 198.3008
L285.5939 198.3627
" />
<path d="M285.5939 198.3627
L285.5320 198.4246
" />
<path d="M285.5320 198.4246
L285.4082 198.6103
" />
<path d="M285.4082 198.6103
L285.3463 198.8579
" />
<path d="M285.3463 198.8579
L285.3463 199.3532
" />
<path d="M285.3463 199.3532
L285.4082 199.4770
" />
<path d="M285.4082 199.4770
L285.4701 199.5389
" />
<path d="M285.4701 199.5389
L285.5939 199.6008
" />
<path d="M285.5939 199.6008
L285.8415 199.6008
" />
<path d="M285.8415 199.6008
L285.9654 199.5389
" />
<path d="M285.9654 199.5389
L286.0273 199.4770
" />
<path d="M286.0273 199.4770
L286.0892 199.3532
" />
<path d="M286.0892 199.3532
L286.0892 199.0437
" />
<path d="M286.0892 199.0437
L286.0273 198.9199
" />
<path d="M286.0273 198.9199
L285.9654 198.8579
" />
<path d="M285.9654 198.8579
L285.8415 198.7960
" />
<path d="M285.8415 198.7960
L285.5939 198.7960
" />
<path d="M285.5939 198.7960
L285.4701 198.8579
" />
<path d="M285.4701 198.8579
L285.4082 198.9199
" />
<path d="M285.4082 198.9199
L285.3463 199.0437
" />
</g></g>
<g style="fill:none; 
stroke:#000000; stroke-width:0.1500; stroke-opacity:1; 
stroke-linecap:round; stroke-linejoin:round;">
<path d="M10.0000 60.0000
L12.0000 60.0000
" />
</g>
<g style="fill:none; 
stroke:#000000; stroke-width:0.1500; stroke-opacity:1; 
stroke-linecap:round; stroke-linejoin:round;">
<path d="M10.0000 110.0000
L12.0000 110.0000
" />
</g>
<g style="fill:none; 
stroke:#000000; stroke-width:0.1500; stroke-opacity:1; 
stroke-linecap:round; stroke-linejoin:round;">
<path d="M10.0000 160.0000
L12.0000 160.0000
" />
</g>
<g style="fill:none; 
stroke:#000000; stroke-width:0.1500; stroke-opacity:1; 
stroke-linecap:round; stroke-linejoin:round;">
<text x="11.0000" y="35.6500"
textLength="1.3043" font-size="1.7333" lengthAdjust="spacingAndGlyphs"
text-anchor="middle" opacity="0" stroke-opacity="0">A</text>
<g class="stroked-text"><desc>A</desc>
<path d="M10.6905 35.2222
L11.3095 35.2222
" />
<path d="M10.5667 35.5936
L11.0000 34.2936
" />
<path d="M11.0000 34.2936
L11.4333 35.5936
" />
</g></g>
<g style="fill:none; 
stroke:#000000; stroke-width:0.1500; stroke-opacity:1; 
stroke-linecap:round; stroke-linejoin:round;">
<text x="11.0000" y="85.6500"
textLength="1.4900" font-size="1.7333" lengthAdjust="spacingAndGlyphs"
text-anchor="middle" opacity="0" stroke-opacity="0">B</text>
<g class="stroked-text"><desc>B</desc>
<path d="M11.0929 84.9127
L11.2786 84.9746
" />
<path d="M11.2786 84.9746
L11.3405 85.0365
" />
<path d="M11.3405 85.0365
L11.4024 85.1603
" />
<path d="M11.4024 85.1603
L11.4024 85.3460
" />
<path d="M11.4024 85.3460
L11.3405 85.4698
" />
<path d="M11.3405 85.4698
L11.2786 85.5317
" />
<path d="M11.2786 85.5317
L11.1548 85.5936
" />
<path d="M11.1548 85.5936
L10.6595 85.5936
" />
<path d="M10.6595 85.5936
L10.6595 84.2936
" />
<path d="M10.6595 84.2936
L11.0929 84.2936
" />
<path d="M11.0929 84.2936
L11.2167 84.3555
" />
<path d="M11.2167 84.3555
L11.2786 84.4174
" />
<path d="M11.2786 84.4174
L11.3405 84.5412
" />
<path d="M11.3405 84.5412
L11.3405 84.6650
" />
<path d="M11.3405 84.6650
L11.2786 84.7888
" />
<path d="M11.2786 84.7888
L11.2167 84.8507
" />
<path d="M11.2167 84.8507
L11.0929 84.9127
" />
<path d="M11.0929 84.9127
L10.6595 84.9127
" />
</g></g>
<g style="fill:none; 
stroke:#000000; stroke-width:0.1500; stroke-opacity:1; 
stroke-linecap:round; stroke-linejoin:round;">
<text x="11.0000" y="135.6500"
textLength="1.4900" font-size="1.7333" lengthAdjust="spacingAndGlyphs"
text-anchor="middle" opacity="0" stroke-opacity="0">C</text>
<g class="stroked-text"><desc>C</desc>
<path d="M11.4024 135.4698
L11.3405 135.5317
" />
<path d="M11.3405 135.5317
L11.1548 135.5936
" />
<path d="M11.1548 135.5936
L11.0310 135.5936
" />
<path d="M11.0310 135.5936
L10.8452 135.5317
" />
<path d="M10.8452 135.5317
L10.7214 135.4079
" />
<path d="M10.7214 135.4079
L10.6595 135.2841
" />
<path d="M10.6595 135.2841
L10.5976 135.0365
" />
<path d="M10.5976 135.0365
L10.5976 134.8507
" />
<path d="M10.5976 134.8507
L10.6595 134.6031
" />
<path d="M10.6595 134.6031
L10.7214 134.4793
" />
<path d="M10.7214 134.4793
L10.8452 134.3555
" />
<path d="M10.8452 134.3555
L11.0310 134.2936
" />
<path d="M11.0310 134.2936
L11.1548 134.2936
" />
<path d="M11.1548 134.2936
L11.3405 134.3555
" />
<path d="M11.3405 134.3555
L11.4024 134.4174
" />
</g></g>
<g style="fill:none; 
stroke:#000000; stroke-width:0.1500; stroke-opacity:1; 
stroke-linecap:round; stroke-linejoin:round;">
<text x="11.0000" y="185.6500"
textLength="1.4900" font-size="1.7333" lengthAdjust="spacingAndGlyphs"
text-anchor="middle" opacity="0" stroke-opacity="0">D</text>
<g class="stroked-text"><desc>D</desc>
<path d="M10.6595 185.5936
L10.6595 184.2936
" />
<path d="M10.6595 184.2936
L10.9690 184.2936
" />
<path d="M10.9690 184.2936
L11.1548 184.3555
" />
<path d="M11.1548 184.3555
L11.2786 184.4793
" />
<path d="M11.2786 184.4793
L11.3405 184.6031
" />
<path d="M11.3405 184.6031
L11.4024 184.8507
" />
<path d="M11.4024 184.8507
L11.4024 185.0365
" />
<path d="M11.4024 185.0365
L11.3405 185.2841
" />
<path d="M11.3405 185.2841
L11.2786 185.4079
" />
<path d="M11.2786 185.4079
L11.1548 185.5317
" />
<path d="M11.1548 185.5317
L10.9690 185.5936
" />
<path d="M10.9690 185.5936
L10.6595 185.5936
" />
</g></g>
<g style="fill:none; 
stroke:#000000; stroke-width:0.1500; stroke-opacity:1; 
stroke-linecap:round; stroke-linejoin:round;">
<path d="M287.0022 60.0000
L285.0022 60.0000
" />
</g>
<g style="fill:none; 
stroke:#000000; stroke-width:0.1500; stroke-opacity:1; 
stroke-linecap:round; stroke-linejoin:round;">
<path d="M287.0022 110.0000
L285.0022 110.0000
" />
</g>
<g style="fill:none; 
stroke:#000000; stroke-width:0.1500; stroke-opacity:1; 
stroke-linecap:round; stroke-linejoin:round;">
<path d="M287.0022 160.0000
L285.0022 160.0000
" />
</g>
<g style="fill:none; 
stroke:#000000; stroke-width:0.1500; stroke-opacity:1; 
stroke-linecap:round; stroke-linejoin:round;">
<text x="286.0022" y="35.6500"
textLength="1.3043" font-size="1.7333" lengthAdjust="spacingAndGlyphs"
text-anchor="middle" opacity="0" stroke-opacity="0">A</text>
<g class="stroked-text"><desc>A</desc>
<path d="M285.6927 35.2222
L286.3117 35.2222
" />
<path d="M285.5689 35.5936
L286.0022 34.2936
" />
<path d="M286.0022 34.2936
L286.4355 35.5936
" />
</g></g>
<g style="fill:none; 
stroke:#000000; stroke-width:0.1500; stroke-opacity:1; 
stroke-linecap:round; stroke-linejoin:round;">
<text x="286.0022" y="85.6500"
textLength="1.4900" font-size="1.7333" lengthAdjust="spacingAndGlyphs"
text-anchor="middle" opacity="0" stroke-opacity="0">B</text>
<g class="stroked-text"><desc>B</desc>
<path d="M286.0951 84.9127
L286.2808 84.9746
" />
<path d="M286.2808 84.9746
L286.3427 85.0365
" />
<path d="M286.3427 85.0365
L286.4046 85.1603
" />
<path d="M286.4046 85.1603
L286.4046 85.3460
" />
<path d="M286.4046 85.3460
L286.3427 85.4698
" />
<path d="M286.3427 85.4698
L286.2808 85.5317
" />
<path d="M286.2808 85.5317
L286.1570 85.5936
" />
<path d="M286.1570 85.5936
L285.6617 85.5936
" />
<path d="M285.6617 85.5936
L285.6617 84.2936
" />
<path d="M285.6617 84.2936
L286.0951 84.2936
" />
<path d="M286.0951 84.2936
L286.2189 84.3555
" />
<path d="M286.2189 84.3555
L286.2808 84.4174
" />
<path d="M286.2808 84.4174
L286.3427 84.5412
" />
<path d="M286.3427 84.5412
L286.3427 84.6650
" />
<path d="M286.3427 84.6650
L286.2808 84.7888
" />
<path d="M286.2808 84.7888
L286.2189 84.8507
" />
<path d="M286.2189 84.8507
L286.0951 84.9127
" />
<path d="M286.0951 84.9127
L285.6617 84.9127
" />
</g></g>
<g style="fill:none; 
stroke:#000000; stroke-width:0.1500; stroke-opacity:1; 
stroke-linecap:round; stroke-linejoin:round;">
<text x="286.0022" y="135.6500"
textLength="1.4900" font-size="1.7333" lengthAdjust="spacingAndGlyphs"
text-anchor="middle" opacity="0" stroke-opacity="0">C</text>
<g class="stroked-text"><desc>C</desc>
<path d="M286.4046 135.4698
L286.3427 135.5317
" />
<path d="M286.3427 135.5317
L286.1570 135.5936
" />
<path d="M286.1570 135.5936
L286.0332 135.5936
" />
<path d="M286.0332 135.5936
L285.8474 135.5317
" />
<path d="M285.8474 135.5317
L285.7236 135.4079
" />
<path d="M285.7236 135.4079
L285.6617 135.2841
" />
<path d="M285.6617 135.2841
L285.5998 135.0365
" />
<path d="M285.5998 135.0365
L285.5998 134.8507
" />
<path d="M285.5998 134.8507
L285.6617 134.6031
" />
<path d="M285.6617 134.6031
L285.7236 134.4793
" />
<path d="M285.7236 134.4793
L285.8474 134.3555
" />
<path d="M285.8474 134.3555
L286.0332 134.2936
" />
<path d="M286.0332 134.2936
L286.1570 134.2936
" />
<path d="M286.1570 134.2936
L286.3427 134.3555
" />
<path d="M286.3427 134.3555
L286.4046 134.4174
" />
</g></g>
<g style="fill:none; 
stroke:#000000; stroke-width:0.1500; stroke-opacity:1; 
stroke-linecap:round; stroke-linejoin:round;">
<text x="286.0022" y="185.6500"
textLength="1.4900" font-size="1.7333" lengthAdjust="spacingAndGlyphs"
text-anchor="middle" opacity="0" stroke-opacity="0">D</text>
<g class="stroked-text"><desc>D</desc>
<path d="M285.6617 185.5936
L285.6617 184.2936
" />
<path d="M285.6617 184.2936
L285.9712 184.2936
" />
<path d="M285.9712 184.2936
L286.1570 184.3555
" />
<path d="M286.1570 184.3555
L286.2808 184.4793
" />
<path d="M286.2808 184.4793
L286.3427 184.6031
" />
<path d="M286.3427 184.6031
L286.4046 184.8507
" />
<path d="M286.4046 184.8507
L286.4046 185.0365
" />
<path d="M286.4046 185.0365
L286.3427 185.2841
" />
<path d="M286.3427 185.2841
L286.2808 185.4079
" />
<path d="M286.2808 185.4079
L286.1570 185.5317
" />
<path d="M286.1570 185.5317
L285.9712 185.5936
" />
<path d="M285.9712 185.5936
L285.6617 185.5936
" />
</g></g>
<g style="fill:none; 
stroke:#000000; stroke-width:0.5000; stroke-opacity:1; 
stroke-linecap:round; stroke-linejoin:round;">
<text x="261.4022" y="195.2570"
textLength="1.7488" font-size="3.3333" lengthAdjust="spacingAndGlyphs"
text-anchor="start" opacity="0" stroke-opacity="0">1</text>
<g class="stroked-text"><desc>1</desc>
<path style="fill:#000000; fill-opacity:1.0000; stroke:none;fill-rule:evenodd;"
d="M 262.5477,192.6607
262.5477,194.5756
262.5499,194.6991
262.5622,194.8210
262.5666,194.8375
262.6454,194.9303
262.7692,194.9635
262.8377,194.9663
262.8909,194.9663
262.8909,195.0445
261.6648,195.0445
261.6648,194.9663
261.7264,194.9663
261.8545,194.9581
261.9395,194.9334
262.0256,194.8430
262.0445,194.7210
262.0482,194.5885
262.0482,194.5756
262.0482,193.3641
262.0443,193.2382
262.0323,193.1705
261.9749,193.1034
261.8779,193.0747
261.7539,193.0961
261.6654,193.1296
261.6342,193.0515
262.4909,192.6607
Z" /> 
</g></g>
<g style="fill:none; 
stroke:#000000; stroke-width:0.2000; stroke-opacity:1; 
stroke-linecap:round; stroke-linejoin:round;">
<path d="M131.9726 59.1483 A35.0000 35.0000 0.0 0 0 113.6725 86.5335" />
<path d="M162.9122 121.8952 A0.9999 0.9999 0.0 0 0 163.5004 120.9840" />
<path d="M132.5365 58.8462 A0.5000 0.5000 0.0 0 0 132.8004 58.4055" />
<path d="M133.5004 116.5519 A1.0001 1.0001 0.0 0 0 133.0165 115.6954" />
<path d="M164.2004 58.4055 A0.5000 0.5000 0.0 0 0 164.4643 58.8462" />
<path d="M133.5004 120.9840 A1.0000 1.0000 0.0 0 0 134.0886 121.8953" />
<path d="M163.9843 115.6954 A30.0000 30.0000 0.0 0 0 178.4951 90.5619" />
<path d="M182.8332 87.4985 A1.0000 1.0000 0.0 0 0 183.3283 86.5335" />
<path d="M132.5004 57.7442
L132.5365 57.7635
" />
<path d="M178.9950 89.7146 A1.0000 1.0000 0.0 0 0 178.4951 90.5619" />
<path d="M132.5365 58.8462
L131.9726 59.1483
" />
<path d="M164.5004 48.3001
L132.5004 48.3001
" />
<path d="M164.3504 57.8472 A0.4999 0.4999 0.0 0 0 164.2004 58.2042" />
<path d="M163.5004 120.9840
L163.5004 116.5519
" />
<path d="M133.5004 116.5519
L133.5004 120.9840
" />
<path d="M163.9843 115.6954 A0.9999 0.9999 0.0 0 0 163.5004 116.5519" />
<path d="M114.1676 87.4986
L118.0058 89.7146
" />
<path d="M118.5057 90.5619 A30.0000 30.0000 0.0 0 0 133.0165 115.6954" />
<path d="M134.0886 121.8953 A35.0000 35.0000 0.0 0 0 162.9122 121.8953" />
<path d="M132.8004 58.2042 A0.5001 0.5001 0.0 0 0 132.5365 57.7635" />
<path d="M132.8004 58.2042
L132.8004 58.4055
" />
<path d="M164.2004 58.4055
L164.2004 58.2042
" />
<path d="M165.0282 59.1483
L164.4643 58.8462
" />
<path d="M178.9950 89.7146
L182.8332 87.4985
" />
<path d="M183.3283 86.5335 A35.0000 35.0000 0.0 0 0 165.0282 59.1483" />
<path d="M164.5004 57.4901
L164.5004 48.3001
" />
<path d="M118.5056 90.5619 A1.0000 1.0000 0.0 0 0 118.0058 89.7146" />
<path d="M113.6725 86.5335 A1.0000 1.0000 0.0 0 0 114.1676 87.4986" />
<path d="M164.3504 57.8471 A0.4999 0.4999 0.0 0 0 164.5004 57.4901" />
<path d="M132.5004 48.3001
L132.5004 57.7442
" />
</g>
<g style="fill:none; 
stroke:#000000; stroke-width:0.0500; stroke-opacity:1; 
stroke-linecap:round; stroke-linejoin:round;">
<path d="M146.8004 114.1001
L150.2004 114.1001
" />
<path d="M146.8004 117.5001
L146.8004 114.1001
" />
<path d="M150.2004 114.1001
L150.2004 117.5001
" />
<path d="M150.2004 117.5001
L146.8004 117.5001
" />
<path d="M167.8004 83.2501
L167.8004 85.2501
" />
<path d="M167.8004 85.2501
L171.8004 85.2501
" />
<path d="M171.8004 83.2501
L167.8004 83.2501
" />
<path d="M171.8004 85.2501
L171.8004 83.2501
" />
<path d="M143.7254 88.0251
L143.7254 89.5751
" />
<path d="M143.7254 89.5751
L144.4754 89.5751
" />
<path d="M144.4754 88.0251
L143.7254 88.0251
" />
<path d="M144.4754 89.5751
L144.4754 88.0251
" />
<path d="M140.5000 67.1000
L140.5000 69.1000
" />
<path d="M140.5000 69.1000
L144.5000 69.1000
" />
<path d="M144.5000 67.1000
L140.5000 67.1000
" />
<path d="M144.5000 69.1000
L144.5000 67.1000
" />
<path d="M140.5000 73.1000
L140.5000 75.1000
" />
<path d="M140.5000 75.1000
L144.5000 75.1000
" />
<path d="M144.5000 73.1000
L140.5000 73.1000
" />
<path d="M144.5000 75.1000
L144.5000 73.1000
" />
<path d="M152.1004 112.4001
L162.3004 112.4001
" />
<path d="M152.1004 121.6001
L152.1004 112.4001
" />
<path d="M162.3004 112.4001
L162.3004 121.6001
" />
<path d="M162.3004 121.6001
L152.1004 121.6001
" />
<circle cx="127.6504" cy="91.7501" r="0.2550" /> 
<path d="M122.5210 69.4288
L124.0412 70.9490
" />
<path d="M123.2988 68.6510
L122.5210 69.4288
" />
<path d="M124.0412 70.9490
L124.8190 70.1712
" />
<path d="M124.8190 70.1712
L123.2988 68.6510
" />
<path d="M152.5000 67.1000
L152.5000 69.1000
" />
<path d="M152.5000 69.1000
L156.5000 69.1000
" />
<path d="M156.5000 67.1000
L152.5000 67.1000
" />
<path d="M156.5000 69.1000
L156.5000 67.1000
" />
<path d="M140.5000 69.1000
L140.5000 71.1000
" />
<path d="M140.5000 71.1000
L144.5000 71.1000
" />
<path d="M144.5000 69.1000
L140.5000 69.1000
" />
<path d="M144.5000 71.1000
L144.5000 69.1000
" />
<circle cx="171.1804" cy="99.3101" r="0.2550" /> 
<path d="M171.8004 83.2501
L171.8004 85.2501
" />
<path d="M171.8004 85.2501
L175.8004 85.2501
" />
<path d="M175.8004 83.2501
L171.8004 83.2501
" />
<path d="M175.8004 85.2501
L175.8004 83.2501
" />
<circle cx="144.5504" cy="105.7501" r="0.2550" /> 
<path d="M125.1504 79.3001
L125.1504 81.3001
" />
<path d="M125.1504 81.3001
L129.1504 81.3001
" />
<path d="M129.1504 79.3001
L125.1504 79.3001
" />
<path d="M129.1504 81.3001
L129.1504 79.3001
" />
<path d="M142.9254 89.7251
L142.9254 90.4751
" />
<path d="M142.9254 90.4751
L144.4754 90.4751
" />
<path d="M144.4754 89.7251
L142.9254 89.7251
" />
<path d="M144.4754 90.4751
L144.4754 89.7251
" />
<path d="M164.6500 63.5500
L164.6500 67.4500
" />
<path d="M164.6500 67.4500
L170.5500 67.4500
" />
<path d="M170.5500 63.5500
L164.6500 63.5500
" />
<path d="M170.5500 67.4500
L170.5500 63.5500
" />
<path d="M122.6504 90.6251
L122.6504 93.3751
" />
<path d="M122.6504 93.3751
L124.1504 93.3751
" />
<path d="M124.1504 90.6251
L122.6504 90.6251
" />
<path d="M124.1504 93.3751
L124.1504 90.6251
" />
<path d="M130.9504 91.2901
L130.9504 94.3101
" />
<path d="M130.9504 91.2901
L131.5404 90.7001
" />
<path d="M130.9504 94.3101
L131.5404 94.9001
" />
<path d="M131.5404 90.7001
L134.5604 90.7001
" />
<path d="M131.5404 94.9001
L134.5604 94.9001
" />
<path d="M135.1504 91.2901
L134.5604 90.7001
" />
<path d="M135.1504 91.2901
L135.1504 94.3101
" />
<path d="M135.1504 94.3101
L134.5604 94.9001
" />
<path d="M131.8504 86.1001
L131.8504 90.1001
" />
<path d="M131.8504 90.1001
L133.8504 90.1001
" />
<path d="M133.8504 86.1001
L131.8504 86.1001
" />
<path d="M133.8504 90.1001
L133.8504 86.1001
" />
<circle cx="143.8132" cy="113.4756" r="0.2550" /> 
<path d="M128.0754 92.9251
L128.0754 94.6251
" />
<path d="M128.0754 94.6251
L130.8754 94.6251
" />
<path d="M130.8754 92.9251
L128.0754 92.9251
" />
<path d="M130.8754 94.6251
L130.8754 92.9251
" />
<path d="M137.0079 90.2901
L141.1079 90.2901
" />
<path d="M137.0079 93.6901
L137.0079 90.2901
" />
<path d="M141.1079 90.2901
L141.1079 93.6901
" />
<path d="M141.1079 93.6901
L137.0079 93.6901
" />
<path d="M167.8000 77.2500
L167.8000 79.2500
" />
<path d="M167.8000 79.2500
L171.8000 79.2500
" />
<path d="M171.8000 77.2500
L167.8000 77.2500
" />
<path d="M171.8000 79.2500
L171.8000 77.2500
" />
<path d="M125.1504 85.3001
L125.1504 87.3001
" />
<path d="M125.1504 87.3001
L129.1504 87.3001
" />
<path d="M129.1504 85.3001
L125.1504 85.3001
" />
<path d="M129.1504 87.3001
L129.1504 85.3001
" />
<path d="M175.8004 81.2501
L175.8004 83.2501
" />
<path d="M175.8004 83.2501
L179.8004 83.2501
" />
<path d="M179.8004 81.2501
L175.8004 81.2501
" />
<path d="M179.8004 83.2501
L179.8004 81.2501
" />
<path d="M167.8004 79.2501
L167.8004 81.2501
" />
<path d="M167.8004 81.2501
L171.8004 81.2501
" />
<path d="M171.8004 79.2501
L167.8004 79.2501
" />
<path d="M171.8004 81.2501
L171.8004 79.2501
" />
<path d="M172.1810 70.1712
L172.9588 70.9490
" />
<path d="M172.9588 70.9490
L174.4790 69.4288
" />
<path d="M173.7012 68.6510
L172.1810 70.1712
" />
<path d="M174.4790 69.4288
L173.7012 68.6510
" />
<path d="M148.7445 48.1501
L148.7504 62.5001
" />
<path d="M150.1000 66.9480
L163.4004 66.9459
" />
<path d="M150.1004 65.7501
L150.1000 66.9480
" />
<path d="M163.4004 65.7501
L163.4008 66.9480
" />
<path d="M164.7445 48.1501
L148.7445 48.1501
" />
<path d="M164.7445 48.1501
L164.7504 62.5001
" />
<path d="M148.7504 62.5001 A4.2008 4.2008 0.0 0 0 150.1004 65.7501" />
<path d="M163.4004 65.7501 A4.2008 4.2008 0.0 0 0 164.7504 62.5001" />
<path d="M131.8797 100.1435
L137.4305 94.5927
" />
<path d="M137.4305 94.5927
L143.9076 101.0698
" />
<path d="M138.3568 106.6206
L131.8797 100.1435
" />
<path d="M143.9076 101.0698
L138.3568 106.6206
" />
<path d="M167.2322 95.2246
L168.5746 95.9996
" />
<path d="M167.6072 94.5751
L167.2322 95.2246
" />
<path d="M168.5746 95.9996
L168.9496 95.3501
" />
<path d="M168.9496 95.3501
L167.6072 94.5751
" />
<path d="M161.1504 86.0751
L161.1504 90.0751
" />
<path d="M161.1504 90.0751
L163.1504 90.0751
" />
<path d="M163.1504 86.0751
L161.1504 86.0751
" />
<path d="M163.1504 90.0751
L163.1504 86.0751
" />
<path d="M141.2004 91.1001
L141.2004 93.5001
" />
<path d="M141.2004 93.5001
L142.4004 93.5001
" />
<path d="M142.4004 91.1001
L141.2004 91.1001
" />
<path d="M142.4004 93.5001
L142.4004 91.1001
" />
<path d="M121.1504 85.3001
L121.1504 87.3001
" />
<path d="M121.1504 87.3001
L125.1504 87.3001
" />
<path d="M125.1504 85.3001
L121.1504 85.3001
" />
<path d="M125.1504 87.3001
L125.1504 85.3001
" />
<path d="M167.8004 81.2501
L167.8004 83.2501
" />
<path d="M167.8004 83.2501
L171.8004 83.2501
" />
<path d="M171.8004 81.2501
L167.8004 81.2501
" />
<path d="M171.8004 83.2501
L171.8004 81.2501
" />
<path d="M117.1504 81.3001
L117.1504 83.3001
" />
<path d="M117.1504 83.3001
L121.1504 83.3001
" />
<path d="M121.1504 81.3001
L117.1504 81.3001
" />
<path d="M121.1504 83.3001
L121.1504 81.3001
" />
<circle cx="145.4004" cy="104.9001" r="0.2550" /> 
<path d="M125.1500 77.3000
L125.1500 79.3000
" />
<path d="M125.1500 79.3000
L129.1500 79.3000
" />
<path d="M129.1500 77.3000
L125.1500 77.3000
" />
<path d="M129.1500 79.3000
L129.1500 77.3000
" />
<path d="M171.8004 85.2501
L171.8004 87.2501
" />
<path d="M171.8004 87.2501
L175.8004 87.2501
" />
<path d="M175.8004 85.2501
L171.8004 85.2501
" />
<path d="M175.8004 87.2501
L175.8004 85.2501
" />
<path d="M133.8504 86.1001
L133.8504 90.1001
" />
<path d="M133.8504 90.1001
L135.8504 90.1001
" />
<path d="M135.8504 86.1001
L133.8504 86.1001
" />
<path d="M135.8504 90.1001
L135.8504 86.1001
" />
<path d="M141.3329 90.3151
L141.3329 91.0651
" />
<path d="M141.3329 91.0651
L142.8829 91.0651
" />
<path d="M142.8829 90.3151
L141.3329 90.3151
" />
<path d="M142.8829 91.0651
L142.8829 90.3151
" />
<path d="M121.1504 81.3001
L121.1504 83.3001
" />
<path d="M121.1504 83.3001
L125.1504 83.3001
" />
<path d="M125.1504 81.3001
L121.1504 81.3001
" />
<path d="M125.1504 83.3001
L125.1504 81.3001
" />
<path d="M144.6504 87.2501
L152.3504 87.2501
" />
<path d="M144.6504 92.7501
L144.6504 87.2501
" />
<path d="M152.3504 87.2501
L152.3504 92.7501
" />
<path d="M152.3504 92.7501
L144.6504 92.7501
" />
<path d="M157.1504 86.0751
L157.1504 90.0751
" />
<path d="M157.1504 90.0751
L159.1504 90.0751
" />
<path d="M159.1504 86.0751
L157.1504 86.0751
" />
<path d="M159.1504 90.0751
L159.1504 86.0751
" />
<path d="M132.2445 48.1501
L132.2504 62.5001
" />
<path d="M133.6000 66.9480
L146.9004 66.9459
" />
<path d="M133.6004 65.7501
L133.6000 66.9480
" />
<path d="M146.9004 65.7501
L146.9008 66.9480
" />
<path d="M148.2445 48.1501
L132.2445 48.1501
" />
<path d="M148.2445 48.1501
L148.2504 62.5001
" />
<path d="M132.2504 62.5001 A4.2008 4.2008 0.0 0 0 133.6004 65.7501" />
<path d="M146.9004 65.7501 A4.2008 4.2008 0.0 0 0 148.2504 62.5001" />
<path d="M144.6504 109.1501
L144.6504 111.5501
" />
<path d="M144.6504 111.5501
L145.8504 111.5501
" />
<path d="M145.8504 109.1501
L144.6504 109.1501
" />
<path d="M145.8504 111.5501
L145.8504 109.1501
" />
<circle cx="170.0004" cy="103.0001" r="1.0500" /> 
<path d="M137.9404 109.5676
L137.9404 112.1976
" />
<path d="M137.9404 112.1976
L139.1404 112.1976
" />
<path d="M139.1404 109.5676
L137.9404 109.5676
" />
<path d="M139.1404 112.1976
L139.1404 109.5676
" />
<path d="M142.5000 82.3700
L142.5000 86.3700
" />
<path d="M142.5000 86.3700
L144.5000 86.3700
" />
<path d="M144.5000 82.3700
L142.5000 82.3700
" />
<path d="M144.5000 86.3700
L144.5000 82.3700
" />
<path d="M146.5000 82.3700
L146.5000 86.3700
" />
<path d="M146.5000 86.3700
L148.5000 86.3700
" />
<path d="M148.5000 82.3700
L146.5000 82.3700
" />
<path d="M148.5000 86.3700
L148.5000 82.3700
" />
<path d="M130.9122 100.3423
L132.0082 101.4383
" />
<path d="M131.4426 99.8119
L130.9122 100.3423
" />
<path d="M132.0082 101.4383
L132.5386 100.9079
" />
<path d="M132.5386 100.9079
L131.4426 99.8119
" />
<path d="M134.6954 110.4551
L134.6954 112.0051
" />
<path d="M134.6954 112.0051
L135.4454 112.0051
" />
<path d="M135.4454 110.4551
L134.6954 110.4551
" />
<path d="M135.4454 112.0051
L135.4454 110.4551
" />
<path d="M147.7254 103.8251
L147.7254 104.5751
" />
<path d="M147.7254 104.5751
L149.2754 104.5751
" />
<path d="M149.2754 103.8251
L147.7254 103.8251
" />
<path d="M149.2754 104.5751
L149.2754 103.8251
" />
<path d="M121.1504 83.3001
L121.1504 85.3001
" />
<path d="M121.1504 85.3001
L125.1504 85.3001
" />
<path d="M125.1504 83.3001
L121.1504 83.3001
" />
<path d="M125.1504 85.3001
L125.1504 83.3001
" />
<path d="M136.4704 109.5651
L136.4704 112.1951
" />
<path d="M136.4704 112.1951
L137.6704 112.1951
" />
<path d="M137.6704 109.5651
L136.4704 109.5651
" />
<path d="M137.6704 112.1951
L137.6704 109.5651
" />
<path d="M175.8004 83.2501
L175.8004 85.2501
" />
<path d="M175.8004 85.2501
L179.8004 85.2501
" />
<path d="M179.8004 83.2501
L175.8004 83.2501
" />
<path d="M179.8004 85.2501
L179.8004 83.2501
" />
<path d="M135.2440 104.6250
L136.3400 105.7210
" />
<path d="M135.7744 104.0946
L135.2440 104.6250
" />
<path d="M136.3400 105.7210
L136.8704 105.1907
" />
<path d="M136.8704 105.1907
L135.7744 104.0946
" />
<path d="M132.7868 102.1678
L133.8829 103.2638
" />
<path d="M133.3172 101.6374
L132.7868 102.1678
" />
<path d="M133.8829 103.2638
L134.4132 102.7335
" />
<path d="M134.4132 102.7335
L133.3172 101.6374
" />
<path d="M147.4254 112.5101
L147.4254 113.6101
" />
<path d="M147.4254 113.6101
L149.5754 113.6101
" />
<path d="M149.5754 112.5101
L147.4254 112.5101
" />
<path d="M149.5754 113.6101
L149.5754 112.5101
" />
<circle cx="127.0004" cy="103.0001" r="1.0500" /> 
<path d="M148.5000 82.3700
L148.5000 86.3700
" />
<path d="M148.5000 86.3700
L150.5000 86.3700
" />
<path d="M150.5000 82.3700
L148.5000 82.3700
" />
<path d="M150.5000 86.3700
L150.5000 82.3700
" />
<path d="M125.1504 81.3001
L125.1504 83.3001
" />
<path d="M125.1504 83.3001
L129.1504 83.3001
" />
<path d="M129.1504 81.3001
L125.1504 81.3001
" />
<path d="M129.1504 83.3001
L129.1504 81.3001
" />
<path d="M147.7254 104.6351
L147.7254 105.3851
" />
<path d="M147.7254 105.3851
L149.2754 105.3851
" />
<path d="M149.2754 104.6351
L147.7254 104.6351
" />
<path d="M149.2754 105.3851
L149.2754 104.6351
" />
<path d="M135.7504 91.1001
L135.7504 93.5001
" />
<path d="M135.7504 93.5001
L136.9504 93.5001
" />
<path d="M136.9504 91.1001
L135.7504 91.1001
" />
<path d="M136.9504 93.5001
L136.9504 91.1001
" />
<path d="M140.5000 71.1000
L140.5000 73.1000
" />
<path d="M140.5000 73.1000
L144.5000 73.1000
" />
<path d="M144.5000 71.1000
L140.5000 71.1000
" />
<path d="M144.5000 73.1000
L144.5000 71.1000
" />
<path d="M124.2504 90.6251
L124.2504 93.3751
" />
<path d="M124.2504 93.3751
L125.7504 93.3751
" />
<path d="M125.7504 90.6251
L124.2504 90.6251
" />
<path d="M125.7504 93.3751
L125.7504 90.6251
" />
<path d="M125.8754 90.6001
L125.8754 93.4001
" />
<path d="M125.8754 93.4001
L127.5754 93.4001
" />
<path d="M127.5754 90.6001
L125.8754 90.6001
" />
<path d="M127.5754 93.4001
L127.5754 90.6001
" />
<path d="M135.5454 110.4551
L135.5454 112.0051
" />
<path d="M135.5454 112.0051
L136.2954 112.0051
" />
<path d="M136.2954 110.4551
L135.5454 110.4551
" />
<path d="M136.2954 112.0051
L136.2954 110.4551
" />
<path d="M144.5000 82.3700
L144.5000 86.3700
" />
<path d="M144.5000 86.3700
L146.5000 86.3700
" />
<path d="M146.5000 82.3700
L144.5000 82.3700
" />
<path d="M146.5000 86.3700
L146.5000 82.3700
" />
<circle cx="143.1284" cy="107.2917" r="0.2550" /> 
<circle cx="150.2004" cy="117.6501" r="0.2550" /> 
<path d="M171.8004 79.2501
L171.8004 81.2501
" />
<path d="M171.8004 81.2501
L175.8004 81.2501
" />
<path d="M175.8004 79.2501
L171.8004 79.2501
" />
<path d="M175.8004 81.2501
L175.8004 79.2501
" />
<circle cx="171.7504" cy="97.4351" r="0.2550" /> 
<path d="M161.9469 102.2092
L165.7969 95.5408
" />
<path d="M165.7969 95.5408
L170.5601 98.2908
" />
<path d="M166.7101 104.9592
L161.9469 102.2092
" />
<path d="M170.5601 98.2908
L166.7101 104.9592
" />
<path d="M127.6754 90.3751
L130.8754 90.3751
" />
<path d="M127.6754 92.8751
L127.6754 90.3751
" />
<path d="M127.6754 92.8751
L130.8754 92.8751
" />
<path d="M130.8754 92.8751
L130.8754 90.3751
" />
<path d="M126.4500 63.5500
L126.4500 67.4500
" />
<path d="M126.4500 67.4500
L132.3500 67.4500
" />
<path d="M132.3500 63.5500
L126.4500 63.5500
" />
<path d="M132.3500 67.4500
L132.3500 63.5500
" />
<circle cx="141.1504" cy="109.8001" r="0.2550" /> 
<path d="M135.8504 86.1001
L135.8504 90.1001
" />
<path d="M135.8504 90.1001
L137.8504 90.1001
" />
<path d="M137.8504 86.1001
L135.8504 86.1001
" />
<path d="M137.8504 90.1001
L137.8504 86.1001
" />
<path d="M117.1504 83.3001
L117.1504 85.3001
" />
<path d="M117.1504 85.3001
L121.1504 85.3001
" />
<path d="M121.1504 83.3001
L117.1504 83.3001
" />
<path d="M121.1504 85.3001
L121.1504 83.3001
" />
<path d="M163.1504 86.0751
L163.1504 90.0751
" />
<path d="M163.1504 90.0751
L165.1504 90.0751
" />
<path d="M165.1504 86.0751
L163.1504 86.0751
" />
<path d="M165.1504 90.0751
L165.1504 86.0751
" />
<path d="M168.1860 96.7862
L170.6109 98.1862
" />
<path d="M169.0360 95.3140
L168.1860 96.7862
" />
<path d="M170.6109 98.1862
L171.4609 96.7140
" />
<path d="M171.4609 96.7140
L169.0360 95.3140
" />
<path d="M152.5000 73.1000
L152.5000 75.1000
" />
<path d="M152.5000 75.1000
L156.5000 75.1000
" />
<path d="M156.5000 73.1000
L152.5000 73.1000
" />
<path d="M156.5000 75.1000
L156.5000 73.1000
" />
<path d="M152.5000 71.1000
L152.5000 73.1000
" />
<path d="M152.5000 73.1000
L156.5000 73.1000
" />
<path d="M156.5000 71.1000
L152.5000 71.1000
" />
<path d="M156.5000 73.1000
L156.5000 71.1000
" />
<path d="M152.5000 82.3700
L152.5000 86.3700
" />
<path d="M152.5000 86.3700
L154.5000 86.3700
" />
<path d="M154.5000 82.3700
L152.5000 82.3700
" />
<path d="M154.5000 86.3700
L154.5000 82.3700
" />
<path d="M123.2872 68.5057
L124.9843 70.2028
" />
<path d="M124.1357 67.6572
L123.2872 68.5057
" />
<path d="M124.9843 70.2028
L125.8328 69.3543
" />
<path d="M125.8328 69.3543
L124.1357 67.6572
" />
<path d="M171.8004 81.2501
L171.8004 83.2501
" />
<path d="M171.8004 83.2501
L175.8004 83.2501
" />
<path d="M175.8004 81.2501
L171.8004 81.2501
" />
<path d="M175.8004 83.2501
L175.8004 81.2501
" />
<path d="M125.1504 83.3001
L125.1504 85.3001
" />
<path d="M125.1504 85.3001
L129.1504 85.3001
" />
<path d="M129.1504 83.3001
L125.1504 83.3001
" />
<path d="M129.1504 85.3001
L129.1504 83.3001
" />
<path d="M121.1504 79.3001
L121.1504 81.3001
" />
<path d="M121.1504 81.3001
L125.1504 81.3001
" />
<path d="M125.1504 79.3001
L121.1504 79.3001
" />
<path d="M125.1504 81.3001
L125.1504 79.3001
" />
<path d="M171.1672 69.3543
L172.0157 70.2028
" />
<path d="M172.0157 70.2028
L173.7128 68.5057
" />
<path d="M172.8643 67.6572
L171.1672 69.3543
" />
<path d="M173.7128 68.5057
L172.8643 67.6572
" />
<path d="M159.1504 86.0751
L159.1504 90.0751
" />
<path d="M159.1504 90.0751
L161.1504 90.0751
" />
<path d="M161.1504 86.0751
L159.1504 86.0751
" />
<path d="M161.1504 90.0751
L161.1504 86.0751
" />
<path d="M140.5000 82.3700
L140.5000 86.3700
" />
<path d="M140.5000 86.3700
L142.5000 86.3700
" />
<path d="M142.5000 82.3700
L140.5000 82.3700
" />
<path d="M142.5000 86.3700
L142.5000 82.3700
" />
<circle cx="150.3394" cy="112.2094" r="0.2550" /> 
<circle cx="170.1093" cy="100.9219" r="0.2550" /> 
<path d="M154.5000 82.3700
L154.5000 86.3700
" />
<path d="M154.5000 86.3700
L156.5000 86.3700
" />
<path d="M156.5000 82.3700
L154.5000 82.3700
" />
<path d="M156.5000 86.3700
L156.5000 82.3700
" />
<path d="M146.8004 108.2501
L150.2004 108.2501
" />
<path d="M146.8004 112.3501
L146.8004 108.2501
" />
<path d="M150.2004 108.2501
L150.2004 112.3501
" />
<path d="M150.2004 112.3501
L146.8004 112.3501
" />
<path d="M134.7004 112.4001
L144.9004 112.4001
" />
<path d="M134.7004 121.6001
L134.7004 112.4001
" />
<path d="M144.9004 112.4001
L144.9004 121.6001
" />
<path d="M144.9004 121.6001
L134.7004 121.6001
" />
<path d="M122.8254 93.4501
L122.8254 94.9501
" />
<path d="M122.8254 94.9501
L125.5754 94.9501
" />
<path d="M125.5754 93.4501
L122.8254 93.4501
" />
<path d="M125.5754 94.9501
L125.5754 93.4501
" />
<path d="M150.5000 82.3700
L150.5000 86.3700
" />
<path d="M150.5000 86.3700
L152.5000 86.3700
" />
<path d="M152.5000 82.3700
L150.5000 82.3700
" />
<path d="M152.5000 86.3700
L152.5000 82.3700
" />
<path d="M151.2654 115.6151
L151.2654 117.1651
" />
<path d="M151.2654 117.1651
L152.0154 117.1651
" />
<path d="M152.0154 115.6151
L151.2654 115.6151
" />
<path d="M152.0154 117.1651
L152.0154 115.6151
" />
<path d="M137.8504 86.1001
L137.8504 90.1001
" />
<path d="M137.8504 90.1001
L139.8504 90.1001
" />
<path d="M139.8504 86.1001
L137.8504 86.1001
" />
<path d="M139.8504 90.1001
L139.8504 86.1001
" />
<circle cx="148.5004" cy="50.0001" r="1.0500" /> 
<path d="M152.5000 69.1000
L152.5000 71.1000
" />
<path d="M152.5000 71.1000
L156.5000 71.1000
" />
<path d="M156.5000 69.1000
L152.5000 69.1000
" />
<path d="M156.5000 71.1000
L156.5000 69.1000
" />
<path d="M166.7947 95.9824
L168.1371 96.7574
" />
<path d="M167.1697 95.3329
L166.7947 95.9824
" />
<path d="M168.1371 96.7574
L168.5121 96.1079
" />
<path d="M168.5121 96.1079
L167.1697 95.3329
" />
<path d="M167.8004 85.2501
L167.8004 87.2501
" />
<path d="M167.8004 87.2501
L171.8004 87.2501
" />
<path d="M171.8004 85.2501
L167.8004 85.2501
" />
<path d="M171.8004 87.2501
L171.8004 85.2501
" />
<path d="M145.9754 109.8751
L145.9754 111.4251
" />
<path d="M145.9754 111.4251
L146.7254 111.4251
" />
<path d="M146.7254 109.8751
L145.9754 109.8751
" />
<path d="M146.7254 111.4251
L146.7254 109.8751
" />
</g> 
</svg>
