<?xml version="1.0" standalone="no"?>
 <!DOCTYPE svg PUBLIC "-//W3C//DTD SVG 1.1//EN" 
 "http://www.w3.org/Graphics/SVG/1.1/DTD/svg11.dtd"> 
<svg
  xmlns:svg="http://www.w3.org/2000/svg"
  xmlns="http://www.w3.org/2000/svg"
  xmlns:xlink="http://www.w3.org/1999/xlink"
  version="1.1"
  width="297.0022mm" height="210.0072mm" viewBox="0.0000 0.0000 297.0022 210.0072">
<title>SVG Image created as amulet_controller-User_Drawings.svg date 2025/01/18 17:12:59 </title>
  <desc>Image generated by PCBNEW </desc>
<g style="fill:#000000; fill-opacity:1.0000;stroke:#000000; stroke-opacity:1.0000;
stroke-linecap:round; stroke-linejoin:round;"
 transform="translate(0 0) scale(1 1)">
</g>
<g style="fill:none; 
stroke:#000000; stroke-width:0.1500; stroke-opacity:1; 
stroke-linecap:round; stroke-linejoin:round;">
<path d="M10.0000 10.0000
L287.0022 10.0000
L287.0022 200.0072
L10.0000 200.0072
L10.0000 10.0000
" />
</g>
<g style="fill:none; 
stroke:#000000; stroke-width:0.1500; stroke-opacity:1; 
stroke-linecap:round; stroke-linejoin:round;">
<path d="M12.0000 12.0000
L285.0022 12.0000
L285.0022 198.0072
L12.0000 198.0072
L12.0000 12.0000
" />
</g>
<g style="fill:none; 
stroke:#000000; stroke-width:0.1500; stroke-opacity:1; 
stroke-linecap:round; stroke-linejoin:round;">
<path d="M60.0000 12.0000
L60.0000 10.0000
" />
</g>
<g style="fill:none; 
stroke:#000000; stroke-width:0.1500; stroke-opacity:1; 
stroke-linecap:round; stroke-linejoin:round;">
<path d="M110.0000 12.0000
L110.0000 10.0000
" />
</g>
<g style="fill:none; 
stroke:#000000; stroke-width:0.1500; stroke-opacity:1; 
stroke-linecap:round; stroke-linejoin:round;">
<path d="M160.0000 12.0000
L160.0000 10.0000
" />
</g>
<g style="fill:none; 
stroke:#000000; stroke-width:0.1500; stroke-opacity:1; 
stroke-linecap:round; stroke-linejoin:round;">
<path d="M210.0000 12.0000
L210.0000 10.0000
" />
</g>
<g style="fill:none; 
stroke:#000000; stroke-width:0.1500; stroke-opacity:1; 
stroke-linecap:round; stroke-linejoin:round;">
<path d="M260.0000 12.0000
L260.0000 10.0000
" />
</g>
<g style="fill:none; 
stroke:#000000; stroke-width:0.1500; stroke-opacity:1; 
stroke-linecap:round; stroke-linejoin:round;">
<text x="35.0000" y="11.6500"
textLength="1.4281" font-size="1.7333" lengthAdjust="spacingAndGlyphs"
text-anchor="start" opacity="0" stroke-opacity="0">1</text>
<g class="stroked-text"><desc>1</desc>
<path d="M36.0892 11.5936
L35.3463 11.5936
" />
<path d="M35.7177 11.5936
L35.7177 10.2936
" />
<path d="M35.7177 10.2936
L35.5939 10.4793
" />
<path d="M35.5939 10.4793
L35.4701 10.6031
" />
<path d="M35.4701 10.6031
L35.3463 10.6650
" />
</g></g>
<g style="fill:none; 
stroke:#000000; stroke-width:0.1500; stroke-opacity:1; 
stroke-linecap:round; stroke-linejoin:round;">
<text x="85.0000" y="11.6500"
textLength="1.4281" font-size="1.7333" lengthAdjust="spacingAndGlyphs"
text-anchor="start" opacity="0" stroke-opacity="0">2</text>
<g class="stroked-text"><desc>2</desc>
<path d="M85.3463 10.4174
L85.4082 10.3555
" />
<path d="M85.4082 10.3555
L85.5320 10.2936
" />
<path d="M85.5320 10.2936
L85.8415 10.2936
" />
<path d="M85.8415 10.2936
L85.9654 10.3555
" />
<path d="M85.9654 10.3555
L86.0273 10.4174
" />
<path d="M86.0273 10.4174
L86.0892 10.5412
" />
<path d="M86.0892 10.5412
L86.0892 10.6650
" />
<path d="M86.0892 10.6650
L86.0273 10.8507
" />
<path d="M86.0273 10.8507
L85.2844 11.5936
" />
<path d="M85.2844 11.5936
L86.0892 11.5936
" />
</g></g>
<g style="fill:none; 
stroke:#000000; stroke-width:0.1500; stroke-opacity:1; 
stroke-linecap:round; stroke-linejoin:round;">
<text x="135.0000" y="11.6500"
textLength="1.4281" font-size="1.7333" lengthAdjust="spacingAndGlyphs"
text-anchor="start" opacity="0" stroke-opacity="0">3</text>
<g class="stroked-text"><desc>3</desc>
<path d="M135.2844 10.2936
L136.0892 10.2936
" />
<path d="M136.0892 10.2936
L135.6558 10.7888
" />
<path d="M135.6558 10.7888
L135.8415 10.7888
" />
<path d="M135.8415 10.7888
L135.9654 10.8507
" />
<path d="M135.9654 10.8507
L136.0273 10.9127
" />
<path d="M136.0273 10.9127
L136.0892 11.0365
" />
<path d="M136.0892 11.0365
L136.0892 11.3460
" />
<path d="M136.0892 11.3460
L136.0273 11.4698
" />
<path d="M136.0273 11.4698
L135.9654 11.5317
" />
<path d="M135.9654 11.5317
L135.8415 11.5936
" />
<path d="M135.8415 11.5936
L135.4701 11.5936
" />
<path d="M135.4701 11.5936
L135.3463 11.5317
" />
<path d="M135.3463 11.5317
L135.2844 11.4698
" />
</g></g>
<g style="fill:none; 
stroke:#000000; stroke-width:0.1500; stroke-opacity:1; 
stroke-linecap:round; stroke-linejoin:round;">
<text x="185.0000" y="11.6500"
textLength="1.4281" font-size="1.7333" lengthAdjust="spacingAndGlyphs"
text-anchor="start" opacity="0" stroke-opacity="0">4</text>
<g class="stroked-text"><desc>4</desc>
<path d="M185.9654 10.7269
L185.9654 11.5936
" />
<path d="M185.6558 10.2317
L185.3463 11.1603
" />
<path d="M185.3463 11.1603
L186.1511 11.1603
" />
</g></g>
<g style="fill:none; 
stroke:#000000; stroke-width:0.1500; stroke-opacity:1; 
stroke-linecap:round; stroke-linejoin:round;">
<text x="235.0000" y="11.6500"
textLength="1.4281" font-size="1.7333" lengthAdjust="spacingAndGlyphs"
text-anchor="start" opacity="0" stroke-opacity="0">5</text>
<g class="stroked-text"><desc>5</desc>
<path d="M236.0273 10.2936
L235.4082 10.2936
" />
<path d="M235.4082 10.2936
L235.3463 10.9127
" />
<path d="M235.3463 10.9127
L235.4082 10.8507
" />
<path d="M235.4082 10.8507
L235.5320 10.7888
" />
<path d="M235.5320 10.7888
L235.8415 10.7888
" />
<path d="M235.8415 10.7888
L235.9654 10.8507
" />
<path d="M235.9654 10.8507
L236.0273 10.9127
" />
<path d="M236.0273 10.9127
L236.0892 11.0365
" />
<path d="M236.0892 11.0365
L236.0892 11.3460
" />
<path d="M236.0892 11.3460
L236.0273 11.4698
" />
<path d="M236.0273 11.4698
L235.9654 11.5317
" />
<path d="M235.9654 11.5317
L235.8415 11.5936
" />
<path d="M235.8415 11.5936
L235.5320 11.5936
" />
<path d="M235.5320 11.5936
L235.4082 11.5317
" />
<path d="M235.4082 11.5317
L235.3463 11.4698
" />
</g></g>
<g style="fill:none; 
stroke:#000000; stroke-width:0.1500; stroke-opacity:1; 
stroke-linecap:round; stroke-linejoin:round;">
<text x="285.0000" y="11.6500"
textLength="1.4281" font-size="1.7333" lengthAdjust="spacingAndGlyphs"
text-anchor="start" opacity="0" stroke-opacity="0">6</text>
<g class="stroked-text"><desc>6</desc>
<path d="M285.9654 10.2936
L285.7177 10.2936
" />
<path d="M285.7177 10.2936
L285.5939 10.3555
" />
<path d="M285.5939 10.3555
L285.5320 10.4174
" />
<path d="M285.5320 10.4174
L285.4082 10.6031
" />
<path d="M285.4082 10.6031
L285.3463 10.8507
" />
<path d="M285.3463 10.8507
L285.3463 11.3460
" />
<path d="M285.3463 11.3460
L285.4082 11.4698
" />
<path d="M285.4082 11.4698
L285.4701 11.5317
" />
<path d="M285.4701 11.5317
L285.5939 11.5936
" />
<path d="M285.5939 11.5936
L285.8415 11.5936
" />
<path d="M285.8415 11.5936
L285.9654 11.5317
" />
<path d="M285.9654 11.5317
L286.0273 11.4698
" />
<path d="M286.0273 11.4698
L286.0892 11.3460
" />
<path d="M286.0892 11.3460
L286.0892 11.0365
" />
<path d="M286.0892 11.0365
L286.0273 10.9127
" />
<path d="M286.0273 10.9127
L285.9654 10.8507
" />
<path d="M285.9654 10.8507
L285.8415 10.7888
" />
<path d="M285.8415 10.7888
L285.5939 10.7888
" />
<path d="M285.5939 10.7888
L285.4701 10.8507
" />
<path d="M285.4701 10.8507
L285.4082 10.9127
" />
<path d="M285.4082 10.9127
L285.3463 11.0365
" />
</g></g>
<g style="fill:none; 
stroke:#000000; stroke-width:0.1500; stroke-opacity:1; 
stroke-linecap:round; stroke-linejoin:round;">
<path d="M60.0000 198.0072
L60.0000 200.0072
" />
</g>
<g style="fill:none; 
stroke:#000000; stroke-width:0.1500; stroke-opacity:1; 
stroke-linecap:round; stroke-linejoin:round;">
<path d="M110.0000 198.0072
L110.0000 200.0072
" />
</g>
<g style="fill:none; 
stroke:#000000; stroke-width:0.1500; stroke-opacity:1; 
stroke-linecap:round; stroke-linejoin:round;">
<path d="M160.0000 198.0072
L160.0000 200.0072
" />
</g>
<g style="fill:none; 
stroke:#000000; stroke-width:0.1500; stroke-opacity:1; 
stroke-linecap:round; stroke-linejoin:round;">
<path d="M210.0000 198.0072
L210.0000 200.0072
" />
</g>
<g style="fill:none; 
stroke:#000000; stroke-width:0.1500; stroke-opacity:1; 
stroke-linecap:round; stroke-linejoin:round;">
<path d="M260.0000 198.0072
L260.0000 200.0072
" />
</g>
<g style="fill:none; 
stroke:#000000; stroke-width:0.1500; stroke-opacity:1; 
stroke-linecap:round; stroke-linejoin:round;">
<text x="35.0000" y="199.6572"
textLength="1.4281" font-size="1.7333" lengthAdjust="spacingAndGlyphs"
text-anchor="start" opacity="0" stroke-opacity="0">1</text>
<g class="stroked-text"><desc>1</desc>
<path d="M36.0892 199.6008
L35.3463 199.6008
" />
<path d="M35.7177 199.6008
L35.7177 198.3008
" />
<path d="M35.7177 198.3008
L35.5939 198.4865
" />
<path d="M35.5939 198.4865
L35.4701 198.6103
" />
<path d="M35.4701 198.6103
L35.3463 198.6722
" />
</g></g>
<g style="fill:none; 
stroke:#000000; stroke-width:0.1500; stroke-opacity:1; 
stroke-linecap:round; stroke-linejoin:round;">
<text x="85.0000" y="199.6572"
textLength="1.4281" font-size="1.7333" lengthAdjust="spacingAndGlyphs"
text-anchor="start" opacity="0" stroke-opacity="0">2</text>
<g class="stroked-text"><desc>2</desc>
<path d="M85.3463 198.4246
L85.4082 198.3627
" />
<path d="M85.4082 198.3627
L85.5320 198.3008
" />
<path d="M85.5320 198.3008
L85.8415 198.3008
" />
<path d="M85.8415 198.3008
L85.9654 198.3627
" />
<path d="M85.9654 198.3627
L86.0273 198.4246
" />
<path d="M86.0273 198.4246
L86.0892 198.5484
" />
<path d="M86.0892 198.5484
L86.0892 198.6722
" />
<path d="M86.0892 198.6722
L86.0273 198.8579
" />
<path d="M86.0273 198.8579
L85.2844 199.6008
" />
<path d="M85.2844 199.6008
L86.0892 199.6008
" />
</g></g>
<g style="fill:none; 
stroke:#000000; stroke-width:0.1500; stroke-opacity:1; 
stroke-linecap:round; stroke-linejoin:round;">
<text x="135.0000" y="199.6572"
textLength="1.4281" font-size="1.7333" lengthAdjust="spacingAndGlyphs"
text-anchor="start" opacity="0" stroke-opacity="0">3</text>
<g class="stroked-text"><desc>3</desc>
<path d="M135.2844 198.3008
L136.0892 198.3008
" />
<path d="M136.0892 198.3008
L135.6558 198.7960
" />
<path d="M135.6558 198.7960
L135.8415 198.7960
" />
<path d="M135.8415 198.7960
L135.9654 198.8579
" />
<path d="M135.9654 198.8579
L136.0273 198.9199
" />
<path d="M136.0273 198.9199
L136.0892 199.0437
" />
<path d="M136.0892 199.0437
L136.0892 199.3532
" />
<path d="M136.0892 199.3532
L136.0273 199.4770
" />
<path d="M136.0273 199.4770
L135.9654 199.5389
" />
<path d="M135.9654 199.5389
L135.8415 199.6008
" />
<path d="M135.8415 199.6008
L135.4701 199.6008
" />
<path d="M135.4701 199.6008
L135.3463 199.5389
" />
<path d="M135.3463 199.5389
L135.2844 199.4770
" />
</g></g>
<g style="fill:none; 
stroke:#000000; stroke-width:0.1500; stroke-opacity:1; 
stroke-linecap:round; stroke-linejoin:round;">
<text x="185.0000" y="199.6572"
textLength="1.4281" font-size="1.7333" lengthAdjust="spacingAndGlyphs"
text-anchor="start" opacity="0" stroke-opacity="0">4</text>
<g class="stroked-text"><desc>4</desc>
<path d="M185.9654 198.7341
L185.9654 199.6008
" />
<path d="M185.6558 198.2389
L185.3463 199.1675
" />
<path d="M185.3463 199.1675
L186.1511 199.1675
" />
</g></g>
<g style="fill:none; 
stroke:#000000; stroke-width:0.1500; stroke-opacity:1; 
stroke-linecap:round; stroke-linejoin:round;">
<text x="235.0000" y="199.6572"
textLength="1.4281" font-size="1.7333" lengthAdjust="spacingAndGlyphs"
text-anchor="start" opacity="0" stroke-opacity="0">5</text>
<g class="stroked-text"><desc>5</desc>
<path d="M236.0273 198.3008
L235.4082 198.3008
" />
<path d="M235.4082 198.3008
L235.3463 198.9199
" />
<path d="M235.3463 198.9199
L235.4082 198.8579
" />
<path d="M235.4082 198.8579
L235.5320 198.7960
" />
<path d="M235.5320 198.7960
L235.8415 198.7960
" />
<path d="M235.8415 198.7960
L235.9654 198.8579
" />
<path d="M235.9654 198.8579
L236.0273 198.9199
" />
<path d="M236.0273 198.9199
L236.0892 199.0437
" />
<path d="M236.0892 199.0437
L236.0892 199.3532
" />
<path d="M236.0892 199.3532
L236.0273 199.4770
" />
<path d="M236.0273 199.4770
L235.9654 199.5389
" />
<path d="M235.9654 199.5389
L235.8415 199.6008
" />
<path d="M235.8415 199.6008
L235.5320 199.6008
" />
<path d="M235.5320 199.6008
L235.4082 199.5389
" />
<path d="M235.4082 199.5389
L235.3463 199.4770
" />
</g></g>
<g style="fill:none; 
stroke:#000000; stroke-width:0.1500; stroke-opacity:1; 
stroke-linecap:round; stroke-linejoin:round;">
<text x="285.0000" y="199.6572"
textLength="1.4281" font-size="1.7333" lengthAdjust="spacingAndGlyphs"
text-anchor="start" opacity="0" stroke-opacity="0">6</text>
<g class="stroked-text"><desc>6</desc>
<path d="M285.9654 198.3008
L285.7177 198.3008
" />
<path d="M285.7177 198.3008
L285.5939 198.3627
" />
<path d="M285.5939 198.3627
L285.5320 198.4246
" />
<path d="M285.5320 198.4246
L285.4082 198.6103
" />
<path d="M285.4082 198.6103
L285.3463 198.8579
" />
<path d="M285.3463 198.8579
L285.3463 199.3532
" />
<path d="M285.3463 199.3532
L285.4082 199.4770
" />
<path d="M285.4082 199.4770
L285.4701 199.5389
" />
<path d="M285.4701 199.5389
L285.5939 199.6008
" />
<path d="M285.5939 199.6008
L285.8415 199.6008
" />
<path d="M285.8415 199.6008
L285.9654 199.5389
" />
<path d="M285.9654 199.5389
L286.0273 199.4770
" />
<path d="M286.0273 199.4770
L286.0892 199.3532
" />
<path d="M286.0892 199.3532
L286.0892 199.0437
" />
<path d="M286.0892 199.0437
L286.0273 198.9199
" />
<path d="M286.0273 198.9199
L285.9654 198.8579
" />
<path d="M285.9654 198.8579
L285.8415 198.7960
" />
<path d="M285.8415 198.7960
L285.5939 198.7960
" />
<path d="M285.5939 198.7960
L285.4701 198.8579
" />
<path d="M285.4701 198.8579
L285.4082 198.9199
" />
<path d="M285.4082 198.9199
L285.3463 199.0437
" />
</g></g>
<g style="fill:none; 
stroke:#000000; stroke-width:0.1500; stroke-opacity:1; 
stroke-linecap:round; stroke-linejoin:round;">
<path d="M10.0000 60.0000
L12.0000 60.0000
" />
</g>
<g style="fill:none; 
stroke:#000000; stroke-width:0.1500; stroke-opacity:1; 
stroke-linecap:round; stroke-linejoin:round;">
<path d="M10.0000 110.0000
L12.0000 110.0000
" />
</g>
<g style="fill:none; 
stroke:#000000; stroke-width:0.1500; stroke-opacity:1; 
stroke-linecap:round; stroke-linejoin:round;">
<path d="M10.0000 160.0000
L12.0000 160.0000
" />
</g>
<g style="fill:none; 
stroke:#000000; stroke-width:0.1500; stroke-opacity:1; 
stroke-linecap:round; stroke-linejoin:round;">
<text x="11.0000" y="35.6500"
textLength="1.3043" font-size="1.7333" lengthAdjust="spacingAndGlyphs"
text-anchor="middle" opacity="0" stroke-opacity="0">A</text>
<g class="stroked-text"><desc>A</desc>
<path d="M10.6905 35.2222
L11.3095 35.2222
" />
<path d="M10.5667 35.5936
L11.0000 34.2936
" />
<path d="M11.0000 34.2936
L11.4333 35.5936
" />
</g></g>
<g style="fill:none; 
stroke:#000000; stroke-width:0.1500; stroke-opacity:1; 
stroke-linecap:round; stroke-linejoin:round;">
<text x="11.0000" y="85.6500"
textLength="1.4900" font-size="1.7333" lengthAdjust="spacingAndGlyphs"
text-anchor="middle" opacity="0" stroke-opacity="0">B</text>
<g class="stroked-text"><desc>B</desc>
<path d="M11.0929 84.9127
L11.2786 84.9746
" />
<path d="M11.2786 84.9746
L11.3405 85.0365
" />
<path d="M11.3405 85.0365
L11.4024 85.1603
" />
<path d="M11.4024 85.1603
L11.4024 85.3460
" />
<path d="M11.4024 85.3460
L11.3405 85.4698
" />
<path d="M11.3405 85.4698
L11.2786 85.5317
" />
<path d="M11.2786 85.5317
L11.1548 85.5936
" />
<path d="M11.1548 85.5936
L10.6595 85.5936
" />
<path d="M10.6595 85.5936
L10.6595 84.2936
" />
<path d="M10.6595 84.2936
L11.0929 84.2936
" />
<path d="M11.0929 84.2936
L11.2167 84.3555
" />
<path d="M11.2167 84.3555
L11.2786 84.4174
" />
<path d="M11.2786 84.4174
L11.3405 84.5412
" />
<path d="M11.3405 84.5412
L11.3405 84.6650
" />
<path d="M11.3405 84.6650
L11.2786 84.7888
" />
<path d="M11.2786 84.7888
L11.2167 84.8507
" />
<path d="M11.2167 84.8507
L11.0929 84.9127
" />
<path d="M11.0929 84.9127
L10.6595 84.9127
" />
</g></g>
<g style="fill:none; 
stroke:#000000; stroke-width:0.1500; stroke-opacity:1; 
stroke-linecap:round; stroke-linejoin:round;">
<text x="11.0000" y="135.6500"
textLength="1.4900" font-size="1.7333" lengthAdjust="spacingAndGlyphs"
text-anchor="middle" opacity="0" stroke-opacity="0">C</text>
<g class="stroked-text"><desc>C</desc>
<path d="M11.4024 135.4698
L11.3405 135.5317
" />
<path d="M11.3405 135.5317
L11.1548 135.5936
" />
<path d="M11.1548 135.5936
L11.0310 135.5936
" />
<path d="M11.0310 135.5936
L10.8452 135.5317
" />
<path d="M10.8452 135.5317
L10.7214 135.4079
" />
<path d="M10.7214 135.4079
L10.6595 135.2841
" />
<path d="M10.6595 135.2841
L10.5976 135.0365
" />
<path d="M10.5976 135.0365
L10.5976 134.8507
" />
<path d="M10.5976 134.8507
L10.6595 134.6031
" />
<path d="M10.6595 134.6031
L10.7214 134.4793
" />
<path d="M10.7214 134.4793
L10.8452 134.3555
" />
<path d="M10.8452 134.3555
L11.0310 134.2936
" />
<path d="M11.0310 134.2936
L11.1548 134.2936
" />
<path d="M11.1548 134.2936
L11.3405 134.3555
" />
<path d="M11.3405 134.3555
L11.4024 134.4174
" />
</g></g>
<g style="fill:none; 
stroke:#000000; stroke-width:0.1500; stroke-opacity:1; 
stroke-linecap:round; stroke-linejoin:round;">
<text x="11.0000" y="185.6500"
textLength="1.4900" font-size="1.7333" lengthAdjust="spacingAndGlyphs"
text-anchor="middle" opacity="0" stroke-opacity="0">D</text>
<g class="stroked-text"><desc>D</desc>
<path d="M10.6595 185.5936
L10.6595 184.2936
" />
<path d="M10.6595 184.2936
L10.9690 184.2936
" />
<path d="M10.9690 184.2936
L11.1548 184.3555
" />
<path d="M11.1548 184.3555
L11.2786 184.4793
" />
<path d="M11.2786 184.4793
L11.3405 184.6031
" />
<path d="M11.3405 184.6031
L11.4024 184.8507
" />
<path d="M11.4024 184.8507
L11.4024 185.0365
" />
<path d="M11.4024 185.0365
L11.3405 185.2841
" />
<path d="M11.3405 185.2841
L11.2786 185.4079
" />
<path d="M11.2786 185.4079
L11.1548 185.5317
" />
<path d="M11.1548 185.5317
L10.9690 185.5936
" />
<path d="M10.9690 185.5936
L10.6595 185.5936
" />
</g></g>
<g style="fill:none; 
stroke:#000000; stroke-width:0.1500; stroke-opacity:1; 
stroke-linecap:round; stroke-linejoin:round;">
<path d="M287.0022 60.0000
L285.0022 60.0000
" />
</g>
<g style="fill:none; 
stroke:#000000; stroke-width:0.1500; stroke-opacity:1; 
stroke-linecap:round; stroke-linejoin:round;">
<path d="M287.0022 110.0000
L285.0022 110.0000
" />
</g>
<g style="fill:none; 
stroke:#000000; stroke-width:0.1500; stroke-opacity:1; 
stroke-linecap:round; stroke-linejoin:round;">
<path d="M287.0022 160.0000
L285.0022 160.0000
" />
</g>
<g style="fill:none; 
stroke:#000000; stroke-width:0.1500; stroke-opacity:1; 
stroke-linecap:round; stroke-linejoin:round;">
<text x="286.0022" y="35.6500"
textLength="1.3043" font-size="1.7333" lengthAdjust="spacingAndGlyphs"
text-anchor="middle" opacity="0" stroke-opacity="0">A</text>
<g class="stroked-text"><desc>A</desc>
<path d="M285.6927 35.2222
L286.3117 35.2222
" />
<path d="M285.5689 35.5936
L286.0022 34.2936
" />
<path d="M286.0022 34.2936
L286.4355 35.5936
" />
</g></g>
<g style="fill:none; 
stroke:#000000; stroke-width:0.1500; stroke-opacity:1; 
stroke-linecap:round; stroke-linejoin:round;">
<text x="286.0022" y="85.6500"
textLength="1.4900" font-size="1.7333" lengthAdjust="spacingAndGlyphs"
text-anchor="middle" opacity="0" stroke-opacity="0">B</text>
<g class="stroked-text"><desc>B</desc>
<path d="M286.0951 84.9127
L286.2808 84.9746
" />
<path d="M286.2808 84.9746
L286.3427 85.0365
" />
<path d="M286.3427 85.0365
L286.4046 85.1603
" />
<path d="M286.4046 85.1603
L286.4046 85.3460
" />
<path d="M286.4046 85.3460
L286.3427 85.4698
" />
<path d="M286.3427 85.4698
L286.2808 85.5317
" />
<path d="M286.2808 85.5317
L286.1570 85.5936
" />
<path d="M286.1570 85.5936
L285.6617 85.5936
" />
<path d="M285.6617 85.5936
L285.6617 84.2936
" />
<path d="M285.6617 84.2936
L286.0951 84.2936
" />
<path d="M286.0951 84.2936
L286.2189 84.3555
" />
<path d="M286.2189 84.3555
L286.2808 84.4174
" />
<path d="M286.2808 84.4174
L286.3427 84.5412
" />
<path d="M286.3427 84.5412
L286.3427 84.6650
" />
<path d="M286.3427 84.6650
L286.2808 84.7888
" />
<path d="M286.2808 84.7888
L286.2189 84.8507
" />
<path d="M286.2189 84.8507
L286.0951 84.9127
" />
<path d="M286.0951 84.9127
L285.6617 84.9127
" />
</g></g>
<g style="fill:none; 
stroke:#000000; stroke-width:0.1500; stroke-opacity:1; 
stroke-linecap:round; stroke-linejoin:round;">
<text x="286.0022" y="135.6500"
textLength="1.4900" font-size="1.7333" lengthAdjust="spacingAndGlyphs"
text-anchor="middle" opacity="0" stroke-opacity="0">C</text>
<g class="stroked-text"><desc>C</desc>
<path d="M286.4046 135.4698
L286.3427 135.5317
" />
<path d="M286.3427 135.5317
L286.1570 135.5936
" />
<path d="M286.1570 135.5936
L286.0332 135.5936
" />
<path d="M286.0332 135.5936
L285.8474 135.5317
" />
<path d="M285.8474 135.5317
L285.7236 135.4079
" />
<path d="M285.7236 135.4079
L285.6617 135.2841
" />
<path d="M285.6617 135.2841
L285.5998 135.0365
" />
<path d="M285.5998 135.0365
L285.5998 134.8507
" />
<path d="M285.5998 134.8507
L285.6617 134.6031
" />
<path d="M285.6617 134.6031
L285.7236 134.4793
" />
<path d="M285.7236 134.4793
L285.8474 134.3555
" />
<path d="M285.8474 134.3555
L286.0332 134.2936
" />
<path d="M286.0332 134.2936
L286.1570 134.2936
" />
<path d="M286.1570 134.2936
L286.3427 134.3555
" />
<path d="M286.3427 134.3555
L286.4046 134.4174
" />
</g></g>
<g style="fill:none; 
stroke:#000000; stroke-width:0.1500; stroke-opacity:1; 
stroke-linecap:round; stroke-linejoin:round;">
<text x="286.0022" y="185.6500"
textLength="1.4900" font-size="1.7333" lengthAdjust="spacingAndGlyphs"
text-anchor="middle" opacity="0" stroke-opacity="0">D</text>
<g class="stroked-text"><desc>D</desc>
<path d="M285.6617 185.5936
L285.6617 184.2936
" />
<path d="M285.6617 184.2936
L285.9712 184.2936
" />
<path d="M285.9712 184.2936
L286.1570 184.3555
" />
<path d="M286.1570 184.3555
L286.2808 184.4793
" />
<path d="M286.2808 184.4793
L286.3427 184.6031
" />
<path d="M286.3427 184.6031
L286.4046 184.8507
" />
<path d="M286.4046 184.8507
L286.4046 185.0365
" />
<path d="M286.4046 185.0365
L286.3427 185.2841
" />
<path d="M286.3427 185.2841
L286.2808 185.4079
" />
<path d="M286.2808 185.4079
L286.1570 185.5317
" />
<path d="M286.1570 185.5317
L285.9712 185.5936
" />
<path d="M285.9712 185.5936
L285.6617 185.5936
" />
</g></g>
<g style="fill:none; 
stroke:#000000; stroke-width:0.5000; stroke-opacity:1; 
stroke-linecap:round; stroke-linejoin:round;">
<text x="261.4022" y="195.2570"
textLength="1.7488" font-size="3.3333" lengthAdjust="spacingAndGlyphs"
text-anchor="start" opacity="0" stroke-opacity="0">1</text>
<g class="stroked-text"><desc>1</desc>
<path style="fill:#000000; fill-opacity:1.0000; stroke:none;fill-rule:evenodd;"
d="M 262.5477,192.6607
262.5477,194.5756
262.5499,194.6991
262.5622,194.8210
262.5666,194.8375
262.6454,194.9303
262.7692,194.9635
262.8377,194.9663
262.8909,194.9663
262.8909,195.0445
261.6648,195.0445
261.6648,194.9663
261.7264,194.9663
261.8545,194.9581
261.9395,194.9334
262.0256,194.8430
262.0445,194.7210
262.0482,194.5885
262.0482,194.5756
262.0482,193.3641
262.0443,193.2382
262.0323,193.1705
261.9749,193.1034
261.8779,193.0747
261.7539,193.0961
261.6654,193.1296
261.6342,193.0515
262.4909,192.6607
Z" /> 
</g></g>
<g style="fill:none; 
stroke:#000000; stroke-width:0.2000; stroke-opacity:1; 
stroke-linecap:round; stroke-linejoin:round;">
<path d="M131.9726 59.1483 A35.0000 35.0000 0.0 0 0 113.6725 86.5335" />
<path d="M162.9122 121.8952 A0.9999 0.9999 0.0 0 0 163.5004 120.9840" />
<path d="M132.5365 58.8462 A0.5000 0.5000 0.0 0 0 132.8004 58.4055" />
<path d="M133.5004 116.5519 A1.0001 1.0001 0.0 0 0 133.0165 115.6954" />
<path d="M164.2004 58.4055 A0.5000 0.5000 0.0 0 0 164.4643 58.8462" />
<path d="M133.5004 120.9840 A1.0000 1.0000 0.0 0 0 134.0886 121.8953" />
<path d="M163.9843 115.6954 A30.0000 30.0000 0.0 0 0 178.4951 90.5619" />
<path d="M182.8332 87.4985 A1.0000 1.0000 0.0 0 0 183.3283 86.5335" />
<path d="M132.5004 57.7442
L132.5365 57.7635
" />
<path d="M178.9950 89.7146 A1.0000 1.0000 0.0 0 0 178.4951 90.5619" />
<path d="M132.5365 58.8462
L131.9726 59.1483
" />
<path d="M164.5004 48.3001
L132.5004 48.3001
" />
<path d="M164.3504 57.8472 A0.4999 0.4999 0.0 0 0 164.2004 58.2042" />
<path d="M163.5004 120.9840
L163.5004 116.5519
" />
<path d="M133.5004 116.5519
L133.5004 120.9840
" />
<path d="M163.9843 115.6954 A0.9999 0.9999 0.0 0 0 163.5004 116.5519" />
<path d="M114.1676 87.4986
L118.0058 89.7146
" />
<path d="M118.5057 90.5619 A30.0000 30.0000 0.0 0 0 133.0165 115.6954" />
<path d="M134.0886 121.8953 A35.0000 35.0000 0.0 0 0 162.9122 121.8953" />
<path d="M132.8004 58.2042 A0.5001 0.5001 0.0 0 0 132.5365 57.7635" />
<path d="M132.8004 58.2042
L132.8004 58.4055
" />
<path d="M164.2004 58.4055
L164.2004 58.2042
" />
<path d="M165.0282 59.1483
L164.4643 58.8462
" />
<path d="M178.9950 89.7146
L182.8332 87.4985
" />
<path d="M183.3283 86.5335 A35.0000 35.0000 0.0 0 0 165.0282 59.1483" />
<path d="M164.5004 57.4901
L164.5004 48.3001
" />
<path d="M118.5056 90.5619 A1.0000 1.0000 0.0 0 0 118.0058 89.7146" />
<path d="M113.6725 86.5335 A1.0000 1.0000 0.0 0 0 114.1676 87.4986" />
<path d="M164.3504 57.8471 A0.4999 0.4999 0.0 0 0 164.5004 57.4901" />
<path d="M132.5004 48.3001
L132.5004 57.7442
" />
<path style="fill:none; 
stroke:#000000; stroke-width:0.1500; stroke-opacity:1; 
stroke-linecap:round; stroke-linejoin:round;fill:none"
d="M 172.0000,48.5000
254.5000,48.5000
254.5000,131.0000
172.0000,131.0000
Z" /> 
<path style="fill:none; 
stroke:#000000; stroke-width:0.1500; stroke-opacity:1; 
stroke-linecap:round; stroke-linejoin:round;fill:none"
d="M 41.5000,48.5000
124.0000,48.5000
124.0000,131.0000
41.5000,131.0000
Z" /> 
<path style="fill:none; 
stroke:#000000; stroke-width:0.1500; stroke-opacity:1; 
stroke-linecap:round; stroke-linejoin:round;fill:none"
d="M 71.2500,64.5000
97.2500,64.5000
97.2500,92.0000
71.2500,92.0000
Z" /> 
<path style="fill:none; 
stroke:#000000; stroke-width:0.1500; stroke-opacity:1; 
stroke-linecap:round; stroke-linejoin:round;fill:none"
d="M 207.7500,64.5000
233.7500,64.5000
233.7500,92.0000
207.7500,92.0000
Z" /> 
</g>
<g style="fill:none; 
stroke:#000000; stroke-width:0.4000; stroke-opacity:1; 
stroke-linecap:round; stroke-linejoin:round;">
<text x="83.5000" y="41.5000"
textLength="16.7590" font-size="4.0000" lengthAdjust="spacingAndGlyphs"
text-anchor="middle" opacity="0" stroke-opacity="0">Top View</text>
<g class="stroked-text"><desc>Top View</desc>
<path style="fill:#000000; fill-opacity:1.0000; stroke:none;fill-rule:evenodd;"
d="M 77.7833,38.4313
77.7833,39.2285
77.7092,39.2285
77.6666,39.0757
77.6116,38.9315
77.5627,38.8438
77.4607,38.7327
77.3421,38.6570
77.1984,38.6243
77.0681,38.6189
76.8600,38.6189
76.8600,40.7761
76.8652,40.9307
76.8835,41.0266
76.9765,41.1138
77.1218,41.1499
77.1648,41.1512
77.2579,41.1512
77.2579,41.2450
75.7946,41.2450
75.7946,41.1512
75.8877,41.1512
76.0379,41.1304
76.0833,41.1109
76.1676,41.0186
76.1889,40.8649
76.1903,40.7761
76.1903,38.6189
75.9881,38.6189
75.8416,38.6286
75.6955,38.6667
75.5777,38.7413
75.4788,38.8622
75.4117,38.9954
75.3653,39.1517
75.3513,39.2285
75.2729,39.2285
75.2729,38.4313
Z" /> 
<path style="fill:#000000; fill-opacity:1.0000; stroke:none;fill-rule:evenodd;"
d="M 78.7404,39.2879
78.8874,39.3255
79.0274,39.3881
79.0545,39.4037
79.1795,39.4943
79.2841,39.6060
79.3684,39.7387
79.3828,39.7678
79.4373,39.9041
79.4740,40.0474
79.4929,40.1978
79.4956,40.2844
79.4883,40.4317
79.4613,40.5917
79.4144,40.7391
79.3475,40.8737
79.2875,40.9622
79.1865,41.0742
79.0517,41.1757
78.8984,41.2455
78.7524,41.2803
78.5929,41.2919
78.4367,41.2813
78.2723,41.2422
78.1270,41.1743
78.0009,41.0775
77.9225,40.9907
77.8311,40.8544
77.7622,40.7089
77.7157,40.5541
77.7001,40.4478
78.2918,40.4478
78.2951,40.5945
78.3065,40.7469
78.3203,40.8559
78.3621,40.9965
78.4171,41.0757
78.5459,41.1476
78.5863,41.1512
78.7291,41.1091
78.7409,41.0999
78.8265,40.9789
78.8486,40.9065
78.8703,40.7469
78.8807,40.5893
78.8864,40.4240
78.8890,40.2650
78.8897,40.1239
78.8872,39.9642
78.8785,39.8169
78.8549,39.6647
78.8501,39.6477
78.7870,39.5130
78.7351,39.4586
78.5951,39.4161
78.4537,39.4602
78.4141,39.4945
78.3460,39.6312
78.3184,39.7761
78.3152,39.8045
78.3028,39.9668
78.2963,40.1220
78.2929,40.2763
78.2918,40.4478
77.7001,40.4478
77.6917,40.3902
77.6880,40.2925
77.6964,40.1428
77.7275,39.9775
77.7816,39.8223
77.8586,39.6771
77.9276,39.5795
78.0413,39.4610
78.1720,39.3716
78.3197,39.3114
78.4845,39.2802
78.5863,39.2754
Z" /> 
<path style="fill:#000000; fill-opacity:1.0000; stroke:none;fill-rule:evenodd;"
d="M 81.2095,39.2941
81.3525,39.3500
81.4418,39.4080
81.5518,39.5107
81.6421,39.6372
81.7070,39.7729
81.7549,39.9221
81.7851,40.0782
81.7971,40.2248
81.7979,40.2749
81.7905,40.4333
81.7682,40.5839
81.7311,40.7266
81.7041,40.8024
81.6372,40.9406
81.5444,41.0670
81.4315,41.1666
81.2923,41.2430
81.1418,41.2841
81.0351,41.2919
80.8818,41.2743
80.7383,41.2216
80.6127,41.1312
80.5222,41.0384
80.5222,41.7139
80.5296,41.8612
80.5456,41.9308
80.6189,42.0151
80.7703,42.0415
80.8131,42.0422
80.8131,42.1360
79.7147,42.1360
79.7147,42.0422
79.8592,42.0050
79.9045,41.9675
79.9423,41.8167
79.9455,41.7139
79.9455,39.8220
80.5222,39.8220
80.5222,40.8904
80.6238,41.0165
80.7413,41.1082
80.8884,41.1510
80.9010,41.1512
81.0411,41.0884
81.0849,41.0296
81.1413,40.8852
81.1714,40.7241
81.1852,40.5766
81.1915,40.4063
81.1919,40.3445
81.1890,40.1906
81.1781,40.0270
81.1548,39.8653
81.1145,39.7189
81.0747,39.6359
80.9627,39.5307
80.8644,39.5099
80.7187,39.5538
80.6132,39.6574
80.5392,39.7842
80.5222,39.8220
79.9455,39.8220
79.9455,39.7444
79.9364,39.5927
79.8979,39.4813
79.7627,39.4209
79.7147,39.4161
79.7147,39.3223
80.5222,39.3223
80.5222,39.5758
80.6178,39.4551
80.7281,39.3619
80.8651,39.3028
81.0119,39.2768
81.0556,39.2754
Z" /> 
<path style="fill:#000000; fill-opacity:1.0000; stroke:none;fill-rule:evenodd;"
d="M 85.9480,38.4313
85.9480,38.5251
85.8039,38.5766
85.6837,38.6744
85.6762,38.6826
85.5916,38.8075
85.5168,38.9461
85.4496,39.0834
85.4183,39.1501
84.4555,41.2919
84.3881,41.2919
83.4297,39.0659
83.3688,38.9318
83.3001,38.7880
83.2288,38.6557
83.1974,38.6108
83.0676,38.5410
82.9761,38.5251
82.9761,38.4313
84.3155,38.4313
84.3155,38.5251
84.2701,38.5251
84.1179,38.5357
84.0232,38.5676
83.9755,38.6526
83.9917,38.7354
84.0472,38.8784
84.1030,39.0182
84.6987,40.3950
85.2512,39.1699
85.3102,39.0248
85.3639,38.8840
85.3729,38.8570
85.3956,38.7325
85.3626,38.6277
85.2659,38.5588
85.1166,38.5284
85.0307,38.5251
85.0307,38.4313
Z" /> 
<path style="fill:#000000; fill-opacity:1.0000; stroke:none;fill-rule:evenodd;"
d="M 86.4243,38.3844
86.5688,38.4136
86.6507,38.4672
86.7328,38.5904
86.7438,38.6665
86.6995,38.8104
86.6500,38.8651
86.5179,38.9356
86.4243,38.9472
86.2746,38.9151
86.1994,38.8651
86.1180,38.7426
86.1070,38.6665
86.1507,38.5223
86.1994,38.4672
86.3309,38.3961
Z" /> 
<path style="fill:#000000; fill-opacity:1.0000; stroke:none;fill-rule:evenodd;"
d="M 86.7130,39.3223
86.7130,40.8229
86.7220,40.9746
86.7599,41.0860
86.8968,41.1465
86.9453,41.1512
86.9453,41.2450
85.9048,41.2450
85.9048,41.1512
86.0493,41.1140
86.0946,41.0765
86.1324,40.9262
86.1356,40.8229
86.1356,39.7444
86.1265,39.5927
86.0880,39.4813
85.9528,39.4209
85.9048,39.4161
85.9048,39.3223
Z" /> 
<path style="fill:#000000; fill-opacity:1.0000; stroke:none;fill-rule:evenodd;"
d="M 88.1781,39.2941
88.3244,39.3503
88.4582,39.4439
88.5273,39.5121
88.6226,39.6447
88.6856,39.7840
88.7296,39.9452
88.7522,40.1007
88.7595,40.2133
87.7022,40.2133
87.7182,40.3678
87.7561,40.5262
87.8148,40.6654
87.9059,40.7988
88.0206,40.8992
88.1633,40.9557
88.2481,40.9636
88.3940,40.9359
88.4730,40.8926
88.5844,40.7842
88.6749,40.6581
88.6892,40.6354
88.7595,40.6823
88.6893,40.8185
88.6053,40.9515
88.5058,41.0720
88.4129,41.1534
88.2758,41.2323
88.1243,41.2784
87.9740,41.2919
87.8206,41.2805
87.6601,41.2382
87.5195,41.1648
87.3988,41.0603
87.3248,40.9666
87.2473,40.8272
87.1919,40.6722
87.1615,40.5237
87.1482,40.3632
87.1475,40.3152
87.1567,40.1434
87.1811,40.0030
87.6919,40.0030
87.6919,40.0726
88.2525,40.0726
88.2502,39.9251
88.2411,39.7759
88.2166,39.6330
88.1521,39.5012
88.1045,39.4520
87.9887,39.4161
87.8501,39.4730
87.8136,39.5172
87.7443,39.6546
87.7063,39.8064
87.6924,39.9650
87.6919,40.0030
87.1811,40.0030
87.1842,39.9854
87.2301,39.8410
87.3067,39.6900
87.4084,39.5575
87.5268,39.4476
87.6537,39.3647
87.7892,39.3088
87.9333,39.2798
88.0195,39.2754
Z" /> 
<path style="fill:#000000; fill-opacity:1.0000; stroke:none;fill-rule:evenodd;"
d="M 90.9013,41.2919
90.3737,39.8836
89.8564,41.2919
89.7494,41.2919
89.2365,39.9092
89.1809,39.7685
89.1176,39.6304
89.0409,39.5077
88.9155,39.4257
88.8841,39.4161
88.8841,39.3223
89.8564,39.3223
89.8564,39.4161
89.7201,39.4432
89.6835,39.5048
89.7304,39.6525
89.7494,39.7004
90.0315,40.4471
90.3041,39.7004
90.2836,39.6455
90.2120,39.5116
90.1752,39.4689
90.0376,39.4170
90.0315,39.4161
90.0315,39.3223
91.0193,39.3223
91.0193,39.4161
90.8747,39.4447
90.8727,39.4462
90.8419,39.5143
90.8842,39.6578
90.9013,39.7004
91.1739,40.4471
91.4208,39.7598
91.4668,39.6197
91.4743,39.5692
91.4347,39.4593
91.2900,39.4166
91.2830,39.4161
91.2830,39.3223
91.8538,39.3223
91.8538,39.4161
91.7137,39.4705
91.7029,39.4799
91.6251,39.6088
91.5695,39.7448
91.5585,39.7744
91.0193,41.2919
Z" /> 
</g></g>
<g style="fill:none; 
stroke:#000000; stroke-width:0.4000; stroke-opacity:1; 
stroke-linecap:round; stroke-linejoin:round;">
<text x="213.5000" y="41.5000"
textLength="23.1982" font-size="4.0000" lengthAdjust="spacingAndGlyphs"
text-anchor="middle" opacity="0" stroke-opacity="0">Bottom View</text>
<g class="stroked-text"><desc>Bottom View</desc>
<path style="fill:#000000; fill-opacity:1.0000; stroke:none;fill-rule:evenodd;"
d="M 203.4991,38.4343
203.6496,38.4434
203.8002,38.4615
203.9546,38.4970
204.0090,38.5171
204.1470,38.5932
204.2612,38.6930
204.3240,38.7728
204.3946,38.9034
204.4343,39.0518
204.4398,39.1347
204.4192,39.2802
204.3574,39.4134
204.2933,39.4952
204.1666,39.5959
204.0237,39.6670
203.8670,39.7216
203.7782,39.7458
203.9409,39.7888
204.0809,39.8355
204.2275,39.9011
204.3365,39.9730
204.4481,40.0887
204.5231,40.2222
204.5617,40.3736
204.5673,40.4654
204.5515,40.6179
204.5039,40.7566
204.4247,40.8817
204.3138,40.9929
204.1871,41.0786
204.0407,41.1465
203.8744,41.1968
203.7208,41.2251
203.5534,41.2411
203.4096,41.2450
201.9896,41.2450
201.9896,41.1512
202.1435,41.1441
202.2519,41.1190
202.3493,41.0340
202.3745,40.8894
202.3749,40.8720
203.0264,40.8720
203.0608,41.0174
203.0828,41.0457
203.2238,41.1034
203.2506,41.1043
203.3995,41.0881
203.5460,41.0349
203.5547,41.0303
203.6776,40.9398
203.7679,40.8164
203.8210,40.6774
203.8416,40.5242
203.8419,40.5027
203.8269,40.3488
203.7819,40.2083
203.7510,40.1481
203.6590,40.0257
203.5406,39.9341
203.5019,39.9136
203.3611,39.8666
203.2098,39.8446
203.0474,39.8381
203.0278,39.8382
203.0278,40.7651
203.0264,40.8720
202.3749,40.8720
202.3772,40.7761
202.3772,39.6975
203.0278,39.6975
203.1805,39.6921
203.3341,39.6711
203.4602,39.6301
203.5831,39.5489
203.6734,39.4403
203.7289,39.3011
203.7471,39.1516
203.7474,39.1281
203.7334,38.9758
203.6830,38.8336
203.6741,38.8182
203.5785,38.7055
203.4646,38.6336
203.3142,38.5904
203.1681,38.5750
203.0278,38.5720
203.0278,39.6975
202.3772,39.6975
202.3772,38.9003
202.3719,38.7499
202.3493,38.6423
202.2512,38.5574
202.1071,38.5289
201.9896,38.5251
201.9896,38.4313
203.3290,38.4313
Z" /> 
<path style="fill:#000000; fill-opacity:1.0000; stroke:none;fill-rule:evenodd;"
d="M 205.9047,39.2879
206.0517,39.3255
206.1917,39.3881
206.2189,39.4037
206.3438,39.4943
206.4484,39.6060
206.5327,39.7387
206.5471,39.7678
206.6017,39.9041
206.6384,40.0474
206.6572,40.1978
206.6600,40.2844
206.6527,40.4317
206.6256,40.5917
206.5787,40.7391
206.5118,40.8737
206.4519,40.9622
206.3509,41.0742
206.2160,41.1757
206.0627,41.2455
205.9167,41.2803
205.7573,41.2919
205.6011,41.2813
205.4366,41.2422
205.2913,41.1743
205.1652,41.0775
205.0868,40.9907
204.9954,40.8544
204.9265,40.7089
204.8800,40.5541
204.8644,40.4478
205.4561,40.4478
205.4595,40.5945
205.4709,40.7469
205.4847,40.8559
205.5265,40.9965
205.5814,41.0757
205.7103,41.1476
205.7507,41.1512
205.8935,41.1091
205.9053,41.0999
205.9908,40.9789
206.0130,40.9065
206.0346,40.7469
206.0450,40.5893
206.0508,40.4240
206.0534,40.2650
206.0540,40.1239
206.0515,39.9642
206.0428,39.8169
206.0192,39.6647
206.0144,39.6477
205.9513,39.5130
205.8994,39.4586
205.7595,39.4161
205.6181,39.4602
205.5785,39.4945
205.5104,39.6312
205.4828,39.7761
205.4796,39.8045
205.4672,39.9668
205.4606,40.1220
205.4572,40.2763
205.4561,40.4478
204.8644,40.4478
204.8560,40.3902
204.8523,40.2925
204.8608,40.1428
204.8919,39.9775
204.9459,39.8223
205.0229,39.6771
205.0919,39.5795
205.2056,39.4610
205.3363,39.3716
205.4841,39.3114
205.6488,39.2802
205.7507,39.2754
Z" /> 
<path style="fill:#000000; fill-opacity:1.0000; stroke:none;fill-rule:evenodd;"
d="M 207.7056,38.6189
207.7056,39.3223
208.1628,39.3223
208.1628,39.5099
207.7056,39.5099
207.7056,40.6896
207.7105,40.8388
207.7210,40.9035
207.7752,40.9812
207.8477,41.0105
207.9861,40.9576
208.0863,40.8457
208.1013,40.8229
208.1628,40.8713
208.0928,41.0142
207.9927,41.1436
207.8727,41.2327
207.7327,41.2816
207.6206,41.2919
207.4711,41.2720
207.3349,41.2064
207.3106,41.1878
207.2068,41.0779
207.1487,40.9563
207.1321,40.7988
207.1285,40.6450
207.1282,40.5702
207.1282,39.5099
206.8769,39.5099
206.8769,39.4388
207.0018,39.3479
207.1170,39.2547
207.2352,39.1471
207.3187,39.0615
207.4177,38.9465
207.5094,38.8241
207.5937,38.6942
207.6374,38.6189
Z" /> 
<path style="fill:#000000; fill-opacity:1.0000; stroke:none;fill-rule:evenodd;"
d="M 209.1036,38.6189
209.1036,39.3223
209.5609,39.3223
209.5609,39.5099
209.1036,39.5099
209.1036,40.6896
209.1085,40.8388
209.1190,40.9035
209.1732,40.9812
209.2458,41.0105
209.3841,40.9576
209.4843,40.8457
209.4993,40.8229
209.5609,40.8713
209.4909,41.0142
209.3908,41.1436
209.2707,41.2327
209.1308,41.2816
209.0186,41.2919
208.8691,41.2720
208.7330,41.2064
208.7087,41.1878
208.6048,41.0779
208.5468,40.9563
208.5302,40.7988
208.5266,40.6450
208.5262,40.5702
208.5262,39.5099
208.2749,39.5099
208.2749,39.4388
208.3998,39.3479
208.5151,39.2547
208.6332,39.1471
208.7167,39.0615
208.8157,38.9465
208.9074,38.8241
208.9918,38.6942
209.0355,38.6189
Z" /> 
<path style="fill:#000000; fill-opacity:1.0000; stroke:none;fill-rule:evenodd;"
d="M 210.7993,39.2879
210.9463,39.3255
211.0863,39.3881
211.1135,39.4037
211.2384,39.4943
211.3431,39.6060
211.4273,39.7387
211.4418,39.7678
211.4963,39.9041
211.5330,40.0474
211.5519,40.1978
211.5546,40.2844
211.5473,40.4317
211.5203,40.5917
211.4733,40.7391
211.4065,40.8737
211.3465,40.9622
211.2455,41.0742
211.1106,41.1757
210.9574,41.2455
210.8114,41.2803
210.6519,41.2919
210.4957,41.2813
210.3313,41.2422
210.1860,41.1743
210.0598,41.0775
209.9814,40.9907
209.8901,40.8544
209.8212,40.7089
209.7747,40.5541
209.7591,40.4478
210.3507,40.4478
210.3541,40.5945
210.3655,40.7469
210.3793,40.8559
210.4211,40.9965
210.4760,41.0757
210.6049,41.1476
210.6453,41.1512
210.7881,41.1091
210.7999,41.0999
210.8854,40.9789
210.9076,40.9065
210.9292,40.7469
210.9396,40.5893
210.9454,40.4240
210.9480,40.2650
210.9486,40.1239
210.9462,39.9642
210.9375,39.8169
210.9139,39.6647
210.9091,39.6477
210.8459,39.5130
210.7940,39.4586
210.6541,39.4161
210.5127,39.4602
210.4731,39.4945
210.4050,39.6312
210.3774,39.7761
210.3742,39.8045
210.3618,39.9668
210.3552,40.1220
210.3519,40.2763
210.3507,40.4478
209.7591,40.4478
209.7506,40.3902
209.7470,40.2925
209.7554,40.1428
209.7865,39.9775
209.8406,39.8223
209.9175,39.6771
209.9866,39.5795
210.1002,39.4610
210.2309,39.3716
210.3787,39.3114
210.5435,39.2802
210.6453,39.2754
Z" /> 
<path style="fill:#000000; fill-opacity:1.0000; stroke:none;fill-rule:evenodd;"
d="M 212.6346,39.3223
212.6346,39.5971
212.7411,39.4869
212.8595,39.3895
212.9285,39.3472
213.0699,39.2934
213.2245,39.2754
213.3752,39.2925
213.5111,39.3488
213.5352,39.3648
213.6406,39.4685
213.7161,39.6025
213.7293,39.6359
213.8310,39.5272
213.9495,39.4238
214.0451,39.3604
214.1804,39.3023
214.3309,39.2762
214.3617,39.2754
214.5107,39.2904
214.6489,39.3450
214.6797,39.3663
214.7853,39.4767
214.8446,39.5971
214.8766,39.7507
214.8885,39.8995
214.8915,40.0419
214.8915,40.8229
214.8992,40.9770
214.9318,41.0853
215.0690,41.1468
215.0995,41.1512
215.0995,41.2450
214.1045,41.2450
214.1045,41.1512
214.2457,41.0994
214.2774,41.0655
214.3118,40.9189
214.3148,40.8229
214.3148,40.0125
214.3124,39.8610
214.2991,39.7123
214.2943,39.6923
214.2291,39.5905
214.1250,39.5568
213.9795,39.5994
213.9455,39.6213
213.8317,39.7259
213.7623,39.8125
213.7623,40.8229
213.7700,40.9757
213.7975,41.0713
213.9313,41.1459
213.9785,41.1512
213.9785,41.2450
212.9812,41.2450
212.9812,41.1512
213.1080,41.1131
213.1695,41.0310
213.1844,40.8792
213.1849,40.8229
213.1849,40.0140
213.1825,39.8608
213.1692,39.7129
213.1644,39.6938
213.0955,39.5934
212.9915,39.5568
212.8491,39.5941
212.8405,39.5993
212.7278,39.6974
212.6346,39.8125
212.6346,40.8229
212.6435,40.9753
212.6749,41.0779
212.8050,41.1463
212.8427,41.1512
212.8427,41.2450
211.8499,41.2450
211.8499,41.1512
211.9928,41.1052
212.0228,41.0772
212.0552,40.9284
212.0580,40.8229
212.0580,39.7444
212.0503,39.5913
212.0177,39.4835
211.8804,39.4207
211.8499,39.4161
211.8499,39.3223
Z" /> 
<path style="fill:#000000; fill-opacity:1.0000; stroke:none;fill-rule:evenodd;"
d="M 219.1677,38.4313
219.1677,38.5251
219.0235,38.5766
218.9033,38.6744
218.8958,38.6826
218.8112,38.8075
218.7364,38.9461
218.6692,39.0834
218.6379,39.1501
217.6751,41.2919
217.6077,41.2919
216.6493,39.0659
216.5884,38.9318
216.5197,38.7880
216.4484,38.6557
216.4170,38.6108
216.2872,38.5410
216.1957,38.5251
216.1957,38.4313
217.5351,38.4313
217.5351,38.5251
217.4897,38.5251
217.3375,38.5357
217.2428,38.5676
217.1951,38.6526
217.2113,38.7354
217.2668,38.8784
217.3226,39.0182
217.9184,40.3950
218.4708,39.1699
218.5298,39.0248
218.5835,38.8840
218.5925,38.8570
218.6152,38.7325
218.5822,38.6277
218.4855,38.5588
218.3362,38.5284
218.2503,38.5251
218.2503,38.4313
Z" /> 
<path style="fill:#000000; fill-opacity:1.0000; stroke:none;fill-rule:evenodd;"
d="M 219.6439,38.3844
219.7884,38.4136
219.8703,38.4672
219.9524,38.5904
219.9634,38.6665
219.9191,38.8104
219.8696,38.8651
219.7375,38.9356
219.6439,38.9472
219.4942,38.9151
219.4190,38.8651
219.3376,38.7426
219.3267,38.6665
219.3703,38.5223
219.4190,38.4672
219.5505,38.3961
Z" /> 
<path style="fill:#000000; fill-opacity:1.0000; stroke:none;fill-rule:evenodd;"
d="M 219.9326,39.3223
219.9326,40.8229
219.9416,40.9746
219.9795,41.0860
220.1164,41.1465
220.1649,41.1512
220.1649,41.2450
219.1244,41.2450
219.1244,41.1512
219.2689,41.1140
219.3142,41.0765
219.3520,40.9262
219.3552,40.8229
219.3552,39.7444
219.3461,39.5927
219.3076,39.4813
219.1724,39.4209
219.1244,39.4161
219.1244,39.3223
Z" /> 
<path style="fill:#000000; fill-opacity:1.0000; stroke:none;fill-rule:evenodd;"
d="M 221.3977,39.2941
221.5440,39.3503
221.6779,39.4439
221.7469,39.5121
221.8422,39.6447
221.9052,39.7840
221.9492,39.9452
221.9718,40.1007
221.9791,40.2133
220.9218,40.2133
220.9378,40.3678
220.9757,40.5262
221.0344,40.6654
221.1255,40.7988
221.2403,40.8992
221.3829,40.9557
221.4677,40.9636
221.6136,40.9359
221.6926,40.8926
221.8040,40.7842
221.8945,40.6581
221.9088,40.6354
221.9791,40.6823
221.9090,40.8185
221.8249,40.9515
221.7254,41.0720
221.6326,41.1534
221.4954,41.2323
221.3439,41.2784
221.1936,41.2919
221.0402,41.2805
220.8797,41.2382
220.7391,41.1648
220.6185,41.0603
220.5445,40.9666
220.4669,40.8272
220.4115,40.6722
220.3812,40.5237
220.3678,40.3632
220.3671,40.3152
220.3763,40.1434
220.4007,40.0030
220.9115,40.0030
220.9115,40.0726
221.4721,40.0726
221.4698,39.9251
221.4607,39.7759
221.4362,39.6330
221.3717,39.5012
221.3241,39.4520
221.2083,39.4161
221.0697,39.4730
221.0332,39.5172
220.9639,39.6546
220.9259,39.8064
220.9120,39.9650
220.9115,40.0030
220.4007,40.0030
220.4038,39.9854
220.4497,39.8410
220.5263,39.6900
220.6280,39.5575
220.7464,39.4476
220.8733,39.3647
221.0088,39.3088
221.1529,39.2798
221.2391,39.2754
Z" /> 
<path style="fill:#000000; fill-opacity:1.0000; stroke:none;fill-rule:evenodd;"
d="M 224.1209,41.2919
223.5933,39.8836
223.0760,41.2919
222.9691,41.2919
222.4561,39.9092
222.4005,39.7685
222.3373,39.6304
222.2605,39.5077
222.1352,39.4257
222.1037,39.4161
222.1037,39.3223
223.0760,39.3223
223.0760,39.4161
222.9397,39.4432
222.9031,39.5048
222.9501,39.6525
222.9691,39.7004
223.2512,40.4471
223.5237,39.7004
223.5032,39.6455
223.4317,39.5116
223.3948,39.4689
223.2572,39.4170
223.2512,39.4161
223.2512,39.3223
224.2389,39.3223
224.2389,39.4161
224.0943,39.4447
224.0923,39.4462
224.0615,39.5143
224.1038,39.6578
224.1209,39.7004
224.3935,40.4471
224.6404,39.7598
224.6864,39.6197
224.6939,39.5692
224.6543,39.4593
224.5096,39.4166
224.5027,39.4161
224.5027,39.3223
225.0734,39.3223
225.0734,39.4161
224.9333,39.4705
224.9225,39.4799
224.8448,39.6088
224.7891,39.7448
224.7782,39.7744
224.2389,41.2919
Z" /> 
</g></g> 
</svg>
