<?xml version="1.0" standalone="no"?>
 <!DOCTYPE svg PUBLIC "-//W3C//DTD SVG 1.1//EN" 
 "http://www.w3.org/Graphics/SVG/1.1/DTD/svg11.dtd"> 
<svg
  xmlns:svg="http://www.w3.org/2000/svg"
  xmlns="http://www.w3.org/2000/svg"
  xmlns:xlink="http://www.w3.org/1999/xlink"
  version="1.1"
  width="297.0022mm" height="210.0072mm" viewBox="0.0000 0.0000 297.0022 210.0072">
<title>SVG Image created as amulet_controller-F_Silkscreen.svg date 2025/01/18 17:12:59 </title>
  <desc>Image generated by PCBNEW </desc>
<g style="fill:#000000; fill-opacity:1.0000;stroke:#000000; stroke-opacity:1.0000;
stroke-linecap:round; stroke-linejoin:round;"
 transform="translate(0 0) scale(1 1)">
</g>
<g style="fill:none; 
stroke:#000000; stroke-width:0.1500; stroke-opacity:1; 
stroke-linecap:round; stroke-linejoin:round;">
<path d="M10.0000 10.0000
L287.0022 10.0000
L287.0022 200.0072
L10.0000 200.0072
L10.0000 10.0000
" />
</g>
<g style="fill:none; 
stroke:#000000; stroke-width:0.1500; stroke-opacity:1; 
stroke-linecap:round; stroke-linejoin:round;">
<path d="M12.0000 12.0000
L285.0022 12.0000
L285.0022 198.0072
L12.0000 198.0072
L12.0000 12.0000
" />
</g>
<g style="fill:none; 
stroke:#000000; stroke-width:0.1500; stroke-opacity:1; 
stroke-linecap:round; stroke-linejoin:round;">
<path d="M60.0000 12.0000
L60.0000 10.0000
" />
</g>
<g style="fill:none; 
stroke:#000000; stroke-width:0.1500; stroke-opacity:1; 
stroke-linecap:round; stroke-linejoin:round;">
<path d="M110.0000 12.0000
L110.0000 10.0000
" />
</g>
<g style="fill:none; 
stroke:#000000; stroke-width:0.1500; stroke-opacity:1; 
stroke-linecap:round; stroke-linejoin:round;">
<path d="M160.0000 12.0000
L160.0000 10.0000
" />
</g>
<g style="fill:none; 
stroke:#000000; stroke-width:0.1500; stroke-opacity:1; 
stroke-linecap:round; stroke-linejoin:round;">
<path d="M210.0000 12.0000
L210.0000 10.0000
" />
</g>
<g style="fill:none; 
stroke:#000000; stroke-width:0.1500; stroke-opacity:1; 
stroke-linecap:round; stroke-linejoin:round;">
<path d="M260.0000 12.0000
L260.0000 10.0000
" />
</g>
<g style="fill:none; 
stroke:#000000; stroke-width:0.1500; stroke-opacity:1; 
stroke-linecap:round; stroke-linejoin:round;">
<text x="35.0000" y="11.6500"
textLength="1.4281" font-size="1.7333" lengthAdjust="spacingAndGlyphs"
text-anchor="start" opacity="0" stroke-opacity="0">1</text>
<g class="stroked-text"><desc>1</desc>
<path d="M36.0892 11.5936
L35.3463 11.5936
" />
<path d="M35.7177 11.5936
L35.7177 10.2936
" />
<path d="M35.7177 10.2936
L35.5939 10.4793
" />
<path d="M35.5939 10.4793
L35.4701 10.6031
" />
<path d="M35.4701 10.6031
L35.3463 10.6650
" />
</g></g>
<g style="fill:none; 
stroke:#000000; stroke-width:0.1500; stroke-opacity:1; 
stroke-linecap:round; stroke-linejoin:round;">
<text x="85.0000" y="11.6500"
textLength="1.4281" font-size="1.7333" lengthAdjust="spacingAndGlyphs"
text-anchor="start" opacity="0" stroke-opacity="0">2</text>
<g class="stroked-text"><desc>2</desc>
<path d="M85.3463 10.4174
L85.4082 10.3555
" />
<path d="M85.4082 10.3555
L85.5320 10.2936
" />
<path d="M85.5320 10.2936
L85.8415 10.2936
" />
<path d="M85.8415 10.2936
L85.9654 10.3555
" />
<path d="M85.9654 10.3555
L86.0273 10.4174
" />
<path d="M86.0273 10.4174
L86.0892 10.5412
" />
<path d="M86.0892 10.5412
L86.0892 10.6650
" />
<path d="M86.0892 10.6650
L86.0273 10.8507
" />
<path d="M86.0273 10.8507
L85.2844 11.5936
" />
<path d="M85.2844 11.5936
L86.0892 11.5936
" />
</g></g>
<g style="fill:none; 
stroke:#000000; stroke-width:0.1500; stroke-opacity:1; 
stroke-linecap:round; stroke-linejoin:round;">
<text x="135.0000" y="11.6500"
textLength="1.4281" font-size="1.7333" lengthAdjust="spacingAndGlyphs"
text-anchor="start" opacity="0" stroke-opacity="0">3</text>
<g class="stroked-text"><desc>3</desc>
<path d="M135.2844 10.2936
L136.0892 10.2936
" />
<path d="M136.0892 10.2936
L135.6558 10.7888
" />
<path d="M135.6558 10.7888
L135.8415 10.7888
" />
<path d="M135.8415 10.7888
L135.9654 10.8507
" />
<path d="M135.9654 10.8507
L136.0273 10.9127
" />
<path d="M136.0273 10.9127
L136.0892 11.0365
" />
<path d="M136.0892 11.0365
L136.0892 11.3460
" />
<path d="M136.0892 11.3460
L136.0273 11.4698
" />
<path d="M136.0273 11.4698
L135.9654 11.5317
" />
<path d="M135.9654 11.5317
L135.8415 11.5936
" />
<path d="M135.8415 11.5936
L135.4701 11.5936
" />
<path d="M135.4701 11.5936
L135.3463 11.5317
" />
<path d="M135.3463 11.5317
L135.2844 11.4698
" />
</g></g>
<g style="fill:none; 
stroke:#000000; stroke-width:0.1500; stroke-opacity:1; 
stroke-linecap:round; stroke-linejoin:round;">
<text x="185.0000" y="11.6500"
textLength="1.4281" font-size="1.7333" lengthAdjust="spacingAndGlyphs"
text-anchor="start" opacity="0" stroke-opacity="0">4</text>
<g class="stroked-text"><desc>4</desc>
<path d="M185.9654 10.7269
L185.9654 11.5936
" />
<path d="M185.6558 10.2317
L185.3463 11.1603
" />
<path d="M185.3463 11.1603
L186.1511 11.1603
" />
</g></g>
<g style="fill:none; 
stroke:#000000; stroke-width:0.1500; stroke-opacity:1; 
stroke-linecap:round; stroke-linejoin:round;">
<text x="235.0000" y="11.6500"
textLength="1.4281" font-size="1.7333" lengthAdjust="spacingAndGlyphs"
text-anchor="start" opacity="0" stroke-opacity="0">5</text>
<g class="stroked-text"><desc>5</desc>
<path d="M236.0273 10.2936
L235.4082 10.2936
" />
<path d="M235.4082 10.2936
L235.3463 10.9127
" />
<path d="M235.3463 10.9127
L235.4082 10.8507
" />
<path d="M235.4082 10.8507
L235.5320 10.7888
" />
<path d="M235.5320 10.7888
L235.8415 10.7888
" />
<path d="M235.8415 10.7888
L235.9654 10.8507
" />
<path d="M235.9654 10.8507
L236.0273 10.9127
" />
<path d="M236.0273 10.9127
L236.0892 11.0365
" />
<path d="M236.0892 11.0365
L236.0892 11.3460
" />
<path d="M236.0892 11.3460
L236.0273 11.4698
" />
<path d="M236.0273 11.4698
L235.9654 11.5317
" />
<path d="M235.9654 11.5317
L235.8415 11.5936
" />
<path d="M235.8415 11.5936
L235.5320 11.5936
" />
<path d="M235.5320 11.5936
L235.4082 11.5317
" />
<path d="M235.4082 11.5317
L235.3463 11.4698
" />
</g></g>
<g style="fill:none; 
stroke:#000000; stroke-width:0.1500; stroke-opacity:1; 
stroke-linecap:round; stroke-linejoin:round;">
<text x="285.0000" y="11.6500"
textLength="1.4281" font-size="1.7333" lengthAdjust="spacingAndGlyphs"
text-anchor="start" opacity="0" stroke-opacity="0">6</text>
<g class="stroked-text"><desc>6</desc>
<path d="M285.9654 10.2936
L285.7177 10.2936
" />
<path d="M285.7177 10.2936
L285.5939 10.3555
" />
<path d="M285.5939 10.3555
L285.5320 10.4174
" />
<path d="M285.5320 10.4174
L285.4082 10.6031
" />
<path d="M285.4082 10.6031
L285.3463 10.8507
" />
<path d="M285.3463 10.8507
L285.3463 11.3460
" />
<path d="M285.3463 11.3460
L285.4082 11.4698
" />
<path d="M285.4082 11.4698
L285.4701 11.5317
" />
<path d="M285.4701 11.5317
L285.5939 11.5936
" />
<path d="M285.5939 11.5936
L285.8415 11.5936
" />
<path d="M285.8415 11.5936
L285.9654 11.5317
" />
<path d="M285.9654 11.5317
L286.0273 11.4698
" />
<path d="M286.0273 11.4698
L286.0892 11.3460
" />
<path d="M286.0892 11.3460
L286.0892 11.0365
" />
<path d="M286.0892 11.0365
L286.0273 10.9127
" />
<path d="M286.0273 10.9127
L285.9654 10.8507
" />
<path d="M285.9654 10.8507
L285.8415 10.7888
" />
<path d="M285.8415 10.7888
L285.5939 10.7888
" />
<path d="M285.5939 10.7888
L285.4701 10.8507
" />
<path d="M285.4701 10.8507
L285.4082 10.9127
" />
<path d="M285.4082 10.9127
L285.3463 11.0365
" />
</g></g>
<g style="fill:none; 
stroke:#000000; stroke-width:0.1500; stroke-opacity:1; 
stroke-linecap:round; stroke-linejoin:round;">
<path d="M60.0000 198.0072
L60.0000 200.0072
" />
</g>
<g style="fill:none; 
stroke:#000000; stroke-width:0.1500; stroke-opacity:1; 
stroke-linecap:round; stroke-linejoin:round;">
<path d="M110.0000 198.0072
L110.0000 200.0072
" />
</g>
<g style="fill:none; 
stroke:#000000; stroke-width:0.1500; stroke-opacity:1; 
stroke-linecap:round; stroke-linejoin:round;">
<path d="M160.0000 198.0072
L160.0000 200.0072
" />
</g>
<g style="fill:none; 
stroke:#000000; stroke-width:0.1500; stroke-opacity:1; 
stroke-linecap:round; stroke-linejoin:round;">
<path d="M210.0000 198.0072
L210.0000 200.0072
" />
</g>
<g style="fill:none; 
stroke:#000000; stroke-width:0.1500; stroke-opacity:1; 
stroke-linecap:round; stroke-linejoin:round;">
<path d="M260.0000 198.0072
L260.0000 200.0072
" />
</g>
<g style="fill:none; 
stroke:#000000; stroke-width:0.1500; stroke-opacity:1; 
stroke-linecap:round; stroke-linejoin:round;">
<text x="35.0000" y="199.6572"
textLength="1.4281" font-size="1.7333" lengthAdjust="spacingAndGlyphs"
text-anchor="start" opacity="0" stroke-opacity="0">1</text>
<g class="stroked-text"><desc>1</desc>
<path d="M36.0892 199.6008
L35.3463 199.6008
" />
<path d="M35.7177 199.6008
L35.7177 198.3008
" />
<path d="M35.7177 198.3008
L35.5939 198.4865
" />
<path d="M35.5939 198.4865
L35.4701 198.6103
" />
<path d="M35.4701 198.6103
L35.3463 198.6722
" />
</g></g>
<g style="fill:none; 
stroke:#000000; stroke-width:0.1500; stroke-opacity:1; 
stroke-linecap:round; stroke-linejoin:round;">
<text x="85.0000" y="199.6572"
textLength="1.4281" font-size="1.7333" lengthAdjust="spacingAndGlyphs"
text-anchor="start" opacity="0" stroke-opacity="0">2</text>
<g class="stroked-text"><desc>2</desc>
<path d="M85.3463 198.4246
L85.4082 198.3627
" />
<path d="M85.4082 198.3627
L85.5320 198.3008
" />
<path d="M85.5320 198.3008
L85.8415 198.3008
" />
<path d="M85.8415 198.3008
L85.9654 198.3627
" />
<path d="M85.9654 198.3627
L86.0273 198.4246
" />
<path d="M86.0273 198.4246
L86.0892 198.5484
" />
<path d="M86.0892 198.5484
L86.0892 198.6722
" />
<path d="M86.0892 198.6722
L86.0273 198.8579
" />
<path d="M86.0273 198.8579
L85.2844 199.6008
" />
<path d="M85.2844 199.6008
L86.0892 199.6008
" />
</g></g>
<g style="fill:none; 
stroke:#000000; stroke-width:0.1500; stroke-opacity:1; 
stroke-linecap:round; stroke-linejoin:round;">
<text x="135.0000" y="199.6572"
textLength="1.4281" font-size="1.7333" lengthAdjust="spacingAndGlyphs"
text-anchor="start" opacity="0" stroke-opacity="0">3</text>
<g class="stroked-text"><desc>3</desc>
<path d="M135.2844 198.3008
L136.0892 198.3008
" />
<path d="M136.0892 198.3008
L135.6558 198.7960
" />
<path d="M135.6558 198.7960
L135.8415 198.7960
" />
<path d="M135.8415 198.7960
L135.9654 198.8579
" />
<path d="M135.9654 198.8579
L136.0273 198.9199
" />
<path d="M136.0273 198.9199
L136.0892 199.0437
" />
<path d="M136.0892 199.0437
L136.0892 199.3532
" />
<path d="M136.0892 199.3532
L136.0273 199.4770
" />
<path d="M136.0273 199.4770
L135.9654 199.5389
" />
<path d="M135.9654 199.5389
L135.8415 199.6008
" />
<path d="M135.8415 199.6008
L135.4701 199.6008
" />
<path d="M135.4701 199.6008
L135.3463 199.5389
" />
<path d="M135.3463 199.5389
L135.2844 199.4770
" />
</g></g>
<g style="fill:none; 
stroke:#000000; stroke-width:0.1500; stroke-opacity:1; 
stroke-linecap:round; stroke-linejoin:round;">
<text x="185.0000" y="199.6572"
textLength="1.4281" font-size="1.7333" lengthAdjust="spacingAndGlyphs"
text-anchor="start" opacity="0" stroke-opacity="0">4</text>
<g class="stroked-text"><desc>4</desc>
<path d="M185.9654 198.7341
L185.9654 199.6008
" />
<path d="M185.6558 198.2389
L185.3463 199.1675
" />
<path d="M185.3463 199.1675
L186.1511 199.1675
" />
</g></g>
<g style="fill:none; 
stroke:#000000; stroke-width:0.1500; stroke-opacity:1; 
stroke-linecap:round; stroke-linejoin:round;">
<text x="235.0000" y="199.6572"
textLength="1.4281" font-size="1.7333" lengthAdjust="spacingAndGlyphs"
text-anchor="start" opacity="0" stroke-opacity="0">5</text>
<g class="stroked-text"><desc>5</desc>
<path d="M236.0273 198.3008
L235.4082 198.3008
" />
<path d="M235.4082 198.3008
L235.3463 198.9199
" />
<path d="M235.3463 198.9199
L235.4082 198.8579
" />
<path d="M235.4082 198.8579
L235.5320 198.7960
" />
<path d="M235.5320 198.7960
L235.8415 198.7960
" />
<path d="M235.8415 198.7960
L235.9654 198.8579
" />
<path d="M235.9654 198.8579
L236.0273 198.9199
" />
<path d="M236.0273 198.9199
L236.0892 199.0437
" />
<path d="M236.0892 199.0437
L236.0892 199.3532
" />
<path d="M236.0892 199.3532
L236.0273 199.4770
" />
<path d="M236.0273 199.4770
L235.9654 199.5389
" />
<path d="M235.9654 199.5389
L235.8415 199.6008
" />
<path d="M235.8415 199.6008
L235.5320 199.6008
" />
<path d="M235.5320 199.6008
L235.4082 199.5389
" />
<path d="M235.4082 199.5389
L235.3463 199.4770
" />
</g></g>
<g style="fill:none; 
stroke:#000000; stroke-width:0.1500; stroke-opacity:1; 
stroke-linecap:round; stroke-linejoin:round;">
<text x="285.0000" y="199.6572"
textLength="1.4281" font-size="1.7333" lengthAdjust="spacingAndGlyphs"
text-anchor="start" opacity="0" stroke-opacity="0">6</text>
<g class="stroked-text"><desc>6</desc>
<path d="M285.9654 198.3008
L285.7177 198.3008
" />
<path d="M285.7177 198.3008
L285.5939 198.3627
" />
<path d="M285.5939 198.3627
L285.5320 198.4246
" />
<path d="M285.5320 198.4246
L285.4082 198.6103
" />
<path d="M285.4082 198.6103
L285.3463 198.8579
" />
<path d="M285.3463 198.8579
L285.3463 199.3532
" />
<path d="M285.3463 199.3532
L285.4082 199.4770
" />
<path d="M285.4082 199.4770
L285.4701 199.5389
" />
<path d="M285.4701 199.5389
L285.5939 199.6008
" />
<path d="M285.5939 199.6008
L285.8415 199.6008
" />
<path d="M285.8415 199.6008
L285.9654 199.5389
" />
<path d="M285.9654 199.5389
L286.0273 199.4770
" />
<path d="M286.0273 199.4770
L286.0892 199.3532
" />
<path d="M286.0892 199.3532
L286.0892 199.0437
" />
<path d="M286.0892 199.0437
L286.0273 198.9199
" />
<path d="M286.0273 198.9199
L285.9654 198.8579
" />
<path d="M285.9654 198.8579
L285.8415 198.7960
" />
<path d="M285.8415 198.7960
L285.5939 198.7960
" />
<path d="M285.5939 198.7960
L285.4701 198.8579
" />
<path d="M285.4701 198.8579
L285.4082 198.9199
" />
<path d="M285.4082 198.9199
L285.3463 199.0437
" />
</g></g>
<g style="fill:none; 
stroke:#000000; stroke-width:0.1500; stroke-opacity:1; 
stroke-linecap:round; stroke-linejoin:round;">
<path d="M10.0000 60.0000
L12.0000 60.0000
" />
</g>
<g style="fill:none; 
stroke:#000000; stroke-width:0.1500; stroke-opacity:1; 
stroke-linecap:round; stroke-linejoin:round;">
<path d="M10.0000 110.0000
L12.0000 110.0000
" />
</g>
<g style="fill:none; 
stroke:#000000; stroke-width:0.1500; stroke-opacity:1; 
stroke-linecap:round; stroke-linejoin:round;">
<path d="M10.0000 160.0000
L12.0000 160.0000
" />
</g>
<g style="fill:none; 
stroke:#000000; stroke-width:0.1500; stroke-opacity:1; 
stroke-linecap:round; stroke-linejoin:round;">
<text x="11.0000" y="35.6500"
textLength="1.3043" font-size="1.7333" lengthAdjust="spacingAndGlyphs"
text-anchor="middle" opacity="0" stroke-opacity="0">A</text>
<g class="stroked-text"><desc>A</desc>
<path d="M10.6905 35.2222
L11.3095 35.2222
" />
<path d="M10.5667 35.5936
L11.0000 34.2936
" />
<path d="M11.0000 34.2936
L11.4333 35.5936
" />
</g></g>
<g style="fill:none; 
stroke:#000000; stroke-width:0.1500; stroke-opacity:1; 
stroke-linecap:round; stroke-linejoin:round;">
<text x="11.0000" y="85.6500"
textLength="1.4900" font-size="1.7333" lengthAdjust="spacingAndGlyphs"
text-anchor="middle" opacity="0" stroke-opacity="0">B</text>
<g class="stroked-text"><desc>B</desc>
<path d="M11.0929 84.9127
L11.2786 84.9746
" />
<path d="M11.2786 84.9746
L11.3405 85.0365
" />
<path d="M11.3405 85.0365
L11.4024 85.1603
" />
<path d="M11.4024 85.1603
L11.4024 85.3460
" />
<path d="M11.4024 85.3460
L11.3405 85.4698
" />
<path d="M11.3405 85.4698
L11.2786 85.5317
" />
<path d="M11.2786 85.5317
L11.1548 85.5936
" />
<path d="M11.1548 85.5936
L10.6595 85.5936
" />
<path d="M10.6595 85.5936
L10.6595 84.2936
" />
<path d="M10.6595 84.2936
L11.0929 84.2936
" />
<path d="M11.0929 84.2936
L11.2167 84.3555
" />
<path d="M11.2167 84.3555
L11.2786 84.4174
" />
<path d="M11.2786 84.4174
L11.3405 84.5412
" />
<path d="M11.3405 84.5412
L11.3405 84.6650
" />
<path d="M11.3405 84.6650
L11.2786 84.7888
" />
<path d="M11.2786 84.7888
L11.2167 84.8507
" />
<path d="M11.2167 84.8507
L11.0929 84.9127
" />
<path d="M11.0929 84.9127
L10.6595 84.9127
" />
</g></g>
<g style="fill:none; 
stroke:#000000; stroke-width:0.1500; stroke-opacity:1; 
stroke-linecap:round; stroke-linejoin:round;">
<text x="11.0000" y="135.6500"
textLength="1.4900" font-size="1.7333" lengthAdjust="spacingAndGlyphs"
text-anchor="middle" opacity="0" stroke-opacity="0">C</text>
<g class="stroked-text"><desc>C</desc>
<path d="M11.4024 135.4698
L11.3405 135.5317
" />
<path d="M11.3405 135.5317
L11.1548 135.5936
" />
<path d="M11.1548 135.5936
L11.0310 135.5936
" />
<path d="M11.0310 135.5936
L10.8452 135.5317
" />
<path d="M10.8452 135.5317
L10.7214 135.4079
" />
<path d="M10.7214 135.4079
L10.6595 135.2841
" />
<path d="M10.6595 135.2841
L10.5976 135.0365
" />
<path d="M10.5976 135.0365
L10.5976 134.8507
" />
<path d="M10.5976 134.8507
L10.6595 134.6031
" />
<path d="M10.6595 134.6031
L10.7214 134.4793
" />
<path d="M10.7214 134.4793
L10.8452 134.3555
" />
<path d="M10.8452 134.3555
L11.0310 134.2936
" />
<path d="M11.0310 134.2936
L11.1548 134.2936
" />
<path d="M11.1548 134.2936
L11.3405 134.3555
" />
<path d="M11.3405 134.3555
L11.4024 134.4174
" />
</g></g>
<g style="fill:none; 
stroke:#000000; stroke-width:0.1500; stroke-opacity:1; 
stroke-linecap:round; stroke-linejoin:round;">
<text x="11.0000" y="185.6500"
textLength="1.4900" font-size="1.7333" lengthAdjust="spacingAndGlyphs"
text-anchor="middle" opacity="0" stroke-opacity="0">D</text>
<g class="stroked-text"><desc>D</desc>
<path d="M10.6595 185.5936
L10.6595 184.2936
" />
<path d="M10.6595 184.2936
L10.9690 184.2936
" />
<path d="M10.9690 184.2936
L11.1548 184.3555
" />
<path d="M11.1548 184.3555
L11.2786 184.4793
" />
<path d="M11.2786 184.4793
L11.3405 184.6031
" />
<path d="M11.3405 184.6031
L11.4024 184.8507
" />
<path d="M11.4024 184.8507
L11.4024 185.0365
" />
<path d="M11.4024 185.0365
L11.3405 185.2841
" />
<path d="M11.3405 185.2841
L11.2786 185.4079
" />
<path d="M11.2786 185.4079
L11.1548 185.5317
" />
<path d="M11.1548 185.5317
L10.9690 185.5936
" />
<path d="M10.9690 185.5936
L10.6595 185.5936
" />
</g></g>
<g style="fill:none; 
stroke:#000000; stroke-width:0.1500; stroke-opacity:1; 
stroke-linecap:round; stroke-linejoin:round;">
<path d="M287.0022 60.0000
L285.0022 60.0000
" />
</g>
<g style="fill:none; 
stroke:#000000; stroke-width:0.1500; stroke-opacity:1; 
stroke-linecap:round; stroke-linejoin:round;">
<path d="M287.0022 110.0000
L285.0022 110.0000
" />
</g>
<g style="fill:none; 
stroke:#000000; stroke-width:0.1500; stroke-opacity:1; 
stroke-linecap:round; stroke-linejoin:round;">
<path d="M287.0022 160.0000
L285.0022 160.0000
" />
</g>
<g style="fill:none; 
stroke:#000000; stroke-width:0.1500; stroke-opacity:1; 
stroke-linecap:round; stroke-linejoin:round;">
<text x="286.0022" y="35.6500"
textLength="1.3043" font-size="1.7333" lengthAdjust="spacingAndGlyphs"
text-anchor="middle" opacity="0" stroke-opacity="0">A</text>
<g class="stroked-text"><desc>A</desc>
<path d="M285.6927 35.2222
L286.3117 35.2222
" />
<path d="M285.5689 35.5936
L286.0022 34.2936
" />
<path d="M286.0022 34.2936
L286.4355 35.5936
" />
</g></g>
<g style="fill:none; 
stroke:#000000; stroke-width:0.1500; stroke-opacity:1; 
stroke-linecap:round; stroke-linejoin:round;">
<text x="286.0022" y="85.6500"
textLength="1.4900" font-size="1.7333" lengthAdjust="spacingAndGlyphs"
text-anchor="middle" opacity="0" stroke-opacity="0">B</text>
<g class="stroked-text"><desc>B</desc>
<path d="M286.0951 84.9127
L286.2808 84.9746
" />
<path d="M286.2808 84.9746
L286.3427 85.0365
" />
<path d="M286.3427 85.0365
L286.4046 85.1603
" />
<path d="M286.4046 85.1603
L286.4046 85.3460
" />
<path d="M286.4046 85.3460
L286.3427 85.4698
" />
<path d="M286.3427 85.4698
L286.2808 85.5317
" />
<path d="M286.2808 85.5317
L286.1570 85.5936
" />
<path d="M286.1570 85.5936
L285.6617 85.5936
" />
<path d="M285.6617 85.5936
L285.6617 84.2936
" />
<path d="M285.6617 84.2936
L286.0951 84.2936
" />
<path d="M286.0951 84.2936
L286.2189 84.3555
" />
<path d="M286.2189 84.3555
L286.2808 84.4174
" />
<path d="M286.2808 84.4174
L286.3427 84.5412
" />
<path d="M286.3427 84.5412
L286.3427 84.6650
" />
<path d="M286.3427 84.6650
L286.2808 84.7888
" />
<path d="M286.2808 84.7888
L286.2189 84.8507
" />
<path d="M286.2189 84.8507
L286.0951 84.9127
" />
<path d="M286.0951 84.9127
L285.6617 84.9127
" />
</g></g>
<g style="fill:none; 
stroke:#000000; stroke-width:0.1500; stroke-opacity:1; 
stroke-linecap:round; stroke-linejoin:round;">
<text x="286.0022" y="135.6500"
textLength="1.4900" font-size="1.7333" lengthAdjust="spacingAndGlyphs"
text-anchor="middle" opacity="0" stroke-opacity="0">C</text>
<g class="stroked-text"><desc>C</desc>
<path d="M286.4046 135.4698
L286.3427 135.5317
" />
<path d="M286.3427 135.5317
L286.1570 135.5936
" />
<path d="M286.1570 135.5936
L286.0332 135.5936
" />
<path d="M286.0332 135.5936
L285.8474 135.5317
" />
<path d="M285.8474 135.5317
L285.7236 135.4079
" />
<path d="M285.7236 135.4079
L285.6617 135.2841
" />
<path d="M285.6617 135.2841
L285.5998 135.0365
" />
<path d="M285.5998 135.0365
L285.5998 134.8507
" />
<path d="M285.5998 134.8507
L285.6617 134.6031
" />
<path d="M285.6617 134.6031
L285.7236 134.4793
" />
<path d="M285.7236 134.4793
L285.8474 134.3555
" />
<path d="M285.8474 134.3555
L286.0332 134.2936
" />
<path d="M286.0332 134.2936
L286.1570 134.2936
" />
<path d="M286.1570 134.2936
L286.3427 134.3555
" />
<path d="M286.3427 134.3555
L286.4046 134.4174
" />
</g></g>
<g style="fill:none; 
stroke:#000000; stroke-width:0.1500; stroke-opacity:1; 
stroke-linecap:round; stroke-linejoin:round;">
<text x="286.0022" y="185.6500"
textLength="1.4900" font-size="1.7333" lengthAdjust="spacingAndGlyphs"
text-anchor="middle" opacity="0" stroke-opacity="0">D</text>
<g class="stroked-text"><desc>D</desc>
<path d="M285.6617 185.5936
L285.6617 184.2936
" />
<path d="M285.6617 184.2936
L285.9712 184.2936
" />
<path d="M285.9712 184.2936
L286.1570 184.3555
" />
<path d="M286.1570 184.3555
L286.2808 184.4793
" />
<path d="M286.2808 184.4793
L286.3427 184.6031
" />
<path d="M286.3427 184.6031
L286.4046 184.8507
" />
<path d="M286.4046 184.8507
L286.4046 185.0365
" />
<path d="M286.4046 185.0365
L286.3427 185.2841
" />
<path d="M286.3427 185.2841
L286.2808 185.4079
" />
<path d="M286.2808 185.4079
L286.1570 185.5317
" />
<path d="M286.1570 185.5317
L285.9712 185.5936
" />
<path d="M285.9712 185.5936
L285.6617 185.5936
" />
</g></g>
<g style="fill:none; 
stroke:#000000; stroke-width:0.5000; stroke-opacity:1; 
stroke-linecap:round; stroke-linejoin:round;">
<text x="261.4022" y="195.2570"
textLength="1.7488" font-size="3.3333" lengthAdjust="spacingAndGlyphs"
text-anchor="start" opacity="0" stroke-opacity="0">1</text>
<g class="stroked-text"><desc>1</desc>
<path style="fill:#000000; fill-opacity:1.0000; stroke:none;fill-rule:evenodd;"
d="M 262.5477,192.6607
262.5477,194.5756
262.5499,194.6991
262.5622,194.8210
262.5666,194.8375
262.6454,194.9303
262.7692,194.9635
262.8377,194.9663
262.8909,194.9663
262.8909,195.0445
261.6648,195.0445
261.6648,194.9663
261.7264,194.9663
261.8545,194.9581
261.9395,194.9334
262.0256,194.8430
262.0445,194.7210
262.0482,194.5885
262.0482,194.5756
262.0482,193.3641
262.0443,193.2382
262.0323,193.1705
261.9749,193.1034
261.8779,193.0747
261.7539,193.0961
261.6654,193.1296
261.6342,193.0515
262.4909,192.6607
Z" /> 
</g></g>
<g style="fill:none; 
stroke:#000000; stroke-width:0.2000; stroke-opacity:1; 
stroke-linecap:round; stroke-linejoin:round;">
<path d="M131.9726 59.1483 A35.0000 35.0000 0.0 0 0 113.6725 86.5335" />
<path d="M162.9122 121.8952 A0.9999 0.9999 0.0 0 0 163.5004 120.9840" />
<path d="M132.5365 58.8462 A0.5000 0.5000 0.0 0 0 132.8004 58.4055" />
<path d="M133.5004 116.5519 A1.0001 1.0001 0.0 0 0 133.0165 115.6954" />
<path d="M164.2004 58.4055 A0.5000 0.5000 0.0 0 0 164.4643 58.8462" />
<path d="M133.5004 120.9840 A1.0000 1.0000 0.0 0 0 134.0886 121.8953" />
<path d="M163.9843 115.6954 A30.0000 30.0000 0.0 0 0 178.4951 90.5619" />
<path d="M182.8332 87.4985 A1.0000 1.0000 0.0 0 0 183.3283 86.5335" />
<path d="M132.5004 57.7442
L132.5365 57.7635
" />
<path d="M178.9950 89.7146 A1.0000 1.0000 0.0 0 0 178.4951 90.5619" />
<path d="M132.5365 58.8462
L131.9726 59.1483
" />
<path d="M164.5004 48.3001
L132.5004 48.3001
" />
<path d="M164.3504 57.8472 A0.4999 0.4999 0.0 0 0 164.2004 58.2042" />
<path d="M163.5004 120.9840
L163.5004 116.5519
" />
<path d="M133.5004 116.5519
L133.5004 120.9840
" />
<path d="M163.9843 115.6954 A0.9999 0.9999 0.0 0 0 163.5004 116.5519" />
<path d="M114.1676 87.4986
L118.0058 89.7146
" />
<path d="M118.5057 90.5619 A30.0000 30.0000 0.0 0 0 133.0165 115.6954" />
<path d="M134.0886 121.8953 A35.0000 35.0000 0.0 0 0 162.9122 121.8953" />
<path d="M132.8004 58.2042 A0.5001 0.5001 0.0 0 0 132.5365 57.7635" />
<path d="M132.8004 58.2042
L132.8004 58.4055
" />
<path d="M164.2004 58.4055
L164.2004 58.2042
" />
<path d="M165.0282 59.1483
L164.4643 58.8462
" />
<path d="M178.9950 89.7146
L182.8332 87.4985
" />
<path d="M183.3283 86.5335 A35.0000 35.0000 0.0 0 0 165.0282 59.1483" />
<path d="M164.5004 57.4901
L164.5004 48.3001
" />
<path d="M118.5056 90.5619 A1.0000 1.0000 0.0 0 0 118.0058 89.7146" />
<path d="M113.6725 86.5335 A1.0000 1.0000 0.0 0 0 114.1676 87.4986" />
<path d="M164.3504 57.8471 A0.4999 0.4999 0.0 0 0 164.5004 57.4901" />
<path d="M132.5004 48.3001
L132.5004 57.7442
" />
<path style="fill:#000000; fill-opacity:1.0000; 
stroke:#000000; stroke-width:0.0001; stroke-opacity:1; 
stroke-linecap:round; stroke-linejoin:round;fill-rule:evenodd;"
d="M 145.9204,58.6901
143.3204,58.6901
143.3204,58.4901
145.9204,58.4901
Z" /> 
<path style="fill:#000000; fill-opacity:1.0000; 
stroke:#000000; stroke-width:0.0001; stroke-opacity:1; 
stroke-linecap:round; stroke-linejoin:round;fill-rule:evenodd;"
d="M 153.0804,58.6901
151.0804,58.6901
151.0804,58.4901
153.0804,58.4901
Z" /> 
</g>
<g style="fill:none; 
stroke:#000000; stroke-width:0.1000; stroke-opacity:1; 
stroke-linecap:round; stroke-linejoin:round;">
<path d="M135.6068 107.3962
L135.5538 107.3432
" />
<path d="M148.4629 67.0951
L148.5379 67.0951
" />
<path d="M148.8754 66.5701
L148.5004 66.5701
" />
<path style="fill:#000000; fill-opacity:1.0000; 
stroke:#000000; stroke-width:0.0001; stroke-opacity:1; 
stroke-linecap:round; stroke-linejoin:round;fill-rule:evenodd;"
d="M 151.2804,58.4901
151.0804,58.4901
151.0804,55.8001
151.2804,55.8001
Z" /> 
</g>
<g style="fill:none; 
stroke:#000000; stroke-width:0.1000; stroke-opacity:1; 
stroke-linecap:round; stroke-linejoin:round;">
<path d="M165.4227 103.6379
L165.6879 103.3727
" />
<path style="fill:#000000; fill-opacity:1.0000; 
stroke:#000000; stroke-width:0.0001; stroke-opacity:1; 
stroke-linecap:round; stroke-linejoin:round;fill-rule:evenodd;"
d="M 136.0496,110.4209
134.9354,111.5351
134.7940,111.3937
135.9082,110.2795
Z" /> 
</g>
<g style="fill:none; 
stroke:#000000; stroke-width:0.1000; stroke-opacity:1; 
stroke-linecap:round; stroke-linejoin:round;">
<path d="M128.1000 99.3000
L128.3173 99.2418
" />
<path d="M128.8341 99.1421
L128.8147 99.0697
" />
<path d="M165.4757 103.9561
L165.7409 103.6909
" />
<path style="fill:#000000; fill-opacity:1.0000; stroke:none;fill-rule:evenodd;"
d="M 176.2004,78.2701
176.8504,78.2701
176.8504,78.8218
176.2004,78.8218
Z" /> 
<path style="fill:#000000; fill-opacity:1.0000; 
stroke:#000000; stroke-width:0.0001; stroke-opacity:1; 
stroke-linecap:round; stroke-linejoin:round;fill-rule:evenodd;"
d="M 162.6396,110.9293
162.4982,111.0707
161.3890,109.9615
161.5304,109.8201
Z" /> 
<path style="fill:#000000; fill-opacity:1.0000; 
stroke:#000000; stroke-width:0.0001; stroke-opacity:1; 
stroke-linecap:round; stroke-linejoin:round;fill-rule:evenodd;"
d="M 145.7204,48.5301
145.9204,48.5301
145.9204,54.4101
145.7204,54.4101
Z" /> 
</g>
<g style="fill:none; 
stroke:#000000; stroke-width:0.1000; stroke-opacity:1; 
stroke-linecap:round; stroke-linejoin:round;">
<path d="M135.2091 107.7409
L135.4743 108.0061
" />
<path d="M165.3962 103.2932
L165.3432 103.3462
" />
<path style="fill:#000000; fill-opacity:1.0000; stroke:none;fill-rule:evenodd;"
d="M 176.2104,83.5346
176.8604,83.5346
176.8604,84.0862
176.2104,84.0862
Z" /> 
<path style="fill:#000000; fill-opacity:1.0000; 
stroke:#000000; stroke-width:0.0001; stroke-opacity:1; 
stroke-linecap:round; stroke-linejoin:round;fill-rule:evenodd;"
d="M 162.2604,48.5301
162.4604,48.5301
162.4604,57.2401
162.2604,57.2401
Z" /> 
</g>
<g style="fill:none; 
stroke:#000000; stroke-width:0.1000; stroke-opacity:1; 
stroke-linecap:round; stroke-linejoin:round;">
<path d="M128.2203 98.8795
L128.3173 99.2418
" />
<path style="fill:#000000; fill-opacity:1.0000; 
stroke:#000000; stroke-width:0.0001; stroke-opacity:1; 
stroke-linecap:round; stroke-linejoin:round;fill-rule:evenodd;"
d="M 134.5404,48.5301
134.7404,48.5301
134.7404,57.2401
134.5404,57.2401
Z" /> 
</g>
<g style="fill:none; 
stroke:#000000; stroke-width:0.1000; stroke-opacity:1; 
stroke-linecap:round; stroke-linejoin:round;">
<path d="M148.6879 66.8326
L148.3129 66.8326
" />
<path d="M165.9000 103.8500
L165.7409 103.6909
" />
<path style="fill:#000000; fill-opacity:1.0000; 
stroke:#000000; stroke-width:0.0001; stroke-opacity:1; 
stroke-linecap:round; stroke-linejoin:round;fill-rule:evenodd;"
d="M 136.5804,58.6901
134.5804,58.6901
134.5804,58.4901
136.5804,58.4901
Z" /> 
</g>
<g style="fill:none; 
stroke:#000000; stroke-width:0.1000; stroke-opacity:1; 
stroke-linecap:round; stroke-linejoin:round;">
<path d="M165.7409 103.6909
L166.0061 103.4257
" />
<path d="M134.9439 107.4757
L135.2091 107.7409
" />
<path style="fill:#000000; fill-opacity:1.0000; 
stroke:#000000; stroke-width:0.0001; stroke-opacity:1; 
stroke-linecap:round; stroke-linejoin:round;fill-rule:evenodd;"
d="M 151.0804,48.5301
151.2804,48.5301
151.2804,54.4101
151.0804,54.4101
Z" /> 
</g>
<g style="fill:none; 
stroke:#000000; stroke-width:0.1000; stroke-opacity:1; 
stroke-linecap:round; stroke-linejoin:round;">
<path d="M148.5004 66.5701
L148.1254 66.5701
" />
<path d="M135.0500 107.9000
L135.2091 107.7409
" />
<path d="M170.3103 91.2197
L170.2909 91.2921
" />
<path d="M170.8077 91.3918
L170.9047 91.0295
" />
<path style="fill:#000000; fill-opacity:1.0000; 
stroke:#000000; stroke-width:0.0001; stroke-opacity:1; 
stroke-linecap:round; stroke-linejoin:round;fill-rule:evenodd;"
d="M 124.4856,90.1741
122.9704,90.5801
122.9186,90.3869
124.4338,89.9809
Z" /> 
</g>
<g style="fill:none; 
stroke:#000000; stroke-width:0.1000; stroke-opacity:1; 
stroke-linecap:round; stroke-linejoin:round;">
<path d="M148.5004 66.3451
L148.5004 66.5701
" />
<path d="M128.5224 98.9927
L128.6194 99.3549
" />
<path d="M171.0250 91.4500
L170.8077 91.3918
" />
<path style="fill:#000000; fill-opacity:1.0000; 
stroke:#000000; stroke-width:0.0001; stroke-opacity:1; 
stroke-linecap:round; stroke-linejoin:round;fill-rule:evenodd;"
d="M 162.4204,58.6901
159.8204,58.6901
159.8204,58.4901
162.4204,58.4901
Z" /> 
</g>
<g style="fill:none; 
stroke:#000000; stroke-width:0.1000; stroke-opacity:1; 
stroke-linecap:round; stroke-linejoin:round;">
<path d="M170.7106 91.7540
L170.8077 91.3918
" />
<path style="fill:#000000; fill-opacity:1.0000; 
stroke:#000000; stroke-width:0.0001; stroke-opacity:1; 
stroke-linecap:round; stroke-linejoin:round;fill-rule:evenodd;"
d="M 145.9204,58.4901
145.7204,58.4901
145.7204,55.8001
145.9204,55.8001
Z" /> 
</g>
<g style="fill:none; 
stroke:#000000; stroke-width:0.1000; stroke-opacity:1; 
stroke-linecap:round; stroke-linejoin:round;">
<path d="M170.5056 91.5049
L170.6026 91.1427
" />
<path style="fill:#000000; fill-opacity:1.0000; 
stroke:#000000; stroke-width:0.0001; stroke-opacity:1; 
stroke-linecap:round; stroke-linejoin:round;fill-rule:evenodd;"
d="M 174.2274,89.7629
174.1756,89.9561
172.6604,89.5501
172.7122,89.3569
Z" /> 
</g>
<g style="fill:none; 
stroke:#000000; stroke-width:0.1000; stroke-opacity:1; 
stroke-linecap:round; stroke-linejoin:round;">
<path d="M135.2621 107.4227
L135.5273 107.6879
" />
<path d="M128.3173 99.2418
L128.4144 99.6040
" />
</g>
<g style="fill:none; 
stroke:#000000; stroke-width:0.1600; stroke-opacity:1; 
stroke-linecap:round; stroke-linejoin:round;">
<text x="136.0504" y="98.1001"
textLength="4.7373" font-size="1.3333" lengthAdjust="spacingAndGlyphs"
text-anchor="middle" opacity="0" stroke-opacity="0">Amulet</text>
<g class="stroked-text"><desc>Amulet</desc>
<path style="fill:#000000; fill-opacity:1.0000; stroke:none;fill-rule:evenodd;"
d="M 134.2633,97.0995
134.2770,97.1029
134.3223,97.1243
134.3339,97.1331
134.3666,97.1705
134.3768,97.1886
134.3922,97.2262
134.4139,97.2735
134.4352,97.3202
134.4563,97.3664
134.4775,97.4130
134.4963,97.4541
134.5181,97.5014
134.5400,97.5493
134.5622,97.5977
134.5666,97.6075
134.5889,97.6559
134.6109,97.7038
134.6327,97.7512
134.6370,97.7606
134.6579,97.8060
134.6790,97.8524
134.6983,97.8949
134.7184,97.9395
134.7383,97.9848
134.7415,97.9921
134.7581,98.0324
134.7579,98.0771
134.7207,98.1001
134.6701,98.1001
134.6445,98.1001
134.6023,98.0979
134.5796,98.0908
134.5644,98.0779
134.5274,98.0391
134.4861,98.0068
134.4404,97.9810
134.4132,97.9694
134.3627,97.9532
134.3113,97.9427
134.2592,97.9379
134.2298,97.9377
134.1773,97.9415
134.1255,97.9507
134.0744,97.9653
134.0464,97.9758
133.9984,97.9983
133.9548,98.0255
133.9156,98.0574
133.8957,98.0771
133.8840,98.0903
133.8615,98.0979
133.8190,98.1001
133.7677,98.1001
133.7457,98.1001
133.7054,98.0776
133.7005,98.0320
133.7264,97.9763
133.7512,97.9230
133.7749,97.8720
133.7974,97.8233
133.8050,97.8070
134.0122,97.8070
134.0611,97.7927
134.1094,97.7828
134.1588,97.7758
134.2086,97.7721
134.2318,97.7716
134.2817,97.7726
134.3312,97.7770
134.3539,97.7801
134.4024,97.7886
134.4516,97.8009
134.4443,97.7855
134.4330,97.7616
134.4154,97.7242
134.3943,97.6793
134.3810,97.6509
134.3598,97.6055
134.3382,97.5588
134.3204,97.5200
134.2984,97.4716
134.2768,97.4242
134.2564,97.3794
134.2345,97.3315
134.2313,97.3244
134.2093,97.3711
134.1859,97.4210
134.1644,97.4674
134.1426,97.5151
134.1211,97.5626
134.1006,97.6077
134.0835,97.6453
134.0628,97.6908
134.0498,97.7198
134.0322,97.7606
134.0203,97.7887
134.0122,97.8070
133.8050,97.8070
133.8189,97.7769
133.8442,97.7222
133.8677,97.6711
133.8766,97.6517
133.8980,97.6051
133.9220,97.5527
133.9442,97.5041
133.9646,97.4594
133.9862,97.4122
133.9919,97.3996
134.0133,97.3532
134.0343,97.3079
134.0558,97.2626
134.0625,97.2489
134.0853,97.2032
134.1031,97.1708
134.1280,97.1363
134.1512,97.1192
134.1982,97.1000
134.2125,97.0977
Z" /> 
<path style="fill:#000000; fill-opacity:1.0000; stroke:none;fill-rule:evenodd;"
d="M 135.0014,97.9917
134.9896,98.0402
134.9713,98.0610
134.9256,98.0826
134.9064,98.0845
134.8588,98.0726
134.8419,98.0615
134.8154,98.0185
134.8126,97.9914
134.8126,97.6890
134.8156,97.6377
134.8259,97.5862
134.8436,97.5398
134.8697,97.4949
134.9014,97.4560
134.9257,97.4336
134.9659,97.4048
135.0096,97.3822
135.0407,97.3705
135.0890,97.3579
135.1378,97.3511
135.1706,97.3498
135.2203,97.3528
135.2687,97.3617
135.3116,97.3749
135.3586,97.3967
135.4010,97.4269
135.4200,97.4460
135.4604,97.4128
135.5051,97.3878
135.5343,97.3757
135.5831,97.3609
135.6332,97.3523
135.6801,97.3498
135.7309,97.3530
135.7808,97.3627
135.8035,97.3693
135.8505,97.3887
135.8934,97.4155
135.9117,97.4304
135.9474,97.4680
135.9748,97.5092
135.9884,97.5361
136.0048,97.5829
136.0144,97.6355
136.0172,97.6883
136.0172,97.9912
136.0057,98.0398
135.9879,98.0608
135.9427,98.0826
135.9234,98.0845
135.8757,98.0724
135.8584,98.0610
135.8313,98.0181
135.8284,97.9917
135.8284,97.6910
135.8211,97.6408
135.8142,97.6241
135.7863,97.5840
135.7783,97.5764
135.7362,97.5507
135.7273,97.5474
135.6779,97.5376
135.6686,97.5374
135.6200,97.5440
135.6093,97.5474
135.5657,97.5706
135.5585,97.5764
135.5268,97.6154
135.5223,97.6241
135.5100,97.6723
135.5092,97.6910
135.5092,97.9917
135.4977,98.0400
135.4798,98.0608
135.4348,98.0826
135.4156,98.0845
135.3677,98.0722
135.3504,98.0608
135.3235,98.0179
135.3206,97.9917
135.3206,97.6910
135.3133,97.6408
135.3064,97.6241
135.2785,97.5840
135.2705,97.5764
135.2279,97.5507
135.2188,97.5474
135.1707,97.5377
135.1596,97.5374
135.1099,97.5440
135.1008,97.5466
135.0570,97.5694
135.0500,97.5752
135.0190,97.6145
135.0146,97.6233
135.0022,97.6723
135.0014,97.6910
Z" /> 
<path style="fill:#000000; fill-opacity:1.0000; stroke:none;fill-rule:evenodd;"
d="M 136.8036,97.7684
136.8008,97.8211
136.7924,97.8695
136.7766,97.9179
136.7748,97.9220
136.7507,97.9682
136.7211,98.0079
136.6984,98.0307
136.6575,98.0618
136.6124,98.0858
136.5902,98.0945
136.5404,98.1082
136.4892,98.1150
136.4651,98.1157
136.4159,98.1126
136.3673,98.1034
136.3352,98.0937
136.2891,98.0742
136.2466,98.0484
136.2201,98.0278
136.1847,97.9918
136.1548,97.9499
136.1381,97.9186
136.1204,97.8713
136.1101,97.8195
136.1071,97.7684
136.1071,97.4607
136.1188,97.4111
136.1371,97.3898
136.1807,97.3678
136.2021,97.3654
136.2496,97.3777
136.2666,97.3891
136.2930,97.4330
136.2959,97.4607
136.2959,97.7684
136.3021,97.8185
136.3091,97.8383
136.3365,97.8803
136.3445,97.8881
136.3867,97.9145
136.3955,97.9179
136.4449,97.9279
136.4541,97.9282
136.5040,97.9209
136.5132,97.9179
136.5577,97.8940
136.5648,97.8881
136.5954,97.8492
136.6009,97.8383
136.6140,97.7900
136.6151,97.7684
136.6151,97.4607
136.6256,97.4120
136.6449,97.3889
136.6907,97.3673
136.7101,97.3654
136.7574,97.3777
136.7743,97.3891
136.8008,97.4330
136.8036,97.4607
Z" /> 
<path style="fill:#000000; fill-opacity:1.0000; stroke:none;fill-rule:evenodd;"
d="M 136.8965,97.1778
136.9070,97.1300
136.9265,97.1073
136.9722,97.0859
136.9915,97.0840
137.0390,97.0960
137.0559,97.1073
137.0824,97.1505
137.0853,97.1778
137.0853,97.9907
137.0738,98.0395
137.0559,98.0605
137.0108,98.0826
136.9915,98.0845
136.9438,98.0721
136.9265,98.0605
136.8994,98.0172
136.8965,97.9907
Z" /> 
<path style="fill:#000000; fill-opacity:1.0000; stroke:none;fill-rule:evenodd;"
d="M 137.1527,97.7335
137.1557,97.6830
137.1662,97.6304
137.1842,97.5808
137.2084,97.5350
137.2375,97.4934
137.2682,97.4595
137.3064,97.4267
137.3488,97.3992
137.3910,97.3788
137.4404,97.3623
137.4913,97.3526
137.5391,97.3498
137.5881,97.3526
137.5950,97.3534
137.6438,97.3636
137.6509,97.3657
137.6972,97.3824
137.7429,97.4059
137.7831,97.4348
137.8210,97.4704
137.8529,97.5085
137.8707,97.5352
137.8943,97.5796
137.9125,97.6279
137.9171,97.6453
137.9260,97.6948
137.9264,97.7445
137.9136,97.7917
137.8986,97.8131
137.8508,97.8295
137.8336,97.8258
137.7856,97.8140
137.7370,97.8071
137.6922,97.8051
137.6429,97.8075
137.6336,97.8085
137.5849,97.8167
137.5762,97.8187
137.5270,97.8171
137.5090,97.8065
137.4802,97.7668
137.4765,97.7538
137.4803,97.7039
137.4851,97.6925
137.5225,97.6597
137.5417,97.6546
137.5928,97.6466
137.6421,97.6419
137.6949,97.6406
137.7154,97.6412
137.6884,97.5992
137.6491,97.5680
137.6460,97.5662
137.6012,97.5465
137.5507,97.5376
137.5403,97.5374
137.4896,97.5434
137.4421,97.5614
137.4360,97.5647
137.3951,97.5961
137.3655,97.6363
137.3603,97.6463
137.3429,97.6923
137.3386,97.7436
137.3393,97.7499
137.3507,97.7975
137.3730,97.8402
137.4071,97.8784
137.4448,97.9045
137.4908,97.9222
137.5403,97.9282
137.5912,97.9221
137.6341,97.9067
137.6768,97.8969
137.7243,97.9108
137.7337,97.9179
137.7634,97.9568
137.7674,97.9672
137.7692,98.0161
137.7664,98.0254
137.7344,98.0651
137.7196,98.0737
137.6725,98.0935
137.6309,98.1055
137.5803,98.1138
137.5403,98.1157
137.4888,98.1124
137.4387,98.1023
137.3945,98.0874
137.3485,98.0654
137.3063,98.0382
137.2711,98.0090
137.2367,97.9720
137.2073,97.9303
137.1849,97.8883
137.1666,97.8382
137.1565,97.7898
137.1527,97.7387
Z" /> 
<path style="fill:#000000; fill-opacity:1.0000; stroke:none;fill-rule:evenodd;"
d="M 137.9926,97.3156
138.0056,97.2663
138.0227,97.2479
138.0684,97.2266
138.0876,97.2247
138.1367,97.2379
138.1514,97.2482
138.1772,97.2916
138.1800,97.3190
138.1800,97.4592
138.2552,97.4592
138.3045,97.4720
138.3228,97.4890
138.3442,97.5345
138.3460,97.5537
138.3334,97.6028
138.3236,97.6177
138.2817,97.6439
138.2552,97.6468
138.1800,97.6468
138.1791,97.6963
138.1778,97.7298
138.1797,97.7789
138.1870,97.8129
138.2124,97.8571
138.2303,97.8732
138.2778,97.8924
138.3269,97.8969
138.3311,97.8969
138.3795,97.9085
138.3995,97.9267
138.4202,97.9722
138.4220,97.9914
138.4094,98.0405
138.3995,98.0554
138.3577,98.0816
138.3311,98.0845
138.2819,98.0819
138.2319,98.0730
138.1861,98.0578
138.1414,98.0353
138.0997,98.0052
138.0801,97.9865
138.0488,97.9483
138.0226,97.9028
138.0151,97.8854
137.9997,97.8353
137.9930,97.7837
137.9926,97.7687
Z" /> 
</g></g>
<g style="fill:none; 
stroke:#000000; stroke-width:0.1500; stroke-opacity:1; 
stroke-linecap:round; stroke-linejoin:round;">
<text x="148.5004" y="61.7251"
textLength="0.5434" font-size="0.8000" lengthAdjust="spacingAndGlyphs"
text-anchor="middle" opacity="0" stroke-opacity="0">L</text>
<g class="stroked-text"><desc>L</desc>
<path style="fill:#000000; fill-opacity:1.0000; stroke:none;fill-rule:evenodd;"
d="M 148.7554,61.6741
148.7554,61.5330
148.4227,61.5330
148.4227,61.1301
148.2749,61.1301
148.2749,61.6741
Z" /> 
</g></g>
<g style="fill:none; 
stroke:#000000; stroke-width:0.1500; stroke-opacity:1; 
stroke-linecap:round; stroke-linejoin:round;">
<text x="148.5004" y="64.2651"
textLength="0.6483" font-size="0.8000" lengthAdjust="spacingAndGlyphs"
text-anchor="middle" opacity="0" stroke-opacity="0">H</text>
<g class="stroked-text"><desc>H</desc>
<path style="fill:#000000; fill-opacity:1.0000; stroke:none;fill-rule:evenodd;"
d="M 148.7785,64.2141
148.7785,63.6701
148.6314,63.6701
148.6314,63.8671
148.4180,63.8671
148.4180,64.0007
148.6314,64.0007
148.6314,64.2141
Z" /> 
<path style="fill:#000000; fill-opacity:1.0000; stroke:none;fill-rule:evenodd;"
d="M 148.3694,64.2141
148.3694,63.6701
148.2224,63.6701
148.2224,64.2141
Z" /> 
</g></g>
<g style="fill:none; 
stroke:#000000; stroke-width:0.1500; stroke-opacity:1; 
stroke-linecap:round; stroke-linejoin:round;">
<path d="M159.5186 103.1721
L160.4675 102.2232
" />
<path d="M160.4675 102.2232
L159.5186 103.1721
" />
<path d="M160.9979 104.6514
L161.9468 103.7024
" />
<path d="M161.9468 103.7024
L160.9979 104.6514
" />
</g>
<g style="fill:#000000; fill-opacity:1.0000; stroke:none;">
<circle cx="147.7504" cy="75.7001" r="0.1500" /> 
<circle cx="142.1504" cy="121.1501" r="0.2000" /> 
<path style="fill:#000000; fill-opacity:1.0000; stroke:none;fill-rule:evenodd;"
d="M 151.0994,57.1574
150.9407,57.1574
149.9076,57.1574
149.0122,57.1574
147.8514,57.1574
146.0601,57.1574
145.9014,57.1574
145.9014,56.4801
147.0107,56.4801
147.0184,56.5673
147.0415,56.6460
147.0800,56.7162
147.1339,56.7779
147.1997,56.8282
147.2739,56.8641
147.3565,56.8857
147.4476,56.8928
147.8514,56.8928
147.9200,56.8928
148.1651,56.8928
148.4674,56.3239
148.6084,56.5893
148.4090,56.5893
148.3150,56.7659
148.7023,56.7659
148.7709,56.8928
149.0122,56.8928
148.6088,56.1613
149.0948,56.1613
149.0948,56.8928
149.3107,56.8928
149.3107,56.3633
149.7361,56.8230
149.7964,56.8782
149.8631,56.8928
149.9076,56.8928
149.9695,56.8716
149.9901,56.8078
149.9901,56.0673
149.7755,56.0673
149.7755,56.5487
149.3856,56.1283
149.3272,56.0807
149.2510,56.0673
149.1976,56.0673
149.1205,56.0908
149.0948,56.1613
148.6088,56.1613
148.5906,56.1283
148.5487,56.0826
148.4915,56.0673
148.4407,56.0673
148.3836,56.0826
148.3416,56.1283
147.9200,56.8928
147.8514,56.8928
147.8514,56.6795
147.4323,56.6795
147.3525,56.6655
147.2882,56.6236
147.2458,56.5598
147.2317,56.4801
147.2458,56.3995
147.2882,56.3353
147.3525,56.2934
147.4323,56.2794
147.8514,56.2794
147.8514,56.0673
147.4476,56.0673
147.3565,56.0745
147.2739,56.0961
147.1997,56.1320
147.1339,56.1823
147.0800,56.2440
147.0415,56.3142
147.0184,56.3929
147.0107,56.4801
145.9014,56.4801
145.9014,55.8028
146.0601,55.8028
150.9407,55.8028
151.0994,55.8028
Z" /> 
<path style="fill:#000000; fill-opacity:1.0000; stroke:none;fill-rule:evenodd;"
d="M 162.8495,67.8109
162.6907,67.8109
160.4317,67.8109
158.0101,67.8109
157.8513,67.8109
157.7037,67.3188
160.0227,67.3188
160.0227,67.4801
160.2704,67.4801
160.2704,67.7316
160.4317,67.7316
160.4317,67.4801
160.6781,67.4801
160.6781,67.3188
160.4317,67.3188
160.4317,67.0686
160.2704,67.0686
160.2704,67.3188
160.0227,67.3188
157.7037,67.3188
157.6048,66.9893
157.8513,66.9893
158.0101,66.9893
162.6907,66.9893
162.8495,66.9893
163.0960,66.9893
Z" /> 
</g>
<g style="fill:none; 
stroke:#000000; stroke-width:0.1200; stroke-opacity:1; 
stroke-linecap:round; stroke-linejoin:round;">
<path d="M169.2004 86.2501
L169.2004 86.5001
" />
<path d="M169.2004 86.2501
L172.4504 86.2501
" />
<path d="M169.2004 89.5501
L169.2004 89.3001
" />
<path d="M172.5004 86.2501
L172.5004 86.5001
" />
<path d="M172.5004 89.5501
L169.2504 89.5501
" />
<path d="M172.5004 89.5501
L172.5004 89.3001
" />
</g>
<g style="fill:#000000; fill-opacity:1.0000; stroke:none;">
<circle cx="168.8004" cy="86.5501" r="0.1207" /> 
<circle cx="145.4754" cy="85.9251" r="0.1500" /> 
</g>
<g style="fill:none; 
stroke:#000000; stroke-width:0.1200; stroke-opacity:1; 
stroke-linecap:round; stroke-linejoin:round;">
<path d="M162.5868 105.9957
L161.8797 105.2886
" />
<path d="M164.4960 104.0865
L163.7889 103.3794
" />
</g>
<g style="fill:#000000; fill-opacity:1.0000; stroke:none;">
<circle cx="163.6121" cy="103.2026" r="0.1000" /> 
<circle cx="153.9504" cy="60.6001" r="0.2000" /> 
<circle cx="151.1822" cy="115.8748" r="0.1500" /> 
<circle cx="157.8504" cy="116.3001" r="0.1500" /> 
<path style="fill:#000000; fill-opacity:1.0000; stroke:none;fill-rule:evenodd;"
d="M 135.3419,111.7263
135.3615,111.7661
135.3411,111.8063
135.1601,111.9873
135.2729,112.1001
135.4623,111.9107
135.5053,111.8892
135.5482,111.9107
135.5669,111.9513
135.5440,111.9940
135.3066,112.2314
135.0329,111.9578
135.2628,111.7280
135.3028,111.7073
Z" /> 
<path style="fill:#000000; fill-opacity:1.0000; stroke:none;fill-rule:evenodd;"
d="M 136.8958,111.2675
136.7204,111.4429
136.5192,111.6441
135.8642,112.2990
135.4171,112.7461
134.6679,113.4954
134.4925,113.6707
133.3250,113.0421
133.5945,112.7727
133.7699,112.5973
133.9169,112.4503
134.2879,112.4503
134.2904,112.5084
134.5177,113.2947
134.6802,113.1322
134.5034,112.5547
134.7728,112.6372
134.6406,112.7694
134.6953,112.9487
134.9521,112.6919
135.0818,112.7307
135.2417,112.5707
134.4554,112.3434
134.3973,112.3409
134.3493,112.3686
134.3156,112.4023
134.2879,112.4503
133.9169,112.4503
134.3984,111.9687
134.7492,111.9687
135.2965,112.5160
135.6888,112.1237
135.7375,112.0654
135.7679,112.0063
135.7801,111.9464
135.7649,111.8598
135.7098,111.7810
135.6584,111.7399
135.6050,111.7174
135.5533,111.7135
135.5069,111.7280
135.5103,111.6412
135.4890,111.5954
135.4539,111.5520
135.3848,111.5031
135.3087,111.4876
135.2551,111.4977
135.2005,111.5261
135.1449,111.5731
134.7492,111.9687
134.3984,111.9687
135.0265,111.3407
135.4690,111.3407
135.4754,111.4018
135.4990,111.4582
135.5398,111.5099
135.5910,111.5502
135.6472,111.5735
135.7081,111.5798
135.7695,111.5694
135.8268,111.5427
135.8799,111.4998
136.1207,111.2590
136.1569,111.2430
136.1948,111.2607
136.2120,111.2982
136.1956,111.3340
135.7864,111.7431
135.9279,111.8846
136.3438,111.4687
136.3871,111.4150
136.4139,111.3573
136.4242,111.2956
136.4175,111.2342
136.3935,111.1774
136.3522,111.1252
136.3009,111.0848
136.2446,111.0614
136.1834,111.0549
136.1217,111.0651
136.0640,111.0919
136.0104,111.1353
135.7696,111.3760
135.7338,111.3916
135.6972,111.3744
135.6799,111.3377
135.6964,111.3028
136.1055,110.8936
135.9649,110.7530
135.5490,111.1689
135.5061,111.2221
135.4794,111.2793
135.4690,111.3407
135.0265,111.3407
135.8223,110.5448
135.9977,110.3695
Z" /> 
<path style="fill:#000000; fill-opacity:1.0000; stroke:none;fill-rule:evenodd;"
d="M 146.3495,67.7986
145.9526,67.7986
144.2393,67.7986
141.7482,67.7986
141.3513,67.7986
141.2918,67.6001
143.4615,67.6001
144.2393,67.6001
144.2393,67.2001
143.4615,67.2001
143.4615,67.6001
141.2918,67.6001
141.1122,67.0016
141.3513,67.0016
141.7482,67.0016
145.9526,67.0016
146.3495,67.0016
146.5885,67.0016
Z" /> 
<circle cx="149.2504" cy="81.3001" r="0.1500" /> 
<path style="fill:#000000; fill-opacity:1.0000; stroke:none;fill-rule:evenodd;"
d="M 178.0248,79.8301
178.0248,81.1636
178.0248,82.2024
178.0248,83.1473
178.0248,83.9303
178.0248,84.0890
176.7760,84.0890
176.7760,83.9303
176.7760,83.1473
177.0181,83.1473
177.3077,83.7518
177.3763,83.8014
177.4220,83.8014
177.4906,83.7518
177.7814,83.1473
177.5973,83.1473
177.3991,83.5728
177.2010,83.1473
177.0181,83.1473
176.7760,83.1473
176.7760,82.2024
177.0181,82.2024
177.3077,82.8070
177.3763,82.8565
177.4220,82.8565
177.4906,82.8070
177.7814,82.2024
177.5973,82.2024
177.3991,82.6279
177.2010,82.2024
177.0181,82.2024
176.7760,82.2024
176.7760,80.8601
176.9877,80.8601
176.9877,81.6894
177.1997,81.6894
177.1997,81.3858
177.8131,81.3858
177.8131,81.1636
177.1997,81.1636
177.1997,80.8601
176.9877,80.8601
176.7760,80.8601
176.7760,80.1958
176.9877,80.1958
176.9877,80.7648
177.8131,80.7648
177.8131,80.5438
177.1997,80.5438
177.1997,80.1958
177.2289,80.1209
177.3051,80.0917
177.3813,80.1209
177.4106,80.1958
177.4106,80.4803
177.6036,80.4803
177.6036,80.2848
177.8131,80.1196
177.8131,79.8301
177.5706,80.0384
177.5241,79.9680
177.4607,79.9145
177.3837,79.8807
177.2963,79.8695
177.2105,79.8796
177.1362,79.9101
177.0734,79.9609
177.0257,80.0276
176.9972,80.1060
176.9877,80.1958
176.7760,80.1958
176.7760,78.8370
176.9877,78.8370
176.9877,78.9297
177.0077,78.9957
177.0677,79.0338
177.5617,79.1824
177.0677,79.3323
177.0077,79.3707
176.9877,79.4377
176.9877,79.5304
177.0111,79.6018
177.0816,79.6383
177.8131,79.8060
177.8131,79.5862
177.2734,79.4643
177.7344,79.3208
177.7935,79.2834
177.8131,79.2167
177.8131,79.1494
177.7935,79.0827
177.7344,79.0452
177.2823,78.9017
177.8131,78.7798
177.8131,78.5588
177.0816,78.7277
177.0111,78.7652
176.9877,78.8370
176.7760,78.8370
176.7760,78.4299
176.7760,78.2712
178.0248,78.2712
178.0248,78.4299
178.0248,78.5588
Z" /> 
<circle cx="137.4504" cy="60.6001" r="0.2000" /> 
<path style="fill:#000000; fill-opacity:1.0000; stroke:none;fill-rule:evenodd;"
d="M 161.5530,110.0047
164.0164,112.4681
164.1216,112.5733
164.3911,112.8427
163.2236,113.4713
163.1184,113.3661
162.4987,112.7465
162.3659,112.6136
162.8690,112.6136
162.8793,112.6905
162.9047,112.7636
162.9452,112.8326
163.0008,112.8977
163.2938,113.1907
163.6272,112.8573
163.3098,112.5399
163.1927,112.6569
163.3704,112.8346
163.2955,112.9095
163.1321,112.7462
163.0885,112.6840
163.0736,112.6136
163.0878,112.5432
163.1313,112.4810
163.1941,112.4369
163.2647,112.4225
163.3351,112.4373
163.3973,112.4810
163.7004,112.7841
163.8410,112.6435
163.5480,112.3505
163.4829,112.2949
163.4139,112.2544
163.3408,112.2290
163.2639,112.2187
163.1873,112.2239
163.1152,112.2449
163.0477,112.2818
162.9848,112.3345
162.9321,112.3974
162.8952,112.4649
162.8742,112.5370
162.8690,112.6136
162.3659,112.6136
161.5993,111.8470
161.9501,111.8470
162.1126,112.0095
162.6901,111.8327
162.6076,112.1021
162.4755,111.9700
162.2961,112.0247
162.5529,112.2815
162.5142,112.4111
162.6741,112.5711
162.9015,111.7847
162.9040,111.7266
162.8762,111.6787
162.8425,111.6450
162.7945,111.6172
162.7364,111.6197
161.9501,111.8470
161.5993,111.8470
161.5474,111.7951
161.2247,111.4724
161.5755,111.4724
161.7228,111.6197
162.1294,111.2131
162.3306,111.4143
162.4712,111.2737
161.9215,110.7239
161.7809,110.8645
161.9821,111.0658
161.5755,111.4724
161.2247,111.4724
160.8587,111.1064
160.6550,110.9027
160.5497,110.7975
160.6199,110.7273
160.8304,110.7273
161.0341,110.9311
161.1059,110.9952
161.1757,111.0421
161.2434,111.0716
161.3090,111.0839
161.3735,111.0790
161.4377,111.0574
161.5017,111.0191
161.5654,110.9639
161.8634,110.6659
161.7152,110.5177
161.4315,110.8014
161.3676,110.8480
161.3039,110.8599
161.2363,110.8358
161.1604,110.7745
160.9718,110.5859
160.8304,110.7273
160.6199,110.7273
161.4478,109.8994
Z" /> 
<path style="fill:#000000; fill-opacity:1.0000; stroke:none;fill-rule:evenodd;"
d="M 159.8090,117.2073
159.8090,120.2077
159.8090,120.4557
158.1918,120.9409
158.1918,120.4557
158.1918,120.2077
158.1918,119.3314
158.6134,119.3314
158.6134,119.5386
159.1885,119.5386
159.1885,119.8648
159.1611,119.9350
159.0897,119.9624
159.0183,119.9350
158.9909,119.8648
158.9909,119.5981
158.8099,119.5981
158.8099,119.7815
158.6134,119.9362
158.6134,120.2077
158.8409,120.0124
158.8845,120.0784
158.9438,120.1285
159.0160,120.1602
159.0980,120.1708
159.1784,120.1613
159.2481,120.1327
159.3070,120.0851
159.3516,120.0225
159.3784,119.9491
159.3874,119.8648
159.3874,119.3314
158.6134,119.3314
158.1918,119.3314
158.1918,118.9909
158.1918,118.3408
158.6134,118.3408
158.6134,118.4277
158.6322,118.4905
158.6885,118.5265
159.1516,118.6670
158.6885,118.8063
158.6322,118.8421
158.6134,118.9040
158.6134,118.9909
158.6355,119.0581
158.7016,119.0933
159.3874,119.2516
159.3874,119.0445
158.8813,118.9302
159.3135,118.7956
159.3689,118.7605
159.3874,118.6980
159.3874,118.6349
159.3689,118.5730
159.3135,118.5373
158.8897,118.4027
159.3874,118.2884
159.3874,118.0824
158.7016,118.2396
158.6355,118.2738
158.6134,118.3408
158.1918,118.3408
158.1918,117.4145
158.1918,117.2073
158.6134,117.2073
158.6134,117.4145
159.1885,117.4145
159.1885,117.7252
159.1611,117.7955
159.0885,117.8229
159.0171,117.7955
158.9897,117.7252
158.9897,117.4740
158.8051,117.4740
158.8051,117.7217
158.8141,117.8067
158.8411,117.8807
158.8861,117.9437
158.9454,117.9917
159.0152,118.0205
159.0957,118.0300
159.1767,118.0205
159.2470,117.9917
159.3064,117.9437
159.3514,117.8807
159.3784,117.8067
159.3874,117.7217
159.3874,117.2073
158.6134,117.2073
158.1918,117.2073
158.1918,116.9593
159.8090,116.9593
Z" /> 
<circle cx="128.4354" cy="81.3001" r="0.1500" /> 
</g>
<g style="fill:none; 
stroke:#000000; stroke-width:0.1200; stroke-opacity:1; 
stroke-linecap:round; stroke-linejoin:round;">
<path d="M132.3361 101.6286
L132.8664 101.0983
" />
<path d="M133.4745 101.7064
L132.8664 101.0983
" />
<path d="M134.3796 102.6115
L134.9877 103.2196
" />
<path d="M134.4574 103.7499
L134.9877 103.2196
" />
</g>
<g style="fill:#000000; fill-opacity:1.0000; stroke:none;">
<circle cx="131.4522" cy="102.3004" r="0.2000" /> 
</g>
<g style="fill:none; 
stroke:#000000; stroke-width:0.1200; stroke-opacity:1; 
stroke-linecap:round; stroke-linejoin:round;">
<path d="M159.8004 60.2001
L160.8754 60.2001
" />
<path d="M159.8004 62.3001
L160.8754 62.3001
" />
<path d="M160.8754 60.7501
L160.8754 60.2001
" />
<path d="M160.8754 62.3001
L160.8754 61.7501
" />
</g>
<g style="fill:#000000; fill-opacity:1.0000; stroke:none;">
<circle cx="158.4004" cy="60.6001" r="0.2000" /> 
</g>
<g style="fill:none; 
stroke:#000000; stroke-width:0.1000; stroke-opacity:1; 
stroke-linecap:round; stroke-linejoin:round;">
<path d="M159.8311 97.7274
L160.1847 98.0809
" />
<path d="M161.2453 99.1416
L160.8918 98.7881
" />
<path d="M161.5989 95.9596
L161.9524 95.6061
" />
<path d="M163.0131 97.3738
L163.3667 97.0203
" />
</g>
<g style="fill:#000000; fill-opacity:1.0000; stroke:none;">
<circle cx="161.0332" cy="99.2830" r="0.1000" /> 
<circle cx="168.5504" cy="75.7001" r="0.1500" /> 
<path style="fill:#000000; fill-opacity:1.0000; stroke:none;fill-rule:evenodd;"
d="M 173.1351,88.3189
176.2158,89.1443
176.3499,89.1803
176.3866,90.4173
176.0431,90.3252
175.9090,90.2893
175.5333,90.1886
174.2882,89.8550
173.8314,89.7326
174.7259,89.7326
174.9492,89.7924
175.2143,89.6058
175.3560,89.9014
175.5932,89.9650
175.3813,89.5194
175.4735,89.4551
175.7597,89.4551
175.8435,89.4775
175.8931,89.5133
175.8995,89.5731
175.7810,90.0153
175.9689,90.0657
176.0974,89.5859
176.1064,89.5235
176.0986,89.4652
176.0741,89.4111
176.0355,89.3646
175.9855,89.3295
175.9240,89.3058
175.8081,89.2748
175.7597,89.4551
175.4735,89.4551
175.7533,89.2601
175.5301,89.2003
175.2952,89.3640
175.1748,89.1051
174.9375,89.0415
175.1293,89.4507
174.7259,89.7326
173.8314,89.7326
173.7515,89.7112
172.8284,89.4638
172.6942,89.4279
172.7445,89.2402
172.8883,89.2402
173.0954,89.2957
173.4797,88.8833
173.5388,89.1396
173.3703,89.0944
173.2509,89.2223
173.5782,89.3100
173.6074,89.4329
173.8114,89.4876
173.7626,89.2899
173.9429,89.2899
173.9534,89.3702
173.9868,89.4448
174.0396,89.5088
174.1085,89.5572
174.1935,89.5899
174.3481,89.6314
174.4380,89.6455
174.5219,89.6381
174.5997,89.6090
174.6659,89.5611
174.7151,89.4968
174.7474,89.4162
174.8538,89.0191
174.6649,88.9685
174.5622,89.3517
174.5383,89.4035
174.4986,89.4387
174.4485,89.4551
174.3932,89.4502
174.2450,89.4105
174.1947,89.3871
174.1594,89.3478
174.1427,89.2975
174.1479,89.2406
174.2506,88.8574
174.0617,88.8068
173.9552,89.2040
173.9429,89.2899
173.7626,89.2899
173.6282,88.7459
173.6031,88.6978
173.5582,88.6719
173.5153,88.6604
173.4636,88.6604
173.4178,88.6895
172.8883,89.2402
172.7445,89.2402
173.0010,88.2829
Z" /> 
</g>
<g style="fill:none; 
stroke:#000000; stroke-width:0.1200; stroke-opacity:1; 
stroke-linecap:round; stroke-linejoin:round;">
<path d="M127.1281 103.6404
L128.1534 102.6151
" />
<path d="M128.1534 102.6151
L129.4262 103.8879
" />
<path d="M134.8851 111.3974
L135.9104 110.3721
" />
<path d="M135.9104 110.3721
L134.6376 109.0993
" />
</g>
<g style="fill:#000000; fill-opacity:1.0000; stroke:none;">
<circle cx="129.6914" cy="103.4601" r="0.2000" /> 
</g>
<g style="fill:none; 
stroke:#000000; stroke-width:0.1000; stroke-opacity:1; 
stroke-linecap:round; stroke-linejoin:round;">
<path d="M122.1004 85.8781
L122.1004 85.7381
" />
<path d="M122.1004 87.9381
L122.1004 87.7981
" />
<path d="M122.2404 85.7381
L122.1004 85.7381
" />
<path d="M122.2404 87.9381
L122.1004 87.9381
" />
<path d="M123.5404 85.7381
L122.8604 85.7381
" />
<path d="M124.1604 85.7381
L124.3004 85.7381
" />
<path d="M124.1604 87.9381
L124.3004 87.9381
" />
<path d="M124.3004 85.8781
L124.3004 85.7381
" />
<path d="M124.3004 87.7981
L124.3004 87.9381
" />
</g>
<g style="fill:#000000; fill-opacity:1.0000; stroke:none;">
<circle cx="124.5004" cy="88.1381" r="0.1200" /> 
</g>
<g style="fill:none; 
stroke:#000000; stroke-width:0.1000; stroke-opacity:1; 
stroke-linecap:round; stroke-linejoin:round;">
<path d="M141.3586 108.5001
L141.9950 107.8637
" />
<path d="M141.3586 108.5001
L141.9950 109.1365
" />
<path d="M148.5004 101.3583
L147.8640 101.9947
" />
<path d="M148.5004 101.3583
L149.1368 101.9947
" />
<path d="M148.5004 115.6419
L147.8640 115.0055
" />
<path d="M148.5004 115.6419
L149.1368 115.0055
" />
<path d="M155.6422 108.5001
L155.0058 107.8637
" />
<path d="M155.6422 108.5001
L155.0058 109.1365
" />
</g>
<g style="fill:#000000; fill-opacity:1.0000; stroke:none;">
<circle cx="155.7129" cy="107.6516" r="0.2500" /> 
<circle cx="164.5100" cy="88.3500" r="0.1500" /> 
</g>
<g style="fill:none; 
stroke:#000000; stroke-width:0.1200; stroke-opacity:1; 
stroke-linecap:round; stroke-linejoin:round;">
<path d="M169.2455 102.5130
L169.7114 100.7744
" />
<path d="M170.6461 102.8883
L169.2455 102.5130
" />
<path d="M172.7318 89.5020
L172.2659 91.2407
" />
<path d="M174.1324 89.8773
L172.7318 89.5020
" />
</g>
<g style="fill:#000000; fill-opacity:1.0000; stroke:none;">
<circle cx="169.1954" cy="100.8069" r="0.2000" /> 
<path style="fill:#000000; fill-opacity:1.0000; stroke:none;fill-rule:evenodd;"
d="M 138.0751,119.4110
138.1349,119.4499
138.1742,119.5092
138.1873,119.5838
138.1873,119.8350
137.8123,119.8350
137.8123,119.5838
137.8254,119.5092
137.8647,119.4499
137.9248,119.4110
138.0004,119.3981
Z" /> 
<path style="fill:#000000; fill-opacity:1.0000; stroke:none;fill-rule:evenodd;"
d="M 138.1793,118.4920
138.1933,118.5384
138.1933,118.8742
137.8063,118.8742
137.8063,118.5492
137.8200,118.5063
137.8611,118.4920
137.9031,118.5063
137.9171,118.5492
137.9171,118.8051
138.0766,118.8051
138.0766,118.5373
138.0918,118.4917
138.1373,118.4765
Z" /> 
<path style="fill:#000000; fill-opacity:1.0000; stroke:none;fill-rule:evenodd;"
d="M 138.8090,118.5277
138.8090,119.5981
138.8090,120.1588
138.8090,120.4069
138.8090,120.8921
137.1918,120.4069
137.1918,120.1588
137.1918,119.5981
137.6134,119.5981
137.6134,120.0434
138.3874,120.0434
138.3874,119.5981
138.3806,119.5128
138.3604,119.4354
138.3267,119.3660
138.2796,119.3046
138.2217,119.2543
138.1559,119.2184
138.0821,119.1969
138.0004,119.1897
137.9187,119.1969
137.8449,119.2184
137.7791,119.2543
137.7212,119.3046
137.6741,119.3660
137.6404,119.4354
137.6202,119.5128
137.6134,119.5981
137.1918,119.5981
137.1918,118.5230
137.6134,118.5230
137.6134,119.0826
138.3874,119.0826
138.3874,118.5277
138.3806,118.4521
138.3604,118.3888
138.3266,118.3378
138.2546,118.2874
138.1599,118.2706
138.0945,118.2778
138.0409,118.2997
138.0016,118.3335
137.9790,118.3765
137.9200,118.3128
137.8726,118.2954
137.8170,118.2896
137.7336,118.3039
137.6688,118.3468
137.6381,118.3917
137.6196,118.4505
137.6134,118.5230
137.1918,118.5230
137.1918,117.3716
137.6134,117.3716
137.6134,117.7860
137.6202,117.8713
137.6404,117.9488
137.6741,118.0184
137.7212,118.0801
137.7791,118.1306
137.8449,118.1667
137.9187,118.1883
138.0004,118.1955
138.0821,118.1883
138.1559,118.1667
138.2217,118.1306
138.2796,118.0801
138.3267,118.0184
138.3604,117.9488
138.3806,117.8713
138.3874,117.7860
138.3874,117.3716
137.9159,117.3716
137.9159,117.8205
138.0814,117.8205
138.0814,117.5693
138.1873,117.5693
138.1873,117.8003
138.1742,117.8751
138.1349,117.9354
138.0751,117.9751
138.0004,117.9884
137.9248,117.9751
137.8647,117.9354
137.8254,117.8751
137.8123,117.8003
137.8123,117.3716
137.6134,117.3716
137.1918,117.3716
137.1918,117.2562
137.1918,117.0081
138.8090,117.0081
138.8090,117.2562
138.8090,117.3716
Z" /> 
<path style="fill:#000000; fill-opacity:1.0000; stroke:none;fill-rule:evenodd;"
d="M 139.1495,67.8109
138.9907,67.8109
136.7317,67.8109
134.3101,67.8109
134.1513,67.8109
134.0037,67.3188
136.3227,67.3188
136.3227,67.4801
136.5704,67.4801
136.5704,67.7316
136.7317,67.7316
136.7317,67.4801
136.9781,67.4801
136.9781,67.3188
136.7317,67.3188
136.7317,67.0686
136.5704,67.0686
136.5704,67.3188
136.3227,67.3188
134.0037,67.3188
133.9048,66.9893
134.1513,66.9893
134.3101,66.9893
138.9907,66.9893
139.1495,66.9893
139.3960,66.9893
Z" /> 
</g>
<g style="fill:none; 
stroke:#000000; stroke-width:0.1200; stroke-opacity:1; 
stroke-linecap:round; stroke-linejoin:round;">
<path d="M157.4340 98.6254
L156.6279 99.4315
" />
<path d="M160.3473 101.5387
L159.5412 102.3448
" />
</g>
<g style="fill:#000000; fill-opacity:1.0000; stroke:none;">
<circle cx="139.6200" cy="88.3500" r="0.1500" /> 
<path style="fill:#000000; fill-opacity:1.0000; stroke:none;fill-rule:evenodd;"
d="M 139.6843,48.5286
140.6368,48.5286
145.5696,48.5286
145.7284,48.5286
145.7284,49.6716
145.5696,49.6716
134.8912,49.6716
134.7324,49.6716
134.7324,48.7724
139.6017,48.7724
139.6017,49.5129
139.8164,49.5129
139.8164,49.0315
140.2063,49.4519
140.2647,49.4995
140.3409,49.5129
140.3942,49.5129
140.6368,49.5129
140.8590,49.5129
140.8590,48.6873
140.6368,48.6873
140.6368,49.5129
140.3942,49.5129
140.4714,49.4894
140.4971,49.4189
140.4971,48.6873
140.2812,48.6873
140.2812,49.2169
139.8558,48.7572
139.7954,48.7020
139.7287,48.6873
139.6843,48.6873
139.6224,48.7086
139.6017,48.7724
134.7324,48.7724
134.7324,48.5286
134.8912,48.5286
Z" /> 
<circle cx="136.8400" cy="88.3550" r="0.1500" /> 
</g>
<g style="fill:none; 
stroke:#000000; stroke-width:0.1200; stroke-opacity:1; 
stroke-linecap:round; stroke-linejoin:round;">
<path d="M161.5297 109.9025
L162.8025 108.6297
" />
<path d="M162.5550 110.9278
L161.5297 109.9025
" />
<path d="M168.4028 103.0294
L167.1300 104.3022
" />
<path d="M169.4281 104.0547
L168.4028 103.0294
" />
</g>
<g style="fill:#000000; fill-opacity:1.0000; stroke:none;">
<circle cx="162.3570" cy="108.3822" r="0.2000" /> 
<path style="fill:#000000; fill-opacity:1.0000; stroke:none;fill-rule:evenodd;"
d="M 124.4381,89.9866
124.3136,90.0200
124.3036,90.0226
123.6149,90.2072
122.4587,90.5170
121.9603,90.6505
121.1031,90.8802
121.0616,90.8913
120.7427,90.9768
120.7517,90.6725
121.0475,90.6725
121.2399,90.6210
121.3574,90.1109
121.5239,90.2896
121.3674,90.3315
121.3308,90.4898
121.6348,90.4084
121.7153,90.4936
121.9047,90.4429
121.4130,89.9315
121.3705,89.9044
121.3224,89.9045
121.2826,89.9152
121.2409,89.9392
121.2176,89.9839
121.0475,90.6725
120.7517,90.6725
120.7767,89.8282
120.8183,89.8170
120.9593,89.7792
121.7899,89.7792
121.8887,90.1480
121.9187,90.2228
121.9644,90.2825
122.0259,90.3271
122.0981,90.3540
122.1760,90.3609
122.2595,90.3478
122.4030,90.3093
122.4819,90.2789
122.5459,90.2340
122.5950,90.1746
122.6260,90.1053
122.6357,90.0307
122.6243,89.9509
122.5255,89.5821
122.3500,89.6291
122.4454,89.9850
122.4502,90.0378
122.4347,90.0845
122.4020,90.1209
122.3552,90.1427
122.2176,90.1795
122.1662,90.1841
122.1197,90.1689
122.0829,90.1362
122.0606,90.0881
121.9653,89.7322
121.7899,89.7792
120.9593,89.7792
121.7726,89.5613
122.6032,89.5613
122.9474,89.8013
122.7539,90.2153
122.9612,90.1598
123.0878,89.8866
123.3389,90.0586
123.5592,89.9995
123.1819,89.7396
123.3607,89.3583
123.1534,89.4139
123.0405,89.6546
122.8235,89.5023
122.6032,89.5613
121.7726,89.5613
122.6417,89.3284
123.4723,89.3284
123.5169,89.4949
123.9136,89.3886
123.9456,89.3923
123.9650,89.4208
123.9626,89.4556
123.9369,89.4753
123.7166,89.5343
123.6613,89.5555
123.6162,89.5866
123.5814,89.6277
123.5537,89.7009
123.5598,89.7825
123.6140,89.9848
124.2479,89.8150
124.2031,89.6475
123.7436,89.7707
123.7305,89.7218
123.7597,89.6713
123.9810,89.6120
124.0368,89.5906
124.0820,89.5593
124.1165,89.5180
124.1383,89.4696
124.1451,89.4172
124.1369,89.3608
124.1159,89.3083
124.0838,89.2663
124.0407,89.2349
123.9900,89.2158
123.9351,89.2110
123.8760,89.2203
123.4723,89.3284
122.6417,89.3284
124.0287,88.9568
124.1533,88.9234
Z" /> 
</g>
<g style="fill:none; 
stroke:#000000; stroke-width:0.1200; stroke-opacity:1; 
stroke-linecap:round; stroke-linejoin:round;">
<path d="M143.2504 60.2001
L144.3254 60.2001
" />
<path d="M143.2504 62.3001
L144.3254 62.3001
" />
<path d="M144.3254 60.7501
L144.3254 60.2001
" />
<path d="M144.3254 62.3001
L144.3254 61.7501
" />
</g>
<g style="fill:#000000; fill-opacity:1.0000; stroke:none;">
<circle cx="141.8504" cy="60.6001" r="0.2000" /> 
</g>
<g style="fill:none; 
stroke:#000000; stroke-width:0.1500; stroke-opacity:1; 
stroke-linecap:round; stroke-linejoin:round;">
<path d="M154.3213 97.9749
L155.2703 97.0259
" />
<path d="M155.2703 97.0259
L154.3213 97.9749
" />
<path d="M155.8006 99.4542
L156.7496 98.5052
" />
<path d="M156.7496 98.5052
L155.8006 99.4542
" />
</g>
<g style="fill:#000000; fill-opacity:1.0000; stroke:none;">
<circle cx="159.1700" cy="88.3500" r="0.1500" /> 
<circle cx="154.8504" cy="117.8501" r="0.2000" /> 
<circle cx="153.6750" cy="83.3000" r="0.1500" /> 
</g>
<g style="fill:none; 
stroke:#000000; stroke-width:0.1200; stroke-opacity:1; 
stroke-linecap:round; stroke-linejoin:round;">
<path d="M169.2397 94.7085
L168.2738 94.4497
" />
<path d="M169.9385 92.1005
L168.9726 91.8417
" />
</g>
<g style="fill:#000000; fill-opacity:1.0000; stroke:none;">
<circle cx="168.7311" cy="91.7770" r="0.1000" /> 
<circle cx="131.4900" cy="88.3550" r="0.1500" /> 
<circle cx="136.8504" cy="116.3001" r="0.1500" /> 
<circle cx="142.9751" cy="116.3183" r="0.1500" /> 
<circle cx="161.7900" cy="85.7000" r="0.1500" /> 
<path style="fill:#000000; fill-opacity:1.0000; stroke:none;fill-rule:evenodd;"
d="M 155.6495,67.7986
155.2526,67.7986
153.5393,67.7986
151.0482,67.7986
150.6513,67.7986
150.5918,67.6001
152.7615,67.6001
153.5393,67.6001
153.5393,67.2001
152.7615,67.2001
152.7615,67.6001
150.5918,67.6001
150.4123,67.0016
150.6513,67.0016
151.0482,67.0016
155.2526,67.0016
155.6495,67.0016
155.8885,67.0016
Z" /> 
</g>
<g style="fill:none; 
stroke:#000000; stroke-width:0.1200; stroke-opacity:1; 
stroke-linecap:round; stroke-linejoin:round;">
<path d="M127.6401 94.8181
L128.6060 94.5592
" />
<path d="M128.3389 97.4261
L129.3048 97.1672
" />
</g>
<g style="fill:#000000; fill-opacity:1.0000; stroke:none;">
<circle cx="129.5463" cy="97.1025" r="0.1000" /> 
<circle cx="140.8251" cy="114.2183" r="0.1500" /> 
</g>
<g style="fill:none; 
stroke:#000000; stroke-width:0.1200; stroke-opacity:1; 
stroke-linecap:round; stroke-linejoin:round;">
<path d="M134.7756 104.0681
L135.3059 103.5378
" />
<path d="M135.9140 104.1459
L135.3059 103.5378
" />
<path d="M136.8191 105.0510
L137.4272 105.6591
" />
<path d="M136.8969 106.1894
L137.4272 105.6591
" />
</g>
<g style="fill:#000000; fill-opacity:1.0000; stroke:none;">
<circle cx="133.8917" cy="104.7399" r="0.2000" /> 
</g>
<g style="fill:none; 
stroke:#000000; stroke-width:0.1200; stroke-opacity:1; 
stroke-linecap:round; stroke-linejoin:round;">
<path d="M117.1404 84.0501
L117.1404 82.9101
" />
<path d="M121.2604 84.0501
L121.2604 82.9101
" />
<path style="fill:#000000; fill-opacity:1.0000; stroke:none;fill-rule:evenodd;"
d="M 157.9044,48.9147
157.9686,48.9566
158.0110,49.0204
158.0252,49.1001
158.0110,49.1807
157.9686,49.2449
157.9044,49.2868
157.8245,49.3008
157.6746,49.3008
157.5949,49.2868
157.5311,49.2449
157.4892,49.1807
157.4752,49.1001
157.4892,49.0204
157.5311,48.9566
157.5949,48.9147
157.6746,48.9007
157.8245,48.9007
Z" /> 
<path style="fill:#000000; fill-opacity:1.0000; stroke:none;fill-rule:evenodd;"
d="M 155.5982,48.5286
156.5888,48.5286
157.6899,48.5286
162.1096,48.5286
162.2684,48.5286
162.2684,49.6716
162.1096,49.6716
151.4312,49.6716
151.2724,49.6716
151.2724,49.3008
155.2947,49.3008
155.2947,49.5129
156.1240,49.5129
156.1240,49.3008
155.8204,49.3008
155.8204,49.0429
156.2116,49.0429
156.2116,49.5129
156.4351,49.5129
156.4351,49.0595
156.4462,48.9952
156.4796,48.9445
156.5301,48.9117
156.5926,48.9007
156.7679,48.9007
156.8304,48.9117
156.8809,48.9445
156.9142,48.9952
156.9253,49.0595
156.9253,49.5129
157.1489,49.5129
157.1489,49.1001
157.2543,49.1001
157.2619,49.1873
157.2849,49.2660
157.3232,49.3362
157.3768,49.3979
157.4423,49.4482
157.5164,49.4841
157.5989,49.5057
157.6899,49.5129
157.8093,49.5129
157.9003,49.5057
157.9829,49.4841
158.0571,49.4482
158.1230,49.3979
158.1768,49.3362
158.2153,49.2660
158.2384,49.1873
158.2461,49.1001
158.2384,49.0129
158.2153,48.9342
158.1768,48.8640
158.1230,48.8023
158.0571,48.7520
157.9829,48.7161
157.9003,48.6945
157.8093,48.6873
157.6899,48.6873
157.5989,48.6945
157.5164,48.7161
157.4423,48.7520
157.3768,48.8023
157.3232,48.8640
157.2849,48.9342
157.2619,49.0129
157.2543,49.1001
157.1489,49.1001
157.1489,49.0429
157.1371,48.9445
157.1017,48.8589
157.0428,48.7864
156.9656,48.7314
156.8752,48.6984
156.7717,48.6873
156.5888,48.6873
156.4853,48.6984
156.3949,48.7314
156.3176,48.7864
156.2587,48.8589
156.2234,48.9445
156.2116,49.0429
155.8204,49.0429
155.8204,48.6873
155.5982,48.6873
155.5982,49.3008
155.2947,49.3008
151.2724,49.3008
151.2724,48.5286
151.4312,48.5286
Z" /> 
</g>
<g style="fill:none; 
stroke:#000000; stroke-width:0.1200; stroke-opacity:1; 
stroke-linecap:round; stroke-linejoin:round;">
<path d="M144.1022 94.7501
L144.4381 95.0860
" />
<path d="M144.4381 94.4142
L144.1022 94.7501
" />
<path d="M148.1645 90.6878
L148.5004 90.3519
" />
<path d="M148.5004 90.3519
L148.8363 90.6878
" />
<path d="M148.5004 99.1483
L148.1645 98.8124
" />
<path d="M148.8363 98.8124
L148.5004 99.1483
" />
<path d="M152.5627 94.4142
L152.8986 94.7501
" />
<path d="M152.5627 95.0860
L152.8986 94.7501
" />
</g>
<g style="fill:#000000; fill-opacity:1.0000; stroke:none;">
<circle cx="153.2734" cy="94.7501" r="0.1793" /> 
<circle cx="156.2504" cy="81.3001" r="0.1500" /> 
<circle cx="133.8700" cy="85.7000" r="0.1500" /> 
</g>
<g style="fill:none; 
stroke:#000000; stroke-width:0.1200; stroke-opacity:1; 
stroke-linecap:round; stroke-linejoin:round;">
<path d="M123.0102 90.5010
L124.4107 90.1257
" />
<path d="M124.4107 90.1257
L124.8766 91.8644
" />
<path d="M126.1729 102.3046
L127.5735 101.9293
" />
<path d="M127.5735 101.9293
L127.1076 100.1907
" />
</g>
<g style="fill:#000000; fill-opacity:1.0000; stroke:none;">
<circle cx="125.3137" cy="91.6023" r="0.2000" /> 
<circle cx="140.7504" cy="75.7001" r="0.1500" /> 
<circle cx="154.6572" cy="112.3998" r="0.1500" /> 
</g>
<g style="fill:none; 
stroke:#000000; stroke-width:0.1524; stroke-opacity:1; 
stroke-linecap:round; stroke-linejoin:round;">
<path d="M172.1176 78.3480
L172.1176 78.7418
" />
<path d="M172.1176 80.1184
L172.1176 80.4918
" />
<path d="M172.1176 81.8684
L172.1176 82.2418
" />
<path d="M172.1176 83.6184
L172.1176 84.0122
" />
<path d="M172.1176 84.0122
L176.2832 84.0122
" />
<path d="M176.2832 78.3480
L172.1176 78.3480
" />
<path d="M176.2832 78.7418
L176.2832 78.3480
" />
<path d="M176.2832 80.4918
L176.2832 80.1184
" />
<path d="M176.2832 82.2418
L176.2832 81.8684
" />
<path d="M176.2832 84.0122
L176.2832 83.6184
" />
</g>
<g style="fill:#000000; fill-opacity:1.0000; stroke:none;">
<circle cx="176.7004" cy="83.7801" r="0.1500" /> 
</g>
<g style="fill:none; 
stroke:#000000; stroke-width:0.1200; stroke-opacity:1; 
stroke-linecap:round; stroke-linejoin:round;">
<path d="M168.4090 97.8016
L167.4430 97.5428
" />
<path d="M169.1078 95.1936
L168.1418 94.9348
" />
</g>
<g style="fill:#000000; fill-opacity:1.0000; stroke:none;">
<circle cx="167.9004" cy="94.8701" r="0.1000" /> 
</g> 
</svg>
